<?xml version="1.0" standalone="no"?>
<!DOCTYPE svg PUBLIC "-//W3C//DTD SVG 20010904//EN"
 "http://www.w3.org/TR/2001/REC-SVG-20010904/DTD/svg10.dtd">
<svg version="1.0" xmlns="http://www.w3.org/2000/svg"
 width="848.000000pt" height="848.000000pt" viewBox="0 0 848.000000 848.000000"
 preserveAspectRatio="xMidYMid meet">
<style>
  path {
    fill: #153a51;
  }

  @media (prefers-color-scheme: dark) {
    path {
      fill: #000000;
    }
  }
</style>
<g transform="translate(0.000000,848.000000) scale(0.100000,-0.100000)"
fill="#000000" stroke="none">
<path d="M5173 6802 c-48 -97 -87 -179 -88 -182 0 -3 -33 -70 -72 -150 -39
-80 -110 -226 -158 -325 -48 -99 -117 -241 -153 -315 -36 -74 -65 -138 -64
-142 1 -5 -3 -8 -8 -8 -6 0 -10 -4 -10 -10 0 -5 -38 -88 -85 -184 -47 -97 -90
-186 -95 -198 -6 -13 -14 -30 -20 -38 -5 -8 -46 -91 -91 -185 -150 -312 -236
-488 -349 -720 -62 -126 -137 -282 -166 -345 -30 -63 -59 -122 -64 -130 -5 -8
-17 -31 -26 -50 -34 -73 -268 -555 -405 -836 -32 -67 -59 -126 -59 -132 0 -6
-5 -12 -11 -14 -5 -2 -12 -10 -14 -18 -8 -38 -18 -60 -26 -60 -5 0 -9 -4 -9
-10 0 -5 -21 -54 -47 -110 -39 -83 -51 -99 -66 -94 -10 3 -74 41 -143 85 -69
43 -130 79 -135 79 -5 0 -9 5 -9 10 0 6 -4 10 -10 10 -5 0 -48 25 -95 55 -46
30 -89 55 -95 55 -5 0 -10 4 -10 9 0 5 -8 11 -17 15 -19 6 -489 297 -510 315
-7 6 -15 11 -17 11 -3 0 -32 17 -63 37 -32 21 -67 43 -78 49 -43 23 -70 39
-75 44 -5 6 -552 346 -585 364 -11 6 -22 13 -25 16 -3 3 -14 10 -25 17 -48 28
-245 150 -295 182 -30 20 -57 36 -60 36 -3 0 -16 8 -30 18 -14 10 -61 40 -105
67 -44 27 -85 54 -92 60 -7 5 -16 10 -20 10 -4 0 -19 9 -32 19 l-24 19 21 6
c12 4 22 11 22 16 0 4 11 11 25 14 14 4 25 11 25 16 0 6 4 10 10 10 5 0 34 16
64 35 30 19 60 35 66 35 5 0 10 4 10 8 0 5 12 15 28 23 49 25 157 94 160 101
2 5 10 8 17 8 8 0 20 6 27 13 7 7 58 39 113 72 101 59 212 128 230 142 6 5 21
14 35 21 14 6 93 54 175 105 125 78 232 144 446 276 15 9 70 43 124 76 126 78
146 90 244 150 45 28 94 58 109 67 15 10 40 25 55 33 l28 16 -22 37 c-13 20
-55 87 -94 147 -40 61 -77 119 -83 130 -36 62 -23 66 -228 -61 -104 -64 -286
-176 -404 -249 -118 -73 -259 -160 -313 -194 -54 -33 -102 -61 -108 -61 -5 0
-9 -4 -9 -10 0 -5 -6 -10 -14 -10 -8 0 -21 -6 -28 -13 -7 -7 -29 -22 -48 -33
-19 -10 -37 -21 -40 -24 -3 -3 -48 -31 -100 -63 -130 -79 -322 -197 -594 -366
-125 -77 -232 -141 -236 -141 -5 0 -10 -3 -12 -8 -1 -4 -28 -22 -59 -41 l-56
-33 0 -246 0 -246 25 -23 c14 -13 36 -29 48 -36 64 -35 139 -82 142 -89 2 -4
8 -8 13 -8 5 0 33 -15 62 -34 28 -19 210 -132 402 -251 193 -119 361 -225 375
-233 14 -9 33 -21 42 -27 26 -15 345 -213 403 -250 75 -48 204 -129 223 -140
9 -5 68 -41 129 -80 62 -38 122 -74 133 -80 11 -5 20 -13 20 -17 0 -5 5 -8 10
-8 6 0 38 -18 71 -40 33 -22 62 -40 64 -40 5 0 125 -75 140 -88 6 -4 35 -22
65 -40 64 -38 76 -45 150 -92 31 -19 64 -40 75 -47 26 -15 189 -116 193 -119
5 -3 -52 -118 -61 -125 -5 -3 -8 -8 -6 -10 1 -2 -19 -49 -46 -104 -80 -167
-125 -264 -125 -270 0 -3 6 -5 14 -5 7 0 53 -18 102 -41 107 -48 142 -64 192
-85 20 -9 45 -20 54 -25 10 -5 20 -9 23 -9 6 0 305 607 308 625 1 5 5 12 8 15
5 4 109 214 114 230 3 11 137 286 146 300 5 8 13 25 18 37 6 11 52 108 104
215 51 106 107 220 123 253 16 33 33 63 39 67 5 4 7 8 3 8 -4 0 24 63 63 141
38 77 92 186 118 242 27 56 102 210 166 342 65 132 146 299 180 370 34 72 109
225 165 340 56 116 134 275 172 355 39 80 121 249 183 375 61 127 127 262 145
300 48 99 72 138 79 128 3 -5 76 -52 161 -105 85 -53 265 -164 399 -247 134
-83 247 -151 252 -151 5 0 9 -4 9 -10 0 -5 5 -10 11 -10 6 0 38 -18 70 -40 32
-22 61 -40 64 -40 3 0 18 -8 33 -19 60 -42 404 -251 413 -251 5 0 9 -4 9 -9 0
-5 10 -13 22 -17 12 -3 26 -11 32 -16 21 -18 116 -77 116 -72 0 3 15 -6 33
-19 17 -13 109 -71 202 -128 94 -57 172 -107 173 -111 2 -5 8 -8 12 -8 5 0 54
-28 110 -62 109 -68 108 -68 237 -147 300 -184 363 -225 356 -232 -11 -10
-313 -199 -319 -199 -3 0 -10 -5 -17 -11 -23 -19 -367 -229 -377 -229 -6 0
-10 -4 -10 -10 0 -5 -7 -10 -15 -10 -8 0 -15 -4 -15 -10 0 -5 -4 -10 -9 -10
-5 0 -45 -22 -88 -49 -43 -27 -159 -99 -258 -160 -99 -61 -185 -115 -192 -121
-7 -5 -14 -10 -17 -10 -4 0 -182 -109 -389 -239 -54 -33 -100 -61 -103 -61 -3
0 -20 -10 -37 -23 -36 -25 -50 -34 -119 -74 -27 -16 -48 -32 -48 -36 0 -8 54
-89 75 -113 6 -6 39 -52 75 -103 36 -51 74 -103 85 -116 l21 -25 36 25 c20 14
42 25 47 25 6 0 11 5 11 10 0 6 5 10 12 10 6 0 25 10 42 23 34 26 205 132 247
154 15 7 32 20 39 28 7 8 16 15 20 15 9 0 526 321 547 340 7 5 15 10 19 10 3
0 33 18 66 40 33 22 64 40 68 40 4 0 20 11 36 25 16 14 32 25 37 25 4 0 44 24
90 53 45 29 122 78 170 108 48 30 100 62 115 71 15 10 41 25 57 34 17 9 32 20
35 24 3 4 10 9 16 11 5 2 85 51 177 109 226 142 217 137 260 160 l37 20 0 70
c1 39 1 126 1 195 0 255 1 241 -23 253 -28 14 -47 26 -275 167 -97 61 -181
112 -187 114 -6 2 -13 7 -16 10 -9 12 -141 91 -151 91 -5 0 -9 3 -9 8 0 4 -17
16 -37 27 -21 11 -59 34 -85 52 -26 18 -50 33 -53 33 -3 0 -42 24 -88 53 -45
29 -115 73 -155 97 -40 25 -92 57 -115 72 -23 15 -49 31 -57 35 -8 3 -33 18
-55 32 -22 14 -49 31 -60 38 -112 68 -161 99 -163 105 -2 5 -8 8 -13 8 -5 0
-65 36 -135 80 -69 44 -128 80 -130 80 -3 0 -35 20 -72 44 -74 47 -253 159
-307 191 -155 92 -775 482 -775 487 0 4 36 82 80 174 44 91 80 170 80 175 0 5
5 9 10 9 6 0 10 6 10 14 0 8 20 55 45 105 25 50 45 95 45 101 0 9 -103 61
-307 156 l-73 33 -87 -177z"/>
</g>
</svg>
