<svg xmlns="http://www.w3.org/2000/svg"><defs><font horiz-adv-x="693"><font-face ascent="800" bbox="-154 -252 1338 886" cap-height="668" descent="-200" panose-1="0 0 0 0 0 0 0 0 0 0" slope="-12" underline-position="-219" underline-thickness="57" unicode-range="U+000D-25CA" x-height="496"/><missing-glyph d="M50 0v700h427v-700h-427zM79 21h370l-185 308zM71 49l180 301-180 300v-601zM457 47v605l-181-302zM263 371l186 309h-371z" horiz-adv-x="527"/><glyph d="M50 0v700h427v-700h-427zM79 21h370l-185 308zM71 49l180 301-180 300v-601zM457 47v605l-181-302zM263 371l186 309h-371z" glyph-name=".notdef" horiz-adv-x="527"/><glyph glyph-name=".null" horiz-adv-x="0"/><glyph glyph-name="uni000D" horiz-adv-x="0" unicode="&#xd;"/><glyph glyph-name="space" horiz-adv-x="280" unicode="&#x20;"/><glyph d="M149 195h-54l45 300 37 173h91l-36-173zM28 42q-4 26 11.5 47.5t41.5 26.5q26 4 47.5-11.5t26.5-41.5q4-26-11.5-47.5t-41.5-26.5q-26-4-47.5 11.5t-26.5 41.5z" glyph-name="exclam" horiz-adv-x="284" unicode="&#x21;"/><glyph d="M250 447l-14 221h80l-14-221h-52zM95 668h80l-14-221h-52z" glyph-name="quotedbl" horiz-adv-x="334" unicode="&#x22;"/><glyph d="M160 172h-124l11 81h124l23 162h-124l11 81h124l24 172h82l-24-172h123l24 172h82l-24-172h123l-11-81h-124l-22-162h123l-11-81h-124l-24-172h-82l24 172h-123l-24-172h-82zM253 253h123l22 162h-123z" glyph-name="numbersign" horiz-adv-x="634" unicode="&#x23;"/><glyph d="M38 153l91 26q22-67 97-93l50 233q-42 12-69 23.5t-57.5 32-45.5 52.5-15 76q0 94 80 143t185 41l13 63h52l-15-71q119-27 160-116l-92-26q-24 44-85 62l-45-211q39-12 60-19.5t53.5-23.5 49-33 29.5-45 13-63q0-69-43.5-119.5t-108.5-72.5-136-16l-16-76h-52l18 84q-60 15-105.5 52.5t-65.5 96.5zM276 75q68-6 120.5 25.5t52.5 90.5q0 45-31.5 69t-92.5 44zM184 512q-3-42 26-66.5t84-42.5l43 205q-59 4-104-21t-49-75z" glyph-name="dollar" horiz-adv-x="610" unicode="&#x24;"/><glyph d="M246 317q-76 0-123.5 53t-39.5 129q8 75 67 128t134 53q76 0 123.5-53t39.5-128q-8-76-67-129t-134-53zM734-12q-76 0-123.5 53t-39.5 129q8 75 67 128t134 53q76 0 123.5-53t39.5-128q-8-76-67-129t-134-53zM319 0h-88l468 668h88zM645 170q-5-45 23.5-76.5t73.5-31.5q44 0 78.5 31.5t39.5 76.5q5 44-23 75.5t-73 31.5q-44 0-79.5-31.5t-39.5-75.5zM157 499q-5-45 23.5-76.5t73.5-31.5q44 0 78.5 31.5t39.5 76.5q5 44-23 75.5t-73 31.5q-44 0-79.5-31.5t-39.5-75.5z" glyph-name="percent" horiz-adv-x="1000" unicode="&#x25;"/><glyph d="M204-12q-95 0-144.5 53.5t-44.5 133.5q4 72 62.5 129t144.5 85q-51 82-37 154 13 65 62 100.5t124 35.5q77 0 124.5-38t40.5-105q-7-62-56-102.5t-129-71.5l105-140q49 60 73 138h87q-29-98-113-203l116-157h-112l-64 86q-114-98-239-98zM102 185q-7-57 24-88t86-31q90 0 188 79l-137 188q-149-48-161-148zM272 540q-4-9-2.5-21l2.5-20t5.5-19.5 7-18 8-16 8-13l7.5-10.5 4-6q133 45 141 114 4 34-18 57.5t-70 21.5q-78-3-93-69z" glyph-name="ampersand" horiz-adv-x="691" unicode="&#x26;"/><glyph d="M109 447l-14 221h80l-14-221h-52z" glyph-name="quotesingle" horiz-adv-x="193" unicode="&#x27;"/><glyph d="M95-162q-94 223-49.5 432t214.5 398h79q-77-95-127.5-185.5t-79.5-194-19.5-217.5 59.5-233h-77z" glyph-name="parenleft" horiz-adv-x="303" unicode="&#x28;"/><glyph d="M28-162h-81q77 94 127.5 185t80 194.5 20 217.5-59.5 233h77q93-222 49.5-431.5t-213.5-398.5z" glyph-name="parenright" horiz-adv-x="303" unicode="&#x29;"/><glyph d="M119 442l79 71-92 53 29 49 92-53 22 105 56-12-22-105 105 11 7-56-106-12 43-97-52-23-44 97-79-71z" glyph-name="asterisk" horiz-adv-x="440" unicode="&#x2a;"/><glyph d="M42 288h208v208h80v-208h208v-80h-208v-208h-80v208h-208v80z" glyph-name="plus" horiz-adv-x="619" unicode="&#x2b;"/><glyph d="M18-133h-61l75 125q-22 8-34 28t-8 44q5 26 27 41t48 11q34-6 48-37t-5-61z" glyph-name="comma" horiz-adv-x="209" unicode="&#x2c;"/><glyph d="M20 208l18 81h292l-18-81h-292z" glyph-name="hyphen" horiz-adv-x="369" unicode="&#x2d;"/><glyph d="M-1 52q0 27 19 46t45 19q27 0 46-19t19-46q0-26-19-45t-46-19q-26 0-45 19t-19 45z" glyph-name="period" horiz-adv-x="208" unicode="&#x2e;"/><glyph d="M-50 0l402 668h87l-402-668h-87z" glyph-name="slash" horiz-adv-x="371" unicode="&#x2f;"/><glyph d="M293-12q-128 0-185 89.5t-36 256.5 99.5 256.5 206.5 89.5q129 0 186-89.5t36-256.5-100-256.5-207-89.5zM163 334q-8-51-4.5-100t16.5-87 45.5-61 81.5-23q62 0 106 35l-197 405q-36-64-48-169zM369 605q-57 0-99-31l195-402q32 66 44 162 5 38 5.5 71.5t-6 71.5-21.5 65-45 45-73 18z" glyph-name="zero" horiz-adv-x="654" unicode="&#x30;"/><glyph d="M87 503l14 68q100 0 151.5 24.5t74.5 72.5h58l-142-668h-85l107 503h-178z" glyph-name="one" horiz-adv-x="403" unicode="&#x31;"/><glyph d="M-18 0l16 76q213 119 323 211.5t130 177.5q16 66-19 105.5t-91 39.5q-120 0-167-112l-78 24q71 158 248 158 101 0 160.5-56t38.5-163q-10-53-47-105t-97.5-101-123-90.5-144.5-87.5h348l-16-77h-481z" glyph-name="two" horiz-adv-x="565" unicode="&#x32;"/><glyph d="M32 158l86 23q8-57 44.5-90t98.5-33q64 0 109.5 36t45.5 93q0 30-9 52.5t-26.5 36-35 22-44 12-44 4.5-43.5 1l16 75q47 0 78.5 3.5t65.5 13.5 52.5 34 19.5 60q2 52-35 80.5t-93 28.5q-113 0-149-112l-78 25q22 72 82.5 114.5t149.5 42.5q88 0 151.5-39t63.5-121q0-65-36-109t-99-64q102-34 102-149 0-86-64.5-148t-181.5-62q-97 0-155.5 47t-71.5 123z" glyph-name="three" horiz-adv-x="580" unicode="&#x33;"/><glyph d="M17 165l17 79 428 424h87l-90-424h124l-17-79h-124l-35-165h-87l36 165h-339zM438 552l-311-308h245z" glyph-name="four" horiz-adv-x="636" unicode="&#x34;"/><glyph d="M238-12q-89 4-142.5 48.5t-70.5 117.5l83 23q30-112 134-117 72-2 117 41.5t50 118.5-28.5 114.5-95.5 42.5q-50 3-87.5-18t-56.5-54l-78 24 113 339h385l-18-81h-314l-63-187q54 50 135 50 89 0 150-64t48-173q-9-79-50.5-132.5t-95.5-74.5-115-18z" glyph-name="five" horiz-adv-x="575" unicode="&#x35;"/><glyph d="M281-12q-125 0-178.5 86t-35.5 237q9 74 31.5 138.5t59 117 92 83 122.5 30.5q71 0 117-29.5t64-77.5l-88-25q-24 62-102 62-75 0-126.5-66t-72.5-183q57 84 172 84 93 0 148.5-63.5t48.5-162.5-73.5-165-178.5-66zM152 227q-8-70 29.5-119.5t102.5-49.5q66 0 110 44t49 113q5 70-31 112.5t-102 42.5q-65 0-108-39t-50-104z" glyph-name="six" horiz-adv-x="605" unicode="&#x36;"/><glyph d="M31 0l414 587h-367l18 81h471l-17-81-411-587h-108z" glyph-name="seven" horiz-adv-x="537" unicode="&#x37;"/><glyph d="M266-12q-108 0-172 53.5t-55 146.5q7 63 44.5 109t97.5 68q-51 52-43 133 8 75 66.5 128.5t133.5 53.5 122.5-53.5 39.5-128.5q-8-79-71-133 55-22 83-68t21-109q-9-93-84-146.5t-183-53.5zM130 188q-6-58 33-91.5t111-33.5q71 0 117 33.5t52 91.5q6 59-33 94t-111 35q-71 0-117-35t-52-94zM212 498q-5-44 23-75.5t72-31.5 79.5 31.5 39.5 75.5q4 45-24 76t-73 31q-44 0-78.5-31t-38.5-76z" glyph-name="eight" horiz-adv-x="617" unicode="&#x38;"/><glyph d="M335 211q-62-7-112.5 11t-80 53.5-42.5 81-5 97.5 36 100q35 60 98 93t130 33q59 0 105-25 49-27 79.5-76t29.5-115.5-42-128.5q-35-52-101-136t-114-141l-49-58h-116zM180 440q-7-64 31-108t101-44q64 0 112.5 44t60.5 114q9 56-27 104t-111 46q-63-2-111.5-45t-55.5-111z" glyph-name="nine" horiz-adv-x="601" unicode="&#x39;"/><glyph d="M135 375q-26 0-45 19t-19 46q0 26 19 45t45 19q27 0 46-19t19-45q0-27-19-46t-46-19zM53-12q-26 0-45 19t-19 45q0 27 19 46t45 19q27 0 46-19t19-46q0-26-19-45t-46-19z" glyph-name="colon" horiz-adv-x="209" unicode="&#x3a;"/><glyph d="M-43-133l75 125q-22 8-34 28t-8 44q5 26 27 41t48 11q34-6 48-37t-5-61l-90-151h-61zM136 375q-26 0-45 19t-19 46q0 26 19 45t45 19q27 0 46-19t19-45q0-27-19-46t-46-19z" glyph-name="semicolon" horiz-adv-x="209" unicode="&#x3b;"/><glyph d="M38 283l473 213v-90l-368-158 368-158v-90l-473 213v70z" glyph-name="less" horiz-adv-x="613" unicode="&#x3c;"/><glyph d="M63 307v79h496v-79h-496zM559 121h-496v79h496v-79z" glyph-name="equal" horiz-adv-x="658" unicode="&#x3d;"/><glyph d="M451 248l-368 158v90l473-213v-70l-473-213v90z" glyph-name="greater" horiz-adv-x="613" unicode="&#x3e;"/><glyph d="M89 524q28 77 91.5 116t151.5 39q37 0 71.5-9t64.5-28 45-53.5 9-80.5q-12-91-150-157-54-27-77.5-56.5t-31.5-70.5l-8-34h-85l7 37q17 77 56 117.5t109 76.5q81 41 90 92 7 43-23.5 69.5t-79.5 26.5q-126 0-163-109zM163-7q-25 10-35 34.5t0 49.5q18 40 60 40 12 0 25-5 25-11 35-35t0-49q-18-40-60-40-12 0-25 5z" glyph-name="question" horiz-adv-x="527" unicode="&#x3f;"/><glyph d="M67 334q0 143 101.5 244.5t244.5 101.5q58 0 116-21t107-59.5 79.5-99.5 30.5-134q0-105-53.5-158t-123.5-53q-43 0-74.5 19t-38.5 51q-52-70-128-70-57 0-90.5 44t-17.5 120q22 106 86 153t148 47q59 0 117-20-36-175-47-221-6-27 9.5-43t42.5-16q29 0 56.5 19.5t39.5 54.5q27 80-2 156t-99.5 123-157.5 47q-117 0-200.5-83.5t-83.5-201.5q0-122 85.5-203.5t199.5-81.5q71 0 135 36v-69q-63-28-133-28-139 0-244 98t-105 248zM299 312q-9-40 6-62t43-22q33 0 64.5 29.5t42.5 81.5l22 103q-26 4-43 4-106 0-135-134z" glyph-name="at" horiz-adv-x="787" unicode="&#x40;"/><glyph d="M-52 0l392 668h116l109-668h-103l-21 146h-302l-83-146h-108zM381 573l-197-347h246z" glyph-name="A" horiz-adv-x="627" unicode="&#x41;"/><glyph d="M14 0l142 668h251q59 0 102.5-18t65-46.5 27.5-64-5-70.5-39-66.5-68-50.5q75-29 84.5-115t-65-161.5-209.5-75.5h-286zM176 308l-49-229h181q89 0 135 63 39 52 20 104-29 59-115 62h-172zM235 588l-43-206h172q85 0 123 61 31 49 7 96-25 49-94 49h-165z" glyph-name="B" horiz-adv-x="630" unicode="&#x42;"/><glyph d="M316-12q-65 0-115.5 20.5t-79.5 55.5-47.5 80-19 94 5.5 98q26 152 123.5 248t238.5 96q89 0 149.5-38t84.5-114l-89-30q-16 50-56.5 76t-98.5 26q-95 0-164.5-71.5t-91.5-192.5q-21-115 27.5-192t142.5-77q65 0 110 25t81 79l79-31q-95-152-280-152z" glyph-name="C" horiz-adv-x="666" unicode="&#x43;"/><glyph d="M14 0l142 668h184q350 0 291-349-26-157-141-238t-291-81h-185zM127 79h86q281 0 323 246 10 48 7.5 85.5t-9 65.5-23.5 47.5-35.5 32-45.5 20-52.5 10-57.5 2.5h-85z" glyph-name="D" horiz-adv-x="676" unicode="&#x44;"/><glyph d="M14 0l142 668h455l-17-81h-359l-43-203h265l-18-80h-264l-48-223h359l-17-81h-455z" glyph-name="E" horiz-adv-x="569" unicode="&#x45;"/><glyph d="M14 0l142 668h436l-18-81h-339l-43-203h339l-17-80h-339l-65-304h-96z" glyph-name="F" horiz-adv-x="550" unicode="&#x46;"/><glyph d="M301-12q-132 0-197.5 97.5t-43.5 250.5q22 148 120 246t239 98q192 0 237-152l-89-30q-12 43-51.5 72.5t-103.5 29.5q-94 0-165-71t-91-193q-20-120 27.5-193t134.5-76q182-7 225 176l5 21h-196l17 80h287l-74-344h-56l-6 82q-84-94-219-94z" glyph-name="G" horiz-adv-x="713" unicode="&#x47;"/><glyph d="M14 0l142 668h96l-60-284h350l60 284h96l-142-668h-96l64 304h-349l-65-304h-96z" glyph-name="H" horiz-adv-x="694" unicode="&#x48;"/><glyph d="M4 0l16 75h93l110 518h-93l16 75h281l-15-75h-94l-109-518h92l-16-75h-281z" glyph-name="I" horiz-adv-x="414" unicode="&#x49;"/><glyph d="M163-12q-80 0-130.5 51.5t-39.5 150.5l90 24q-27-149 92-149 54 0 90.5 32t54.5 116l97 455h96l-97-456q-13-62-37-106.5t-47.5-66.5-58-34.5-56.5-14.5-54-2z" glyph-name="J" horiz-adv-x="509" unicode="&#x4a;"/><glyph d="M14 0l142 668h96l-69-323 357 323h130l-319-283 200-385h-105l-165 324-126-114-45-210h-96z" glyph-name="K" horiz-adv-x="623" unicode="&#x4b;"/><glyph d="M14 0l142 668h96l-125-587h359l-17-81h-455z" glyph-name="L" horiz-adv-x="541" unicode="&#x4c;"/><glyph d="M14 0l142 668h156l62-542 292 542h162l-142-668h-96l119 559-309-559h-95l-72 575-123-575h-96z" glyph-name="M" horiz-adv-x="824" unicode="&#x4d;"/><glyph d="M14 0l142 668h137l186-574 122 574h96l-142-668h-137l-185 576-123-576h-96z" glyph-name="N" unicode="&#x4e;"/><glyph d="M312-12q-136 0-205 99t-47 248q23 155 121.5 250t251.5 95q137 0 207-100.5t46-244.5q-11-68-38.5-128t-72-110-112.5-79.5-151-29.5zM156 335q-21-125 29-196.5t140-71.5q102 0 173 71.5t92 196.5q21 122-30 193.5t-140 71.5q-108 0-176-73.5t-88-191.5z" glyph-name="O" horiz-adv-x="728" unicode="&#x4f;"/><glyph d="M14 0l142 668h186q42 0 75.5-3.5t71.5-15.5 62.5-32 39-57 9.5-87q-10-106-84-157t-229-51h-121l-56-265h-96zM235 588l-51-242h127q84 0 132 25.5t57 85.5q11 75-27 103t-122 28h-116z" glyph-name="P" horiz-adv-x="602" unicode="&#x50;"/><glyph d="M316 5q-136 0-205 99t-47 247q23 155 121.5 250t251.5 95q137 0 206.5-100t46.5-245q-21-135-101-228l99-116-70-62-100 117q-84-57-202-57zM160 351q-21-124 29.5-195.5t139.5-71.5q76 0 136 40l-136 160 71 60 132-154q47 68 62 161 21 123-30 194.5t-140 71.5q-108 0-176-74t-88-192z" glyph-name="Q" horiz-adv-x="749" unicode="&#x51;"/><glyph d="M14 0l142 668h204q127 0 189.5-44.5t49.5-148.5q-8-72-61-124.5t-167-62.5l147-288h-105l-143 281h-100l-60-281h-96zM235 588l-48-228h124q87 0 135 23.5t56 89.5q8 65-30 90t-120 25h-117z" glyph-name="R" horiz-adv-x="610" unicode="&#x52;"/><glyph d="M36 147l91 25q18-51 64-78t102-27q62 0 107.5 31.5t45.5 85.5q0 39-26.5 64.5t-66.5 37.5-86.5 27.5-86.5 33-66.5 55.5-26.5 93q0 87 70 136t167 49q77 0 143-32.5t94-92.5l-92-26q-17 34-59 53t-90 19q-55 0-94.5-25t-43.5-71q-3-45 33-72t90-42.5 108-33.5 92.5-58 38.5-102q0-96-77.5-152.5t-181.5-56.5q-85 0-154 40.5t-95 118.5z" glyph-name="S" horiz-adv-x="609" unicode="&#x53;"/><glyph d="M73 587l17 81h538l-17-81h-222l-123-587h-97l124 587h-220z" glyph-name="T" horiz-adv-x="558" unicode="&#x54;"/><glyph d="M286-12q-140 0-192.5 70t-19.5 222l83 388h96l-84-396q-22-108 5-155.5t117-47.5q95 0 147.5 44.5t77.5 158.5l85 396h96l-83-388q-16-77-44-133t-58.5-86-72.5-47-75.5-21.5-77.5-4.5z" glyph-name="U" unicode="&#x55;"/><glyph d="M90 668h99l62-558 300 558h111l-372-668h-112z" glyph-name="V" horiz-adv-x="592" unicode="&#x56;"/><glyph d="M116 0l-26 668h100l12-540 234 540h113l5-551 250 551h110l-310-668h-121l-11 551-245-551h-111z" glyph-name="W" horiz-adv-x="844" unicode="&#x57;"/><glyph d="M-52 0l326 351-158 317h102l121-245 227 245h125l-308-332 169-336h-103l-132 264-244-264h-125z" glyph-name="X" horiz-adv-x="624" unicode="&#x58;"/><glyph d="M90 668h96l104-337 264 337h114l-343-428-51-240h-97l52 240z" glyph-name="Y" horiz-adv-x="598" unicode="&#x59;"/><glyph d="M-18 0l17 81 501 506h-372l17 81h495l-17-81-500-506h401l-18-81h-524z" glyph-name="Z" horiz-adv-x="613" unicode="&#x5a;"/><glyph d="M-20-161l176 829h207l-15-75h-124l-145-680h125l-16-74h-208z" glyph-name="bracketleft" horiz-adv-x="317" unicode="&#x5b;"/><glyph d="M355 0l-260 668h87l260-668h-87z" glyph-name="backslash" horiz-adv-x="519" unicode="&#x5c;"/><glyph d="M-63-161l16 74h125l145 680h-125l15 75h207l-175-829h-208z" glyph-name="bracketright" horiz-adv-x="317" unicode="&#x5d;"/><glyph d="M47 311l185 357h76l185-357h-89l-134 258-134-258h-89z" glyph-name="asciicircum" horiz-adv-x="552" unicode="&#x5e;"/><glyph d="M-32-79v79h376v-79h-376z" glyph-name="underscore" horiz-adv-x="413" unicode="&#x5f;"/><glyph d="M141 647q-9 13-6.5 29t14.5 24q10 7 23 7 19 0 30-15l76-121h-68q-53 54-69 76z" glyph-name="grave" horiz-adv-x="272" unicode="&#x60;"/><glyph d="M153-12q-65 0-107 35.5t-42 93.5q0 140 242 177 22 3 123 14 31 128-85 128-92 0-127-77l-75 23q26 58 76.5 90t121.5 32q105 0 150-50.5t24-151.5l-24-114q-21-104-23-188h-79l-4 63q-66-75-171-75zM99 139q-6-40 17.5-61t63.5-21q68 0 116.5 45.5t61.5 121.5l3 17q-136-13-195-32t-67-70z" glyph-name="a" horiz-adv-x="520" unicode="&#x61;"/><glyph d="M8 0l142 668h86l-51-238q57 74 140 74 97 0 141-61t44-150q0-118-65.5-211.5t-177.5-93.5q-104 0-154 94l-41-82h-64zM139 211q0-63 31-107t88-44q53 0 91.5 39t54.5 89.5 16 102.5q0 64-28 102.5t-84 38.5q-77 0-123-70t-46-151z" glyph-name="b" horiz-adv-x="557" unicode="&#x62;"/><glyph d="M220-12q-106 0-157.5 71t-33.5 189q18 114 89 185t178 71q134 0 185-111l-83-29q-10 30-39 48t-67 18q-74 0-116.5-52.5t-55.5-128.5q-13-82 14-134.5t105-52.5q75 0 124 65l71-28q-33-54-89.5-82.5t-124.5-28.5z" glyph-name="c" horiz-adv-x="493" unicode="&#x63;"/><glyph d="M205-12q-94 0-142 73.5t-33 185.5q16 119 82 188t159 69q57 0 97.5-29.5t55.5-76.5l57 270h86q-77-360-102-480-22-107-23-188h-81l-5 61q-58-73-151-73zM121 247q-14-89 18-138t87-49q74 0 118.5 58t51.5 129q8 85-22 135t-94 50q-65 0-105.5-52t-53.5-133z" glyph-name="d" horiz-adv-x="554" unicode="&#x64;"/><glyph d="M237-12q-110 0-166.5 71t-40.5 189q17 121 92 188.5t186 67.5q116 0 167-82t24-197h-384q-9-86 30.5-124.5t101.5-38.5q77 0 123 49l78-24q-77-99-211-99zM296 432q-58 0-106.5-37.5t-62.5-101.5h293q6 55-25 97t-99 42z" glyph-name="e" horiz-adv-x="541" unicode="&#x65;"/><glyph d="M37 0l91 428h-84l15 68h83l12 53q7 30 13 51.5t15.5 39 16 28 22.5 18.5 25.5 11.5 34.5 6 41 2.5h52l-15-71h-24q-42 0-62-12.5t-30-59.5l-15-67h102l-15-68h-101l-91-428h-86z" glyph-name="f" horiz-adv-x="320" unicode="&#x66;"/><glyph d="M179-190q-64 0-115 30t-69 82l90 25q6-28 34.5-47t73.5-17q69 3 100.5 38.5t47.5 101.5l13 57q-49-64-136-64-82 0-139.5 64t-45.5 178q13 124 80 186t152 62q53 0 97-24t63-64l40 78h62q-71-337-95-449-18-82-32-114-58-123-221-123zM122 256q-10-75 24-120t96-47q59-2 99.5 44.5t53.5 122.5q14 82-22.5 129t-97.5 47q-62 0-102.5-46.5t-50.5-129.5z" glyph-name="g" horiz-adv-x="554" unicode="&#x67;"/><glyph d="M8 0l142 668h86l-51-241q59 77 171 77 81 0 114.5-54t10.5-162l-62-288h-85l59 280q17 85 .5 117.5t-74.5 32.5q-60 0-106-41t-65-132l-54-257h-86z" glyph-name="h" horiz-adv-x="549" unicode="&#x68;"/><glyph d="M132 0h-86l91 428h-80l14 68h166zM229 591q-25 0-43.5 18.5t-18.5 43.5q0 26 18 44.5t44 18.5 44.5-18.5 18.5-44.5-18.5-44-44.5-18z" glyph-name="i" horiz-adv-x="270" unicode="&#x69;"/><glyph d="M-154-159l16 73q99-2 126.5 14.5t41.5 84.5l103 483h86l-104-488q-6-27-10.5-45t-11-36.5-14.5-29.5-18-22.5-24.5-17-32-10.5-41.5-6.5-52-1.5-65 2zM211 591q-26 0-44.5 18.5t-18.5 44.5 18.5 44.5 44.5 18.5 44.5-18.5 18.5-44.5-18.5-44.5-44.5-18.5z" glyph-name="j" horiz-adv-x="258" unicode="&#x6a;"/><glyph d="M8 0l142 668h86l-82-383 235 211h112l-234-207 149-289h-94l-119 232-74-66-35-166h-86z" glyph-name="k" horiz-adv-x="488" unicode="&#x6b;"/><glyph d="M127 0q-73 0-89.5 28t-2.5 97l115 543h86l-112-528q-9-34-2.5-49.5t40.5-15.5h37l-16-75h-56z" glyph-name="l" horiz-adv-x="260" unicode="&#x6c;"/><glyph d="M94 0h-86l105 496h64l6-69q64 77 158 77 103 0 134-88 66 88 176 88 11 0 19.5-.5t23.5-3 27-8.5 25.5-15 22-25 14.5-36 5-50-9-66l-63-300h-86l61 289q18 68 4 105t-70 37q-62 0-104-42t-59-119l-57-270h-86l61 289q17 70 2.5 106t-69.5 36q-58 0-101.5-40.5t-60.5-120.5z" glyph-name="m" horiz-adv-x="846" unicode="&#x6d;"/><glyph d="M94 0h-86l105 496h64l6-69q59 77 173 77 81 0 114.5-54.5t10.5-162.5l-62-287h-85l59 279q17 85 .5 118t-74.5 33q-60 0-105.5-41t-65.5-132z" glyph-name="n" horiz-adv-x="550" unicode="&#x6e;"/><glyph d="M230-12q-110 0-163 72t-37 187q9 66 36.5 117t66.5 81 82 44.5 88 14.5q96 0 156-69t38-198q-7-39-24.5-79t-48-80-81.5-65-113-25zM119 247q-15-83 16.5-134t101.5-51q67 0 112 50t59 135q29 183-118 183-139 0-171-183z" glyph-name="o" horiz-adv-x="547" unicode="&#x6f;"/><glyph d="M60-162h-86l140 658h63l5-66q51 74 149 74 92 0 138-66t40-166q-7-114-69.5-199t-170.5-85q-118 0-155 105zM142 246q-12-77 21-132t97-55q63 0 102.5 52.5t52.5 131.5q16 86-14 137.5t-94 51.5q-62 0-108-52t-57-134z" glyph-name="p" horiz-adv-x="556" unicode="&#x70;"/><glyph d="M206-12q-92 0-141 70t-35 188q13 108 76.5 183.5t163.5 75.5q111 0 157-87l40 78h62q-101-477-109-516-16-72 48-72 31 0 82 16l-17-78q-28-20-87-20t-94.5 33-19.5 110l19 90q-18-31-57-51t-88-20zM121 246q-12-86 16-136t94-50q64 0 109.5 57.5t52.5 129.5q9 86-23.5 136t-94.5 50q-65 0-104.5-58t-49.5-129z" glyph-name="q" horiz-adv-x="554" unicode="&#x71;"/><glyph d="M94 0h-86l105 496h63l8-93q35 50 79.5 75.5t119.5 25.5l-19-89q-97 4-151-51t-76-159z" glyph-name="r" horiz-adv-x="353" unicode="&#x72;"/><glyph d="M213-12q-155 0-203 125l86 29q8-42 42-64t78-22 76.5 22 32.5 59q0 30-28.5 48.5t-69 29-81 24-69 45-28.5 81.5q0 66 56.5 102.5t134.5 36.5q65 0 119-26.5t72-75.5l-80-28q-9 29-43 45t-75 16-70-17-29-48q0-30 28.5-48t70-28.5 82.5-24.5 69.5-45.5 28.5-80.5q0-74-56.5-114.5t-143.5-40.5z" glyph-name="s" horiz-adv-x="479" unicode="&#x73;"/><glyph d="M49 428l14 68h83l27 124h86l-27-124h95l-14-68h-95l-62-288q-10-35-3-50t41-15h44l-16-75h-62q-74 0-91 28t-2 97l65 303h-83z" glyph-name="t" horiz-adv-x="324" unicode="&#x74;"/><glyph d="M173-11q-89 0-116.5 60t-7.5 154l62 293h86l-62-291q-7-40-9-71.5t17-51.5 60-20q131 0 169 174l56 260h85l-105-496h-65l-6 70q-33-43-70.5-62t-93.5-19z" glyph-name="u" horiz-adv-x="540" unicode="&#x75;"/><glyph d="M43 496h87l47-386 212 386h98l-283-496h-89z" glyph-name="v" horiz-adv-x="444" unicode="&#x76;"/><glyph d="M80 0l-37 496h87l17-358 172 358h90l20-366 176 366h96l-249-496h-82l-23 400-193-400h-74z" glyph-name="w" horiz-adv-x="658" unicode="&#x77;"/><glyph d="M-62 0l242 262-118 234h90l86-171 159 171h109l-230-248 124-248h-90l-92 185-171-185h-109z" glyph-name="x" horiz-adv-x="463" unicode="&#x78;"/><glyph d="M-62-161l16 75h34q60 0 80 14.5t48 71.5l-73 496h89l40-386 206 386h100l-287-517q-52-94-85-117t-125-23h-43z" glyph-name="y" horiz-adv-x="435" unicode="&#x79;"/><glyph d="M-22 0l15 73 362 351h-272l16 73h377l-16-73-359-351h289l-15-73h-397z" glyph-name="z" horiz-adv-x="467" unicode="&#x7a;"/><glyph d="M147-162q-79 0-100.5 31t-5.5 106l32 150q13 43 3 69t-53 26l14 67q43 0 62 23t29 71l31 150q18 84 48 110t115 26h46l-15-71h-41q-32 0-44.5-12.5t-20.5-51.5l-33-152q-13-60-39-88t-67-39q37-11 51-38.5t1-87.5l-32-153q-9-39-2-52t40-13h41l-15-71h-45z" glyph-name="braceleft" horiz-adv-x="322" unicode="&#x7b;"/><glyph d="M96-161v829h81v-829h-81z" glyph-name="bar" horiz-adv-x="289" unicode="&#x7c;"/><glyph d="M-62-162l15 71h42q32 0 44.5 12.5t20.5 52.5l32 152q13 60 39 88t68 39q-38 11-52 39t-1 87l33 153q9 38 1.5 51t-39.5 13h-42l15 71h46q78 0 99-31t6-105l-31-150q-13-43-3.5-68.5t52.5-25.5l-15-67q-42 0-60.5-23.5t-28.5-72.5l-32-149q-18-85-48-111t-116-26h-45z" glyph-name="braceright" horiz-adv-x="322" unicode="&#x7d;"/><glyph d="M100 199l-75 22q11 47 47.5 74.5t89.5 27.5q45 0 111.5-27.5t89.5-27.5q24 0 41 13t22 38l74-22q-11-47-47.5-74.5t-88.5-27.5q-38 0-105 27t-95 27q-55 0-64-50z" glyph-name="asciitilde" horiz-adv-x="539" unicode="&#x7e;"/><glyph glyph-name="uni00A0" horiz-adv-x="280" unicode="&#xa0;"/><glyph d="M0-161l37 173 82 299h55l-46-299-37-173h-91zM112 455q0 26 19 45t46 19q26 0 45-19t19-45q0-27-19-46t-45-19q-27 0-46 19t-19 46z" glyph-name="exclamdown" horiz-adv-x="284" unicode="&#xa1;"/><glyph d="M174-8q-83 15-122 83t-23 172q17 110 84.5 181t169.5 75l14 68h50l-15-70q104-15 148-109l-83-28q-17 52-79 63l-78-366q74 1 122 66l71-29q-65-108-209-110l-16-75h-51zM120 248q-23-149 70-180l77 360q-63-10-99.5-60.5t-47.5-119.5z" glyph-name="cent" horiz-adv-x="492" unicode="&#xa2;"/><glyph d="M22 55q15 6 32.5 15t41.5 26 42 37.5 34.5 49 18.5 61-6 73.5h-110l11 51h86q-24 82-18 143 6 58 42.5 97.5t84.5 55 105 15.5q81 0 135-33.5t70-96.5l-83-23q-17 47-45 64.5t-81 17.5q-51 0-90-23.5t-47-77.5q-7-48 20-139h203l-11-51h-180q17-75-20-133t-107-94q32 12 62 12 28 0 76-18t84-18q52 0 115 25l10-73q-73-30-131-30-38 0-95 18.5t-94 18.5q-61 0-142-37z" glyph-name="sterling" horiz-adv-x="586" unicode="&#xa3;"/><glyph d="M168 456l-66 66 36 36 66-66q59 47 135 47 78 0 135-47l66 66 36-36-66-66q47-57 47-135 0-77-47-136l66-66-36-35-66 65q-58-46-135-46-76 0-135 46l-66-65-36 35 66 66q-47 61-47 136 0 76 47 135zM339 463q-59 0-100.5-41.5t-41.5-100.5 41.5-101 100.5-42 100.5 42 41.5 101-41.5 100.5-100.5 41.5z" glyph-name="currency" horiz-adv-x="666" unicode="&#xa4;"/><glyph d="M47 86l11 51h149l18 86h-149l11 51h131l-128 394h96l105-339 263 339h114l-316-394h127l-11-51h-146l-18-86h146l-11-51h-146l-18-86h-97l18 86h-149z" glyph-name="yen" horiz-adv-x="598" unicode="&#xa5;"/><glyph d="M96 358v310h81v-310h-81zM177-161h-81v310h81v-310z" glyph-name="brokenbar" horiz-adv-x="289" unicode="&#xa6;"/><glyph d="M-43-55l86 23q4-35 31.5-52.5t65.5-17.5q37 0 68.5 16.5t39.5 45.5q8 26-4.5 51.5t-27.5 39-54 43.5q-7 5-10 8-34 26-45.5 36t-32.5 31.5-28 41.5-7 45q0 70 49 116.5t125 62.5q-28 28-33 69.5t12.5 80.5 63.5 67 110 28q60 0 108.5-24t62.5-72l-83-23q-4 24-29 37.5t-58 13.5q-36 0-65-15.5t-35-42.5q-3-16-.5-29t14.5-26.5 22.5-22.5 32.5-26 35-28q8-7 33.5-26.5t34-28 23.5-25.5 20-33.5 5-36.5q0-134-174-190 25-31 26-75t-19.5-84-69.5-68.5-115-28.5q-70 0-117.5 32t-60.5 87zM260 391q-55-12-93-42t-41.5-67 40.5-74l100-79q104 32 126 85t-46 109z" glyph-name="section" horiz-adv-x="526" unicode="&#xa7;"/><glyph d="M129 644q0 22 16 37.5t38 15.5 38-15.5 16-37.5-15.5-38-38.5-16-38.5 16-15.5 38zM341 644q0 22 15.5 37.5t37.5 15.5 38-15.5 16-37.5-16-38-38-16-37.5 16-15.5 38z" glyph-name="dieresis" horiz-adv-x="427" unicode="&#xa8;"/><glyph d="M70 334q0 143 101.5 244.5t244.5 101.5 244.5-101.5 101.5-244.5-101.5-244.5-244.5-101.5-244.5 101.5-101.5 244.5zM132 334q0-118 83-201t201-83 201 83 83 201-83 201-201 83-201-83-83-201zM418 150q-83 0-128.5 51t-45.5 141q0 88 47.5 138.5t128.5 50.5q102 0 145-82l-67-25q-26 49-80 49-45 0-71.5-33.5t-26.5-97.5q0-65 26.5-99t71.5-34q58 0 83 45l66-24q-46-80-149-80z" glyph-name="copyright" horiz-adv-x="814" unicode="&#xa9;"/><glyph d="M159 396q-40 0-64 20.5t-23 53.5q1 28 16.5 47.5t47 31 61 17.5 75.5 11q6 30-3 48t-48 18q-38 0-56-37l-57 18q33 67 123 67 62 0 91-30.5t16-88.5q-24-103-24-169h-59l-3 38q-29-45-93-45zM145 480q-2-15 7.5-24t26.5-9q38 0 55.5 18.5t24.5 52.5l3 11q-67-7-91-17.5t-26-31.5z" glyph-name="ordfeminine" horiz-adv-x="363" unicode="&#xaa;"/><glyph d="M148 40l-103 210 172 211h104l-181-221 97-200h-89zM253 250l172 211h104l-181-221 97-200h-89z" glyph-name="guillemotleft" horiz-adv-x="563" unicode="&#xab;"/><glyph d="M75 317v79h496v-306h-81v227h-415z" glyph-name="logicalnot" horiz-adv-x="667" unicode="&#xac;"/><glyph d="M416-12q-143 0-244.5 101t-101.5 244q0 144 101.5 245.5t244.5 101.5 244.5-101.5 101.5-245.5q0-143-101.5-244t-244.5-101zM132 333q0-117 83-200.5t201-83.5 201 83.5 83 200.5q0 118-83 202t-201 84-201-84-83-202zM357 162h-76v368h112q90 0 132-24t42-92q0-79-88-103l108-149h-86l-102 139h-42v-139zM405 469h-48v-110h53q81 0 81 54 0 32-22 44t-64 12z" glyph-name="registered" horiz-adv-x="814" unicode="&#xae;"/><glyph d="M119 601l14 67h276l-14-67h-276z" glyph-name="macron" horiz-adv-x="382" unicode="&#xaf;"/><glyph d="M87 544q0 56 40 96t96 40 96-40 40-96-40-96-96-40-96 40-40 96zM150 544q0-30 21.5-51.5t51.5-21.5q31 0 52 21.5t21 51.5q0 31-21 52t-52 21q-30 0-51.5-21t-21.5-52z" glyph-name="degree" horiz-adv-x="358" unicode="&#xb0;"/><glyph d="M65 349h197v147h79v-147h197v-79h-197v-146h-79v146h-197v79zM538 0h-473v79h473v-79z" glyph-name="plusminus" horiz-adv-x="653" unicode="&#xb1;"/><glyph d="M59 403l12 54q132 73 184.5 122.5t56.5 98.5q2 26-13.5 42t-41.5 16q-57 0-78-60l-60 19q37 91 139 91 56 0 91.5-26.5t32.5-77.5q-3-57-58.5-114t-155.5-107h179l-12-58h-276z" glyph-name="twosuperior" horiz-adv-x="384" unicode="&#xb2;"/><glyph d="M87 486l64 17q16-56 72-56 32 0 53 16.5t22 45.5q1 22-8 36.5t-27.5 19.5-30.5 6-32 1h-6l11 54q112 0 112 56 0 54-59 54-55 0-80-53l-58 18q41 85 141 85 53 0 88.5-23t35.5-74q0-61-68-87 56-26 49-97-6-53-47-81t-102-28q-47 0-81.5 24t-48.5 66z" glyph-name="threesuperior" horiz-adv-x="394" unicode="&#xb3;"/><glyph d="M187 572h-74q101 109 121 126 10 9 25 9 17 0 29-12 10-12 9-28t-12-26z" glyph-name="acute" horiz-adv-x="271" unicode="&#xb4;"/><glyph d="M188 294q-62 14-93.5 65.5t-16.5 118.5q17 79 84 134.5t146 55.5h260l-15-68h-41l-161-762h-83l161 762h-93l-162-762h-83z" glyph-name="paragraph" horiz-adv-x="521" unicode="&#xb6;"/><glyph d="M53 248q0 26 19 45t45 19q27 0 46-19t19-45q0-27-19-46t-46-19q-26 0-45 19t-19 46z" glyph-name="periodcentered" horiz-adv-x="235" unicode="&#xb7;"/><glyph d="M-24-163l23 37q31-14 57-14 42 0 55 26 10 21-13 29-8 3-19 3-14 0-30-4-15-4-21.5 7t2.5 22l68 82 30-21-41-49q66 11 85-29 16-34-14-69-33-37-95-37-40 0-87 17z" glyph-name="cedilla" horiz-adv-x="294" unicode="&#xb8;"/><glyph d="M116 682l10 48q42 0 66.5 11t38.5 38h57l-80-376h-69l60 279h-83z" glyph-name="onesuperior" horiz-adv-x="257" unicode="&#xb9;"/><glyph d="M210 399q-58 0-94 38t-28 109 51.5 108.5 101.5 37.5 93.5-37.5 28.5-108.5-51-109-102-38zM157 546q-4-44 12-69t47-25 52.5 25 25.5 69q4 43-12 68t-47 25q-30 0-52-25t-26-68z" glyph-name="ordmasculine" horiz-adv-x="383" unicode="&#xba;"/><glyph d="M9 40l181 221-97 200h89l103-210-172-211h-104zM217 40l181 221-97 200h89l103-210-172-211h-104z" glyph-name="guillemotright" horiz-adv-x="555" unicode="&#xbb;"/><glyph d="M399 86l12 54 236 235h77l-50-232h65l-12-57h-65l-18-86h-70l18 86h-193zM100 0l468 668h88l-468-668h-88zM112 571l10 47q42 0 66.5 11t38.5 38h57l-80-375h-68l59 279h-83zM636 289l-144-146h112z" glyph-name="onequarter" horiz-adv-x="824" unicode="&#xbc;"/><glyph d="M181 0h-88l468 668h88zM687 0h-276l11 54q132 73 185 122.5t57 97.5q2 26-14 42.5t-42 16.5q-56 0-77-60l-60 19q37 90 139 90 56 0 92-26t33-77q-3-57-59-114t-156-107h179zM194 571h-82l10 47q42 0 66.5 11t38.5 38h57l-80-375h-69z" glyph-name="onehalf" horiz-adv-x="802" unicode="&#xbd;"/><glyph d="M482 86l11 54 237 235h76l-50-232h65l-12-57h-64l-19-86h-70l19 86h-193zM193 0l468 668h88l-468-668h-88zM84 379l64 18q15-55 72-55 32 0 53 15.5t22 44.5q0 10-1.5 18.5t-4.5 14.5-9 11-10.5 8-13.5 5.5-13.5 3.5-14.5 1.5-13 .5h-13-11l11 55q112 0 112 56 0 53-59 53-55 0-80-53l-58 18q41 85 141 85 53 0 88.5-23t35.5-74q0-60-68-86 56-26 49-97-6-53-47-80.5t-102-27.5q-47 0-81.5 23.5t-48.5 64.5zM718 289l-144-146h113z" glyph-name="threequarters" horiz-adv-x="906" unicode="&#xbe;"/><glyph d="M179-175q-38 0-72.5 9t-64.5 28-45 54-9 81q7 52 47 89t104 68q54 26 77.5 56t31.5 72l7 34h85l-8-37q-17-78-55.5-118.5t-107.5-76.5q-82-42-91-92-7-43 24-70t80-27q125 0 162 110l77-24q-28-77-91.5-116.5t-150.5-39.5zM322 388q-27 0-45 18.5t-18 45.5 18 46 45 19 46-19 19-46q0-26-19-45t-46-19z" glyph-name="questiondown" horiz-adv-x="527" unicode="&#xbf;"/><glyph d="M-52 0l392 668h116l109-668h-103l-21 146h-302l-83-146h-108zM184 226h246l-49 347zM296 828q0 12 9 24t27 12q21 0 33-17l84-103h-73q-51 37-65.5 51.5t-14.5 32.5z" glyph-name="Agrave" horiz-adv-x="627" unicode="&#xc0;"/><glyph d="M-52 0l392 668h116l109-668h-103l-21 146h-302l-83-146h-108zM184 226h246l-49 347zM373 744q2 2 33.5 28t63 51.5 39.5 31.5q13 9 26 9 15 0 25.5-10.5t10.5-25.5q0-21-19-34-6-4-98-50h-81z" glyph-name="Aacute" horiz-adv-x="627" unicode="&#xc1;"/><glyph d="M56 0h-108l392 668h116l109-668h-103l-21 146h-302zM184 226h246l-49 347zM344 747h-96l133 101q25 19 54 19t45-19l91-101h-92l-55 61z" glyph-name="Acircumflex" horiz-adv-x="627" unicode="&#xc2;"/><glyph d="M-52 0l392 668h116l109-668h-103l-21 146h-302l-83-146h-108zM184 226h246l-49 347zM300 753h-65q39 103 128 103 36 0 73.5-21t54.5-21q5 0 9 1t7.5 2 7.5 3 6 3.5 6 5 5 4.5l5 5 5 5q13 13 27 13 18 0 26.5-16t-1.5-32q-36-57-103-57-30 0-67 21t-62 21q-44 0-62-40z" glyph-name="Atilde" horiz-adv-x="627" unicode="&#xc3;"/><glyph d="M-52 0l392 668h116l109-668h-103l-21 146h-302l-83-146h-108zM184 226h246l-49 347zM256 796q0 22 16 37.5t38 15.5 38-15.5 16-37.5-16-38-38-16-38 16-16 38zM468 796q0 22 15.5 37.5t37.5 15.5 38-15.5 16-37.5-15.5-38-38.5-16q-22 0-37.5 16t-15.5 38z" glyph-name="Adieresis" horiz-adv-x="627" unicode="&#xc4;"/><glyph d="M56 0h-108l382 651q-33 33-33 78t32.5 77 78.5 32q45 0 76-32t31-77q0-64-54-95l104-634h-103l-21 146h-302zM381 573l-197-347h246zM354 729q0-21 15-36t37-15 37 15 15 36-15 36-37 15-37-15-15-36z" glyph-name="Aring" horiz-adv-x="627" unicode="&#xc5;"/><glyph d="M-52 0l629 667h455l-17-81h-359l-43-203h266l-17-80h-266l-47-222h359l-17-81h-456l31 145h-272l-134-145h-112zM548 529l-281-303h216z" glyph-name="AE" horiz-adv-x="991" unicode="&#xc6;"/><glyph d="M262-8q-52 8-92.5 32.5t-63.5 58.5-37.5 76.5-14.5 87 6 89.5q26 152 123.5 248t238.5 96q89 0 149.5-38t84.5-114l-89-30q-16 50-56.5 76t-98.5 26q-95 0-164.5-71.5t-91.5-192.5q-21-115 27.5-192t142.5-77q65 0 110 25t81 79l79-31q-95-152-290-152l-28-33q66 11 85-29 16-34-14-69-33-37-95-37-40 0-87 17l23 37q31-14 57-14 42 0 55 26 10 21-13 29-8 3-19 3-14 0-30-4-15-4-21.5 7t2.5 22z" glyph-name="Ccedilla" horiz-adv-x="666" unicode="&#xc7;"/><glyph d="M14 0l142 668h455l-17-81h-359l-43-203h265l-18-80h-264l-48-223h359l-17-81h-455zM389 744q-51 37-65.5 51.5t-14.5 32.5q0 12 9 24t27 12q21 0 33-17l84-103h-73z" glyph-name="Egrave" horiz-adv-x="569" unicode="&#xc8;"/><glyph d="M469 0h-455l142 668h455l-17-81h-359l-43-203h265l-18-80h-264l-48-223h359zM438 744h-81q2 2 33.5 28t63 51.5 39.5 31.5q13 9 26 9 15 0 25.5-10.5t10.5-25.5q0-21-19-34-6-4-98-50z" glyph-name="Eacute" horiz-adv-x="569" unicode="&#xc9;"/><glyph d="M14 0l142 668h455l-17-81h-359l-43-203h265l-18-80h-264l-48-223h359l-17-81h-455zM331 750h-96l133 101q25 19 54 19t45-19l91-101h-92l-55 61z" glyph-name="Ecircumflex" horiz-adv-x="569" unicode="&#xca;"/><glyph d="M14 0l142 668h455l-17-81h-359l-43-203h265l-18-80h-264l-48-223h359l-17-81h-455zM290 742q-22 0-38 16t-16 38 16 37.5 38 15.5 38-15.5 16-37.5-16-38-38-16zM448 796q0 22 15.5 37.5t37.5 15.5 38-15.5 16-37.5-15.5-38-38.5-16q-22 0-37.5 16t-15.5 38z" glyph-name="Edieresis" horiz-adv-x="569" unicode="&#xcb;"/><glyph d="M285 0h-281l16 75h93l110 518h-93l16 75h281l-15-75h-94l-109-518h92zM193 828q0 12 9 24t27 12q21 0 33-17l84-103h-73q-51 37-65.5 51.5t-14.5 32.5z" glyph-name="Igrave" horiz-adv-x="414" unicode="&#xcc;"/><glyph d="M285 0h-281l16 75h93l110 518h-93l16 75h281l-15-75h-94l-109-518h92zM343 744h-81q2 2 33.5 28t63 51.5 39.5 31.5q13 9 26 9 15 0 25.5-10.5t10.5-25.5q0-21-19-34-6-4-98-50z" glyph-name="Iacute" horiz-adv-x="414" unicode="&#xcd;"/><glyph d="M285 0h-281l16 75h93l110 518h-93l16 75h281l-15-75h-94l-109-518h92zM240 747h-96l134 101q25 19 54 19 27 0 45-19l90-101h-92l-54 61z" glyph-name="Icircumflex" horiz-adv-x="414" unicode="&#xce;"/><glyph d="M285 0h-281l16 75h93l110 518h-93l16 75h281l-15-75h-94l-109-518h92zM154 794q0 22 16 37.5t38 15.5 38-15.5 16-37.5-16-38-38-16-38 16-16 38zM419 740q-22 0-37.5 16t-15.5 38 15.5 37.5 37.5 15.5 38-15.5 16-37.5-15.5-38-38.5-16z" glyph-name="Idieresis" horiz-adv-x="414" unicode="&#xcf;"/><glyph d="M114 303h-92l17 80h92l61 285h184q350 0 291-349-26-157-141-238t-291-81h-185zM351 303h-140l-48-224h86q281 0 323 246 10 48 7.5 85.5t-9 65.5-23.5 47.5-35.5 32-45.5 20-52.5 10-57.5 2.5h-85l-43-205h140z" glyph-name="Eth" horiz-adv-x="712" unicode="&#xd0;"/><glyph d="M110 0h-96l142 668h137l186-574 122 574h96l-142-668h-137l-185 576zM277 751q39 103 128 103 36 0 73.5-21t54.5-21q5 0 9 1t7.5 2 7.5 3 6 3.5 6 5 5 4.5l5 5 5 5q13 13 27 13 18 0 26.5-16t-1.5-32q-36-57-103-57-30 0-67 21t-62 21q-44 0-62-40h-65z" glyph-name="Ntilde" unicode="&#xd1;"/><glyph d="M312-12q-136 0-205 99t-47 248q23 155 121.5 250t251.5 95q137 0 207-100.5t46-244.5q-11-68-38.5-128t-72-110-112.5-79.5-151-29.5zM156 335q-21-125 29-196.5t140-71.5q102 0 173 71.5t92 196.5q21 122-30 193.5t-140 71.5q-108 0-176-73.5t-88-191.5zM425 744q-51 37-65.5 51.5t-14.5 32.5q0 12 9 24t27 12q21 0 33-17l84-103h-73z" glyph-name="Ograve" horiz-adv-x="728" unicode="&#xd2;"/><glyph d="M312-12q-136 0-205 99t-47 248q23 155 121.5 250t251.5 95q137 0 207-100.5t46-244.5q-11-68-38.5-128t-72-110-112.5-79.5-151-29.5zM156 335q-21-125 29-196.5t140-71.5q102 0 173 71.5t92 196.5q21 122-30 193.5t-140 71.5q-108 0-176-73.5t-88-191.5zM409 744q2 2 33.5 28t63 51.5 39.5 31.5q13 9 26 9 15 0 25.5-10.5t10.5-25.5q0-21-19-34-6-4-98-50h-81z" glyph-name="Oacute" horiz-adv-x="728" unicode="&#xd3;"/><glyph d="M312-12q-136 0-205 99t-47 248q23 155 121.5 250t251.5 95q137 0 207-100.5t46-244.5q-11-68-38.5-128t-72-110-112.5-79.5-151-29.5zM156 335q-21-125 29-196.5t140-71.5q102 0 173 71.5t92 196.5q21 122-30 193.5t-140 71.5q-108 0-176-73.5t-88-191.5zM394 747h-96l133 101q25 19 54 19t45-19l91-101h-92l-55 61z" glyph-name="Ocircumflex" horiz-adv-x="728" unicode="&#xd4;"/><glyph d="M312-12q-136 0-205 99t-47 248q23 155 121.5 250t251.5 95q137 0 207-100.5t46-244.5q-11-68-38.5-128t-72-110-112.5-79.5-151-29.5zM156 335q-21-125 29-196.5t140-71.5q102 0 173 71.5t92 196.5q21 122-30 193.5t-140 71.5q-108 0-176-73.5t-88-191.5zM281 752q39 103 128 103 36 0 73.5-21t54.5-21q5 0 9 1t7.5 2 7.5 3 6 3.5 6 5 5 4.5l5 5 5 5q13 13 27 13 18 0 26.5-15.5t-1.5-32.5q-36-57-103-57-30 0-67 21t-62 21q-44 0-62-40h-65z" glyph-name="Otilde" horiz-adv-x="728" unicode="&#xd5;"/><glyph d="M312-12q-136 0-205 99t-47 248q23 155 121.5 250t251.5 95q137 0 207-100.5t46-244.5q-11-68-38.5-128t-72-110-112.5-79.5-151-29.5zM156 335q-21-125 29-196.5t140-71.5q102 0 173 71.5t92 196.5q21 122-30 193.5t-140 71.5q-108 0-176-73.5t-88-191.5zM310 796q0 22 16 37.5t38 15.5 38-15.5 16-37.5-16-38-38-16-38 16-16 38zM522 796q0 22 15.5 37.5t37.5 15.5 38-15.5 16-37.5-15.5-38-38.5-16q-22 0-37.5 16t-15.5 38z" glyph-name="Odieresis" horiz-adv-x="728" unicode="&#xd6;"/><glyph d="M77 404l57 58 154-154 154 154 57-58-153-154 153-153-57-58-154 154-154-154-57 58 154 153z" glyph-name="multiply" horiz-adv-x="593" unicode="&#xd7;"/><glyph d="M41-4l-35 36 85 80q-50 93-31 221 23 156 121.5 251t251.5 95q114 0 184-73l78 73 35-37-81-76q58-95 37-233-9-53-27.5-102t-50-93.5-72.5-77.5-98.5-52.5-124.5-19.5q-124 0-193 82zM189 134q49-67 137-67 101 0 172.5 71t92.5 195q16 96-14 165zM156 333q-14-86 8-152l385 361q-49 58-129 58-108 0-176-74t-88-193z" glyph-name="Oslash" horiz-adv-x="728" unicode="&#xd8;"/><glyph d="M286-12q-140 0-192.5 70t-19.5 222l83 388h96l-84-396q-22-108 5-155.5t117-47.5q95 0 147.5 44.5t77.5 158.5l85 396h96l-83-388q-16-77-44-133t-58.5-86-72.5-47-75.5-21.5-77.5-4.5zM409 744q-51 37-65.5 51.5t-14.5 32.5q0 12 9 24t27 12q21 0 33-17l84-103h-73z" glyph-name="Ugrave" unicode="&#xd9;"/><glyph d="M286-12q-140 0-192.5 70t-19.5 222l83 388h96l-84-396q-22-108 5-155.5t117-47.5q95 0 147.5 44.5t77.5 158.5l85 396h96l-83-388q-16-77-44-133t-58.5-86-72.5-47-75.5-21.5-77.5-4.5zM393 744q2 2 33.5 28t63 51.5 39.5 31.5q13 9 26 9 15 0 25.5-10.5t10.5-25.5q0-21-19-34-6-4-98-50h-81z" glyph-name="Uacute" unicode="&#xda;"/><glyph d="M286-12q-140 0-192.5 70t-19.5 222l83 388h96l-84-396q-22-108 5-155.5t117-47.5q95 0 147.5 44.5t77.5 158.5l85 396h96l-83-388q-16-77-44-133t-58.5-86-72.5-47-75.5-21.5-77.5-4.5zM282 747l133 101q25 19 54 19t45-19l91-101h-92l-55 61-80-61h-96z" glyph-name="Ucircumflex" unicode="&#xdb;"/><glyph d="M286-12q-140 0-192.5 70t-19.5 222l83 388h96l-84-396q-22-108 5-155.5t117-47.5q95 0 147.5 44.5t77.5 158.5l85 396h96l-83-388q-16-77-44-133t-58.5-86-72.5-47-75.5-21.5-77.5-4.5zM344 743q-22 0-38 15.5t-16 38.5q0 22 16 37.5t38 15.5 38-15.5 16-37.5q0-23-16-38.5t-38-15.5zM502 797q0 22 15.5 37.5t37.5 15.5 38-15.5 16-37.5q0-23-15.5-38.5t-38.5-15.5q-22 0-37.5 16t-15.5 38z" glyph-name="Udieresis" unicode="&#xdc;"/><glyph d="M229 240l-139 428h96l104-337 264 337h114l-343-428-51-240h-97zM340 744q2 2 33.5 28t63 51.5 39.5 31.5q13 9 26 9 15 0 25.5-10.5t10.5-25.5q0-21-19-34-6-4-98-50h-81z" glyph-name="Yacute" horiz-adv-x="598" unicode="&#xdd;"/><glyph d="M12-8l142 667h86l-30-140h127q126 0 184.5-46t31.5-155q-23-91-92-127t-201-36h-127l-35-163h-86zM150 236h136q147 0 167 85 16 64-10 90.5t-115 26.5h-135z" glyph-name="Thorn" horiz-adv-x="586" unicode="&#xde;"/><glyph d="M100 0h-86l96 452q8 37 15.5 61t27 59 46 56 73 36.5 106.5 15.5q86 0 141-39.5t51-116.5q-3-54-37-97t-94-55q60-22 86.5-62t22.5-113q-4-76-51-126t-113.5-69-144.5-14l-6 79q24-3 47-3 73 0 120 33.5t53 102.5q7 69-34.5 99t-129.5 30l16 77q76 0 125.5 29t52.5 79q3 45-25.5 70.5t-83.5 25.5q-78 0-119-36t-59-122z" glyph-name="germandbls" horiz-adv-x="609" unicode="&#xdf;"/><glyph d="M153-12q-65 0-107 35.5t-42 93.5q0 140 242 177 22 3 123 14 31 128-85 128-92 0-127-77l-75 23q26 58 76.5 90t121.5 32q105 0 150-50.5t24-151.5l-24-114q-21-104-23-188h-79l-4 63q-66-75-171-75zM99 139q-6-40 17.5-61t63.5-21q68 0 116.5 45.5t61.5 121.5l3 17q-136-13-195-32t-67-70zM223 648q-9 13-6.5 29t14.5 24q10 7 23 7 20 0 30-15l76-121h-68q-53 54-69 76z" glyph-name="agrave" horiz-adv-x="520" unicode="&#xe0;"/><glyph d="M153-12q-65 0-107 35.5t-42 93.5q0 140 242 177 22 3 123 14 31 128-85 128-92 0-127-77l-75 23q26 58 76.5 90t121.5 32q105 0 150-50.5t24-151.5l-24-114q-21-104-23-188h-79l-4 63q-66-75-171-75zM99 139q-6-40 17.5-61t63.5-21q68 0 116.5 45.5t61.5 121.5l3 17q-136-13-195-32t-67-70zM274 572q101 109 121 126 11 9 25 9 17 0 29-12 10-12 9-28t-12-26l-98-69h-74z" glyph-name="aacute" horiz-adv-x="520" unicode="&#xe1;"/><glyph d="M4 117q0 140 242 177 22 3 123 14 31 128-85 128-92 0-127-77l-75 23q26 58 76.5 90t121.5 32q105 0 150-50.5t24-151.5l-24-114q-21-104-23-188h-79l-4 63q-66-75-171-75-65 0-107 35.5t-42 93.5zM99 139q-6-40 17.5-61t63.5-21q68 0 116.5 45.5t61.5 121.5l3 17q-136-13-195-32t-67-70zM259 575h-96l134 101q25 19 54 19 27 0 45-19l90-101h-92l-54 61z" glyph-name="acircumflex" horiz-adv-x="520" unicode="&#xe2;"/><glyph d="M4 117q0 140 242 177 22 3 123 14 31 128-85 128-92 0-127-77l-75 23q26 58 76.5 90t121.5 32q105 0 150-50.5t24-151.5l-24-114q-21-104-23-188h-79l-4 63q-66-75-171-75-65 0-107 35.5t-42 93.5zM99 139q-6-40 17.5-61t63.5-21q68 0 116.5 45.5t61.5 121.5l3 17q-136-13-195-32t-67-70zM214 577h-65q39 103 128 103 36 0 73.5-21t54.5-21q5 0 9 1t7.5 2 7.5 3 6 3.5 6 5 5 4.5l5 5 5 5q13 13 27 13 18 0 26.5-16t-1.5-32q-36-57-103-57-30 0-67 21t-62 21q-44 0-62-40z" glyph-name="atilde" horiz-adv-x="520" unicode="&#xe3;"/><glyph d="M153-12q-65 0-107 35.5t-42 93.5q0 140 242 177 22 3 123 14 31 128-85 128-92 0-127-77l-75 23q26 58 76.5 90t121.5 32q105 0 150-50.5t24-151.5l-24-114q-21-104-23-188h-79l-4 63q-66-75-171-75zM99 139q-6-40 17.5-61t63.5-21q68 0 116.5 45.5t61.5 121.5l3 17q-136-13-195-32t-67-70zM175 644q0 22 16 37.5t38 15.5 38-15.5 16-37.5-15.5-38-38.5-16-38.5 16-15.5 38zM387 644q0 22 15.5 37.5t37.5 15.5 38-15.5 16-37.5-16-38-38-16-37.5 16-15.5 38z" glyph-name="adieresis" horiz-adv-x="520" unicode="&#xe4;"/><glyph d="M4 117q0 140 242 177 22 3 123 14 31 128-85 128-92 0-127-77l-75 23q26 58 76.5 90t121.5 32q105 0 150-50.5t24-151.5l-24-114q-21-104-23-188h-79l-4 63q-66-75-171-75-65 0-107 35.5t-42 93.5zM234 668q0 45 32.5 77t78.5 32q45 0 76-32t31-77-31-77-76-32q-46 0-78.5 32t-32.5 77zM99 139q-6-40 17.5-61t63.5-21q68 0 116.5 45.5t61.5 121.5l3 17q-136-13-195-32t-67-70zM343 719q-22 0-37-15t-15-36 15-36 37-15 37 15 15 36-15 36-37 15z" glyph-name="aring" horiz-adv-x="520" unicode="&#xe5;"/><glyph d="M71 7q-33 17-50 47t-16.5 60.5 10.5 58 26 44.5q38 39 104.5 57t220.5 18q19 72 .5 107.5t-81.5 35.5q-92 0-126-77l-76 24q27 60 81.5 93t128.5 29q117-6 152-72 75 72 191 72 58 0 102-23t66-61.5 30-89-7-105.5h-385q-9-86 31-124.5t102-38.5q77 0 123 49l78-24q-77-99-212-99-132 0-183 112-38-58-96.5-85t-120.5-27q-55 0-93 19zM101 139q-7-35 11.5-59t61.5-24q70 1 119 46.5t65 121.5q-53 0-91-3t-76.5-11-61.5-26-28-45zM455 292h292q7 55-24 97.5t-99 42.5q-59 0-107-38t-62-102z" glyph-name="ae" horiz-adv-x="869" unicode="&#xe6;"/><glyph d="M177-8q-85 14-124.5 83t-23.5 173q18 114 89 185t178 71q134 0 185-111l-83-29q-10 30-39 48t-67 18q-74 0-116.5-52.5t-55.5-128.5q-13-82 14-134.5t105-52.5q75 0 124 65l71-28q-68-111-213-111l-27-33q66 11 85-29 16-34-14-69-33-37-95-37-40 0-87 17l23 37q31-14 57-14 42 0 55 26 10 21-13 29-8 3-19 3-14 0-30-4-15-4-22 7t3 22z" glyph-name="ccedilla" horiz-adv-x="493" unicode="&#xe7;"/><glyph d="M237-12q-110 0-166.5 71t-40.5 189q17 121 92 188.5t186 67.5q116 0 167-82t24-197h-384q-9-86 30.5-124.5t101.5-38.5q77 0 123 49l78-24q-77-99-211-99zM296 432q-58 0-106.5-37.5t-62.5-101.5h293q6 55-25 97t-99 42zM231 647q-9 13-6.5 29t14.5 24q10 7 23 7 20 0 30-15l76-121h-68q-53 54-69 76z" glyph-name="egrave" horiz-adv-x="541" unicode="&#xe8;"/><glyph d="M237-12q-110 0-166.5 71t-40.5 189q17 121 92 188.5t186 67.5q116 0 167-82t24-197h-384q-9-86 30.5-124.5t101.5-38.5q77 0 123 49l78-24q-77-99-211-99zM296 432q-58 0-106.5-37.5t-62.5-101.5h293q6 55-25 97t-99 42zM293 572q101 109 121 126 10 9 25 9 17 0 29-12 10-12 9-28t-12-26l-98-69h-74z" glyph-name="eacute" horiz-adv-x="541" unicode="&#xe9;"/><glyph d="M237-12q-110 0-166.5 71t-40.5 189q17 121 92 188.5t186 67.5q116 0 167-82t24-197h-384q-9-86 30.5-124.5t101.5-38.5q77 0 123 49l78-24q-77-99-211-99zM296 432q-58 0-106.5-37.5t-62.5-101.5h293q6 55-25 97t-99 42zM166 575l134 101q25 19 54 19 27 0 45-19l90-101h-92l-54 61-81-61h-96z" glyph-name="ecircumflex" horiz-adv-x="541" unicode="&#xea;"/><glyph d="M237-12q-110 0-166.5 71t-40.5 189q17 121 92 188.5t186 67.5q116 0 167-82t24-197h-384q-9-86 30.5-124.5t101.5-38.5q77 0 123 49l78-24q-77-99-211-99zM296 432q-58 0-106.5-37.5t-62.5-101.5h293q6 55-25 97t-99 42zM193 644q0 22 16 37.5t38 15.5 38-15.5 16-37.5-15.5-38-38.5-16-38.5 16-15.5 38zM458 590q-22 0-37.5 16t-15.5 38 15.5 37.5 37.5 15.5 38-15.5 16-37.5-16-38-38-16z" glyph-name="edieresis" horiz-adv-x="541" unicode="&#xeb;"/><glyph d="M132 0h-86l91 428h-80l14 68h166zM112 647q-9 13-6.5 29t14.5 24q10 7 23 7 19 0 30-15l76-121h-68q-53 54-69 76z" glyph-name="igrave" horiz-adv-x="270" unicode="&#xec;"/><glyph d="M47 1l91 428h-80l14 68h166l-105-496h-86zM238 570h-74q101 109 121 126 11 9 25 9 17 0 29-12 10-12 9-28t-12-26z" glyph-name="iacute" horiz-adv-x="270" unicode="&#xed;"/><glyph d="M47 1l91 428h-80l14 68h166l-105-496h-86zM38 575l133 101q25 19 54 19t45-19l91-101h-92l-55 61-80-61h-96z" glyph-name="icircumflex" horiz-adv-x="270" unicode="&#xee;"/><glyph d="M132 0h-86l91 428h-80l14 68h166zM91 584q-23 0-38.5 16t-15.5 38 16 37.5 38 15.5 38-15.5 16-37.5-15.5-38-38.5-16zM302 584q-22 0-37.5 16t-15.5 38 15.5 37.5 37.5 15.5 38-15.5 16-37.5-16-38-38-16z" glyph-name="idieresis" horiz-adv-x="270" unicode="&#xef;"/><glyph d="M231-12q-93 0-154.5 69t-52.5 162q10 99 76 162.5t169 63.5q61 0 106-31.5t61-74.5q17 146-43 211l-93-77-28 36 84 70q-53 29-136 24l16 76q120 3 188-44l53 44 29-36-47-38q70-77 66-240-1-29-5.5-62.5t-15.5-78.5-33-85-52.5-75-79-55.5-108.5-20.5zM108 219q-9-62 28-111t105-49q65 0 107 42.5t50 113.5-28 113-97 42q-69 0-112.5-40.5t-52.5-110.5z" glyph-name="eth" horiz-adv-x="570" unicode="&#xf0;"/><glyph d="M94 0h-86l105 496h64l6-69q59 77 173 77 81 0 114.5-54.5t10.5-162.5l-62-287h-85l59 279q17 85 .5 118t-74.5 33q-60 0-105.5-41t-65.5-132zM222 577h-65q39 103 128 103 36 0 73.5-21t54.5-21q5 0 9 1t7.5 2 7.5 3 6 3.5 6 5 5 4.5l5 5 5 5q13 13 27 13 18 0 26.5-16t-1.5-32q-36-57-103-57-30 0-67 21t-62 21q-44 0-62-40z" glyph-name="ntilde" horiz-adv-x="550" unicode="&#xf1;"/><glyph d="M230-12q-110 0-163 72t-37 187q9 66 36.5 117t66.5 81 82 44.5 88 14.5q96 0 156-69t38-198q-7-39-24.5-79t-48-80-81.5-65-113-25zM119 247q-15-83 16.5-134t101.5-51q67 0 112 50t59 135q29 183-118 183-139 0-171-183zM231 647q-9 13-6.5 29t14.5 24q10 7 23 7 20 0 30-15l76-121h-68q-54 54-69 76z" glyph-name="ograve" horiz-adv-x="547" unicode="&#xf2;"/><glyph d="M230-12q-110 0-163 72t-37 187q9 66 36.5 117t66.5 81 82 44.5 88 14.5q96 0 156-69t38-198q-7-39-24.5-79t-48-80-81.5-65-113-25zM119 247q-15-83 16.5-134t101.5-51q67 0 112 50t59 135q29 183-118 183-139 0-171-183zM369 572h-74q101 109 121 126 10 9 25 9 17 0 29-12 10-12 9-28t-12-26z" glyph-name="oacute" horiz-adv-x="547" unicode="&#xf3;"/><glyph d="M230-12q-110 0-163 72t-37 187q9 66 36.5 117t66.5 81 82 44.5 88 14.5q96 0 156-69t38-198q-7-39-24.5-79t-48-80-81.5-65-113-25zM119 247q-15-83 16.5-134t101.5-51q67 0 112 50t59 135q29 183-118 183-139 0-171-183zM268 575h-96l134 101q25 19 54 19 27 0 45-19l90-101h-92l-54 61z" glyph-name="ocircumflex" horiz-adv-x="547" unicode="&#xf4;"/><glyph d="M230-12q-110 0-163 72t-37 187q9 66 36.5 117t66.5 81 82 44.5 88 14.5q96 0 156-69t38-198q-7-39-24.5-79t-48-80-81.5-65-113-25zM119 247q-15-83 16.5-134t101.5-51q67 0 112 50t59 135q29 183-118 183-139 0-171-183zM157 577q39 103 128 103 36 0 73.5-21t54.5-21q7 0 13 1.5t12 5.5 8.5 6 9.5 8.5 8 7.5q13 13 27 13 18 0 26.5-16t-1.5-32q-36-57-103-57-30 0-67 21t-62 21q-44 0-62-40h-65z" glyph-name="otilde" horiz-adv-x="547" unicode="&#xf5;"/><glyph d="M230-12q-110 0-163 72t-37 187q9 66 36.5 117t66.5 81 82 44.5 88 14.5q96 0 156-69t38-198q-7-39-24.5-79t-48-80-81.5-65-113-25zM119 247q-15-83 16.5-134t101.5-51q67 0 112 50t59 135q29 183-118 183-139 0-171-183zM187 644q0 22 16 37.5t38 15.5 38-15.5 16-37.5-15.5-38-38.5-16-38.5 16-15.5 38zM399 644q0 22 15.5 37.5t37.5 15.5 38-15.5 16-37.5-16-38-38-16-37.5 16-15.5 38z" glyph-name="odieresis" horiz-adv-x="547" unicode="&#xf6;"/><glyph d="M52 289h496v-81h-496v81zM300 354q-27 0-46 18.5t-19 45.5 19 46 46 19 45.5-19 18.5-46-18.5-45.5-45.5-18.5zM300 14q-27 0-46 19t-19 46q0 26 19 45t46 19 45.5-19 18.5-45q0-27-18.5-46t-45.5-19z" glyph-name="divide" horiz-adv-x="619" unicode="&#xf7;"/><glyph d="M24-11l-35 37 62 58q-34 66-22 162 18 128 97.5 193t175.5 65q86 0 140-53l61 58 35-37-64-61q40-72 22-175-7-39-24.5-78.5t-48.5-79.5-81-65-112-25q-96 0-149 55zM144 102q31-40 93-40 66 0 111 50t59 134q10 61-1 102zM119 246q-9-56 1-97l263 246q-32 35-94 35-61 0-107-42.5t-63-141.5z" glyph-name="oslash" horiz-adv-x="547" unicode="&#xf8;"/><glyph d="M173-11q-89 0-116.5 60t-7.5 154l62 293h86l-62-291q-7-40-9-71.5t17-51.5 60-20q131 0 169 174l56 260h85l-105-496h-65l-6 70q-33-43-70.5-62t-93.5-19zM229 647q-9 13-6.5 29t14.5 24q10 7 23 7 20 0 30-15l76-121h-68q-53 54-69 76z" glyph-name="ugrave" horiz-adv-x="540" unicode="&#xf9;"/><glyph d="M173-11q-89 0-116.5 60t-7.5 154l62 293h86l-62-291q-7-40-9-71.5t17-51.5 60-20q131 0 169 174l56 260h85l-105-496h-65l-6 70q-33-43-70.5-62t-93.5-19zM367 572h-74q101 109 121 126 10 9 25 9 17 0 29-12 10-12 9-28t-12-26z" glyph-name="uacute" horiz-adv-x="540" unicode="&#xfa;"/><glyph d="M173-11q-89 0-116.5 60t-7.5 154l62 293h86l-62-291q-7-40-9-71.5t17-51.5 60-20q131 0 169 174l56 260h85l-105-496h-65l-6 70q-33-43-70.5-62t-93.5-19zM265 575h-96l134 101q25 19 54 19 27 0 45-19l90-101h-92l-54 61z" glyph-name="ucircumflex" horiz-adv-x="540" unicode="&#xfb;"/><glyph d="M173-11q-89 0-116.5 60t-7.5 154l62 293h86l-62-291q-7-40-9-71.5t17-51.5 60-20q131 0 169 174l56 260h85l-105-496h-65l-6 70q-33-43-70.5-62t-93.5-19zM182 644q0 22 16 37.5t38 15.5 38-15.5 16-37.5-16-38-38-16-38 16-16 38zM447 590q-22 0-37.5 16t-15.5 38 15.5 37.5 37.5 15.5 38-15.5 16-37.5-15.5-38-38.5-16z" glyph-name="udieresis" horiz-adv-x="540" unicode="&#xfc;"/><glyph d="M-19-161h-43l16 75h34q60 0 80 14.5t48 71.5l-73 496h89l40-386 206 386h100l-287-517q-52-94-85-117t-125-23zM309 572h-74q101 109 121 126 10 9 25 9 17 0 29-12 10-12 9-28t-12-26z" glyph-name="yacute" horiz-adv-x="435" unicode="&#xfd;"/><glyph d="M-26-161l176 829h86l-48-230q52 66 140 66 82 0 132-56t50-157q-1-138-72-220.5t-173-82.5q-57 0-96.5 30.5t-53.5 75.5l-55-255h-86zM141 218q0-76 32.5-117t88.5-41q49 0 86 37.5t54 88 17 102.5q1 72-29 108t-81 36q-55 0-95-38t-56.5-85-16.5-91z" glyph-name="thorn" horiz-adv-x="558" unicode="&#xfe;"/><glyph d="M-62-161l16 75h34q60 0 80 14.5t48 71.5l-73 496h89l40-386 206 386h100l-287-517q-52-94-85-117t-125-23h-43zM184 590q-22 0-38 16t-16 38 16 37.5 38 15.5 38-15.5 16-37.5-16-38-38-16zM342 644q0 22 15.5 37.5t37.5 15.5 38-15.5 16-37.5-15.5-38-38.5-16q-22 0-37.5 16t-15.5 38z" glyph-name="ydieresis" horiz-adv-x="435" unicode="&#xff;"/><glyph d="M-52 0l392 668h116l109-668h-103l-21 146h-302l-83-146h-108zM184 226h246l-49 347zM555 762h-276l15 67h276z" glyph-name="Amacron" horiz-adv-x="627" unicode="&#x100;"/><glyph d="M4 117q0 140 242 177 22 3 123 14 31 128-85 128-92 0-127-77l-75 23q26 58 76.5 90t121.5 32q105 0 150-50.5t24-151.5l-24-114q-21-104-23-188h-79l-4 63q-66-75-171-75-65 0-107 35.5t-42 93.5zM99 139q-6-40 17.5-61t63.5-21q68 0 116.5 45.5t61.5 121.5l3 17q-136-13-195-32t-67-70zM467 601h-276l14 67h276z" glyph-name="amacron" horiz-adv-x="520" unicode="&#x101;"/><glyph d="M-52 0l392 668h116l109-668h-103l-21 146h-302l-83-146h-108zM184 226h246l-49 347zM512 855h69q-20-50-62.5-85t-102.5-35-94.5 37-34.5 83h69q10-53 67-53 56 0 89 53z" glyph-name="Abreve" horiz-adv-x="627" unicode="&#x102;"/><glyph d="M328 0l-4 63q-66-75-171-75-65 0-107 35.5t-42 93.5q0 140 242 177 22 3 123 14 31 128-85 128-92 0-127-77l-75 23q26 58 76.5 90t121.5 32q105 0 150-50.5t24-151.5l-24-114q-21-104-23-188h-79zM361 241q-136-13-195-32t-67-70q-6-40 17.5-61t63.5-21q68 0 116.5 45.5t61.5 121.5zM423 689h69q-20-50-62.5-85t-102.5-35-94.5 37-34.5 83h69q10-53 67-53 56 0 89 53z" glyph-name="abreve" horiz-adv-x="520" unicode="&#x103;"/><glyph d="M56 0h-108l392 668h116l109-668q-49-18-78.5-41t-29.5-48q0-12 11.5-19.5t29.5-7.5q20 0 44 9l-11-54q-39-12-67-12-40 0-62 19t-22 48q0 34 29 63t77 43h-24l-21 146h-302zM381 573l-197-347h246z" glyph-name="Aogonek" horiz-adv-x="627" unicode="&#x104;"/><glyph d="M4 117q0 140 242 177 22 3 123 14 31 128-85 128-92 0-127-77l-75 23q26 58 76.5 90t121.5 32q105 0 150-50.5t24-151.5l-24-114q-21-104-23-188-49-18-78.5-41t-29.5-48q0-12 11.5-19.5t29.5-7.5q20 0 44 9l-11-54q-39-12-67-12-40 0-62 19t-22 48q0 34 29 63t77 43l-4 63q-66-75-171-75-65 0-107 35.5t-42 93.5zM99 139q-6-40 17.5-61t63.5-21q68 0 116.5 45.5t61.5 121.5l3 17q-136-13-195-32t-67-70z" glyph-name="aogonek" horiz-adv-x="520" unicode="&#x105;"/><glyph d="M316-12q-65 0-115.5 20.5t-79.5 55.5-47.5 80-19 94 5.5 98q26 152 123.5 248t238.5 96q89 0 149.5-38t84.5-114l-89-30q-16 50-56.5 76t-98.5 26q-95 0-164.5-71.5t-91.5-192.5q-21-115 27.5-192t142.5-77q65 0 110 25t81 79l79-31q-95-152-280-152zM408 744q2 2 33.5 28t63 51.5 39.5 31.5q14 9 26 9 15 0 25.5-10.5t10.5-25.5q0-21-19-34-6-4-98-50h-81z" glyph-name="Cacute" horiz-adv-x="666" unicode="&#x106;"/><glyph d="M220-12q-106 0-157.5 71t-33.5 189q18 114 89 185t178 71q134 0 185-111l-83-29q-10 30-39 48t-67 18q-74 0-116.5-52.5t-55.5-128.5q-13-82 14-134.5t105-52.5q75 0 124 65l71-28q-33-54-89.5-82.5t-124.5-28.5zM287 572q101 109 121 126 11 9 25 9 17 0 29-12 10-12 9-28t-12-26l-98-69h-74z" glyph-name="cacute" horiz-adv-x="493" unicode="&#x107;"/><glyph d="M316-12q-65 0-115.5 20.5t-79.5 55.5-47.5 80-19 94 5.5 98q26 152 123.5 248t238.5 96q89 0 149.5-38t84.5-114l-89-30q-16 50-56.5 76t-98.5 26q-95 0-164.5-71.5t-91.5-192.5q-21-115 27.5-192t142.5-77q65 0 110 25t81 79l79-31q-95-152-280-152zM467 742q-23 0-38.5 16t-15.5 38 15.5 38 38.5 16 38.5-16 15.5-38-15.5-38-38.5-16z" glyph-name="Cdotaccent" horiz-adv-x="666" unicode="&#x10a;"/><glyph d="M220-12q-106 0-157.5 71t-33.5 189q18 114 89 185t178 71q134 0 185-111l-83-29q-10 30-39 48t-67 18q-74 0-116.5-52.5t-55.5-128.5q-13-82 14-134.5t105-52.5q75 0 124 65l71-28q-33-54-89.5-82.5t-124.5-28.5zM352 590q-22 0-38 16t-16 38 16 38 38 16 38-16 16-38-16-38-38-16z" glyph-name="cdotaccent" horiz-adv-x="493" unicode="&#x10b;"/><glyph d="M316-12q-65 0-115.5 20.5t-79.5 55.5-47.5 80-19 94 5.5 98q26 152 123.5 248t238.5 96q89 0 149.5-38t84.5-114l-89-30q-16 50-56.5 76t-98.5 26q-95 0-164.5-71.5t-91.5-192.5q-21-115 27.5-192t142.5-77q65 0 110 25t81 79l79-31q-95-152-280-152zM312 861h91l54-61 81 61h97l-133-101q-25-19-53-19-30 0-46 19z" glyph-name="Ccaron" horiz-adv-x="666" unicode="&#x10c;"/><glyph d="M220-12q-106 0-157.5 71t-33.5 189q18 114 89 185t178 71q134 0 185-111l-83-29q-10 30-39 48t-67 18q-74 0-116.5-52.5t-55.5-128.5q-13-82 14-134.5t105-52.5q75 0 124 65l71-28q-33-54-89.5-82.5t-124.5-28.5zM192 689h91l54-61 81 61h97l-133-101q-25-19-53-19-30 0-46 19z" glyph-name="ccaron" horiz-adv-x="493" unicode="&#x10d;"/><glyph d="M14 0l142 668h184q350 0 291-349-26-157-141-238t-291-81h-185zM127 79h86q281 0 323 246 10 48 7.5 85.5t-9 65.5-23.5 47.5-35.5 32-45.5 20-52.5 10-57.5 2.5h-85zM289 861h91l54-61 81 61h97l-133-101q-25-19-53-19-30 0-46 19z" glyph-name="Dcaron" horiz-adv-x="676" unicode="&#x10e;"/><glyph d="M361 0l-5 61q-58-73-151-73-94 0-142 73.5t-33 185.5q16 119 82 188t159 69q57 0 97.5-29.5t55.5-76.5l57 270h86q-77-360-102-480-22-107-23-188h-81zM226 60q74 0 118.5 58t51.5 129q8 85-22 135t-94 50q-65 0-105.5-52t-53.5-133q-14-89 18-138t87-49zM619 496h-49q0 1 13.5 37.5t27 71 18.5 45.5q4 10 15 19.5t27 9.5q19 0 27.5-13.5t-.5-35.5z" glyph-name="dcaron" horiz-adv-x="587" unicode="&#x10f;"/><glyph d="M134 303h-92l17 80h92l61 285h184q350 0 291-349-26-157-141-238t-291-81h-185zM371 303h-140l-48-224h86q281 0 323 246 10 48 7.5 85.5t-9 65.5-23.5 47.5-35.5 32-45.5 20-52.5 10-57.5 2.5h-85l-43-205h140z" glyph-name="Dcroat" horiz-adv-x="732" unicode="&#x110;"/><glyph d="M205-12q-94 0-142 73.5t-33 185.5q16 119 82 188t159 69q57 0 97.5-29.5t55.5-76.5l32 150h-163l15 67h162l11 53h86q-4-20-11-53h81l-15-67h-81q-56-258-76-360-22-107-23-188h-81l-5 61q-58-73-151-73zM121 247q-14-89 18-138t87-49q74 0 118.5 58t51.5 129q8 85-22 135t-94 50q-65 0-105.5-52t-53.5-133z" glyph-name="dcroat" horiz-adv-x="601" unicode="&#x111;"/><glyph d="M14 0l142 668h455l-17-81h-359l-43-203h265l-18-80h-264l-48-223h359l-17-81h-455zM264 762l15 67h276l-15-67h-276z" glyph-name="Emacron" horiz-adv-x="569" unicode="&#x112;"/><glyph d="M237-12q-110 0-166.5 71t-40.5 189q17 121 92 188.5t186 67.5q116 0 167-82t24-197h-384q-9-86 30.5-124.5t101.5-38.5q77 0 123 49l78-24q-77-99-211-99zM296 432q-58 0-106.5-37.5t-62.5-101.5h293q6 55-25 97t-99 42zM483 601h-276l14 67h276z" glyph-name="emacron" horiz-adv-x="541" unicode="&#x113;"/><glyph d="M469 0h-455l142 668h455l-17-81h-359l-43-203h265l-18-80h-264l-48-223h359zM413 762q-23 0-38.5 16t-15.5 38 15.5 38 38.5 16 38.5-16 15.5-38-15.5-38-38.5-16z" glyph-name="Edotaccent" horiz-adv-x="569" unicode="&#x116;"/><glyph d="M237-12q-110 0-166.5 71t-40.5 189q17 121 92 188.5t186 67.5q116 0 167-82t24-197h-384q-9-86 30.5-124.5t101.5-38.5q77 0 123 49l78-24q-77-99-211-99zM296 432q-58 0-106.5-37.5t-62.5-101.5h293q6 55-25 97t-99 42zM300 644q0 22 16 38t38 16 38-16 16-38-16-38-38-16-38 16-16 38z" glyph-name="edotaccent" horiz-adv-x="541" unicode="&#x117;"/><glyph d="M369 0h-355l142 668h455l-17-81h-359l-43-203h265l-18-80h-264l-48-223h359l-17-81h-21q-49-18-78.5-41t-29.5-48q0-12 11.5-19.5t29.5-7.5q20 0 44 9l-11-54q-39-12-67-12-40 0-62 19t-22 48q0 34 29 63t77 43z" glyph-name="Eogonek" horiz-adv-x="569" unicode="&#x118;"/><glyph d="M234-12q-109 2-164.5 72.5t-39.5 187.5q17 121 92 188.5t186 67.5q116 0 167-82t24-197h-384q-9-86 30.5-124.5t101.5-38.5q77 0 123 49l78-24q-45-58-112-82-77-37-77-88 0-33 42-33 19 0 43 9l-11-54q-37-12-67-12-40 0-62 20t-22 53q0 50 52 88zM296 432q-58 0-106.5-37.5t-62.5-101.5h293q6 55-25 97t-99 42z" glyph-name="eogonek" horiz-adv-x="541" unicode="&#x119;"/><glyph d="M469 0h-455l142 668h455l-17-81h-359l-43-203h265l-18-80h-264l-48-223h359zM265 861h91l54-61 81 61h97l-133-101q-25-19-53-19-30 0-46 19z" glyph-name="Ecaron" horiz-adv-x="569" unicode="&#x11a;"/><glyph d="M237-12q-110 0-166.5 71t-40.5 189q17 121 92 188.5t186 67.5q116 0 167-82t24-197h-384q-9-86 30.5-124.5t101.5-38.5q77 0 123 49l78-24q-77-99-211-99zM296 432q-58 0-106.5-37.5t-62.5-101.5h293q6 55-25 97t-99 42zM296 588l-91 101h91l54-61 81 61h97l-133-101q-25-19-53-19-30 0-46 19z" glyph-name="ecaron" horiz-adv-x="541" unicode="&#x11b;"/><glyph d="M352 264l17 80h287l-74-344h-56l-6 82q-84-94-219-94-132 0-197.5 97.5t-43.5 250.5q22 148 120 246t239 98q192 0 237-152l-89-30q-12 43-51.5 72.5t-103.5 29.5q-94 0-165-71t-91-193q-20-120 27.5-193t134.5-76q182-7 225 176l5 21h-196zM560 861h69q-20-50-62.5-85t-102.5-35-94.5 37-34.5 83h69q10-53 67-53 56 0 89 53z" glyph-name="Gbreve" horiz-adv-x="713" unicode="&#x11e;"/><glyph d="M-5-78l90 25q6-28 34.5-47t73.5-17q69 3 100.5 38.5t47.5 101.5l13 57q-23-30-58.5-46.5t-73-18-74.5 14-64.5 44-42 76.5-8.5 108q8 72 36 125t66 79.5 82.5 37.5 85 3 74-30 48.5-55l40 78h62q-71-337-95-449-18-82-32-114-58-123-221-123-64 0-115 30t-69 82zM242 89q59-2 99.5 44.5t53.5 122.5q14 82-22.5 129t-97.5 47q-62 0-102.5-46.5t-50.5-129.5q-10-75 24-120t96-47zM431 689h69q-20-50-62.5-85t-102.5-35-94.5 37-34.5 83h69q10-53 67-53 56 0 89 53z" glyph-name="gbreve" horiz-adv-x="554" unicode="&#x11f;"/><glyph d="M301-12q-132 0-197.5 97.5t-43.5 250.5q22 148 120 246t239 98q192 0 237-152l-89-30q-12 43-51.5 72.5t-103.5 29.5q-94 0-165-71t-91-193q-20-120 27.5-193t134.5-76q182-7 225 176l5 21h-196l17 80h287l-74-344h-56l-6 82q-84-94-219-94zM467 762q-23 0-38.5 16t-15.5 38 15.5 38 38.5 16 38.5-16 15.5-38-15.5-38-38.5-16z" glyph-name="Gdotaccent" horiz-adv-x="713" unicode="&#x120;"/><glyph d="M179-190q-64 0-115 30t-69 82l90 25q6-28 34.5-47t73.5-17q69 3 100.5 38.5t47.5 101.5l13 57q-49-64-136-64-82 0-139.5 64t-45.5 178q13 124 80 186t152 62q53 0 97-24t63-64l40 78h62q-71-337-95-449-18-82-32-114-58-123-221-123zM122 256q-10-75 24-120t96-47q59-2 99.5 44.5t53.5 122.5q14 82-22.5 129t-97.5 47q-62 0-102.5-46.5t-50.5-129.5zM349 591q-23 0-38.5 15.5t-15.5 38.5 15.5 38.5 38.5 15.5 38.5-15.5 15.5-38.5-15.5-38.5-38.5-15.5z" glyph-name="gdotaccent" horiz-adv-x="554" unicode="&#x121;"/><glyph d="M352 264l17 80h287l-74-344h-56l-6 82q-84-94-219-94-132 0-197.5 97.5t-43.5 250.5q22 148 120 246t239 98q192 0 237-152l-89-30q-12 43-51.5 72.5t-103.5 29.5q-94 0-165-71t-91-193q-20-120 27.5-193t134.5-76q182-7 225 176l5 21h-196zM183-251l-25 36q29-3 61 13t40 55q5 20-3.5 37t-26.5 25l60 29q48-30 37-87-9-49-49.5-78.5t-93.5-29.5z" glyph-name="uni0122" horiz-adv-x="713" unicode="&#x122;"/><glyph d="M-5-78l90 25q6-28 34.5-47t73.5-17q69 3 100.5 38.5t47.5 101.5l13 57q-23-30-58.5-46.5t-73-18-74.5 14-64.5 44-42 76.5-8.5 108q8 72 36 125t66 79.5 82.5 37.5 85 3 74-30 48.5-55l40 78h62q-71-337-95-449-18-82-32-114-58-123-221-123-64 0-115 30t-69 82zM242 89q59-2 99.5 44.5t53.5 122.5q14 82-22.5 129t-97.5 47q-62 0-102.5-46.5t-50.5-129.5q-10-75 24-120t96-47zM419 772l25-36q-30 3-61.5-13t-40.5-55q-8-44 30-62l-59-29q-48 30-37 87 9 49 49.5 78.5t93.5 29.5z" glyph-name="uni0123" horiz-adv-x="554" unicode="&#x123;"/><glyph d="M119 0h-96l107 504h-75l17 79h75l18 85h96l-18-85h350l18 85h96l-18-85h73l-17-79h-73l-107-504h-96l64 304h-349zM576 504h-350l-25-120h350z" glyph-name="Hbar" horiz-adv-x="710" unicode="&#x126;"/><glyph d="M172 615l11 53h86l-11-53h160l-14-67h-160l-26-121q59 77 171 77 81 0 114.5-54t10.5-162l-62-288h-85l59 280q17 85 .5 117.5t-74.5 32.5q-60 0-106-41t-65-132l-54-257h-86l116 548h-82l14 67h83z" glyph-name="hbar" horiz-adv-x="582" unicode="&#x127;"/><glyph d="M285 0h-281l16 75h93l110 518h-93l16 75h281l-15-75h-94l-109-518h92zM444 762h-276l15 67h276z" glyph-name="Imacron" horiz-adv-x="414" unicode="&#x12a;"/><glyph d="M54 1l91 428h-80l14 68h166l-105-496h-86zM82 601l14 67h276l-14-67h-276z" glyph-name="imacron" horiz-adv-x="278" unicode="&#x12b;"/><glyph d="M129 0h-125l16 75h93l110 518h-93l16 75h281l-15-75h-94l-109-518h92l-16-75h-77q-49-18-78.5-41t-29.5-48q0-12 11.5-19.5t29.5-7.5q20 0 44 9l-11-54q-39-12-67-12-40 0-62 19t-22 48q0 34 29 63t77 43z" glyph-name="Iogonek" horiz-adv-x="414" unicode="&#x12e;"/><glyph d="M-54-106q0 34 29 63t78 43h-7l91 428h-80l14 68h166l-105-496q-49-18-78.5-41t-29.5-48q0-12 11.5-19.5t29.5-7.5q20 0 44 9l-11-54q-39-12-68-12-40 0-62 19t-22 48zM229 591q-25 0-43.5 18.5t-18.5 43.5q0 26 18 44.5t44 18.5 44.5-18.5 18.5-44.5-18.5-44-44.5-18z" glyph-name="iogonek" horiz-adv-x="270" unicode="&#x12f;"/><glyph d="M46 0l91 428h-80l14 68h166l-105-496h-86z" glyph-name="dotlessi" horiz-adv-x="270" unicode="&#x131;"/><glyph d="M14 0l142 668h96l-69-323 357 323h130l-319-283 200-385h-105l-165 324-126-114-45-210h-96zM136-251l-25 36q29-3 61 13t40 55q5 20-3.5 37t-26.5 25l60 29q48-30 37-87-9-49-49.5-78.5t-93.5-29.5z" glyph-name="uni0136" horiz-adv-x="623" unicode="&#x136;"/><glyph d="M8 0l142 668h86l-82-383 235 211h112l-234-207 149-289h-94l-119 232-74-66-35-166h-86zM73-251l-25 36q29-3 61 13t40 55q5 20-3.5 37t-26.5 25l59 29q49-30 38-87-9-49-49.5-78.5t-93.5-29.5z" glyph-name="uni0137" horiz-adv-x="488" unicode="&#x137;"/><glyph d="M14 0l142 668h96l-125-587h359l-17-81h-455zM121-252l-26 36q30-3 61.5 13t40.5 55q4 20-4 37t-26 25l59 29q47-29 38-87-9-49-49.5-78.5t-93.5-29.5z" glyph-name="uni013B" horiz-adv-x="541" unicode="&#x13b;"/><glyph d="M199 75l-16-75h-56q-73 0-89.5 28t-2.5 97l115 543h86l-112-528q-9-34-2.5-49.5t40.5-15.5h37zM-26-251l-25 36q29-3 61 13t40 55q4 19-4 36.5t-25 25.5l59 29q48-30 37-87-9-49-49.5-78.5t-93.5-29.5z" glyph-name="uni013C" horiz-adv-x="260" unicode="&#x13c;"/><glyph d="M14 0l142 668h96l-125-587h359l-17-81h-455zM323 496h-49q0 1 13.5 37.5t27 71 18.5 45.5q4 10 15 19.5t27 9.5q19 0 27.5-13.5t-.5-35.5z" glyph-name="Lcaron" horiz-adv-x="541" unicode="&#x13d;"/><glyph d="M199 75l-16-75h-56q-73 0-89.5 28t-2.5 97l115 543h86l-112-528q-9-34-2.5-49.5t40.5-15.5h37zM290 496h-49q0 1 13.5 37.5t27 71 18.5 45.5q4 10 15 19.5t27 9.5q19 0 27.5-13.5t-.5-35.5z" glyph-name="lcaron" horiz-adv-x="264" unicode="&#x13e;"/><glyph d="M46 0l57 266-99-52 15 73 99 52 70 329h96l-57-272 201 108-15-73-202-107-52-242h359l-17-82h-455z" glyph-name="Lslash" horiz-adv-x="573" unicode="&#x141;"/><glyph d="M78 272l-76-40 15 71 76 39 69 326h86l-59-275 101 54-15-71-101-53-39-183q-9-34-2.5-49.5t40.5-15.5h38l-16-75h-56q-74 0-90.5 28t-2.5 97z" glyph-name="lslash" horiz-adv-x="272" unicode="&#x142;"/><glyph d="M110 0h-96l142 668h137l186-574 122 574h96l-142-668h-137l-185 576zM491 745h-81q2 2 33.5 28t63 51.5 39.5 31.5q14 9 26 9 15 0 25.5-10.5t10.5-25.5q0-21-19-34-6-4-98-50z" glyph-name="Nacute" unicode="&#x143;"/><glyph d="M94 0h-86l105 496h64l6-69q59 77 173 77 81 0 114.5-54.5t10.5-162.5l-62-287h-85l59 279q17 85 .5 118t-74.5 33q-60 0-105.5-41t-65.5-132zM296 572q101 109 121 126 11 9 25 9 17 0 29-12 10-12 9-28t-12-26l-98-69h-74z" glyph-name="nacute" horiz-adv-x="550" unicode="&#x144;"/><glyph d="M14 0l142 668h137l186-574 122 574h96l-142-668h-137l-185 576-123-576h-96zM181-251l-26 36q30-3 61.5 13t40.5 55q4 20-4 37t-26 25l59 29q47-29 38-87-9-49-49.5-78.5t-93.5-29.5z" glyph-name="uni0145" unicode="&#x145;"/><glyph d="M8 0l105 496h64l6-69q59 77 173 77 81 0 114.5-54.5t10.5-162.5l-62-287h-85l59 279q17 85 .5 118t-74.5 33q-60 0-105.5-41t-65.5-132l-54-257h-86zM109-251l-26 36q30-3 61.5 13t40.5 55q4 20-4 37t-26 25l59 29q47-29 38-87-9-49-49.5-78.5t-93.5-29.5z" glyph-name="uni0146" horiz-adv-x="550" unicode="&#x146;"/><glyph d="M110 0h-96l142 668h137l186-574 122 574h96l-142-668h-137l-185 576zM307 861h91l54-61 81 61h97l-133-101q-25-19-53-19-30 0-46 19z" glyph-name="Ncaron" unicode="&#x147;"/><glyph d="M94 0h-86l105 496h64l6-69q59 77 173 77 81 0 114.5-54.5t10.5-162.5l-62-287h-85l59 279q17 85 .5 118t-74.5 33q-60 0-105.5-41t-65.5-132zM198 689h91l54-61 81 61h97l-133-101q-25-19-53-19-30 0-46 19z" glyph-name="ncaron" horiz-adv-x="550" unicode="&#x148;"/><glyph d="M312-12q-136 0-205 99t-47 248q23 155 121.5 250t251.5 95q137 0 207-100.5t46-244.5q-11-68-38.5-128t-72-110-112.5-79.5-151-29.5zM156 335q-21-125 29-196.5t140-71.5q102 0 173 71.5t92 196.5q21 122-30 193.5t-140 71.5q-108 0-176-73.5t-88-191.5zM501 744q100 110 121 127 12 9 26 9 18 0 27-12 10-12 9.5-28t-12.5-26q-9-8-33.5-25.5t-44.5-30.5l-20-14h-73zM429 744h-74q102 109 121 127 12 9 26 9 18 0 28-12t9-27.5-12-26.5q-9-8-33.5-25.5t-44.5-30.5z" glyph-name="Ohungarumlaut" horiz-adv-x="728" unicode="&#x150;"/><glyph d="M230-12q-110 0-163 72t-37 187q9 66 36.5 117t66.5 81 82 44.5 88 14.5q96 0 156-69t38-198q-7-39-24.5-79t-48-80-81.5-65-113-25zM119 247q-15-83 16.5-134t101.5-51q67 0 112 50t59 135q29 183-118 183-139 0-171-183zM355 572q100 110 121 127 12 9 26 9 16 0 27-12 10-12 9.5-28t-12.5-26q-9-8-33.5-25.5t-44.5-30.5l-20-14h-73zM283 572h-74q102 109 121 127 12 9 26 9 18 0 28-12t9-27.5-12-26.5q-9-8-33.5-25.5t-44.5-30.5z" glyph-name="ohungarumlaut" horiz-adv-x="547" unicode="&#x151;"/><glyph d="M313-12q-136 0-205.5 99t-47.5 247q23 156 121 251t252 95q152 0 221-123l24 111h439l-17-81h-359l-43-203h265l-17-80h-266l-47-222h360l-17-82h-440l17 80q-97-92-240-92zM156 334q-21-124 29.5-195t140.5-71q101 0 172 71t92 195q21 123-30 195t-140 72q-108 0-176-74t-88-193z" glyph-name="OE" horiz-adv-x="1076" unicode="&#x152;"/><glyph d="M232-12q-109 0-164 70.5t-38 188.5q9 66 37 117t67 80.5 81.5 44.5 84.5 15q116 0 167-98 34 47 88.5 72.5t118.5 25.5q118 0 170-81t24-197h-384q-8-85 29.5-124.5t102.5-39.5q79 0 123 49l78-24q-77-99-207-99-70 0-113.5 24.5t-72.5 73.5q-74-98-192-98zM119 249q-15-86 16.5-135.5t97.5-51.5q68-1 115.5 50.5t59.5 135.5q25 182-116 182-62 0-109-42t-64-139zM664 432q-58 0-105.5-37.5t-61.5-101.5h292q7 56-24 97.5t-101 41.5z" glyph-name="oe" horiz-adv-x="910" unicode="&#x153;"/><glyph d="M14 0l142 668h204q127 0 189.5-44.5t49.5-148.5q-8-72-61-124.5t-167-62.5l147-288h-105l-143 281h-100l-60-281h-96zM187 360h124q87 0 135 23.5t56 89.5q8 65-30 90t-120 25h-117zM435 744h-81q2 2 33.5 28t63 51.5 39.5 31.5q13 9 26 9 15 0 25.5-10.5t10.5-25.5q0-21-19-34-6-4-98-50z" glyph-name="Racute" horiz-adv-x="610" unicode="&#x154;"/><glyph d="M94 0h-86l105 496h63l8-93q35 50 79.5 75.5t119.5 25.5l-19-89q-97 4-151-51t-76-159zM196 571q101 109 121 126 11 9 25 9 17 0 29-12 10-12 9-28t-12-26l-98-69h-74z" glyph-name="racute" horiz-adv-x="353" unicode="&#x155;"/><glyph d="M110 0h-96l142 668h204q127 0 189.5-44.5t49.5-148.5q-8-72-61-124.5t-167-62.5l147-288h-105l-143 281h-100zM235 588l-48-228h124q87 0 135 23.5t56 89.5q8 65-30 90t-120 25h-117zM272 861h91l54-61 81 61h97l-133-101q-25-19-53-19-30 0-46 19z" glyph-name="Rcaron" horiz-adv-x="610" unicode="&#x158;"/><glyph d="M95 2h-86l105 496h63l8-93q35 50 79.5 75.5t119.5 25.5l-19-89q-97 4-151-51t-76-159zM135 689h91l54-61 81 61h97l-133-101q-25-19-53-19t-46 19z" glyph-name="rcaron" horiz-adv-x="353" unicode="&#x159;"/><glyph d="M544 197q0-96-77.5-152.5t-181.5-56.5q-85 0-154 40.5t-95 118.5l91 25q18-51 64-78t102-27q62 0 107.5 31.5t45.5 85.5q0 39-26.5 64.5t-66.5 37.5-86.5 27.5-86.5 33-66.5 55.5-26.5 93q0 87 70 136t167 49q77 0 143-32.5t94-92.5l-92-26q-17 34-59 53t-90 19q-55 0-94.5-25t-43.5-71q-3-45 33-72t90-42.5 108-33.5 92.5-58 38.5-102zM333 744q2 2 33.5 28t63 51.5 39.5 31.5q13 9 26 9 15 0 25.5-10.5t10.5-25.5q0-21-19-34-6-4-98-50h-81z" glyph-name="Sacute" horiz-adv-x="609" unicode="&#x15a;"/><glyph d="M213-12q-155 0-203 125l86 29q8-42 42-64t78-22 76.5 22 32.5 59q0 30-28.5 48.5t-69 29-81 24-69 45-28.5 81.5q0 66 56.5 102.5t134.5 36.5q65 0 119-26.5t72-75.5l-80-28q-9 29-43 45t-75 16-70-17-29-48q0-30 28.5-48t70-28.5 82.5-24.5 69.5-45.5 28.5-80.5q0-74-56.5-114.5t-143.5-40.5zM253 570q101 109 121 126 10 9 25 9 17 0 29-12 10-12 9-28t-12-26l-98-69h-74z" glyph-name="sacute" horiz-adv-x="479" unicode="&#x15b;"/><glyph d="M252-11q-75 8-133.5 48t-82.5 110l91 25q18-51 64-78t102-27q62 0 107.5 31.5t45.5 85.5q0 39-26.5 64.5t-66.5 37.5-86.5 27.5-86.5 33-66.5 55.5-26.5 93q0 87 70 136t167 49q77 0 143-32.5t94-92.5l-92-26q-17 34-59 53t-90 19q-55 0-94.5-25t-43.5-71q-3-45 33-72t90-42.5 108-33.5 92.5-58 38.5-102q0-92-72.5-148.5t-173.5-60.5l-27-33q66 11 85-29 16-34-14-69-33-37-95-37-40 0-87 17l23 37q31-14 57-14 42 0 55 26 10 21-13 29-8 3-19 3-14 0-30-4-15-4-21.5 7t2.5 22z" glyph-name="Scedilla" horiz-adv-x="609" unicode="&#x15e;"/><glyph d="M173-10q-120 14-163 123l86 29q8-42 42-64t78-22 76.5 22 32.5 59q0 30-28.5 48.5t-69 29-81 24-69 45-28.5 81.5q0 66 56.5 102.5t134.5 36.5q65 0 119-26.5t72-75.5l-80-28q-9 29-43 45t-75 16-70-17-29-48q0-30 28.5-48t70-28.5 82.5-24.5 69.5-45.5 28.5-80.5q0-72-55-112.5t-140-42.5l-27-33q66 11 85-29 16-34-14-69-33-37-95-37-40 0-87 17l23 37q31-14 57-14 42 0 55 26 10 21-13 29-8 3-19 3-14 0-30-4-15-4-21.5 7t2.5 22z" glyph-name="scedilla" horiz-adv-x="479" unicode="&#x15f;"/><glyph d="M36 147l91 25q18-51 64-78t102-27q62 0 107.5 31.5t45.5 85.5q0 39-26.5 64.5t-66.5 37.5-86.5 27.5-86.5 33-66.5 55.5-26.5 93q0 87 70 136t167 49q77 0 143-32.5t94-92.5l-92-26q-17 34-59 53t-90 19q-55 0-94.5-25t-43.5-71q-3-45 33-72t90-42.5 108-33.5 92.5-58 38.5-102q0-96-77.5-152.5t-181.5-56.5q-85 0-154 40.5t-95 118.5zM328 760l-91 101h91l54-61 81 61h97l-133-101q-25-19-53-19-30 0-46 19z" glyph-name="Scaron" horiz-adv-x="609" unicode="&#x160;"/><glyph d="M213-12q-155 0-203 125l86 29q8-42 42-64t78-22 76.5 22 32.5 59q0 30-28.5 48.5t-69 29-81 24-69 45-28.5 81.5q0 66 56.5 102.5t134.5 36.5q65 0 119-26.5t72-75.5l-80-28q-9 29-43 45t-75 16-70-17-29-48q0-30 28.5-48t70-28.5 82.5-24.5 69.5-45.5 28.5-80.5q0-74-56.5-114.5t-143.5-40.5zM240 588l-91 101h91l54-61 81 61h97l-133-101q-25-19-53-19-30 0-46 19z" glyph-name="scaron" horiz-adv-x="479" unicode="&#x161;"/><glyph d="M169 0l124 587h-220l17 81h538l-17-81h-222l-123-587h-97zM110-251l-25 36q29-3 61 13t40 55q5 20-3.5 37t-26.5 25l60 29q48-30 37-87-9-49-49.5-78.5t-93.5-29.5z" glyph-name="uni0162" horiz-adv-x="558" unicode="&#x162;"/><glyph d="M239 76l-16-75h-62q-74 0-91 28t-2 97l65 303h-83l14 68h83l27 124h86l-27-124h95l-14-68h-95l-62-288q-10-35-3-50t41-15h44zM-8-251l-25 36q29-3 61 13t40 55q4 19-4 36.5t-25 25.5l59 29q48-30 37-87-9-49-49.5-78.5t-93.5-29.5z" glyph-name="uni0163" horiz-adv-x="324" unicode="&#x163;"/><glyph d="M293 587h-220l17 81h538l-17-81h-222l-123-587h-97zM327 753l-91 101h91l54-61 81 61h97l-133-101q-25-19-53-19-30 0-46 19z" glyph-name="Tcaron" horiz-adv-x="558" unicode="&#x164;"/><glyph d="M238 75l-16-75h-62q-74 0-91 28t-2 97l65 303h-83l14 68h83l27 124h86l-27-124h95l-14-68h-95l-62-288q-10-35-3-50t41-15h44zM340 545h-49q0 1 13.5 37.5t27 71 18.5 45.5q4 10 15 19.5t27 9.5q19 0 27.5-13.5t-.5-35.5z" glyph-name="tcaron" horiz-adv-x="322" unicode="&#x165;"/><glyph d="M286-12q-140 0-192.5 70t-19.5 222l83 388h96l-84-396q-22-108 5-155.5t117-47.5q95 0 147.5 44.5t77.5 158.5l85 396h96l-83-388q-16-77-44-133t-58.5-86-72.5-47-75.5-21.5-77.5-4.5zM582 762h-276l15 67h276z" glyph-name="Umacron" unicode="&#x16a;"/><glyph d="M173-11q-89 0-116.5 60t-7.5 154l62 293h86l-62-291q-7-40-9-71.5t17-51.5 60-20q131 0 169 174l56 260h85l-105-496h-65l-6 70q-33-43-70.5-62t-93.5-19zM471 601h-276l14 67h276z" glyph-name="umacron" horiz-adv-x="540" unicode="&#x16b;"/><glyph d="M286-12q-140 0-192.5 70t-19.5 222l83 388h96l-84-396q-22-108 5-155.5t117-47.5q95 0 147.5 44.5t77.5 158.5l85 396h96l-83-388q-16-77-44-133t-58.5-86-72.5-47-75.5-21.5-77.5-4.5zM336 777q0 45 32.5 77t78.5 32q45 0 76-32t31-77-31-77-76-32q-46 0-78.5 32t-32.5 77zM393 777q0-21 15-36t37-15 37 15 15 36-15 36-37 15-37-15-15-36z" glyph-name="Uring" unicode="&#x16e;"/><glyph d="M173-11q-89 0-116.5 60t-7.5 154l62 293h86l-62-291q-7-40-9-71.5t17-51.5 60-20q131 0 169 174l56 260h85l-105-496h-65l-6 70q-33-43-70.5-62t-93.5-19zM345 559q-46 0-78.5 32t-32.5 77 32.5 77 78.5 32q45 0 76-32t31-77-31-77-76-32zM291 668q0-21 15-36t37-15 37 15 15 36-15 36-37 15-37-15-15-36z" glyph-name="uring" horiz-adv-x="540" unicode="&#x16f;"/><glyph d="M286-12q-140 0-192.5 70t-19.5 222l83 388h96l-84-396q-22-108 5-155.5t117-47.5q95 0 147.5 44.5t77.5 158.5l85 396h96l-83-388q-16-77-44-133t-58.5-86-72.5-47-75.5-21.5-77.5-4.5zM551 744h-73q100 110 121 127 12 9 26 9 18 0 27-12 10-12 9.5-28t-12.5-26q-9-8-33.5-25.5t-44.5-30.5zM332 744q102 109 121 127 12 9 26 9 18 0 28-12t9-27.5-12-26.5q-9-8-33.5-25.5t-44.5-30.5l-20-14h-74z" glyph-name="Uhungarumlaut" unicode="&#x170;"/><glyph d="M173-11q-89 0-116.5 60t-7.5 154l62 293h86l-62-291q-7-40-9-71.5t17-51.5 60-20q131 0 169 174l56 260h85l-105-496h-65l-6 70q-33-43-70.5-62t-93.5-19zM360 572q100 110 121 127 12 9 26 9 17 0 27-12t9.5-28-12.5-26q-9-8-33.5-25.5t-44.5-30.5l-20-14h-73zM214 572q102 109 121 127 12 9 26 9 17 0 28-12 10-12 9-27.5t-12-26.5q-9-8-33.5-25.5t-44.5-30.5l-20-14h-74z" glyph-name="uhungarumlaut" horiz-adv-x="540" unicode="&#x171;"/><glyph d="M254-11q-122 8-166.5 78t-13.5 213l83 388h96l-84-396q-22-108 5-155.5t117-47.5q95 0 147.5 44.5t77.5 158.5l85 396h96l-83-388q-14-67-36.5-118t-48.5-82-59.5-51-64-28-67.5-11q-83-37-83-79 0-12 11.5-19.5t29.5-7.5q20 0 44 9l-11-54q-39-12-67-12-40 0-62 19t-22 48q0 59 76 95z" glyph-name="Uogonek" unicode="&#x172;"/><glyph d="M173-11q-89 0-116.5 60t-7.5 154l62 293h86l-62-291q-7-40-9-71.5t17-51.5 60-20q131 0 169 174l56 260h85l-105-496q-49-18-78.5-41t-29.5-48q0-12 11.5-19.5t29.5-7.5q20 0 44 9l-11-54q-39-12-67-12-40 0-62 19t-22 48q0 74 120 111l-6 65q-33-43-70.5-62t-93.5-19z" glyph-name="uogonek" horiz-adv-x="540" unicode="&#x173;"/><glyph d="M229 240l-139 428h96l104-337 264 337h114l-343-428-51-240h-97zM245 794q0 22 16 37.5t38 15.5 38-15.5 16-37.5-15.5-38-38.5-16-38.5 16-15.5 38zM510 740q-22 0-37.5 16t-15.5 38 15.5 37.5 37.5 15.5 38-15.5 16-37.5-16-38-38-16z" glyph-name="Ydieresis" horiz-adv-x="598" unicode="&#x178;"/><glyph d="M506 0h-524l17 81 501 506h-372l17 81h495l-17-81-500-506h401zM415 744h-81q2 2 33.5 28t63 51.5 39.5 31.5q13 9 26 9 15 0 25.5-10.5t10.5-25.5q0-21-19-34-6-4-98-50z" glyph-name="Zacute" horiz-adv-x="613" unicode="&#x179;"/><glyph d="M375 0h-397l15 73 362 351h-272l16 73h377l-16-73-359-351h289zM328 570h-74q101 109 121 126 11 9 25 9 17 0 29-12 10-12 9-28t-12-26z" glyph-name="zacute" horiz-adv-x="467" unicode="&#x17a;"/><glyph d="M506 0h-524l17 81 501 506h-372l17 81h495l-17-81-500-506h401zM407 742q-23 0-38.5 16t-15.5 38 15.5 38 38.5 16 38.5-16 15.5-38-15.5-38-38.5-16z" glyph-name="Zdotaccent" horiz-adv-x="613" unicode="&#x17b;"/><glyph d="M-22 0l15 73 362 351h-272l16 73h377l-16-73-359-351h289l-15-73h-397zM251 644q0 22 15.5 38t38.5 16 38.5-16 15.5-38-15.5-38-38.5-16-38.5 16-15.5 38z" glyph-name="zdotaccent" horiz-adv-x="467" unicode="&#x17c;"/><glyph d="M506 0h-524l17 81 501 506h-372l17 81h495l-17-81-500-506h401zM257 861h91l54-61 81 61h97l-133-101q-25-19-53-19-30 0-46 19z" glyph-name="Zcaron" horiz-adv-x="613" unicode="&#x17d;"/><glyph d="M375 0h-397l15 73 362 351h-272l16 73h377l-16-73-359-351h289zM156 689h91l54-61 81 61h97l-133-101q-25-19-53-19-30 0-46 19z" glyph-name="zcaron" horiz-adv-x="467" unicode="&#x17e;"/><glyph d="M-72-165l16 75q22-5 34-5 29 0 42.5 17.5t21.5 53.5l96 452h-84l15 68h84l12 59q19 92 51 121.5t119 29.5h49l-16-71h-40q-61 0-75-65l-16-74h102l-14-68h-101l-99-466q-15-71-45-103t-86-32q-26 0-66 8z" glyph-name="florin" horiz-adv-x="329" unicode="&#x192;"/><glyph d="M36 147l91 25q18-54 71.5-81.5t108-24 97 35 42.5 82.5q0 39-26.5 64.5t-66.5 37.5-86.5 27.5-86.5 33-66.5 55.5-26.5 93q0 54 29 95t74.5 62 101.5 26.5 108-6.5 96-42 65-75l-92-26q-18 36-65 55t-94.5 17.5-86-27-41.5-69.5q-3-45 33-72t90-42.5 108-33.5 92.5-58 38.5-102q0-58-32-104.5t-81.5-71-110-31-116.5 7-102 52.5-66 97zM134-251l-25 36q29-3 61 13t40 55q5 20-3.5 37t-26.5 25l60 29q48-30 37-87-9-49-49.5-78.5t-93.5-29.5z" glyph-name="uni0218" horiz-adv-x="609" unicode="&#x218;"/><glyph d="M10 113l86 29q7-34 32.5-56.5t58-27 64 1.5 53 27 21.5 50q0 30-28.5 48.5t-69 29-81 24-69 45-28.5 81.5q0 61 52 98t118 41 129-22.5 83-79.5l-80-28q-13 39-66.5 54.5t-102-1-48.5-57.5q0-30 28.5-48t70-28.5 82.5-24.5 69.5-45.5 28.5-80.5q0-74-56.5-114.5t-143.5-40.5q-155 0-203 125zM70-251l-26 36q30-3 61.5 13t40.5 55q4 20-4 37t-26 25l59 29q47-29 38-87-9-49-49.5-78.5t-93.5-29.5z" glyph-name="uni0219" horiz-adv-x="479" unicode="&#x219;"/><glyph d="M169 0l124 587h-220l17 81h538l-17-81h-222l-123-587h-97zM108-251l-25 36q29-3 61 13t40 55q5 20-3.5 37t-26.5 25l60 29q48-30 37-87-9-49-49.5-78.5t-93.5-29.5z" glyph-name="uni021A" horiz-adv-x="558" unicode="&#x21a;"/><glyph d="M238 75l-16-75h-62q-74 0-91 28t-2 97l65 303h-83l14 68h83l27 124h86l-27-124h95l-14-68h-95l-62-288q-10-35-3-50t41-15h44zM-4-251l-25 36q29-3 61 13t40 55q5 20-3.5 37t-26.5 25l60 29q48-30 37-87-9-49-49.5-78.5t-93.5-29.5z" glyph-name="uni021B" horiz-adv-x="324" unicode="&#x21b;"/><glyph d="M209 575h-96l134 101q25 19 54 19 27 0 45-19l90-101h-92l-54 61z" glyph-name="circumflex" horiz-adv-x="429" unicode="&#x2c6;"/><glyph d="M136 682h91l54-61 81 61h97l-133-101q-25-19-53-19-30 0-46 19z" glyph-name="caron" horiz-adv-x="429" unicode="&#x2c7;"/><glyph d="M117 594l14 67h276l-14-67h-276z" glyph-name="uni02C9" horiz-adv-x="382" unicode="&#x2c9;"/><glyph d="M361 682h69q-20-50-62.5-85t-102.5-35-94.5 37-34.5 83h69q10-53 67-53 56 0 89 53z" glyph-name="breve" horiz-adv-x="400" unicode="&#x2d8;"/><glyph d="M128 637q0 23 16 38.5t38 15.5 38-15.5 16-38.5-16-38.5-38-15.5-38 15.5-16 38.5z" glyph-name="dotaccent" horiz-adv-x="216" unicode="&#x2d9;"/><glyph d="M245 552q-46 0-78.5 32t-32.5 77 32.5 77 78.5 32q45 0 76-32t31-77-31-77-76-32zM191 661q0-21 15-36t37-15 37 15 15 36-15 36-37 15-37-15-15-36z" glyph-name="ring" horiz-adv-x="329" unicode="&#x2da;"/><glyph d="M121-161q-39-12-67-12-40 0-62 19t-22 48q0 34 29 63t77 43h79q-49-18-78.5-41t-29.5-48q0-12 11.5-19.5t29.5-7.5q20 0 44 9z" glyph-name="ogonek" horiz-adv-x="270" unicode="&#x2db;"/><glyph d="M155 577h-65q39 103 128 103 36 0 73.5-21t54.5-21q5 0 9 1t7.5 2 7.5 3 6 3.5 6 5 5 4.5l5 5 5 5q13 13 27 13 18 0 26.5-16t-1.5-32q-36-57-103-57-30 0-67 21t-62 21q-44 0-62-40z" glyph-name="tilde" horiz-adv-x="420" unicode="&#x2dc;"/><glyph d="M249 572q100 110 121 127 12 9 26 9 16 0 27-12 10-12 9.5-28t-12.5-26q-9-8-33.5-25.5t-44.5-30.5l-20-14h-73zM103 572q102 109 121 127 12 9 26 9 18 0 28-12t9-27.5-12-26.5q-9-8-33.5-25.5t-44.5-30.5l-20-14h-74z" glyph-name="hungarumlaut" horiz-adv-x="394" unicode="&#x2dd;"/><glyph d="M-24-251l-25 36q29-3 61 13t40 55q5 20-3.5 37t-26.5 25l60 29q48-30 37-87-9-49-49.5-78.5t-93.5-29.5z" glyph-name="uni0326" horiz-adv-x="280" unicode="&#x326;"/><glyph d="M-9 0l326 680 327-680h-653zM116 78h402l-201 420z" glyph-name="uni0394" horiz-adv-x="759" unicode="&#x394;"/><glyph d="M228 130q-69 38-110 106t-41 149q0 122 86 208.5t207 86.5q122 0 208-86.5t86-208.5q0-81-41-149t-110-106v-49h151v-81h-236v173q71 19 117 78t46 134q0 91-64.5 156t-156.5 65q-91 0-155.5-65t-64.5-156q0-75 46-134t117-78v-173h-236v81h151v49z" glyph-name="uni03A9" horiz-adv-x="776" unicode="&#x3a9;"/><glyph d="M-26-162l140 657h88l-64-299q-13-64-.5-95.5t52.5-39.5q22-4 34-4 114 0 152 178l55 260h86l-106-495h-65l-5 68q-29-41-61.5-60.5t-84.5-19.5q-29 0-53.5 14.5t-36.5 41.5l-43-206h-88z" glyph-name="uni03BC" horiz-adv-x="544" unicode="&#x3bc;"/><glyph d="M124 0h-83l88 416h-83l17 80h531l-18-80h-84l-58-276q-10-34-4.5-49.5t42.5-15.5h32l-16-75h-51q-71 0-88.5 27.5t-3.5 97.5l61 291h-194z" glyph-name="pi" horiz-adv-x="591" unicode="&#x3c0;"/><glyph d="M40 208v79h398v-79h-398z" glyph-name="endash" horiz-adv-x="497" unicode="&#x2013;"/><glyph d="M40 208v79h718v-79h-718z" glyph-name="emdash" horiz-adv-x="817" unicode="&#x2014;"/><glyph d="M148 419q-33 5-47 36.5t4 61.5l91 151h61l-76-125q23-8 34.5-28t7.5-44q-5-26-26.5-41.5t-48.5-10.5z" glyph-name="quoteleft" horiz-adv-x="238" unicode="&#x2018;"/><glyph d="M152 429h-61l75 126q-22 8-34 28t-8 44q5 26 27 41t48 11q34-6 48-37t-5-61z" glyph-name="quoteright" horiz-adv-x="238" unicode="&#x2019;"/><glyph d="M33-133h-61l75 125q-22 8-34 28.5t-8 43.5q5 26 27 41.5t48 11.5q34-6 48-37.5t-5-61.5z" glyph-name="quotesinglbase" horiz-adv-x="239" unicode="&#x201a;"/><glyph d="M148 419q-33 5-47 36.5t4 61.5l91 151h61l-76-125q23-8 34.5-28t7.5-44q-5-26-26.5-41.5t-48.5-10.5zM305 419q-33 5-47.5 36.5t4.5 61.5l90 151h60l-74-125q22-8 34-28.5t8-43.5q-5-26-27-41.5t-48-10.5z" glyph-name="quotedblleft" horiz-adv-x="395" unicode="&#x201c;"/><glyph d="M152 429h-61l75 126q-22 8-34 28t-8 44q5 26 27 41t48 11q34-6 48-37t-5-61zM247 429l75 126q-22 7-33.5 27.5t-7.5 44.5q5 26 26.5 41.5t47.5 10.5q33-6 47-37t-4-61l-90-152h-61z" glyph-name="quotedblright" horiz-adv-x="394" unicode="&#x201d;"/><glyph d="M33-133h-61l75 125q-22 8-34 28.5t-8 43.5q5 26 27 41.5t48 11.5q34-6 48-37.5t-5-61.5zM128-133l75 125q-22 8-33.5 28.5t-7.5 43.5q5 27 26.5 42.5t47.5 10.5q33-6 47-37.5t-4-61.5l-90-151h-61z" glyph-name="quotedblbase" horiz-adv-x="394" unicode="&#x201e;"/><glyph d="M257 417h-190l17 79h190l37 172h80l-36-172h189l-17-79h-189l-88-417h-82z" glyph-name="dagger" horiz-adv-x="541" unicode="&#x2020;"/><glyph d="M15 173l17 79h190l35 165h-190l17 79h190l37 172h80l-37-172h190l-17-79h-190l-34-165h189l-17-79h-189l-36-173h-82l37 173h-190z" glyph-name="daggerdbl" horiz-adv-x="541" unicode="&#x2021;"/><glyph d="M49 254q0 69 48.5 117.5t117.5 48.5 117.5-48.5 48.5-117.5q0-68-48.5-117t-117.5-49-117.5 49-48.5 117z" glyph-name="bullet" horiz-adv-x="446" unicode="&#x2022;"/><glyph d="M235 52q0 27 18.5 46t45.5 19 46-19 19-46q0-26-19-45t-46-19-45.5 19-18.5 45zM465 52q0 27 19 46t46 19q26 0 45-19t19-46q0-26-19-45t-45-19q-27 0-46 19t-19 45zM68-12q-26 0-45 19t-19 45q0 27 19 46t45 19q27 0 46-19t19-46q0-26-19-45t-46-19z" glyph-name="ellipsis" horiz-adv-x="699" unicode="&#x2026;"/><glyph d="M268 316q-76 0-129 53.5t-53 128.5 53 128.5 129 53.5q75 0 128-53.5t53-128.5-53-128.5-128-53.5zM574 169q0 76 53 129t129 53q75 0 128-53t53-129q0-75-53-128t-128-53q-76 0-129 53t-53 128zM975 169q0 76 53 129t129 53q75 0 128-53t53-129q0-75-53-128t-128-53q-76 0-129 53t-53 128zM322 0h-88l468 668h88zM1157 277q-45 0-76.5-31.5t-31.5-76.5q0-44 31.5-75.5t76.5-31.5q44 0 75.5 31.5t31.5 75.5q0 45-31.5 76.5t-75.5 31.5zM756 277q-45 0-76.5-31.5t-31.5-76.5q0-44 31.5-75.5t76.5-31.5q44 0 75.5 31.5t31.5 75.5q0 45-31.5 76.5t-75.5 31.5zM268 605q-44 0-76-31.5t-32-75.5 32-75.5 76-31.5 75.5 31.5 31.5 75.5-31.5 75.5-75.5 31.5z" glyph-name="perthousand" horiz-adv-x="1407" unicode="&#x2030;"/><glyph d="M148 40l-103 210 172 211h104l-181-221 97-200h-89z" glyph-name="guilsinglleft" horiz-adv-x="355" unicode="&#x2039;"/><glyph d="M9 40l181 221-97 200h89l103-210-172-211h-104z" glyph-name="guilsinglright" horiz-adv-x="347" unicode="&#x203a;"/><glyph d="M-47 0l468 668h88l-468-668h-88z" glyph-name="fraction" horiz-adv-x="444" unicode="&#x2044;"/><glyph d="M4 240l39 51h73q3 42 13 85h-96l39 51h72q40 116 124 184t198 68q84 0 142-38t80-113l-85-29q-16 49-54 75t-93 26q-71 0-128.5-45.5t-89.5-127.5h236l-39-51h-214q-11-44-14-85h163l-38-51h-124q8-79 52.5-126t114.5-47q61 0 103.5 24t77.5 78l75-30q-91-151-267-151-120 0-181 71.5t-67 180.5h-112z" glyph-name="Euro" horiz-adv-x="701" unicode="&#x20ac;"/><glyph d="M98 188l-78-50 19 89 78 51 49 228q19 89 55.5 131t109.5 42q57 0 89-33.5t26-98.5q-8-86-69-153.5t-179-142.5l-21-100q-10-51 3-70.5t45-19.5q45 0 96 39l24-58q-65-54-146-54-76 0-101.5 39.5t-6.5 128.5zM218 343q115 71 145 193 18 73-37 73-29 0-44.5-19.5t-26.5-72.5z" glyph-name="uni2113" horiz-adv-x="451" unicode="&#x2113;"/><glyph d="M473 668h108l93-284 93 284h108v-376h-67v279l-98-279h-72l-98 279v-279h-67v376zM133 608v60h303v-60h-118v-316h-67v316h-118z" glyph-name="trademark" horiz-adv-x="928" unicode="&#x2122;"/><glyph d="M308-12q-47 0-92 17.5t-82.5 50-60.5 84.5-23 116q0 94 74 171t184 77q106 0 181.5-75t76.5-181h-410v-170q64-58 152-58 103 0 170 77l33-10q-78-99-203-99zM308 472q-88 0-152-59v-134h304v134q-64 59-152 59z" glyph-name="estimated" horiz-adv-x="628" unicode="&#x212e;"/><glyph d="M51 246q0 126 71 192t167 66q36 0 73-13t59-41q-15 46-41.5 77t-65 46.5-79.5 20.5-95 4v82q127 0 196-28 192-76 192-375 0-60-13-110.5t-40.5-91.5-75-64-110.5-23q-96 0-167 66t-71 192zM289 430q-60 0-104.5-47t-44.5-137 44.5-137.5 104.5-47.5 104 47.5 44 137.5-44 137-104 47z" glyph-name="partialdiff" horiz-adv-x="595" unicode="&#x2202;"/><glyph d="M133 668h479v-829h-82v748h-316v-748h-81v829z" glyph-name="product" horiz-adv-x="761" unicode="&#x220f;"/><glyph d="M123 668h481v-81h-380l245-333-245-334h380v-81h-481v81l246 334-246 333v81z" glyph-name="summation" horiz-adv-x="763" unicode="&#x2211;"/><glyph d="M42 209v79h496v-79h-496z" glyph-name="minus" horiz-adv-x="619" unicode="&#x2212;"/><glyph d="M-47 0l468 668h88l-468-668h-88z" glyph-name="uni2215" horiz-adv-x="444" unicode="&#x2215;"/><glyph d="M46 255q0 27 19 46t46 19q26 0 45-19t19-45-19-45.5-45-19.5q-29 0-47 19.5t-18 44.5z" glyph-name="uni2219" horiz-adv-x="237" unicode="&#x2219;"/><glyph d="M265-161l-120 306h-106v80h162l103-262 123 706h88l-151-830h-99z" glyph-name="radical" horiz-adv-x="513" unicode="&#x221a;"/><glyph d="M49 256q0 66 46 108t120 42q87 0 168-89 80 89 167 89 74 0 120-42t46-108q0-67-44.5-109.5t-115.5-42.5q-88 0-173 94-86-94-174-94-71 0-115.5 42.5t-44.5 109.5zM130 256q0-32 23.5-54t59.5-22q32 0 60 17t62 59q-31 37-58 55.5t-61 18.5q-37 0-61.5-20.5t-24.5-53.5zM431 256q34-42 61.5-59t59.5-17q36 0 59.5 22t23.5 54q0 33-24.5 53.5t-61.5 20.5q-33 0-60-18.5t-58-55.5z" glyph-name="infinity" horiz-adv-x="780" unicode="&#x221e;"/><glyph d="M-31-111q0 20 14.5 35t35.5 15 35-15 14-36q0-10-2-15h4t8.5 5 11.5 13.5 9 29 4 48.5v495q0 217 133 217 85 0 85-62 0-21-14.5-35.5t-35.5-14.5-35.5 15-14.5 35q0 9 3 16h-4t-8.5-5-11.5-13.5-9-29-4-49.5v-494q0-217-133-217-85 0-85 62z" glyph-name="integral" horiz-adv-x="306" unicode="&#x222b;"/><glyph d="M57 309q12 47 48.5 74.5t90.5 27.5q45 0 111.5-27.5t88.5-27.5q23 0 40 13.5t22 37.5l74-22q-11-47-47.5-74.5t-88.5-27.5q-38 0-105 27t-95 27q-55 0-64-50zM57 123q11 47 47.5 74.5t89.5 27.5q45 0 111.5-27.5t89.5-27.5q24 0 41 13t22 38l74-22q-11-47-47.5-74.5t-88.5-27.5q-38 0-105 27t-95 27q-55 0-64-50z" glyph-name="approxequal" horiz-adv-x="605" unicode="&#x2248;"/><glyph d="M312 307h-239v80h295l77 109h99l-76-109h101v-80h-157l-75-107h232v-79h-287l-85-121h-100l85 121h-109v79h165z" glyph-name="notequal" horiz-adv-x="658" unicode="&#x2260;"/><glyph d="M63 337l473 168v-91l-368-112 368-112v-90l-473 167v70zM536 0h-473v80h473v-80z" glyph-name="lessequal" horiz-adv-x="651" unicode="&#x2264;"/><glyph d="M466 302l-368 112v91l473-168v-70l-473-167v90zM98 0v80h473v-80h-473z" glyph-name="greaterequal" horiz-adv-x="686" unicode="&#x2265;"/><glyph d="M286-73l-228 388 228 388 227-388zM286 76l140 239-140 239-141-239z" glyph-name="lozenge" horiz-adv-x="561" unicode="&#x25ca;"/><glyph glyph-name="NULL" horiz-adv-x="0"/><glyph d="M248 744q-51 37-65.5 51.5t-14.5 32.5q0 12 9 24t27 12q21 0 33-17l84-103h-73z" glyph-name="grave.case" horiz-adv-x="278"/><glyph d="M230 744h-81q2 2 33.5 28t63 51.5 39.5 31.5q13 9 26 9 15 0 25.5-10.5t10.5-25.5q0-21-19-34-6-4-98-50z" glyph-name="acute.case" horiz-adv-x="287"/><glyph d="M150 747l133 101q25 19 54 19t45-19l91-101h-92l-55 61-80-61h-96z" glyph-name="circumflex.case" horiz-adv-x="429"/><glyph d="M161 794q0 22 16 37.5t38 15.5 38-15.5 16-37.5-15.5-38-38.5-16-38.5 16-15.5 38zM373 794q0 22 15.5 37.5t37.5 15.5 38-15.5 16-37.5-16-38-38-16-37.5 16-15.5 38z" glyph-name="dieresis.case" horiz-adv-x="427"/><glyph d="M173 854h91l54-61 81 61h97l-133-101q-25-19-53-19-30 0-46 19z" glyph-name="caron.case" horiz-adv-x="429"/><glyph d="M258 613q-46 0-78.5 32t-32.5 77 32.5 77 78.5 32q45 0 76-32t31-77-31-77-76-32zM204 722q0-21 15-36t37-15 37 15 15 36-15 36-37 15-37-15-15-36z" glyph-name="ring.case" horiz-adv-x="329"/><glyph d="M152 762l15 67h276l-15-67h-276z" glyph-name="macron.case" horiz-adv-x="380"/><glyph d="M398 854h69q-20-50-62.5-85t-102.5-35-94.5 37-34.5 83h69q10-53 67-53 56 0 89 53z" glyph-name="breve.case" horiz-adv-x="400"/><glyph d="M164 809q0 23 16 38.5t38 15.5 38-15.5 16-38.5-16-38.5-38-15.5-38 15.5-16 38.5z" glyph-name="dotaccent.case" horiz-adv-x="216"/><glyph d="M215 749h-65q39 103 128 103 36 0 73.5-21t54.5-21q5 0 9 1t7.5 2 7.5 3 6 3.5 6 5 5 4.5l5 5 5 5q13 13 27 13 18 0 26.5-16t-1.5-32q-36-57-103-57-30 0-67 21t-62 21q-44 0-62-40z" glyph-name="tilde.case" horiz-adv-x="456"/><glyph d="M295 744q100 110 121 127 12 9 26 9 18 0 27-12 10-12 9.5-28t-12.5-26q-9-8-33.5-25.5t-44.5-30.5l-20-14h-73zM149 744q102 109 121 127 12 9 26 9 18 0 28-12t9-27.5-12-26.5q-9-8-33.5-25.5t-44.5-30.5l-20-14h-74z" glyph-name="hungarumlaut.case" horiz-adv-x="415"/><glyph d="M289-12q-128 0-185 89.5t-36 256.5 99.5 256.5 206.5 89.5q129 0 186-89.5t36-256.5-100-256.5-207-89.5zM159 334q-8-51-4.5-100t16.5-87 45.5-61 81.5-23q62 0 106 35l-197 405q-36-64-48-169zM365 605q-57 0-99-31l195-402q32 66 44 162 5 38 5.5 71.5t-6 71.5-21.5 65-45 45-73 18z" glyph-name="zero.tf" horiz-adv-x="639"/><glyph d="M37 8l16 77h179l90 428h-178l15 67q100 0 151 24.5t74 72.5h58l-125-592h158l-16-77h-422z" glyph-name="one.tf" horiz-adv-x="639"/><glyph d="M17 0l16 76q213 119 323 211.5t130 177.5q16 66-19 105.5t-91 39.5q-120 0-167-112l-78 24q71 158 248 158 101 0 160.5-56t38.5-163q-10-53-47-105t-97.5-101-123-90.5-144.5-87.5h348l-16-77h-481z" glyph-name="two.tf" horiz-adv-x="639"/><glyph d="M74 158l86 23q8-57 44.5-90t98.5-33q64 0 109.5 36t45.5 93q0 30-9 52.5t-26.5 36-35 22-44 12-44 4.5-43.5 1l16 75q47 0 78.5 3.5t65.5 13.5 52.5 34 19.5 60q2 52-35 80.5t-93 28.5q-113 0-149-112l-78 25q22 72 82.5 114.5t149.5 42.5q88 0 151.5-39t63.5-121q0-65-36-109t-99-64q102-34 102-149 0-86-64.5-148t-181.5-62q-97 0-155.5 47t-71.5 123z" glyph-name="three.tf" horiz-adv-x="639"/><glyph d="M24 165l17 79 428 424h87l-90-424h124l-17-79h-124l-35-165h-87l36 165h-339zM445 552l-311-308h245z" glyph-name="four.tf" horiz-adv-x="639"/><glyph d="M57 154l83 23q30-112 134-117 72-2 117 41.5t50 118.5-28.5 114.5-95.5 42.5q-50 3-87.5-18t-56.5-54l-78 24 113 339h385l-18-81h-314l-63-187q54 50 135 50 89 0 150-64t48-173q-9-79-50.5-132.5t-95.5-74.5-115-18q-89 4-142.5 48.5t-70.5 117.5z" glyph-name="five.tf" horiz-adv-x="639"/><glyph d="M302-12q-125 0-178.5 86t-35.5 237q9 74 31.5 138.5t59 117 92 83 122.5 30.5q71 0 117-29.5t64-77.5l-88-25q-24 62-102 62-75 0-126.5-66t-72.5-183q57 84 172 84 93 0 148.5-63.5t48.5-162.5-73.5-165-178.5-66zM173 227q-8-70 29.5-119.5t102.5-49.5q66 0 110 44t49 113q5 70-31 112.5t-102 42.5q-65 0-108-39t-50-104z" glyph-name="six.tf" horiz-adv-x="639"/><glyph d="M105 0l414 587h-367l18 81h471l-17-81-411-587h-108z" glyph-name="seven.tf" horiz-adv-x="639"/><glyph d="M278-12q-108 0-172 53.5t-55 146.5q7 63 44.5 109t97.5 68q-51 52-43 133 8 75 66.5 128.5t133.5 53.5 122.5-53.5 39.5-128.5q-8-79-71-133 55-22 83-68t21-109q-9-93-84-146.5t-183-53.5zM142 188q-6-58 33-91.5t111-33.5q71 0 117 33.5t52 91.5q6 59-33 94t-111 35q-71 0-117-35t-52-94zM224 498q-5-44 23-75.5t72-31.5 79.5 31.5 39.5 75.5q4 45-24 76t-73 31q-44 0-78.5-31t-38.5-76z" glyph-name="eight.tf" horiz-adv-x="639"/><glyph d="M356 211q-62-7-112.5 11t-80 53.5-42.5 81-5 97.5 36 100q35 60 98 93t130 33q59 0 105-25 49-27 79.5-76t29.5-115.5-42-128.5q-35-52-101-136t-115-141l-48-58h-116zM201 440q-7-64 31-108t101-44q64 0 112.5 44t60.5 114q9 56-27 104t-111 46q-63-2-111.5-45t-55.5-111z" glyph-name="nine.tf" horiz-adv-x="639"/><glyph d="M118-161q-39-12-67-12-40 0-62 19t-22 48q0 34 29 63t77 43h79q-49-18-78.5-41t-29.5-48q0-12 11.5-19.5t29.5-7.5q20 0 44 9z" glyph-name="ogonek.case" horiz-adv-x="266"/><glyph d="M145 495h-49q0 1 13.5 37.5t27 71 18.5 45.5q4 10 15 19.5t27 9.5q19 0 27.5-13.5t-.5-35.5z" glyph-name="caron.salt" horiz-adv-x="206"/></font>
</defs>
</svg>
