<svg xmlns="http://www.w3.org/2000/svg"><defs><font horiz-adv-x="595"><font-face ascent="800" bbox="-174 -252.464 1435.08 911" cap-height="668" descent="-200" panose-1="0 0 0 0 0 0 0 0 0 0" slope="-12" underline-position="-219" underline-thickness="57" unicode-range="U+000D-25CA" x-height="496"/><missing-glyph d="M129 0v700h427v-700h-427zM158 21h370l-185 308zM150 49l180 301-180 300v-601zM536 47v605l-181-302zM342 371l186 309h-371z" horiz-adv-x="676"/><glyph d="M129 0v700h427v-700h-427zM158 21h370l-185 308zM150 49l180 301-180 300v-601zM536 47v605l-181-302zM342 371l186 309h-371z" glyph-name=".notdef" horiz-adv-x="676"/><glyph glyph-name=".null" horiz-adv-x="0"/><glyph glyph-name="uni000D" horiz-adv-x="0" unicode="&#xd;"/><glyph glyph-name="space" horiz-adv-x="320" unicode="&#x20;"/><glyph d="M70 243l12 253 37 172h198l-37-172-95-253h-115zM-2 86q0 40 29 69t69 29 68.5-29 28.5-69-28.5-69-68.5-29-69 29-29 69z" glyph-name="exclam" horiz-adv-x="297" unicode="&#x21;"/><glyph d="M70 243l12 253 37 172h198l-37-172-95-253h-115zM-2 86q0 40 29 69t69 29 68.5-29 28.5-69-28.5-69-68.5-29-69 29-29 69z" glyph-name="exclam" horiz-adv-x="297" unicode="&#xe90f;"/><glyph d="M102 668h142l-14-234h-114zM290 668h142l-14-234h-113z" glyph-name="quotedbl" horiz-adv-x="444" unicode="&#x22;"/><glyph d="M102 668h142l-14-234h-114zM290 668h142l-14-234h-113z" glyph-name="quotedbl" horiz-adv-x="444" unicode="&#xe911;"/><glyph d="M137 127h-128l20 139h128l20 135h-128l20 140h128l19 127h140l-19-127h137l19 127h141l-19-127h129l-21-139h-128l-19-135h128l-20-140h-129l-18-127h-141l18 127h-136l-18-127h-141zM298 267h137l19 134h-137z" glyph-name="numbersign" horiz-adv-x="752" unicode="&#x23;"/><glyph d="M137 127h-128l20 139h128l20 135h-128l20 140h128l19 127h140l-19-127h137l19 127h141l-19-127h129l-21-139h-128l-19-135h128l-20-140h-129l-18-127h-141l18 127h-136l-18-127h-141zM298 267h137l19 134h-137z" glyph-name="numbersign" horiz-adv-x="752" unicode="&#xe913;"/><glyph d="M207-1q-150 36-197 158l155 53q11-54 70-80l31 150q-39 13-64 23t-57 29-49.5 40.5-27.5 56-5 76.5q10 77 84.5 126t204.5 49l14 67h75l-16-76q126-29 182-135l-155-52q-13 35-55 54l-30-140q33-9 47.5-14t44.5-16 45-20.5 35.5-26 30-34.5 15.5-44 3-56q-7-96-94-150.5t-214-47.5l-16-75h-76zM337 256l-30-141q48-2 83 16t35 48q0 26-22.5 44t-65.5 33zM224 493q0-45 72-72l28 131q-48-1-74-17.5t-26-41.5z" glyph-name="dollar" horiz-adv-x="643" unicode="&#x24;"/><glyph d="M207-1q-150 36-197 158l155 53q11-54 70-80l31 150q-39 13-64 23t-57 29-49.5 40.5-27.5 56-5 76.5q10 77 84.5 126t204.5 49l14 67h75l-16-76q126-29 182-135l-155-52q-13 35-55 54l-30-140q33-9 47.5-14t44.5-16 45-20.5 35.5-26 30-34.5 15.5-44 3-56q-7-96-94-150.5t-214-47.5l-16-75h-76zM337 256l-30-141q48-2 83 16t35 48q0 26-22.5 44t-65.5 33zM224 493q0-45 72-72l28 131q-48-1-74-17.5t-26-41.5z" glyph-name="dollar" horiz-adv-x="643" unicode="&#xe914;"/><glyph d="M235 286q-82 0-134 57.5t-43 139.5 72.5 139.5 145.5 57.5 133.5-57.5 43.5-139.5q-9-82-72.5-139.5t-145.5-57.5zM770-12q-82 0-133 57.5t-43 139.5 72 139.5 146 57.5 133-57.5 43-139.5-72-139.5-146-57.5zM227 0l467 668h127l-468-668h-126zM712 185q-3-33 17.5-55.5t53.5-22.5q32 0 57.5 22.5t29.5 55.5q3 32-17.5 55t-53.5 23q-32 0-58-23t-29-55zM177 483q-4-33 16.5-55.5t53.5-22.5 58 22.5 29 55.5q4 32-17 55t-53 23q-33 0-58.5-23t-28.5-55z" glyph-name="percent" horiz-adv-x="1044" unicode="&#x25;"/><glyph d="M235 286q-82 0-134 57.5t-43 139.5 72.5 139.5 145.5 57.5 133.5-57.5 43.5-139.5q-9-82-72.5-139.5t-145.5-57.5zM770-12q-82 0-133 57.5t-43 139.5 72 139.5 146 57.5 133-57.5 43-139.5-72-139.5-146-57.5zM227 0l467 668h127l-468-668h-126zM712 185q-3-33 17.5-55.5t53.5-22.5q32 0 57.5 22.5t29.5 55.5q3 32-17.5 55t-53.5 23q-32 0-58-23t-29-55zM177 483q-4-33 16.5-55.5t53.5-22.5 58 22.5 29 55.5q4 32-17 55t-53 23q-33 0-58.5-23t-28.5-55z" glyph-name="percent" horiz-adv-x="1044" unicode="&#xe915;"/><glyph d="M407 53q-109-63-208-63-57 0-102.5 22t-71 56.5-30.5 79.5 11 88.5 61 84.5 114 68q-42 63-42 132 0 81 60 133t154 52q77 0 129-46.5t52-115.5q0-55-38-107.5t-113-88.5l68-104q63 61 98 145h127q-58-151-161-243l93-146h-166zM247 290q-40-13-63-35t-25.5-45.5 5.5-45 29-35 46-13.5q47 0 104 31zM348 592q-56-2-68-44.5t46-110.5q80 38 82 94 2 39-32 55-13 6-28 6z" glyph-name="ampersand" horiz-adv-x="683" unicode="&#x26;"/><glyph d="M407 53q-109-63-208-63-57 0-102.5 22t-71 56.5-30.5 79.5 11 88.5 61 84.5 114 68q-42 63-42 132 0 81 60 133t154 52q77 0 129-46.5t52-115.5q0-55-38-107.5t-113-88.5l68-104q63 61 98 145h127q-58-151-161-243l93-146h-166zM247 290q-40-13-63-35t-25.5-45.5 5.5-45 29-35 46-13.5q47 0 104 31zM348 592q-56-2-68-44.5t46-110.5q80 38 82 94 2 39-32 55-13 6-28 6z" glyph-name="ampersand" horiz-adv-x="683" unicode="&#xe916;"/><glyph d="M89 668h142l-14-234h-114z" glyph-name="quotesingle" horiz-adv-x="258" unicode="&#x27;"/><glyph d="M89 668h142l-14-234h-114z" glyph-name="quotesingle" horiz-adv-x="258" unicode="&#xe917;"/><glyph d="M90-161q-56 134-70.5 251.5t12 218.5 76 186 129.5 174h151q-118-143-173.5-267t-52.5-265 77-298h-149z" glyph-name="parenleft" horiz-adv-x="378" unicode="&#x28;"/><glyph d="M90-161q-56 134-70.5 251.5t12 218.5 76 186 129.5 174h151q-118-143-173.5-267t-52.5-265 77-298h-149z" glyph-name="parenleft" horiz-adv-x="378" unicode="&#xe918;"/><glyph d="M109-161h-151q118 143 173.5 267t52.5 265-77 298h149q56-134 70.5-251t-11.5-218.5-76-186-130-174.5z" glyph-name="parenright" horiz-adv-x="378" unicode="&#x29;"/><glyph d="M109-161h-151q118 143 173.5 267t52.5 265-77 298h149q56-134 70.5-251t-11.5-218.5-76-186-130-174.5z" glyph-name="parenright" horiz-adv-x="378" unicode="&#xe919;"/><glyph d="M402 475l-100-11 41-92-80-36-41 92-74-67-59 65 75 68-88 50 44 75 87-50 21 99 86-18-21-99 99 11z" glyph-name="asterisk" horiz-adv-x="443" unicode="&#x2a;"/><glyph d="M402 475l-100-11 41-92-80-36-41 92-74-67-59 65 75 68-88 50 44 75 87-50 21 99 86-18-21-99 99 11z" glyph-name="asterisk" horiz-adv-x="443" unicode="&#xe91a;"/><glyph d="M231 184h-192v128h192v184h128v-184h192v-128h-192v-184h-128v184z" glyph-name="plus" horiz-adv-x="645" unicode="&#x2b;"/><glyph d="M231 184h-192v128h192v184h128v-184h192v-128h-192v-184h-128v184z" glyph-name="plus" horiz-adv-x="645" unicode="&#xe91b;"/><glyph d="M59-146h-99l89 142q-30 14-46.5 44t-9.5 63q8 40 41 62.5t73 15.5q40-8 64-41.5t14-72.5q-5-21-13-34z" glyph-name="comma" horiz-adv-x="282" unicode="&#x2c;"/><glyph d="M59-146h-99l89 142q-30 14-46.5 44t-9.5 63q8 40 41 62.5t73 15.5q40-8 64-41.5t14-72.5q-5-21-13-34z" glyph-name="comma" horiz-adv-x="282" unicode="&#xe91c;"/><glyph d="M336 184h-326l28 129h326z" glyph-name="hyphen" horiz-adv-x="408" unicode="&#x2d;"/><glyph d="M336 184h-326l28 129h326z" glyph-name="hyphen" horiz-adv-x="408" unicode="&#xe91d;"/><glyph d="M-9 86q0 40 28.5 68.5t69.5 28.5q40 0 68.5-28.5t28.5-68.5-28.5-69-68.5-29q-41 0-69.5 29t-28.5 69z" glyph-name="period" horiz-adv-x="281" unicode="&#x2e;"/><glyph d="M-9 86q0 40 28.5 68.5t69.5 28.5q40 0 68.5-28.5t28.5-68.5-28.5-69-68.5-29q-41 0-69.5 29t-28.5 69z" glyph-name="period" horiz-adv-x="281" unicode="&#xe91e;"/><glyph d="M-55 0l403 668h151l-401-668h-153z" glyph-name="slash" horiz-adv-x="442" unicode="&#x2f;"/><glyph d="M-55 0l403 668h151l-401-668h-153z" glyph-name="slash" horiz-adv-x="442" unicode="&#xe91f;"/><glyph d="M300-12q-139 0-203 92t-47 255 100 254 222 91q138 0 202.5-91t47.5-254q-17-162-100.5-254.5t-221.5-92.5zM206 335q-11-104 14-169t92-65q40 0 73 27l-155 322q-19-54-24-115zM360 567q-37 0-69-23l153-317q16 51 22 108 6 30 3.5 70t-10 76-33 61-66.5 25z" glyph-name="zero" horiz-adv-x="659" unicode="&#x30;"/><glyph d="M228 449h-156l26 122q85 0 130.5 19.5t81.5 77.5h118l-141-668h-155z" glyph-name="one" horiz-adv-x="455" unicode="&#x31;"/><glyph d="M228 449h-156l26 122q85 0 130.5 19.5t81.5 77.5h118l-141-668h-155z" glyph-name="one" horiz-adv-x="455" unicode="&#xe920;"/><glyph d="M478 0h-513l26 125q216 111 329 206.5t99 175.5q-5 28-29 44.5t-56 16.5q-35 0-69-20t-57-59l-127 50q39 68 113 104.5t156 36.5q98 0 165.5-50t62.5-139q-10-188-374-366h300z" glyph-name="two" horiz-adv-x="587" unicode="&#x32;"/><glyph d="M267-12q-202 0-261 152l149 50q8-46 39-67.5t74-21.5q47 0 80 24.5t33 64.5q0 101-176 101l22 106q196 0 192 95-1 36-27.5 55.5t-65.5 19.5q-100 0-122-82l-127 50q76 145 267 145 100 0 167.5-45t67.5-122q0-119-114-164 82-46 74-149-9-101-86-156.5t-186-55.5z" glyph-name="three" horiz-adv-x="619" unicode="&#x33;"/><glyph d="M324 141h-340l23 111 414 416h171l-84-393h92l-28-134h-92l-30-141h-156zM193 275h159l42 194z" glyph-name="four" horiz-adv-x="646" unicode="&#x34;"/><glyph d="M17 142l139 47q8-42 40-65.5t73-23.5q43 0 77 26t40 73q8 67-25 102.5t-84 35.5q-34 0-64-16t-45-45l-127 51 115 341h430l-26-124h-301l-42-125q50 29 116 29 44 0 84-15t71.5-44 46.5-78.5 6-112.5q-14-101-92.5-155.5t-180.5-54.5q-89 0-160 40.5t-91 113.5z" glyph-name="five" horiz-adv-x="616" unicode="&#x35;"/><glyph d="M289-12q-139 0-199 90.5t-44 239.5q10 100 47.5 179.5t109 131 167.5 51.5q139 0 197-97l-138-48q-24 35-77 35-52 0-87-43.5t-45-117.5q56 43 129 43 93 0 155.5-61.5t57.5-161.5q-5-104-82.5-172.5t-190.5-68.5zM193 227q-6-54 22-90t78-36q48 0 80.5 36t33.5 90q0 56-26.5 84t-72.5 28q-49 0-79-29t-36-83z" glyph-name="six" horiz-adv-x="629" unicode="&#x36;"/><glyph d="M194 0h-181l387 543h-347l27 125h513l-26-125z" glyph-name="seven" horiz-adv-x="561" unicode="&#x37;"/><glyph d="M274-12q-126 0-197 59t-64 154q8 111 134 177-29 52-26 108 5 78 63.5 136t149.5 58q81 0 131.5-57.5t41.5-128.5q-9-78-52-121 111-60 101-172-9-97-83.5-155t-198.5-58zM167 206q-4-41 28-66.5t85-25.5q51 0 84 25.5t38 66.5q4 41-27 64.5t-84 23.5-86.5-23.5-37.5-64.5zM246 486q-3-28 15-48.5t46-20.5 50 20.5 25 48.5q3 29-14.5 49t-46.5 20q-28 0-50-20t-25-49z" glyph-name="eight" horiz-adv-x="623" unicode="&#x38;"/><glyph d="M271 222q-69-2-119.5 30.5t-72 83-14.5 113.5 46 118q41 57 99.5 85.5t121.5 28.5q47 0 86-15 58-21 96.5-71.5t41.5-122-54-153.5l-222-319h-174zM203 437q-7-45 22.5-74t75.5-27q50 4 81.5 34t34.5 71q4 50-24 79t-78 25q-44-4-74.5-32.5t-37.5-75.5z" glyph-name="nine" horiz-adv-x="576" unicode="&#x39;"/><glyph d="M159 316q-40 0-69 28.5t-29 68.5q0 41 28.5 69.5t69.5 28.5q40 0 68.5-28.5t28.5-69.5q0-40-28.5-68.5t-68.5-28.5zM-9 86q0 40 28.5 68.5t69.5 28.5q40 0 68.5-28.5t28.5-68.5-28.5-69-68.5-29q-41 0-69.5 29t-28.5 69z" glyph-name="colon" horiz-adv-x="281" unicode="&#x3a;"/><glyph d="M159 316q-40 0-69 28.5t-29 68.5q0 41 28.5 69.5t69.5 28.5q40 0 68.5-28.5t28.5-69.5q0-40-28.5-68.5t-68.5-28.5zM-9 86q0 40 28.5 68.5t69.5 28.5q40 0 68.5-28.5t28.5-68.5-28.5-69-68.5-29q-41 0-69.5 29t-28.5 69z" glyph-name="colon" horiz-adv-x="281" unicode="&#xe921;"/><glyph d="M-40-146l89 143q-30 14-46.5 44t-9.5 63q8 40 41 62.5t73 15.5q40-8 63.5-41.5t14.5-72.5q-5-20-13-34l-113-180h-99zM62 413q0 40 28.5 69t68.5 29q41 0 69.5-28.5t28.5-69.5q0-40-29-68.5t-69-28.5-68.5 28.5-28.5 68.5z" glyph-name="semicolon" horiz-adv-x="282" unicode="&#x3b;"/><glyph d="M-40-146l89 143q-30 14-46.5 44t-9.5 63q8 40 41 62.5t73 15.5q40-8 63.5-41.5t14.5-72.5q-5-20-13-34l-113-180h-99zM62 413q0 40 28.5 69t68.5 29q41 0 69.5-28.5t28.5-69.5q0-40-29-68.5t-69-28.5-68.5 28.5-28.5 68.5z" glyph-name="semicolon" horiz-adv-x="282" unicode="&#xe922;"/><glyph d="M34 200v99l493 211v-142l-324-118 324-120v-142z" glyph-name="less" horiz-adv-x="640" unicode="&#x3c;"/><glyph d="M34 200v99l493 211v-142l-324-118 324-120v-142z" glyph-name="less" horiz-adv-x="640" unicode="&#xe923;"/><glyph d="M60 225h512v-129h-512v129zM572 283h-512v127h512v-127z" glyph-name="equal" horiz-adv-x="685" unicode="&#x3d;"/><glyph d="M60 225h512v-129h-512v129zM572 283h-512v127h512v-127z" glyph-name="equal" horiz-adv-x="685" unicode="&#xe924;"/><glyph d="M571 200l-493-212v142l325 120-325 118v142l493-211v-99z" glyph-name="greater" horiz-adv-x="638" unicode="&#x3e;"/><glyph d="M571 200l-493-212v142l325 120-325 118v142l493-211v-99z" glyph-name="greater" horiz-adv-x="638" unicode="&#xe925;"/><glyph d="M223 486l-138 55q78 139 283 139 72 0 130.5-16t96-58.5 25.5-106.5q-11-58-49.5-92.5t-102.5-61.5q-55-23-81.5-44t-40.5-58h-161q14 110 141 168 6 3 30.5 13.5t34.5 16 26.5 15 23 20 7.5 21.5q3 55-92 55-105 0-133-66zM237-12q-40 0-68.5 29t-28.5 69 28.5 68.5 68.5 28.5q41 0 69.5-28.5t28.5-68.5-28.5-69-69.5-29z" glyph-name="question" horiz-adv-x="634" unicode="&#x3f;"/><glyph d="M223 486l-138 55q78 139 283 139 72 0 130.5-16t96-58.5 25.5-106.5q-11-58-49.5-92.5t-102.5-61.5q-55-23-81.5-44t-40.5-58h-161q14 110 141 168 6 3 30.5 13.5t34.5 16 26.5 15 23 20 7.5 21.5q3 55-92 55-105 0-133-66zM237-12q-40 0-68.5 29t-28.5 69 28.5 68.5 68.5 28.5q41 0 69.5-28.5t28.5-68.5-28.5-69-69.5-29z" glyph-name="question" horiz-adv-x="634" unicode="&#xe926;"/><glyph d="M44 333q0 143 101.5 245t243.5 102q65 0 129-26.5t113.5-72.5 75-116 12.5-149q-13-80-63.5-121.5t-111.5-41.5q-40 0-71 18.5t-40 52.5q-55-71-131-71-59 0-94 44.5t-19 119.5q22 106 88.5 153.5t153.5 47.5q59 0 117-20-28-126-40-186-10-43 4.5-62t40.5-19q22 0 38 8 39 19 54 71t-2 115-63 108q-80 77-191 77-115 0-195.5-81.5t-80.5-195.5 81-194.5 195-80.5q73 0 136 36v-78q-64-28-136-28-143 0-244 101t-101 244zM287 319q-7-33 5.5-51t35.5-18q26 0 52 24t34 65l18 86q-116 20-145-106z" glyph-name="at" horiz-adv-x="757" unicode="&#x40;"/><glyph d="M44 333q0 143 101.5 245t243.5 102q65 0 129-26.5t113.5-72.5 75-116 12.5-149q-13-80-63.5-121.5t-111.5-41.5q-40 0-71 18.5t-40 52.5q-55-71-131-71-59 0-94 44.5t-19 119.5q22 106 88.5 153.5t153.5 47.5q59 0 117-20-28-126-40-186-10-43 4.5-62t40.5-19q22 0 38 8 39 19 54 71t-2 115-63 108q-80 77-191 77-115 0-195.5-81.5t-80.5-195.5 81-194.5 195-80.5q73 0 136 36v-78q-64-28-136-28-143 0-244 101t-101 244zM287 319q-7-33 5.5-51t35.5-18q26 0 52 24t34 65l18 86q-116 20-145-106z" glyph-name="at" horiz-adv-x="757" unicode="&#xe92c;"/><glyph d="M-65 0l394 668h183l111-668h-165l-16 119h-255l-66-119h-186zM395 501l-140-254h172z" glyph-name="A" horiz-adv-x="698" unicode="&#x41;"/><glyph d="M283 0h-306l142 668h294q109 0 169.5-38.5t48.5-134.5-108-140q95-43 73-170-15-85-97.5-135t-215.5-50zM198 282l-32-151h147q47 0 79 21t39 55q7 35-17.5 55t-74.5 20h-141zM224 404h139q41 0 68.5 18.5t31.5 49.5q5 31-13.5 49t-58.5 18h-138z" glyph-name="B" horiz-adv-x="656" unicode="&#x42;"/><glyph d="M302-12q-137 6-213 95.5t-52 250.5q26 168 128 257t252 89q56 0 104-14t90-50 60-91l-146-49q-32 74-124 74-72 0-127-57t-70-159q-14-103 23.5-158t110.5-56q85 0 142 74l136-53q-103-162-314-153z" glyph-name="C" horiz-adv-x="686" unicode="&#x43;"/><glyph d="M-23 0l142 668h194q198 0 283-95t55-261q-15-86-60-148.5t-109-97-134-50.5-148-16h-223zM253 537l-86-404h63q117 0 181.5 60t76.5 162q11 96-25.5 139t-151.5 43h-58z" glyph-name="D" horiz-adv-x="690" unicode="&#x44;"/><glyph d="M607 529h-356l-25-116h217l-29-139h-217l-29-135h356l-29-139h-518l142 668h518z" glyph-name="E" unicode="&#x45;"/><glyph d="M571 529h-320l-25-116h320l-29-139h-320l-59-274h-161l142 668h481z" glyph-name="F" horiz-adv-x="559" unicode="&#x46;"/><glyph d="M282-12q-122 0-196.5 93.5t-48.5 254.5q27 162 129.5 253t255.5 91q194 0 255-145l-148-57q-12 29-46.5 50.5t-82.5 21.5q-74 0-127-56t-69-158q-16-99 17.5-155t104.5-63q59-6 112.5 23.5t66.5 89.5l4 19h-150l27 128h312l-81-378h-107l-6 74q-83-86-222-86z" glyph-name="G" horiz-adv-x="734" unicode="&#x47;"/><glyph d="M138 0h-161l142 668h160l-53-255h276l54 255h161l-142-668h-161l58 274h-275z" glyph-name="H" horiz-adv-x="695" unicode="&#x48;"/><glyph d="M331 0h-344l26 124h92l90 420h-92l26 124h345l-27-124h-92l-88-420h91z" glyph-name="I" horiz-adv-x="459" unicode="&#x49;"/><glyph d="M195-12q-100 0-159 53t-64 135l157 52q-5-55 12-84.5t65-30.5q58-1 87 30t46 113l87 412h162l-88-412q-32-149-104.5-208.5t-200.5-59.5z" glyph-name="J" horiz-adv-x="566" unicode="&#x4a;"/><glyph d="M138 0h-161l142 668h160l-50-242 272 242h214l-331-291 193-377h-166l-141 277-90-80z" glyph-name="K" horiz-adv-x="657" unicode="&#x4b;"/><glyph d="M168 139h320l-30-139h-481l142 668h160z" glyph-name="L" horiz-adv-x="543" unicode="&#x4c;"/><glyph d="M-23 0l142 668h237l38-475 241 475h245l-143-668h-156l109 510-264-510h-132l-47 533-113-533h-157z" glyph-name="M" horiz-adv-x="858" unicode="&#x4d;"/><glyph d="M-23 0l142 668h199l160-485 104 485h155l-142-668h-199l-160 485-103-485h-156z" glyph-name="N" horiz-adv-x="715" unicode="&#x4e;"/><glyph d="M335-12q-156 0-237.5 93t-62.5 240q21 163 128.5 261t262.5 98q151 0 235.5-88.5t67.5-246.5q-17-159-126-258t-268-99zM203 321q-11-84 27.5-143.5t118.5-59.5q84 0 143 64t70 163-34 152-114 53q-77 0-137-60t-74-169z" glyph-name="O" horiz-adv-x="763" unicode="&#x4f;"/><glyph d="M-23 0l142 668h260q156 0 213.5-57.5t42.5-167.5q-32-211-331-211h-117l-49-232h-161zM216 363h103q134 0 149 87 8 43-19.5 64t-93.5 21h-103z" glyph-name="P" horiz-adv-x="641" unicode="&#x50;"/><glyph d="M340 14q-156 0-237.5 93t-62.5 239q21 164 128.5 262t262.5 98q151 0 236-89t67-246q-16-147-112-244l87-102-92-80-94 111q-84-42-183-42zM208 346q-11-83 27.5-142t118.5-59q42 0 79 17l-103 123 91 78 103-120q36 59 43 128 11 100-34 152.5t-114 52.5q-77 0-137-60t-74-170z" glyph-name="Q" horiz-adv-x="774" unicode="&#x51;"/><glyph d="M-23 0l142 668h250q137 0 204-49t56-158q-8-80-55.5-128t-153.5-64l137-269h-166l-128 252h-71l-54-252h-161zM252 535l-32-151h103q63 0 98 15.5t41 59.5q6 43-24 59.5t-92 16.5h-94z" glyph-name="R" horiz-adv-x="644" unicode="&#x52;"/><glyph d="M10 157l155 52q11-46 53.5-70.5t94.5-24.5q46 0 78.5 17.5t32.5 47.5q0 28-29 49t-72 32.5-91.5 30.5-89 41.5-64 66.5-15.5 105q11 86 91 131t187 45q83 0 154.5-34.5t110.5-110.5l-155-52q-12 33-47 50.5t-75 17.5q-50 0-77.5-16t-27.5-43q0-34 39.5-56t94.5-36.5 109.5-34.5 90-65 29.5-113q-8-94-89-146.5t-192-52.5q-109 0-187 44.5t-109 124.5z" glyph-name="S" horiz-adv-x="642" unicode="&#x53;"/><glyph d="M57 529l30 139h586l-29-139h-214l-111-529h-161l112 529h-213z" glyph-name="T" horiz-adv-x="617" unicode="&#x54;"/><glyph d="M266-12q-68 0-116.5 16t-75 43-38 66.5-10 82.5 12.5 96l81 376h161l-83-389q-9-47-10-83t24.5-57.5 81.5-21.5q76 0 110.5 39.5t52.5 122.5l83 389h161l-80-376q-20-93-49.5-153t-75-93-99-45.5-131.5-12.5z" glyph-name="U" horiz-adv-x="676" unicode="&#x55;"/><glyph d="M166 0l-84 668h158l49-491 257 491h178l-368-668h-190z" glyph-name="V" horiz-adv-x="662" unicode="&#x56;"/><glyph d="M82 668h153l-5-446 189 446h169v-463l195 463h168l-303-668h-180v470l-202-470h-165z" glyph-name="W" horiz-adv-x="889" unicode="&#x57;"/><glyph d="M-60 0l330 356-155 312h171l96-191 176 191h210l-312-337 165-331h-173l-105 210-192-210h-211z" glyph-name="X" horiz-adv-x="706" unicode="&#x58;"/><glyph d="M242 241l-160 427h171l86-277 219 277h204l-358-427-50-241h-163z" glyph-name="Y" horiz-adv-x="700" unicode="&#x59;"/><glyph d="M642 547l-421-408h339l-30-139h-568l26 121 423 408h-311l30 139h538z" glyph-name="Z" horiz-adv-x="632" unicode="&#x5a;"/><glyph d="M353 552h-127l-127-598h128l-25-115h-259l176 829h259z" glyph-name="bracketleft" horiz-adv-x="340" unicode="&#x5b;"/><glyph d="M353 552h-127l-127-598h128l-25-115h-259l176 829h259z" glyph-name="bracketleft" horiz-adv-x="340" unicode="&#xe927;"/><glyph d="M240 668l259-668h-151l-261 668h153z" glyph-name="backslash" horiz-adv-x="584" unicode="&#x5c;"/><glyph d="M240 668l259-668h-151l-261 668h153z" glyph-name="backslash" horiz-adv-x="584" unicode="&#xe928;"/><glyph d="M105 668h259l-176-829h-259l25 115h128l127 598h-128z" glyph-name="bracketright" horiz-adv-x="342" unicode="&#x5d;"/><glyph d="M105 668h259l-176-829h-259l25 115h128l127 598h-128z" glyph-name="bracketright" horiz-adv-x="342" unicode="&#xe929;"/><glyph d="M192 312h-143l185 356h113l185-356h-143l-98 194z" glyph-name="asciicircum" horiz-adv-x="589" unicode="&#x5e;"/><glyph d="M192 312h-143l185 356h113l185-356h-143l-98 194z" glyph-name="asciicircum" horiz-adv-x="589" unicode="&#xe92a;"/><glyph d="M380-128h-410v128h410v-128z" glyph-name="underscore" horiz-adv-x="457" unicode="&#x5f;"/><glyph d="M380-128h-410v128h410v-128z" glyph-name="underscore" horiz-adv-x="457" unicode="&#xe92b;"/><glyph d="M139 635q-14 19-11.5 41.5t20.5 37.5q14 13 35 13 27 0 43-21 11-14 33-47t39-59l16-26h-108q-50 41-67 61z" glyph-name="grave" horiz-adv-x="315" unicode="&#x60;"/><glyph d="M139 635q-14 19-11.5 41.5t20.5 37.5q14 13 35 13 27 0 43-21 11-14 33-47t39-59l16-26h-108q-50 41-67 61z" glyph-name="grave" horiz-adv-x="315" unicode="&#xe932;"/><glyph d="M126-12q-62 0-106 37.5t-42 97.5q1 35 16 63t43.5 47.5 59.5 33 75 23 79.5 15 82.5 10.5l3 13q18 79-69 79-74 0-102-59l-117 46q76 116 240 116 105 0 161-54t34-154q-2-14-11.5-55t-11.5-54q-24-111-24-193h-144l-5 59q-33-40-70-55.5t-92-15.5zM139 144q-3-24 16-38.5t49-14.5q43 0 71.5 28t45.5 94l3 12q-177-15-185-81z" glyph-name="a" horiz-adv-x="541" unicode="&#x61;"/><glyph d="M-20 0l142 667h155l-49-231q54 74 146 74 89 0 141.5-69t35.5-190q-16-121-88-192t-169-71q-94 0-144 78l-34-66h-136zM181 255q-16-72 10.5-111t75.5-39q48 0 85 39t43 107q5 64-16.5 102.5t-67.5 38.5q-41 0-77.5-29.5t-52.5-107.5z" glyph-name="b" horiz-adv-x="593" unicode="&#x62;"/><glyph d="M223-12q-119 0-178 73.5t-38 188.5q22 121 105 190.5t204 69.5q147 0 195-128l-133-46q-13 56-79 56-46 0-84-34.5t-53-108.5 7.5-109 66.5-35q66 0 105 49l123-47q-85-119-241-119z" glyph-name="c" horiz-adv-x="531" unicode="&#x63;"/><glyph d="M187-12q-98 0-148.5 73.5t-29.5 193.5q20 118 89.5 186.5t167.5 68.5q48 0 85.5-24t53.5-65l53 246h155q-78-356-101-474-23-115-24-193h-149l-5 63q-58-75-147-75zM167 265q-13-67 8-113.5t76-46.5q47 0 83 41t46 115q9 66-19 98.5t-68 32.5q-48 0-81-31.5t-45-95.5z" glyph-name="d" horiz-adv-x="592" unicode="&#x64;"/><glyph d="M229-12q-119 0-180 69t-42 191q17 109 96.5 185.5t203.5 76.5q129 0 186.5-83t25.5-218h-365q-9-52 20.5-77.5t78.5-25.5q69 0 105 36l114-44q-88-110-243-110zM395 299q5 48-22.5 74t-70.5 26-81.5-26.5-52.5-73.5h227z" glyph-name="e" horiz-adv-x="567" unicode="&#x65;"/><glyph d="M18 0l81 380h-80l24 116h81l13 62q19 74 40 107t63 47.5 126 14.5h68l-25-119h-41q-46 0-58.5-13t-24.5-68l-3-12q-3-12-4-19h107l-25-116h-107l-80-380h-155z" glyph-name="f" horiz-adv-x="379" unicode="&#x66;"/><glyph d="M477 18q-26-113-105.5-169t-176.5-56q-77 0-138 33.5t-78 88.5l134 44q7-22 30.5-34.5t53.5-12.5q43 0 78 24t45 70l18 85q-62-74-150-74-84 0-139 66.5t-39 174.5q19 123 92.5 188t160.5 65q49 0 88.5-21.5t58.5-60.5l34 67h134q-75-359-101-478zM168 266q-10-61 13.5-98t66.5-37q107 0 133 132 12 64-12 98t-72 34q-49 0-84.5-32.5t-44.5-96.5z" glyph-name="g" unicode="&#x67;"/><glyph d="M-20 0l142 668h151l-50-236q24 33 68.5 55.5t105.5 22.5q78 0 112.5-56t9.5-173l-60-281h-156l56 263q15 69 3.5 99t-50.5 30q-95 0-122-138l-54-254h-156z" glyph-name="h" horiz-adv-x="581" unicode="&#x68;"/><glyph d="M26 380l25 116h258l-105-496h-156l81 380h-103zM266 578q-37 0-63 26.5t-26 63.5 26 63 63 26 63.5-26 26.5-63-26.5-63.5-63.5-26.5z" glyph-name="i" horiz-adv-x="326" unicode="&#x69;"/><glyph d="M-174-162l26 120h61q44 0 58 14.5t25 66.5l97 457h156l-104-488q-12-48-25-77.5t-28.5-49-41.5-28.5-55.5-12-79.5-3h-89zM206 578q-37 0-63.5 26.5t-26.5 63.5q0 38 26 64t64 26q37 0 63.5-26.5t26.5-63.5-26.5-63.5-63.5-26.5z" glyph-name="j" horiz-adv-x="263" unicode="&#x6a;"/><glyph d="M136 0h-156l142 668h155l-73-341 185 169h198l-244-213 145-283h-163l-95 184-68-60z" glyph-name="k" horiz-adv-x="563" unicode="&#x6b;"/><glyph d="M148 0q-81 0-117.5 32t-20.5 108l112 528h156l-98-464q-13-39-5-59.5t53-20.5h43l-26-124h-97z" glyph-name="l" horiz-adv-x="318" unicode="&#x6c;"/><glyph d="M-20 0l105 496h136l5-64q63 78 158 78 111 0 139-83 69 83 178 83 181 0 134-220l-62-290h-156l56 263q16 73 7 101t-52 28q-91 0-119-131l-55-261h-156l56 263q15 77 4 103t-49 26q-89 0-118-134l-55-258h-156z" glyph-name="m" horiz-adv-x="895" unicode="&#x6d;"/><glyph d="M136 0h-156l105 496h136l5-64q57 78 171 78 78 0 112.5-56t9.5-173l-60-281h-156l56 263q15 69 3.5 99t-50.5 30q-93 0-122-138z" glyph-name="n" horiz-adv-x="581" unicode="&#x6e;"/><glyph d="M239-13q-117 0-181.5 70t-50.5 185q11 91 57 153.5t106 88.5 132 26q114 0 181-68.5t50-192.5q-9-62-33-110t-54.5-76-69-46-71.5-24-66-6zM163 249q-3-32-2.5-64t22.5-56 62-24q59 0 91.5 42t41.5 102q20 145-89 143-103-2-126-143z" glyph-name="o" horiz-adv-x="576" unicode="&#x6f;"/><glyph d="M-55-161l140 657h134l6-68q25 41 66 61.5t85 20.5q90 0 139-72.5t33-183.5q-19-128-90.5-197.5t-170.5-69.5q-90 0-137 83l-49-231h-156zM179 256q-15-70 10-110.5t72-40.5q55 0 89 39.5t42 102.5q9 69-14 107t-70 38q-48 0-81.5-34.5t-47.5-101.5z" glyph-name="p" horiz-adv-x="590" unicode="&#x70;"/><glyph d="M183-12q-89 0-138.5 67t-39.5 173q11 124 82.5 203t175.5 79q98 0 141-83l36 69h135l-93-438q-13-43-8-67.5t46-24.5q32 0 88 13l-28-130q-54-22-118-22-75 0-120 38.5t-30 123.5l14 67q-56-68-143-68zM162 224q-3-118 88-118 49 0 87 45t43 128q4 55-21.5 84.5t-67.5 29.5q-57 0-92.5-43.5t-36.5-125.5z" glyph-name="q" horiz-adv-x="601" unicode="&#x71;"/><glyph d="M136 0h-156l105 496h123l7-87q29 50 64 75t93 26h31l-32-152q-26 3-46 3-62 0-94-32.5t-46-97.5z" glyph-name="r" horiz-adv-x="391" unicode="&#x72;"/><glyph d="M-10 116l130 44q7-32 37-48t67-16q35 0 60 13.5t22 33.5q-3 18-32.5 30.5t-69.5 23.5-79.5 27-67 50-27.5 83q0 65 61 109t152 44q166 0 228-110l-132-45q-18 44-98 44-33 0-50-11.5t-17-25.5q0-21 29-35t70-24.5 82-24.5 70-45 29-77q0-77-61-123t-164-46q-182 0-239 129z" glyph-name="s" horiz-adv-x="515" unicode="&#x73;"/><glyph d="M28 380l25 116h78l26 124h155l-26-124h108l-24-116h-109l-37-175q-5-24-6.5-35t2-24 16-17.5 36.5-4.5h43l-26-124h-96q-82 0-118 32t-20 108l51 240h-78z" glyph-name="t" horiz-adv-x="391" unicode="&#x74;"/><glyph d="M159-12q-54 0-87 20.5t-44 56.5-11 73.5 10 81.5l59 276h155l-55-261q-25-129 45-129 41 0 73 31.5t46 96.5l56 262h155l-105-496h-135l-5 64q-47-76-157-76z" glyph-name="u" horiz-adv-x="578" unicode="&#x75;"/><glyph d="M107 0l-72 496h151l33-339 179 339h170l-283-496h-178z" glyph-name="v" horiz-adv-x="533" unicode="&#x76;"/><glyph d="M35 496h146l4-321 128 321h150l-8-337 149 337h158l-229-496h-174l3 356-148-356h-160z" glyph-name="w" horiz-adv-x="727" unicode="&#x77;"/><glyph d="M-70 0l250 270-113 226h150l60-120 111 120h184l-231-250 124-246h-151l-71 141-129-141h-184z" glyph-name="x" horiz-adv-x="537" unicode="&#x78;"/><glyph d="M5-161h-49l23 110h31q60 0 79.5 10.5t31.5 42.5l-86 494h155l30-316 166 316h176l-296-497q-37-61-56.5-88t-50-46.5-61-22.5-93.5-3z" glyph-name="y" horiz-adv-x="527" unicode="&#x79;"/><glyph d="M539 496l-26-121-310-254h259l-25-121h-477l26 121 310 254h-231l26 121h448z" glyph-name="z" horiz-adv-x="528" unicode="&#x7a;"/><glyph d="M45 97q13 43 3 69t-53 26l26 123q43 0 61.5 22.5t28.5 71.5l21 96q12 56 31.5 90t51 49 60.5 19 81 4h55l-26-119h-33q-34 0-51-9.5t-23-35.5l-26-123q-13-58-44-86t-76-39l-1-3q41-12 60-39.5t7-85.5l-27-125q-6-26 8-35t48-9h34l-26-120h-54q-95 0-134 43.5t-23 119.5z" glyph-name="braceleft" horiz-adv-x="374" unicode="&#x7b;"/><glyph d="M45 97q13 43 3 69t-53 26l26 123q43 0 61.5 22.5t28.5 71.5l21 96q12 56 31.5 90t51 49 60.5 19 81 4h55l-26-119h-33q-34 0-51-9.5t-23-35.5l-26-123q-13-58-44-86t-76-39l-1-3q41-12 60-39.5t7-85.5l-27-125q-6-26 8-35t48-9h34l-26-120h-54q-95 0-134 43.5t-23 119.5z" glyph-name="braceleft" horiz-adv-x="374" unicode="&#xe92d;"/><glyph d="M233-161h-146v829h146v-829z" glyph-name="bar" horiz-adv-x="352" unicode="&#x7c;"/><glyph d="M233-161h-146v829h146v-829z" glyph-name="bar" horiz-adv-x="352" unicode="&#xe92e;"/><glyph d="M-70-162l25 120h34q34 0 51.5 9t23.5 35l26 124q21 101 120 126l1 3q-41 12-60 39t-7 85l27 124q6 27-8 36t-48 9h-34l25 119h55q95 0 133-43t22-119l-20-96q-12-43-2.5-68.5t52.5-25.5l-26-123q-43 0-62-23t-29-72l-19-96q-12-56-31-90t-51-49.5-61.5-19.5-82.5-4h-54z" glyph-name="braceright" horiz-adv-x="374" unicode="&#x7d;"/><glyph d="M-70-162l25 120h34q34 0 51.5 9t23.5 35l26 124q21 101 120 126l1 3q-41 12-60 39t-7 85l27 124q6 27-8 36t-48 9h-34l25 119h55q95 0 133-43t22-119l-20-96q-12-43-2.5-68.5t52.5-25.5l-26-123q-43 0-62-23t-29-72l-19-96q-12-56-31-90t-51-49.5-61.5-19.5-82.5-4h-54z" glyph-name="braceright" horiz-adv-x="374" unicode="&#xe92f;"/><glyph d="M9 184q23 82 63 124t108 42q41 0 89.5-30t69.5-30q45 0 57 80l98-37q-23-82-63-124t-107-42q-37 0-85 30t-75 30q-45 0-58-81z" glyph-name="asciitilde" horiz-adv-x="533" unicode="&#x7e;"/><glyph d="M9 184q23 82 63 124t108 42q41 0 89.5-30t69.5-30q45 0 57 80l98-37q-23-82-63-124t-107-42q-37 0-85 30t-75 30q-45 0-58-81z" glyph-name="asciitilde" horiz-adv-x="533" unicode="&#xe930;"/><glyph glyph-name="uni00A0" horiz-adv-x="320" unicode="&#xa0;"/><glyph d="M142-162h-198l37 173 95 253h115l-12-253zM68 420q0 40 28.5 69t68.5 29 68.5-28.5 28.5-69.5q0-40-28-68t-69-28q-40 0-68.5 28t-28.5 68z" glyph-name="exclamdown" horiz-adv-x="297" unicode="&#xa1;"/><glyph d="M142-162h-198l37 173 95 253h115l-12-253zM68 420q0 40 28.5 69t68.5 29 68.5-28.5 28.5-69.5q0-40-28-68t-69-28q-40 0-68.5 28t-28.5 68z" glyph-name="exclamdown" horiz-adv-x="297" unicode="&#xe931;"/><glyph d="M172-8q-95 16-139 86.5t-26 172.5q21 111 94 179t181 78l13 63h73l-14-64q115-15 157-126l-133-46q-11 44-49 53l-59-279q41 8 71 46l123-48q-78-110-219-119l-16-75h-74zM162 250q-22-108 36-136l57 269q-72-30-93-133z" glyph-name="cent" horiz-adv-x="531" unicode="&#xa2;"/><glyph d="M172-8q-95 16-139 86.5t-26 172.5q21 111 94 179t181 78l13 63h73l-14-64q115-15 157-126l-133-46q-11 44-49 53l-59-279q41 8 71 46l123-48q-78-110-219-119l-16-75h-74zM162 250q-22-108 36-136l57 269q-72-30-93-133z" glyph-name="cent" horiz-adv-x="531" unicode="&#xe933;"/><glyph d="M33-12l-31 116q87 38 125.5 92t28.5 99h-113l15 73h75q-25 87-18 139 13 85 92 128.5t181 43.5q177 0 244-142l-147-50q-39 69-111 69-75 0-95.5-47t19.5-141h160l-15-73h-127q7-38-28.5-88t-106.5-90q33 17 88 17 26 0 72-10.5t66-10.5q51 0 110 31l18-121q-78-35-168-35-35 0-97 18t-95 18q-69 0-142-36z" glyph-name="sterling" horiz-adv-x="617" unicode="&#xa3;"/><glyph d="M33-12l-31 116q87 38 125.5 92t28.5 99h-113l15 73h75q-25 87-18 139 13 85 92 128.5t181 43.5q177 0 244-142l-147-50q-39 69-111 69-75 0-95.5-47t19.5-141h160l-15-73h-127q7-38-28.5-88t-106.5-90q33 17 88 17 26 0 72-10.5t66-10.5q51 0 110 31l18-121q-78-35-168-35-35 0-97 18t-95 18q-69 0-142-36z" glyph-name="sterling" horiz-adv-x="617" unicode="&#xe934;"/><glyph d="M159 446l-67 67 52 52 67-67q57 41 126 41t126-41l67 67 52-52-67-67q40-55 40-125 0-69-40-127l67-67-52-52-67 67q-55-40-126-40t-126 40l-67-67-52 52 67 67q-41 57-41 127 0 68 41 125zM238 321q0-41 29-70.5t70-29.5 70 29.5 29 70.5q0 40-29 69t-70 29-70-28.5-29-69.5z" glyph-name="currency" horiz-adv-x="678" unicode="&#xa4;"/><glyph d="M159 446l-67 67 52 52 67-67q57 41 126 41t126-41l67 67 52-52-67-67q40-55 40-125 0-69-40-127l67-67-52-52-67 67q-55-40-126-40t-126 40l-67-67-52 52 67 67q-41 57-41 127 0 68 41 125zM238 321q0-41 29-70.5t70-29.5 70 29.5 29 70.5q0 40-29 69t-70 29-70-28.5-29-69.5z" glyph-name="currency" horiz-adv-x="678" unicode="&#xe935;"/><glyph d="M225 286l-143 381h171l86-277 219 277h204l-320-381h102l-16-74h-130l-13-64h130l-16-73h-129l-16-75h-163l16 75h-124l16 73h123l14 64h-124l16 74h97z" glyph-name="yen" horiz-adv-x="700" unicode="&#xa5;"/><glyph d="M225 286l-143 381h171l86-277 219 277h204l-320-381h102l-16-74h-130l-13-64h130l-16-73h-129l-16-75h-163l16 75h-124l16 73h123l14 64h-124l16 74h97z" glyph-name="yen" horiz-adv-x="700" unicode="&#xe936;"/><glyph d="M215-161h-128v311h128v-311zM87 668h128v-310h-128v310z" glyph-name="brokenbar" horiz-adv-x="334" unicode="&#xa6;"/><glyph d="M215-161h-128v311h128v-311zM87 668h128v-310h-128v310z" glyph-name="brokenbar" horiz-adv-x="334" unicode="&#xe937;"/><glyph d="M-59-49l140 47q3-25 23-38.5t48-13.5q31 0 55 16t24 43q0 14-12.5 30t-25.5 26.5-41 30-40 28.5q-53 40-72 66-25 35-25 75 0 64 38 103t106 65q-10 31-11.5 64.5t15 67 42 59.5 69 42.5 97.5 16.5q156 0 200-101l-139-46q-10 31-65 31-27 0-47-10t-21-28q-1-9 3-17t15.5-18 21.5-17.5 31.5-23.5 36.5-27q3-2 24-17t33-25.5 28.5-28.5 25-38 8.5-42q0-120-151-174 12-28 13-62.5t-18-71.5-48-67.5-78-50-106-19.5q-74 0-128 33t-69 92zM233 352q-51-10-60.5-39.5t25.5-55.5q104-78 106-80 108 45 21 107z" glyph-name="section" horiz-adv-x="563" unicode="&#xa7;"/><glyph d="M-59-49l140 47q3-25 23-38.5t48-13.5q31 0 55 16t24 43q0 14-12.5 30t-25.5 26.5-41 30-40 28.5q-53 40-72 66-25 35-25 75 0 64 38 103t106 65q-10 31-11.5 64.5t15 67 42 59.5 69 42.5 97.5 16.5q156 0 200-101l-139-46q-10 31-65 31-27 0-47-10t-21-28q-1-9 3-17t15.5-18 21.5-17.5 31.5-23.5 36.5-27q3-2 24-17t33-25.5 28.5-28.5 25-38 8.5-42q0-120-151-174 12-28 13-62.5t-18-71.5-48-67.5-78-50-106-19.5q-74 0-128 33t-69 92zM233 352q-51-10-60.5-39.5t25.5-55.5q104-78 106-80 108 45 21 107z" glyph-name="section" horiz-adv-x="563" unicode="&#xe938;"/><glyph d="M128 648q0 29 21 50t50 21 49.5-21 20.5-50-20.5-49.5-49.5-20.5-50 20.5-21 49.5zM393 578q-29 0-50 20.5t-21 49.5 21 50 50 21q28 0 48.5-21t20.5-50-20-49.5-49-20.5z" glyph-name="dieresis" horiz-adv-x="455" unicode="&#xa8;"/><glyph d="M407-12q-143 0-244 101.5t-101 244.5q0 142 101 243.5t244 101.5q144 0 245.5-101t101.5-244-101.5-244.5-245.5-101.5zM132 334q0-115 81-196t194-81q115 0 196 81t81 196q0 114-81 195t-196 81q-113 0-194-81t-81-195zM410 145q-86 0-134.5 51.5t-48.5 137.5q0 84 51 136t132 52q52 0 96-22.5t67-71.5l-92-34q-17 43-65 43-33 0-55-25.5t-22-77.5q0-54 22.5-79t54.5-25q47 0 66 34l90-33q-50-86-162-86z" glyph-name="copyright" horiz-adv-x="814" unicode="&#xa9;"/><glyph d="M407-12q-143 0-244 101.5t-101 244.5q0 142 101 243.5t244 101.5q144 0 245.5-101t101.5-244-101.5-244.5-245.5-101.5zM132 334q0-115 81-196t194-81q115 0 196 81t81 196q0 114-81 195t-196 81q-113 0-194-81t-81-195zM410 145q-86 0-134.5 51.5t-48.5 137.5q0 84 51 136t132 52q52 0 96-22.5t67-71.5l-92-34q-17 43-65 43-33 0-55-25.5t-22-77.5q0-54 22.5-79t54.5-25q47 0 66 34l90-33q-50-86-162-86z" glyph-name="copyright" horiz-adv-x="814" unicode="&#xe93a;"/><glyph d="M86 474q-1 31 15 52.5t48.5 32.5 63.5 15.5 76 7.5l4 12q3 15-7.5 23t-31.5 8q-36 0-47-26l-80 32q42 61 139 61 65 0 100-33t16-110q-17-72-24-146h-86l-2 32q-34-39-96-39-41 0-64 22t-24 56zM193 491q-1-13 7.5-20t21.5-7q18 0 34.5 12t20.5 34l5 18q-30-3-39-5-50-7-50-32z" glyph-name="ordfeminine" horiz-adv-x="395" unicode="&#xaa;"/><glyph d="M86 474q-1 31 15 52.5t48.5 32.5 63.5 15.5 76 7.5l4 12q3 15-7.5 23t-31.5 8q-36 0-47-26l-80 32q42 61 139 61 65 0 100-33t16-110q-17-72-24-146h-86l-2 32q-34-39-96-39-41 0-64 22t-24 56zM193 491q-1-13 7.5-20t21.5-7q18 0 34.5 12t20.5 34l5 18q-30-3-39-5-50-7-50-32z" glyph-name="ordfeminine" horiz-adv-x="395" unicode="&#xe93d;"/><glyph d="M36 250l193 210h171l-197-216 100-204h-164zM276 250l193 210h171l-197-216 100-204h-164z" glyph-name="guillemotleft" horiz-adv-x="665" unicode="&#xab;"/><glyph d="M36 250l193 210h171l-197-216 100-204h-164zM276 250l193 210h171l-197-216 100-204h-164z" glyph-name="guillemotleft" horiz-adv-x="665" unicode="&#xe93e;"/><glyph d="M73 422h512v-366h-128v239h-384v127z" glyph-name="logicalnot" horiz-adv-x="696" unicode="&#xac;"/><glyph d="M73 422h512v-366h-128v239h-384v127z" glyph-name="logicalnot" horiz-adv-x="696" unicode="&#xe93f;"/><glyph d="M62 334q0 142 101 243.5t244 101.5q144 0 245.5-101t101.5-244-101.5-244.5-245.5-101.5q-143 0-244 101.5t-101 244.5zM132 334q0-115 81-196t194-81q115 0 196 81t81 196q0 114-81 195t-196 81q-113 0-194-81t-81-195zM250 161v368h151q80 0 123.5-25t43.5-89q0-81-87-105l107-149h-108l-101 139h-32v-139h-97zM347 453v-78h52q68 0 68 39t-68 39h-52z" glyph-name="registered" horiz-adv-x="814" unicode="&#xae;"/><glyph d="M62 334q0 142 101 243.5t244 101.5q144 0 245.5-101t101.5-244-101.5-244.5-245.5-101.5q-143 0-244 101.5t-101 244.5zM132 334q0-115 81-196t194-81q115 0 196 81t81 196q0 114-81 195t-196 81q-113 0-194-81t-81-195zM250 161v368h151q80 0 123.5-25t43.5-89q0-81-87-105l107-149h-108l-101 139h-32v-139h-97zM347 453v-78h52q68 0 68 39t-68 39h-52z" glyph-name="registered" horiz-adv-x="814" unicode="&#xe940;"/><glyph d="M403 570h-299l21 98h299z" glyph-name="macron" horiz-adv-x="405" unicode="&#xaf;"/><glyph d="M83 517q0 67 47.5 114.5t114.5 47.5 114.5-47.5 47.5-114.5q0-68-47.5-115.5t-114.5-47.5-114.5 48-47.5 115zM245 590q-30 0-51.5-21.5t-21.5-51.5 21.5-51.5 51.5-21.5q31 0 52 21.5t21 51.5-21 51.5-52 21.5z" glyph-name="degree" horiz-adv-x="411" unicode="&#xb0;"/><glyph d="M83 517q0 67 47.5 114.5t114.5 47.5 114.5-47.5 47.5-114.5q0-68-47.5-115.5t-114.5-47.5-114.5 48-47.5 115zM245 590q-30 0-51.5-21.5t-21.5-51.5 21.5-51.5 51.5-21.5q31 0 52 21.5t21 51.5-21 51.5-52 21.5z" glyph-name="degree" horiz-adv-x="411" unicode="&#xe941;"/><glyph d="M56 391h192v104h128v-104h192v-108h-192v-103h-128v103h-192v108zM568 0h-512v128h512v-128z" glyph-name="plusminus" horiz-adv-x="701" unicode="&#xb1;"/><glyph d="M56 391h192v104h128v-104h192v-108h-192v-103h-128v103h-192v108zM568 0h-512v128h512v-128z" glyph-name="plusminus" horiz-adv-x="701" unicode="&#xe942;"/><glyph d="M70 403l17 81q38 21 54 29.5t50 28.5 50.5 32.5 37.5 30.5 30.5 34 11.5 31q2 20-11 30.5t-33 10.5q-45 0-61-44l-84 33q43 88 156 88 64 0 102-24.5t37-77.5q-1-54-57-108.5t-130-86.5h148l-18-88h-300z" glyph-name="twosuperior" horiz-adv-x="407" unicode="&#xb2;"/><glyph d="M70 403l17 81q38 21 54 29.5t50 28.5 50.5 32.5 37.5 30.5 30.5 34 11.5 31q2 20-11 30.5t-33 10.5q-45 0-61-44l-84 33q43 88 156 88 64 0 102-24.5t37-77.5q-1-54-57-108.5t-130-86.5h148l-18-88h-300z" glyph-name="twosuperior" horiz-adv-x="407" unicode="&#xe943;"/><glyph d="M253 396q-108 0-155 82l98 33q14-39 58-39 21 0 35.5 11.5t15.5 27.5q3 41-72 41h-15l18 84h15q69 0 73 40 3 17-11.5 27t-34.5 10q-44 0-61-37l-83 33q47 79 152 79 64 0 104-27.5t38-77.5q-3-64-66-84 25-12 38.5-37t8.5-57q-8-53-51.5-81t-104.5-28z" glyph-name="threesuperior" horiz-adv-x="425" unicode="&#xb3;"/><glyph d="M253 396q-108 0-155 82l98 33q14-39 58-39 21 0 35.5 11.5t15.5 27.5q3 41-72 41h-15l18 84h15q69 0 73 40 3 17-11.5 27t-34.5 10q-44 0-61-37l-83 33q47 79 152 79 64 0 104-27.5t38-77.5q-3-64-66-84 25-12 38.5-37t8.5-57q-8-53-51.5-81t-104.5-28z" glyph-name="threesuperior" horiz-adv-x="425" unicode="&#xe944;"/><glyph d="M228 574h-123q141 140 143 141 15 12 34 12 28 0 44-21 15-18 12.5-40.5t-20.5-37.5z" glyph-name="acute" horiz-adv-x="320" unicode="&#xb4;"/><glyph d="M228 574h-123q141 140 143 141 15 12 34 12 28 0 44-21 15-18 12.5-40.5t-20.5-37.5z" glyph-name="acute" horiz-adv-x="320" unicode="&#xe9cb;"/><glyph d="M160 296q-59 16-88.5 66.5t-15.5 115.5q17 79 84 134.5t146 55.5h287l-15-68h-48l-162-761h-95l161 761h-93l-162-761h-96z" glyph-name="paragraph" horiz-adv-x="530" unicode="&#xb6;"/><glyph d="M160 296q-59 16-88.5 66.5t-15.5 115.5q17 79 84 134.5t146 55.5h287l-15-68h-48l-162-761h-95l161 761h-93l-162-761h-96z" glyph-name="paragraph" horiz-adv-x="530" unicode="&#xe946;"/><glyph d="M38 248q0 40 28.5 68.5t69.5 28.5q40 0 68.5-28.5t28.5-68.5-28.5-68.5-68.5-28.5q-41 0-69.5 28.5t-28.5 68.5z" glyph-name="periodcentered" horiz-adv-x="305" unicode="&#xb7;"/><glyph d="M38 248q0 40 28.5 68.5t69.5 28.5q40 0 68.5-28.5t28.5-68.5-28.5-68.5-68.5-28.5q-41 0-69.5 28.5t-28.5 68.5z" glyph-name="periodcentered" horiz-adv-x="305" unicode="&#xe947;"/><glyph d="M-35-178l26 50q29-13 60-13 49 0 52 30 1 12-10 19.5t-29 7.5q-8 0-24-4-13-4-20.5 7t2.5 24l69 83 36-25-40-48q46 9 78.5-9t28.5-56q-5-44-43-63.5t-90-19.5q-60 0-96 17z" glyph-name="cedilla" horiz-adv-x="322" unicode="&#xb8;"/><glyph d="M-35-178l26 50q29-13 60-13 49 0 52 30 1 12-10 19.5t-29 7.5q-8 0-24-4-13-4-20.5 7t2.5 24l69 83 36-25-40-48q46 9 78.5-9t28.5-56q-5-44-43-63.5t-90-19.5q-60 0-96 17z" glyph-name="cedilla" horiz-adv-x="322" unicode="&#xe9cd;"/><glyph d="M205 647h-84l19 88q46 0 71 8t44 36h82l-80-376h-104z" glyph-name="onesuperior" horiz-adv-x="294" unicode="&#xb9;"/><glyph d="M205 647h-84l19 88q46 0 71 8t44 36h82l-80-376h-104z" glyph-name="onesuperior" horiz-adv-x="294" unicode="&#xe948;"/><glyph d="M240 396q-66 0-105.5 37.5t-31.5 109.5 55 109 113 37 105-37 31-109q-7-72-54-109.5t-113-37.5zM206 543q-4-35 8-52.5t34-17.5 37 17.5 19 52.5q4 34-8 51.5t-33 17.5q-22 0-37.5-17.5t-19.5-51.5z" glyph-name="ordmasculine" horiz-adv-x="412" unicode="&#xba;"/><glyph d="M240 396q-66 0-105.5 37.5t-31.5 109.5 55 109 113 37 105-37 31-109q-7-72-54-109.5t-113-37.5zM206 543q-4-35 8-52.5t34-17.5 37 17.5 19 52.5q4 34-8 51.5t-33 17.5q-22 0-37.5-17.5t-19.5-51.5z" glyph-name="ordmasculine" horiz-adv-x="412" unicode="&#xe949;"/><glyph d="M-8 40l197 216-100 204h164l103-210-193-210h-171zM232 40l197 216-100 204h164l103-210-193-210h-171z" glyph-name="guillemotright" horiz-adv-x="666" unicode="&#xbb;"/><glyph d="M-8 40l197 216-100 204h164l103-210-193-210h-171zM232 40l197 216-100 204h164l103-210-193-210h-171z" glyph-name="guillemotright" horiz-adv-x="666" unicode="&#xe94a;"/><glyph d="M129 0l468 667h127l-468-667h-127zM662 75h-192l17 77 228 223h114l-45-214h57l-19-86h-57l-16-75h-103zM181 536h-84l19 87q46 0 71 8t44 37h82l-80-376h-104zM602 161h78l20 96z" glyph-name="onequarter" horiz-adv-x="930" unicode="&#xbc;"/><glyph d="M129 0l468 667h127l-468-667h-127zM662 75h-192l17 77 228 223h114l-45-214h57l-19-86h-57l-16-75h-103zM181 536h-84l19 87q46 0 71 8t44 37h82l-80-376h-104zM602 161h78l20 96z" glyph-name="onequarter" horiz-adv-x="930" unicode="&#xe94b;"/><glyph d="M129 0l468 667h127l-468-667h-127zM496 0l17 81q142 78 185 115 45 39 49 71 2 20-11.5 30.5t-33.5 10.5q-45 0-60-44l-84 33q41 87 156 87 65 0 103-24.5t37-76.5q-1-54-57.5-108.5t-130.5-86.5h149l-19-88h-300zM97 536l19 87q46 0 71 8t44 37h82l-80-376h-104l52 244h-84z" glyph-name="onehalf" horiz-adv-x="919" unicode="&#xbd;"/><glyph d="M129 0l468 667h127l-468-667h-127zM496 0l17 81q142 78 185 115 45 39 49 71 2 20-11.5 30.5t-33.5 10.5q-45 0-60-44l-84 33q41 87 156 87 65 0 103-24.5t37-76.5q-1-54-57.5-108.5t-130.5-86.5h149l-19-88h-300zM97 536l19 87q46 0 71 8t44 37h82l-80-376h-104l52 244h-84z" glyph-name="onehalf" horiz-adv-x="919" unicode="&#xe94c;"/><glyph d="M198 0l468 667h127l-468-667h-127zM499 75l16 77 229 223h114l-46-214h57l-18-86h-57l-16-75h-104l16 75h-191zM75 370l98 33q14-39 58-39 21 0 35.5 11.5t15.5 27.5q3 41-72 41h-15l18 84h15q69 0 73 40 3 17-11.5 27t-34.5 10q-44 0-61-37l-83 32q46 79 152 79 64 0 104-27t38-77q-1-31-19-53.5t-47-31.5q24-11 37.5-36t9.5-57q-8-52-51.5-80.5t-104.5-28.5q-108 0-155 82zM729 257l-99-96h79z" glyph-name="threequarters" horiz-adv-x="958" unicode="&#xbe;"/><glyph d="M198 0l468 667h127l-468-667h-127zM499 75l16 77 229 223h114l-46-214h57l-18-86h-57l-16-75h-104l16 75h-191zM75 370l98 33q14-39 58-39 21 0 35.5 11.5t15.5 27.5q3 41-72 41h-15l18 84h15q69 0 73 40 3 17-11.5 27t-34.5 10q-44 0-61-37l-83 32q46 79 152 79 64 0 104-27t38-77q-1-31-19-53.5t-47-31.5q24-11 37.5-36t9.5-57q-8-52-51.5-80.5t-104.5-28.5q-108 0-155 82zM729 257l-99-96h79z" glyph-name="threequarters" horiz-adv-x="958" unicode="&#xe94d;"/><glyph d="M235-173q-53 0-99.5 9.5t-85.5 30-58 57-10 84.5q11 58 49 92t103 62q56 24 82.5 45t40.5 58h160q-14-111-142-169-7-3-30-13.5t-34-16-26.5-15-22.5-20-8-21.5q-2-28 21.5-41.5t71.5-13.5q103 0 132 66l138-55q-78-139-282-139zM364 325q-40 0-68 27.5t-28 68.5 28 69.5 68 28.5 69-28.5 29-69.5q0-40-28.5-68t-69.5-28z" glyph-name="questiondown" horiz-adv-x="634" unicode="&#xbf;"/><glyph d="M235-173q-53 0-99.5 9.5t-85.5 30-58 57-10 84.5q11 58 49 92t103 62q56 24 82.5 45t40.5 58h160q-14-111-142-169-7-3-30-13.5t-34-16-26.5-15-22.5-20-8-21.5q-2-28 21.5-41.5t71.5-13.5q103 0 132 66l138-55q-78-139-282-139zM364 325q-40 0-68 27.5t-28 68.5 28 69.5 68 28.5 69-28.5 29-69.5q0-40-28.5-68t-69.5-28z" glyph-name="questiondown" horiz-adv-x="634" unicode="&#xe94e;"/><glyph d="M121 0h-186l394 668h183l111-668h-165l-16 119h-255zM255 247h172l-32 254zM325 793q-14 18-12.5 41.5t19.5 37.5q15 12 35 12 28 0 44-21 12-14 34-47t38-59l16-26h-108q-50 41-66 62z" glyph-name="Agrave" horiz-adv-x="698" unicode="&#xc0;"/><glyph d="M-65 0l394 668h183l111-668h-165l-16 119h-255l-66-119h-186zM395 501l-140-254h172zM485 731h-123q142 140 143 141 15 12 35 12 29 0 44-21 14-18 12-40.5t-20-37.5z" glyph-name="Aacute" horiz-adv-x="698" unicode="&#xc1;"/><glyph d="M121 0h-186l394 668h183l111-668h-165l-16 119h-255zM224 731l189 137q20 15 44 15 33 0 55-25l118-127h-116l-59 61-84-61h-147zM255 247h172l-32 254z" glyph-name="Acircumflex" horiz-adv-x="698" unicode="&#xc2;"/><glyph d="M121 0h-186l394 668h183l111-668h-165l-16 119h-255zM316 731h-89q15 47 51.5 81t84.5 34q44 0 84-20.5t55-20.5q24 0 45 18.5t32 21.5q27 9 43.5-14.5t-2.5-50.5q-42-58-120-55-36 2-72.5 20.5t-60.5 18.5q-31 0-51-33zM395 501l-140-254h172z" glyph-name="Atilde" horiz-adv-x="698" unicode="&#xc3;"/><glyph d="M-65 0l394 668h183l111-668h-165l-16 119h-255l-66-119h-186zM395 501l-140-254h172zM278 796q0 29 21 50t50 21 49.5-21 20.5-50-20.5-49.5-49.5-20.5-50 20.5-21 49.5zM543 726q-29 0-50 20.5t-21 49.5 21 50 50 21q28 0 48.5-21t20.5-50-20-49.5-49-20.5z" glyph-name="Adieresis" horiz-adv-x="698" unicode="&#xc4;"/><glyph d="M-65 0l387 657q-21 34-21 72 0 55 38.5 93.5t93.5 38.5 94-38.5 39-93.5q0-62-47-101l104-628h-165l-16 119h-255l-66-119h-186zM395 501l-140-254h172zM386 729q0-19 14-33t33-14 33 14 14 33-14 33-33 14-33-14-14-33z" glyph-name="Aring" horiz-adv-x="698" unicode="&#xc5;"/><glyph d="M-65 0l618 668h518l-29-139h-357l-25-116h219l-30-138h-218l-29-136h357l-30-139h-518l26 119h-196l-105-119h-201zM501 421l-147-174h110z" glyph-name="AE" horiz-adv-x="1030" unicode="&#xc6;"/><glyph d="M-65 0l618 668h518l-29-139h-357l-25-116h219l-30-138h-218l-29-136h357l-30-139h-518l26 119h-196l-105-119h-201zM501 421l-147-174h110z" glyph-name="AE" horiz-adv-x="1030" unicode="&#xe953;"/><glyph d="M302-12q-137 6-213 95.5t-52 250.5q26 168 128 257t252 89q56 0 104-14t90-50 60-91l-146-49q-32 74-124 74-72 0-127-57t-70-159q-14-103 23.5-158t110.5-56q85 0 142 74l136-53q-103-162-314-153zM251-112q-5-44-43-63.5t-90-19.5q-60 0-96 17l26 50q29-13 60-13 49 0 52 30 1 12-10 19.5t-29 7.5q-8 0-24-4-13-4-20.5 7t2.5 24l69 83 36-25-40-48q46 9 78.5-9t28.5-56z" glyph-name="Ccedilla" horiz-adv-x="686" unicode="&#xc7;"/><glyph d="M495 0h-518l142 668h518l-30-139h-356l-25-116h217l-29-139h-217l-29-135h356zM290 793q-14 18-12.5 41.5t19.5 37.5q15 12 35 12 28 0 44-21 12-14 34-47t38-59l16-26h-108q-50 41-66 62z" glyph-name="Egrave" unicode="&#xc8;"/><glyph d="M-23 0l142 668h518l-30-139h-356l-25-116h217l-29-139h-217l-29-135h356l-29-139h-518zM308 731q142 140 143 141 15 12 35 12 29 0 44-21 14-18 12-40.5t-20-37.5l-91-54h-123z" glyph-name="Eacute" unicode="&#xc9;"/><glyph d="M-23 0l142 668h518l-30-139h-356l-25-116h217l-29-139h-217l-29-135h356l-29-139h-518zM183 731l189 137q20 15 44 15 33 0 55-25l118-127h-116l-59 61-84-61h-147z" glyph-name="Ecircumflex" unicode="&#xca;"/><glyph d="M-23 0l142 668h518l-30-139h-356l-25-116h217l-29-139h-217l-29-135h356l-29-139h-518zM229 796q0 29 21 50t50 21 49.5-21 20.5-50-20.5-49.5-49.5-20.5-50 20.5-21 49.5zM423 796q0 29 21 50t50 21q28 0 48.5-21t20.5-50-20-49.5-49-20.5-50 20.5-21 49.5z" glyph-name="Edieresis" unicode="&#xcb;"/><glyph d="M331 0h-344l26 124h92l90 420h-92l26 124h345l-27-124h-92l-88-420h91zM200 793q-14 18-12.5 41.5t19.5 37.5q15 12 35 12 28 0 44-21 12-14 34-47t38-59l16-26h-108q-50 41-66 62z" glyph-name="Igrave" horiz-adv-x="459" unicode="&#xcc;"/><glyph d="M331 0h-344l26 124h92l90 420h-92l26 124h345l-27-124h-92l-88-420h91zM248 731q142 140 143 141 15 12 35 12 29 0 44-21 14-18 12-40.5t-20-37.5l-91-54h-123z" glyph-name="Iacute" horiz-adv-x="459" unicode="&#xcd;"/><glyph d="M-13 0l26 124h92l90 420h-92l26 124h345l-27-124h-92l-88-420h91l-27-124h-344zM255 731h-147l189 137q19 15 44 15 33 0 55-25l118-127h-116l-59 61z" glyph-name="Icircumflex" horiz-adv-x="459" unicode="&#xce;"/><glyph d="M-13 0l26 124h92l90 420h-92l26 124h345l-27-124h-92l-88-420h91l-27-124h-344zM162 796q0 29 21 50t50 21 49.5-21 20.5-50-20.5-49.5-49.5-20.5-50 20.5-21 49.5zM356 796q0 29 21 50t50 21q28 0 48.5-21t20.5-50-20-49.5-49-20.5-50 20.5-21 49.5z" glyph-name="Idieresis" horiz-adv-x="459" unicode="&#xcf;"/><glyph d="M6 275l30 137h76l54 256h194q198 0 283-95t55-261q-15-86-60-148.5t-109-97-134-50.5-148-16h-223l58 275h-76zM359 275h-115l-30-142h63q117 0 181.5 60t76.5 162q11 96-25.5 139t-151.5 43h-58l-27-125h116z" glyph-name="Eth" horiz-adv-x="736" unicode="&#xd0;"/><glyph d="M-23 0l142 668h199l160-485 104 485h155l-142-668h-199l-160 485-103-485h-156zM335 731h-89q15 47 51.5 81t84.5 34q44 0 84-20.5t55-20.5q24 0 45 18.5t32 21.5q27 9 43.5-14.5t-2.5-50.5q-42-58-120-55-36 2-72.5 20.5t-60.5 18.5q-31 0-51-33z" glyph-name="Ntilde" horiz-adv-x="715" unicode="&#xd1;"/><glyph d="M335-12q-156 0-237.5 93t-62.5 240q21 163 128.5 261t262.5 98q151 0 235.5-88.5t67.5-246.5q-17-159-126-258t-268-99zM203 321q-11-84 27.5-143.5t118.5-59.5q84 0 143 64t70 163-34 152-114 53q-77 0-137-60t-74-169zM337 793q-14 18-12.5 41.5t19.5 37.5q15 12 35 12 27 0 44-21 12-14 34-47t38-59l16-26h-108q-50 41-66 62z" glyph-name="Ograve" horiz-adv-x="763" unicode="&#xd2;"/><glyph d="M335-12q-156 0-237.5 93t-62.5 240q21 163 128.5 261t262.5 98q151 0 235.5-88.5t67.5-246.5q-17-159-126-258t-268-99zM203 321q-11-84 27.5-143.5t118.5-59.5q84 0 143 64t70 163-34 152-114 53q-77 0-137-60t-74-169zM392 731q142 140 143 141 15 12 35 12 29 0 44-21 14-18 12-40.5t-20-37.5l-91-54h-123z" glyph-name="Oacute" horiz-adv-x="763" unicode="&#xd3;"/><glyph d="M335-12q-156 0-237.5 93t-62.5 240q21 163 128.5 261t262.5 98q151 0 235.5-88.5t67.5-246.5q-17-159-126-258t-268-99zM203 321q-11-84 27.5-143.5t118.5-59.5q84 0 143 64t70 163-34 152-114 53q-77 0-137-60t-74-169zM397 731h-147l189 137q20 15 44 15 33 0 55-25l118-127h-116l-59 61z" glyph-name="Ocircumflex" horiz-adv-x="763" unicode="&#xd4;"/><glyph d="M335-12q-156 0-237.5 93t-62.5 240q21 163 128.5 261t262.5 98q151 0 235.5-88.5t67.5-246.5q-17-159-126-258t-268-99zM203 321q-11-84 27.5-143.5t118.5-59.5q84 0 143 64t70 163-34 152-114 53q-77 0-137-60t-74-169zM267 731q15 47 51.5 81t84.5 34q44 0 84-20.5t55-20.5q24 0 45 18.5t32 21.5q27 9 43.5-14.5t-2.5-50.5q-42-58-120-55-36 2-72.5 20.5t-60.5 18.5q-31 0-51-33h-89z" glyph-name="Otilde" horiz-adv-x="763" unicode="&#xd5;"/><glyph d="M335-12q-156 0-237.5 93t-62.5 240q21 163 128.5 261t262.5 98q151 0 235.5-88.5t67.5-246.5q-17-159-126-258t-268-99zM203 321q-11-84 27.5-143.5t118.5-59.5q84 0 143 64t70 163-34 152-114 53q-77 0-137-60t-74-169zM368 726q-29 0-50 20.5t-21 49.5 21 50 50 21 49.5-21 20.5-50-20.5-49.5-49.5-20.5zM562 726q-29 0-50 20.5t-21 49.5 21 50 50 21q28 0 48.5-21t20.5-50-20-49.5-49-20.5z" glyph-name="Odieresis" horiz-adv-x="763" unicode="&#xd6;"/><glyph d="M512 385l-139-137 136-136-91-90-134 136-135-136-91 90 136 136-139 137 91 91 138-139 137 139z" glyph-name="multiply" horiz-adv-x="618" unicode="&#xd7;"/><glyph d="M512 385l-139-137 136-136-91-90-134 136-135-136-91 90 136 136-139 137 91 91 138-139 137 139z" glyph-name="multiply" horiz-adv-x="618" unicode="&#xe964;"/><glyph d="M5 43l71 66q-58 87-41 212 21 163 128.5 261t262.5 98q122 0 201-58l69 64 51-53-68-64q64-86 49-224-17-159-126-258t-268-99q-129 0-209 66l-69-65zM242 163q40-45 107-45 83 0 142 64t70 163q7 59-9 106zM202 321q-6-51 5-90l304 283q-41 36-97 36-78 0-138-60t-74-169z" glyph-name="Oslash" horiz-adv-x="762" unicode="&#xd8;"/><glyph d="M5 43l71 66q-58 87-41 212 21 163 128.5 261t262.5 98q122 0 201-58l69 64 51-53-68-64q64-86 49-224-17-159-126-258t-268-99q-129 0-209 66l-69-65zM242 163q40-45 107-45 83 0 142 64t70 163q7 59-9 106zM202 321q-6-51 5-90l304 283q-41 36-97 36-78 0-138-60t-74-169z" glyph-name="Oslash" horiz-adv-x="762" unicode="&#xe965;"/><glyph d="M266-12q-68 0-116.5 16t-75 43-38 66.5-10 82.5 12.5 96l81 376h161l-83-389q-9-47-10-83t24.5-57.5 81.5-21.5q76 0 110.5 39.5t52.5 122.5l83 389h161l-80-376q-20-93-49.5-153t-75-93-99-45.5-131.5-12.5zM308 793q-14 18-12.5 41.5t19.5 37.5q15 12 35 12 28 0 44-21 12-14 34-47t38-59l16-26h-108q-50 41-66 62z" glyph-name="Ugrave" horiz-adv-x="676" unicode="&#xd9;"/><glyph d="M266-12q-68 0-116.5 16t-75 43-38 66.5-10 82.5 12.5 96l81 376h161l-83-389q-9-47-10-83t24.5-57.5 81.5-21.5q76 0 110.5 39.5t52.5 122.5l83 389h161l-80-376q-20-93-49.5-153t-75-93-99-45.5-131.5-12.5zM478 731h-123q142 140 143 141 15 12 35 12 29 0 44-21 14-18 12-40.5t-20-37.5z" glyph-name="Uacute" horiz-adv-x="676" unicode="&#xda;"/><glyph d="M266-12q-68 0-116.5 16t-75 43-38 66.5-10 82.5 12.5 96l81 376h161l-83-389q-9-47-10-83t24.5-57.5 81.5-21.5q76 0 110.5 39.5t52.5 122.5l83 389h161l-80-376q-20-93-49.5-153t-75-93-99-45.5-131.5-12.5zM355 731h-147l189 137q20 15 44 15 33 0 55-25l118-127h-116l-59 61z" glyph-name="Ucircumflex" horiz-adv-x="676" unicode="&#xdb;"/><glyph d="M266-12q-68 0-116.5 16t-75 43-38 66.5-10 82.5 12.5 96l81 376h161l-83-389q-9-47-10-83t24.5-57.5 81.5-21.5q76 0 110.5 39.5t52.5 122.5l83 389h161l-80-376q-20-93-49.5-153t-75-93-99-45.5-131.5-12.5zM330 726q-29 0-50 20.5t-21 49.5 21 50 50 21 49.5-21 20.5-50-20.5-49.5-49.5-20.5zM524 726q-29 0-50 20.5t-21 49.5 21 50 50 21q28 0 48.5-21t20.5-50-20-49.5-49-20.5z" glyph-name="Udieresis" horiz-adv-x="676" unicode="&#xdc;"/><glyph d="M242 241l-160 427h171l86-277 219 277h204l-358-427-50-241h-163zM465 731h-123q142 140 143 141 15 12 35 12 29 0 44-21 14-18 12-40.5t-20-37.5z" glyph-name="Yacute" horiz-adv-x="700" unicode="&#xdd;"/><glyph d="M-23 0l142 668h161l-21-105h88q68 0 118-10.5t87-34.5 51.5-67.5 5.5-106.5q-7-47-25-83t-46-59-59.5-38.5-72-23-75-10-76.5-2.5h-89l-27-128h-162zM230 426l-34-157h98q76 0 107.5 20.5t39.5 57.5q9 42-12.5 60.5t-96.5 18.5h-102z" glyph-name="Thorn" horiz-adv-x="636" unicode="&#xde;"/><glyph d="M-23 0l142 668h161l-21-105h88q68 0 118-10.5t87-34.5 51.5-67.5 5.5-106.5q-7-47-25-83t-46-59-59.5-38.5-72-23-75-10-76.5-2.5h-89l-27-128h-162zM230 426l-34-157h98q76 0 107.5 20.5t39.5 57.5q9 42-12.5 60.5t-96.5 18.5h-102z" glyph-name="Thorn" horiz-adv-x="636" unicode="&#xe96b;"/><glyph d="M134 0h-157l93 435q29 133 101.5 188.5t204.5 55.5q108 0 172.5-48t51.5-138q-11-77-84-125 36-18 55-60.5t14-97.5q-23-244-332-221l-12 134q41-11 71-11 50 0 79.5 24t32.5 68q4 48-25.5 71t-91.5 23h-30l25 117h26q53 0 85 22.5t37 60.5q3 28-17.5 48t-67.5 20q-61 0-92.5-31t-48.5-111z" glyph-name="germandbls" horiz-adv-x="642" unicode="&#xdf;"/><glyph d="M134 0h-157l93 435q29 133 101.5 188.5t204.5 55.5q108 0 172.5-48t51.5-138q-11-77-84-125 36-18 55-60.5t14-97.5q-23-244-332-221l-12 134q41-11 71-11 50 0 79.5 24t32.5 68q4 48-25.5 71t-91.5 23h-30l25 117h26q53 0 85 22.5t37 60.5q3 28-17.5 48t-67.5 20q-61 0-92.5-31t-48.5-111z" glyph-name="germandbls" horiz-adv-x="642" unicode="&#xe96c;"/><glyph d="M126-12q-62 0-106 37.5t-42 97.5q1 35 16 63t43.5 47.5 59.5 33 75 23 79.5 15 82.5 10.5l3 13q18 79-69 79-74 0-102-59l-117 46q76 116 240 116 105 0 161-54t34-154q-2-14-11.5-55t-11.5-54q-24-111-24-193h-144l-5 59q-33-40-70-55.5t-92-15.5zM139 144q-3-24 16-38.5t49-14.5q43 0 71.5 28t45.5 94l3 12q-177-15-185-81zM179 635q-14 19-11.5 41.5t20.5 37.5q14 13 35 13 27 0 43-21 11-14 33-47t39-59l16-26h-108q-50 41-67 61z" glyph-name="agrave" horiz-adv-x="541" unicode="&#xe0;"/><glyph d="M126-12q-62 0-106 37.5t-42 97.5q1 35 16 63t43.5 47.5 59.5 33 75 23 79.5 15 82.5 10.5l3 13q18 79-69 79-74 0-102-59l-117 46q76 116 240 116 105 0 161-54t34-154q-2-14-11.5-55t-11.5-54q-24-111-24-193h-144l-5 59q-33-40-70-55.5t-92-15.5zM241 574q141 140 143 141 15 12 34 12 28 0 44-21 15-18 12.5-40.5t-20.5-37.5l-90-54h-123zM139 144q-3-24 16-38.5t49-14.5q43 0 71.5 28t45.5 94l3 12q-177-15-185-81z" glyph-name="aacute" horiz-adv-x="541" unicode="&#xe1;"/><glyph d="M126-12q-62 0-106 37.5t-42 97.5q1 35 16 63t43.5 47.5 59.5 33 75 23 79.5 15 82.5 10.5l3 13q18 79-69 79-74 0-102-59l-117 46q76 116 240 116 105 0 161-54t34-154q-2-14-11.5-55t-11.5-54q-24-111-24-193h-144l-5 59q-33-40-70-55.5t-92-15.5zM238 574h-147l189 137q19 15 44 15 33 0 55-25l118-127h-116l-59 61zM139 144q-3-24 16-38.5t49-14.5q43 0 71.5 28t45.5 94l3 12q-177-15-185-81z" glyph-name="acircumflex" horiz-adv-x="541" unicode="&#xe2;"/><glyph d="M126-12q-62 0-106 37.5t-42 97.5q1 35 16 63t43.5 47.5 59.5 33 75 23 79.5 15 82.5 10.5l3 13q18 79-69 79-74 0-102-59l-117 46q76 116 240 116 105 0 161-54t34-154q-2-14-11.5-55t-11.5-54q-24-111-24-193h-144l-5 59q-33-40-70-55.5t-92-15.5zM95 574q15 47 51.5 81t84.5 34q44 0 84-20.5t55-20.5q24 0 45 18.5t32 21.5q27 9 43.5-14.5t-2.5-50.5q-42-58-120-55-36 2-72.5 20.5t-60.5 18.5q-31 0-51-33h-89zM139 144q-3-24 16-38.5t49-14.5q43 0 71.5 28t45.5 94l3 12q-177-15-185-81z" glyph-name="atilde" horiz-adv-x="541" unicode="&#xe3;"/><glyph d="M126-12q-62 0-106 37.5t-42 97.5q1 35 16 63t43.5 47.5 59.5 33 75 23 79.5 15 82.5 10.5l3 13q18 79-69 79-74 0-102-59l-117 46q76 116 240 116 105 0 161-54t34-154q-2-14-11.5-55t-11.5-54q-24-111-24-193h-144l-5 59q-33-40-70-55.5t-92-15.5zM139 144q-3-24 16-38.5t49-14.5q43 0 71.5 28t45.5 94l3 12q-177-15-185-81zM224 578q-29 0-50 20.5t-21 49.5 21 50 50 21 49.5-21 20.5-50-20.5-49.5-49.5-20.5zM347 648q0 29 21 50t50 21q28 0 48.5-21t20.5-50-20-49.5-49-20.5-50 20.5-21 49.5z" glyph-name="adieresis" horiz-adv-x="541" unicode="&#xe4;"/><glyph d="M126-12q-62 0-106 37.5t-42 97.5q1 35 16 63t43.5 47.5 59.5 33 75 23 79.5 15 82.5 10.5l3 13q18 79-69 79-74 0-102-59l-117 46q76 116 240 116 105 0 161-54t34-154q-2-14-11.5-55t-11.5-54q-24-111-24-193h-144l-5 59q-33-40-70-55.5t-92-15.5zM205 668q0 55 38.5 93.5t93.5 38.5 94-38.5 39-93.5-39-94-94-39-93.5 39-38.5 94zM139 144q-3-24 16-38.5t49-14.5q43 0 71.5 28t45.5 94l3 12q-177-15-185-81zM290 668q0-20 14-33.5t33-13.5 33 13.5 14 33.5-14 33.5-33 13.5-33-13.5-14-33.5z" glyph-name="aring" horiz-adv-x="541" unicode="&#xe5;"/><glyph d="M62 3q-53 18-75 67t6 112q59 117 347 117l6 30q16 78-69 78-73 0-101-59l-118 46q77 116 240 116 99 0 139-58 74 58 185 58 129 0 186.5-83t25.5-218h-366q-9-52 20.5-77.5t78.5-25.5q69 0 106 37l113-45q-87-110-242-110-122 0-177 90-81-91-207-91-48 0-98 16zM482 299h228q5 48-22.5 73.5t-71.5 25.5-82-26-52-73zM139 145q-3-25 16-41t52-13q26 2 46.5 13t31.5 21.5 21.5 31.5 12.5 27.5 8 24.5q-48 0-78-1.5t-56-8-38.5-20-15.5-34.5z" glyph-name="ae" horiz-adv-x="882" unicode="&#xe6;"/><glyph d="M62 3q-53 18-75 67t6 112q59 117 347 117l6 30q16 78-69 78-73 0-101-59l-118 46q77 116 240 116 99 0 139-58 74 58 185 58 129 0 186.5-83t25.5-218h-366q-9-52 20.5-77.5t78.5-25.5q69 0 106 37l113-45q-87-110-242-110-122 0-177 90-81-91-207-91-48 0-98 16zM482 299h228q5 48-22.5 73.5t-71.5 25.5-82-26-52-73zM139 145q-3-25 16-41t52-13q26 2 46.5 13t31.5 21.5 21.5 31.5 12.5 27.5 8 24.5q-48 0-78-1.5t-56-8-38.5-20-15.5-34.5z" glyph-name="ae" horiz-adv-x="882" unicode="&#xe973;"/><glyph d="M170-8q-94 16-138 87t-25 171q22 121 105 190.5t204 69.5q147 0 195-128l-133-46q-13 56-79 56-46 0-84-34.5t-53-108.5 7.5-109 66.5-35q66 0 105 49l123-47q-85-119-241-119l-28-34q46 9 78.5-9t28.5-56q-5-44-43-63.5t-90-19.5q-60 0-96 17l26 50q29-13 60-13 49 0 52 30 1 12-10 19.5t-29 7.5q-8 0-24-4-13-4-20.5 7t2.5 24z" glyph-name="ccedilla" horiz-adv-x="531" unicode="&#xe7;"/><glyph d="M229-12q-119 0-180 69t-42 191q17 109 96.5 185.5t203.5 76.5q129 0 186.5-83t25.5-218h-365q-9-52 20.5-77.5t78.5-25.5q69 0 105 36l114-44q-88-110-243-110zM168 299h227q5 48-22.5 74t-70.5 26-81.5-26.5-52.5-73.5zM205 635q-14 19-11.5 41.5t20.5 37.5q14 13 35 13 27 0 43-21 11-14 33-47t39-59l16-26h-108q-50 41-67 61z" glyph-name="egrave" horiz-adv-x="567" unicode="&#xe8;"/><glyph d="M229-12q-119 0-180 69t-42 191q17 109 96.5 185.5t203.5 76.5q129 0 186.5-83t25.5-218h-365q-9-52 20.5-77.5t78.5-25.5q69 0 105 36l114-44q-88-110-243-110zM395 299q5 48-22.5 74t-70.5 26-81.5-26.5-52.5-73.5h227zM274 574q141 140 143 141 15 12 34 12 27 0 44-21 15-18 12.5-40.5t-20.5-37.5l-90-54h-123z" glyph-name="eacute" horiz-adv-x="567" unicode="&#xe9;"/><glyph d="M229-12q-119 0-180 69t-42 191q17 109 96.5 185.5t203.5 76.5q129 0 186.5-83t25.5-218h-365q-9-52 20.5-77.5t78.5-25.5q69 0 105 36l114-44q-88-110-243-110zM272 574h-147l189 137q20 15 44 15 33 0 55-25l118-127h-116l-59 61zM168 299h227q5 48-22.5 74t-70.5 26-81.5-26.5-52.5-73.5z" glyph-name="ecircumflex" horiz-adv-x="567" unicode="&#xea;"/><glyph d="M229-12q-119 0-180 69t-42 191q17 109 96.5 185.5t203.5 76.5q129 0 186.5-83t25.5-218h-365q-9-52 20.5-77.5t78.5-25.5q69 0 105 36l114-44q-88-110-243-110zM168 299h227q5 48-22.5 74t-70.5 26-81.5-26.5-52.5-73.5zM258 578q-29 0-50 20.5t-21 49.5 21 50 50 21 49.5-21 20.5-50-20.5-49.5-49.5-20.5zM381 648q0 29 21 50t50 21q28 0 48.5-21t20.5-50-20-49.5-49-20.5-50 20.5-21 49.5z" glyph-name="edieresis" horiz-adv-x="567" unicode="&#xeb;"/><glyph d="M26 380l25 116h258l-105-496h-156l81 380h-103zM144 635q-14 19-11.5 41.5t20.5 37.5q14 13 35 13 26 0 43-21 11-14 33-47t38-59l17-26h-108q-50 41-67 61z" glyph-name="igrave" horiz-adv-x="326" unicode="&#xec;"/><glyph d="M129 380h-103l25 116h258l-105-496h-156zM309 574h-123q141 140 143 141 15 12 34 12 27 0 44-21 15-18 12.5-40.5t-20.5-37.5z" glyph-name="iacute" horiz-adv-x="326" unicode="&#xed;"/><glyph d="M26 380l25 116h258l-105-496h-156l81 380h-103zM169 574h-147l189 137q20 15 44 15 33 0 55-25l118-127h-116l-59 61z" glyph-name="icircumflex" horiz-adv-x="326" unicode="&#xee;"/><glyph d="M129 380h-103l25 116h258l-105-496h-156zM69 648q0 29 21 50t50 21 49.5-21 20.5-50-20.5-49.5-49.5-20.5-50 20.5-21 49.5zM334 578q-29 0-50 20.5t-21 49.5 21 50 50 21q28 0 48.5-21t20.5-50-20-49.5-49-20.5z" glyph-name="idieresis" horiz-adv-x="326" unicode="&#xef;"/><glyph d="M228-12q-57 0-101 17t-68.5 45-40 63-15.5 71.5 5 70.5q21 98 90.5 149.5t163.5 51.5q43 0 85-20t62-52q3 113-43 163l-77-64-37 47 63 54q-43 20-108 20l26 122q115-4 191-53l74 61 37-48-65-53q88-96 77-262-12-194-100-288.5t-219-94.5zM142 220q-5-51 22.5-85t72.5-34q106 0 119 119 6 54-20.5 86t-74.5 32q-49 0-81.5-33t-37.5-85z" glyph-name="eth" horiz-adv-x="582" unicode="&#xf0;"/><glyph d="M228-12q-57 0-101 17t-68.5 45-40 63-15.5 71.5 5 70.5q21 98 90.5 149.5t163.5 51.5q43 0 85-20t62-52q3 113-43 163l-77-64-37 47 63 54q-43 20-108 20l26 122q115-4 191-53l74 61 37-48-65-53q88-96 77-262-12-194-100-288.5t-219-94.5zM142 220q-5-51 22.5-85t72.5-34q106 0 119 119 6 54-20.5 86t-74.5 32q-49 0-81.5-33t-37.5-85z" glyph-name="eth" horiz-adv-x="582" unicode="&#xe97d;"/><glyph d="M136 0h-156l105 496h136l5-64q57 78 171 78 78 0 112.5-56t9.5-173l-60-281h-156l56 263q15 69 3.5 99t-50.5 30q-93 0-122-138zM128 574q15 47 51.5 81t84.5 34q44 0 84-20.5t55-20.5q24 0 45 18.5t32 21.5q27 9 43.5-14.5t-2.5-50.5q-42-58-120-55-36 2-72.5 20.5t-60.5 18.5q-31 0-51-33h-89z" glyph-name="ntilde" horiz-adv-x="581" unicode="&#xf1;"/><glyph d="M239-13q-117 0-181.5 70t-50.5 185q11 91 57 153.5t106 88.5 132 26q114 0 181-68.5t50-192.5q-9-62-33-110t-54.5-76-69-46-71.5-24-66-6zM163 249q-3-32-2.5-64t22.5-56 62-24q59 0 91.5 42t41.5 102q20 145-89 143-103-2-126-143zM206 635q-14 19-11.5 41.5t20.5 37.5q14 13 35 13 26 0 43-21 11-14 33-47t38-59l17-26h-108q-50 41-67 61z" glyph-name="ograve" horiz-adv-x="576" unicode="&#xf2;"/><glyph d="M239-13q-117 0-181.5 70t-50.5 185q11 91 57 153.5t106 88.5 132 26q114 0 181-68.5t50-192.5q-9-62-33-110t-54.5-76-69-46-71.5-24-66-6zM163 249q-3-32-2.5-64t22.5-56 62-24q59 0 91.5 42t41.5 102q20 145-89 143-103-2-126-143zM396 574h-123q141 140 143 141 15 12 34 12 28 0 44-21 15-18 12.5-40.5t-20.5-37.5z" glyph-name="oacute" horiz-adv-x="576" unicode="&#xf3;"/><glyph d="M239-13q-117 0-181.5 70t-50.5 185q11 91 57 153.5t106 88.5 132 26q114 0 181-68.5t50-192.5q-9-62-33-110t-54.5-76-69-46-71.5-24-66-6zM163 249q-3-32-2.5-64t22.5-56 62-24q59 0 91.5 42t41.5 102q20 145-89 143-103-2-126-143zM122 574l189 137q20 15 44 15 33 0 55-25l118-127h-116l-59 61-84-61h-147z" glyph-name="ocircumflex" horiz-adv-x="576" unicode="&#xf4;"/><glyph d="M239-13q-117 0-181.5 70t-50.5 185q11 91 57 153.5t106 88.5 132 26q114 0 181-68.5t50-192.5q-9-62-33-110t-54.5-76-69-46-71.5-24-66-6zM163 249q-3-32-2.5-64t22.5-56 62-24q59 0 91.5 42t41.5 102q20 145-89 143-103-2-126-143zM128 574q15 47 51.5 81t84.5 34q44 0 84-20.5t55-20.5q24 0 45 18.5t32 21.5q27 9 43.5-14.5t-2.5-50.5q-42-58-120-55-36 2-72.5 20.5t-60.5 18.5q-31 0-51-33h-89z" glyph-name="otilde" horiz-adv-x="576" unicode="&#xf5;"/><glyph d="M239-13q-117 0-181.5 70t-50.5 185q11 91 57 153.5t106 88.5 132 26q114 0 181-68.5t50-192.5q-9-62-33-110t-54.5-76-69-46-71.5-24-66-6zM163 249q-3-32-2.5-64t22.5-56 62-24q59 0 91.5 42t41.5 102q20 145-89 143-103-2-126-143zM256 578q-29 0-50 20.5t-21 49.5 21 50 50 21 49.5-21 20.5-50-20.5-49.5-49.5-20.5zM450 578q-29 0-50 20.5t-21 49.5 21 50 50 21q28 0 48.5-21t20.5-50-20-49.5-49-20.5z" glyph-name="odieresis" horiz-adv-x="576" unicode="&#xf6;"/><glyph d="M40 186v128h512v-128h-512zM296 351q-32 0-55.5 23.5t-23.5 56.5 23.5 56 55.5 23 55.5-23 23.5-56-23.5-56.5-55.5-23.5zM296-12q-32 0-55.5 23.5t-23.5 56.5q0 32 23.5 55.5t55.5 23.5 55.5-23.5 23.5-55.5q0-33-23.5-56.5t-55.5-23.5z" glyph-name="divide" horiz-adv-x="645" unicode="&#xf7;"/><glyph d="M40 186v128h512v-128h-512zM296 351q-32 0-55.5 23.5t-23.5 56.5 23.5 56 55.5 23 55.5-23 23.5-56-23.5-56.5-55.5-23.5zM296-12q-32 0-55.5 23.5t-23.5 56.5q0 32 23.5 55.5t55.5 23.5 55.5-23.5 23.5-55.5q0-33-23.5-56.5t-55.5-23.5z" glyph-name="divide" horiz-adv-x="645" unicode="&#xe984;"/><glyph d="M-26 27l63 58q-42 65-30 158 18 134 101 200.5t195 66.5q88 0 147-40l63 59 51-54-62-57q46-67 32-168-9-62-33-110t-54.5-76-68.5-46-71-24-66-6q-93 0-154 44l-62-59zM188 125q22-19 59-19 58 0 90.5 42t41.5 102q4 27 2 56zM164 250q-5-28-4-50l190 176q-23 18-61 16-102-4-125-142z" glyph-name="oslash" horiz-adv-x="577" unicode="&#xf8;"/><glyph d="M-26 27l63 58q-42 65-30 158 18 134 101 200.5t195 66.5q88 0 147-40l63 59 51-54-62-57q46-67 32-168-9-62-33-110t-54.5-76-68.5-46-71-24-66-6q-93 0-154 44l-62-59zM188 125q22-19 59-19 58 0 90.5 42t41.5 102q4 27 2 56zM164 250q-5-28-4-50l190 176q-23 18-61 16-102-4-125-142z" glyph-name="oslash" horiz-adv-x="577" unicode="&#xe985;"/><glyph d="M159-12q-54 0-87 20.5t-44 56.5-11 73.5 10 81.5l59 276h155l-55-261q-25-129 45-129 41 0 73 31.5t46 96.5l56 262h155l-105-496h-135l-5 64q-47-76-157-76zM223 635q-14 19-11.5 41.5t20.5 37.5q14 13 35 13 27 0 43-21 11-14 33-47t39-59l16-26h-108q-50 41-67 61z" glyph-name="ugrave" horiz-adv-x="578" unicode="&#xf9;"/><glyph d="M159-12q-54 0-87 20.5t-44 56.5-11 73.5 10 81.5l59 276h155l-55-261q-25-129 45-129 41 0 73 31.5t46 96.5l56 262h155l-105-496h-135l-5 64q-47-76-157-76zM398 574h-123q141 140 143 141 15 12 34 12 28 0 44-21 15-18 12.5-40.5t-20.5-37.5z" glyph-name="uacute" horiz-adv-x="578" unicode="&#xfa;"/><glyph d="M159-12q-54 0-87 20.5t-44 56.5-11 73.5 10 81.5l59 276h155l-55-261q-25-129 45-129 41 0 73 31.5t46 96.5l56 262h155l-105-496h-135l-5 64q-47-76-157-76zM281 574h-147l189 137q19 15 44 15 33 0 55-25l118-127h-116l-59 61z" glyph-name="ucircumflex" horiz-adv-x="578" unicode="&#xfb;"/><glyph d="M159-12q-54 0-87 20.5t-44 56.5-11 73.5 10 81.5l59 276h155l-55-261q-25-129 45-129 41 0 73 31.5t46 96.5l56 262h155l-105-496h-135l-5 64q-47-76-157-76zM190 648q0 29 21 50t50 21 49.5-21 20.5-50-20.5-49.5-49.5-20.5-50 20.5-21 49.5zM455 578q-29 0-50 20.5t-21 49.5 21 50 50 21q28 0 48.5-21t20.5-50-20-49.5-49-20.5z" glyph-name="udieresis" horiz-adv-x="578" unicode="&#xfc;"/><glyph d="M5-161h-49l23 110h31q60 0 79.5 10.5t31.5 42.5l-86 494h155l30-316 166 316h176l-296-497q-37-61-56.5-88t-50-46.5-61-22.5-93.5-3zM366 574h-123q141 140 143 141 15 12 34 12 28 0 44-21 15-18 12.5-40.5t-20.5-37.5z" glyph-name="yacute" horiz-adv-x="527" unicode="&#xfd;"/><glyph d="M102-161h-156l176 829h155l-49-234q53 77 149 77 30 0 58.5-9.5t56-31 44-64 16.5-100.5q0-130-72.5-224t-191.5-94q-42 0-82 24t-54 63zM179 256q-14-68 12-108.5t71-40.5q37 0 65 18t41.5 45.5 19.5 53.5 6 49q0 119-87 119-47 0-80-34t-48-102z" glyph-name="thorn" horiz-adv-x="590" unicode="&#xfe;"/><glyph d="M102-161h-156l176 829h155l-49-234q53 77 149 77 30 0 58.5-9.5t56-31 44-64 16.5-100.5q0-130-72.5-224t-191.5-94q-42 0-82 24t-54 63zM179 256q-14-68 12-108.5t71-40.5q37 0 65 18t41.5 45.5 19.5 53.5 6 49q0 119-87 119-47 0-80-34t-48-102z" glyph-name="thorn" horiz-adv-x="590" unicode="&#xe98b;"/><glyph d="M-44-161l23 110h31q60 0 79.5 10.5t31.5 42.5l-86 494h155l30-316 166 316h176l-296-497q-37-61-56.5-88t-50-46.5-61-22.5-93.5-3h-49zM153 648q0 29 21 50t50 21 49.5-21 20.5-50-20.5-49.5-49.5-20.5-50 20.5-21 49.5zM418 578q-29 0-50 20.5t-21 49.5 21 50 50 21q28 0 48.5-21t20.5-50-20-49.5-49-20.5z" glyph-name="ydieresis" horiz-adv-x="527" unicode="&#xff;"/><glyph d="M-65 0l394 668h183l111-668h-165l-16 119h-255l-66-119h-186zM285 746l21 98h299l-21-98h-299zM255 247h172l-32 254z" glyph-name="Amacron" horiz-adv-x="698" unicode="&#x100;"/><glyph d="M126-12q-62 0-106 37.5t-42 97.5q1 35 16 63t43.5 47.5 59.5 33 75 23 79.5 15 82.5 10.5l3 13q18 79-69 79-74 0-102-59l-117 46q76 116 240 116 105 0 161-54t34-154q-2-14-11.5-55t-11.5-54q-24-111-24-193h-144l-5 59q-33-40-70-55.5t-92-15.5zM471 570h-299l21 98h299zM139 144q-3-24 16-38.5t49-14.5q43 0 71.5 28t45.5 94l3 12q-177-15-185-81z" glyph-name="amacron" horiz-adv-x="541" unicode="&#x101;"/><glyph d="M121 0h-186l394 668h183l111-668h-165l-16 119h-255zM298 850h93q4-16 18.5-26.5t34.5-10.5q21 0 37 10t22 27h94q-15-49-56.5-80t-100.5-31-98 31-44 80zM255 247h172l-32 254z" glyph-name="Abreve" horiz-adv-x="698" unicode="&#x102;"/><glyph d="M126-12q-62 0-106 37.5t-42 97.5q1 35 16 63t43.5 47.5 59.5 33 75 23 79.5 15 82.5 10.5l3 13q18 79-69 79-74 0-102-59l-117 46q76 116 240 116 105 0 161-54t34-154q-2-14-11.5-55t-11.5-54q-24-111-24-193h-144l-5 59q-33-40-70-55.5t-92-15.5zM330 577q-59 0-98 31t-44 80h93q4-16 18.5-26.5t34.5-10.5q21 0 37 10t22 27h94q-15-49-56.5-80t-100.5-31zM139 144q-3-24 16-38.5t49-14.5q43 0 71.5 28t45.5 94l3 12q-177-15-185-81z" glyph-name="abreve" horiz-adv-x="541" unicode="&#x103;"/><glyph d="M121 0h-186l394 668h183l111-668q-33-4-68.5-24t-40.5-44q-4-16 7.5-23t31.5-7q15 0 51 9l-16-75q-32-10-81-10-73 0-101.5 27t-21.5 62q7 32 34.5 53.5t63.5 31.5h-24l-16 119h-255zM395 501l-140-254h172z" glyph-name="Aogonek" horiz-adv-x="698" unicode="&#x104;"/><glyph d="M126-12q-62 0-106 37.5t-42 97.5q1 35 16 63t43.5 47.5 59.5 33 75 23 79.5 15 82.5 10.5l3 13q18 79-69 79-74 0-102-59l-117 46q76 116 240 116 105 0 161-54t34-154q-2-14-11.5-55t-11.5-54q-24-111-24-193-34-15-50.5-23.5t-34.5-21.5-21-24q-3-16 9-22t33-6q24 0 51 9l-16-76q-38-9-81-9-74 0-102 26.5t-22 62.5q5 27 30.5 51t59.5 33l-5 59q-33-40-70-55.5t-92-15.5zM139 144q-3-24 16-38.5t49-14.5q43 0 71.5 28t45.5 94l3 12q-177-15-185-81z" glyph-name="aogonek" horiz-adv-x="541" unicode="&#x105;"/><glyph d="M302-12q-137 6-213 95.5t-52 250.5q26 168 128 257t252 89q56 0 104-14t90-50 60-91l-146-49q-32 74-124 74-72 0-127-57t-70-159q-14-103 23.5-158t110.5-56q85 0 142 74l136-53q-103-162-314-153zM390 731q142 140 143 141 15 12 35 12 29 0 44-21 14-18 12-40.5t-20-37.5l-91-54h-123z" glyph-name="Cacute" horiz-adv-x="686" unicode="&#x106;"/><glyph d="M223-12q-119 0-178 73.5t-38 188.5q22 121 105 190.5t204 69.5q147 0 195-128l-133-46q-13 56-79 56-46 0-84-34.5t-53-108.5 7.5-109 66.5-35q66 0 105 49l123-47q-85-119-241-119zM269 574q141 140 143 141 15 12 34 12 28 0 44-21 15-18 12.5-40.5t-20.5-37.5l-90-54h-123z" glyph-name="cacute" horiz-adv-x="531" unicode="&#x107;"/><glyph d="M302-12q-137 6-213 95.5t-52 250.5q26 168 128 257t252 89q56 0 104-14t90-50 60-91l-146-49q-32 74-124 74-72 0-127-57t-70-159q-14-103 23.5-158t110.5-56q85 0 142 74l136-53q-103-162-314-153zM388 796q0 29 21 50t50 21 49.5-21 20.5-50-20.5-49.5-49.5-20.5-50 20.5-21 49.5z" glyph-name="Cdotaccent" horiz-adv-x="686" unicode="&#x10a;"/><glyph d="M223-12q-119 0-178 73.5t-38 188.5q22 121 105 190.5t204 69.5q147 0 195-128l-133-46q-13 56-79 56-46 0-84-34.5t-53-108.5 7.5-109 66.5-35q66 0 105 49l123-47q-85-119-241-119zM282 654q0 29 21 50t50 21 49.5-21 20.5-50-20.5-49.5-49.5-20.5-50 20.5-21 49.5z" glyph-name="cdotaccent" horiz-adv-x="531" unicode="&#x10b;"/><glyph d="M302-12q-137 6-213 95.5t-52 250.5q26 168 128 257t252 89q56 0 104-14t90-50 60-91l-146-49q-32 74-124 74-72 0-127-57t-70-159q-14-103 23.5-158t110.5-56q85 0 142 74l136-53q-103-162-314-153zM289 877h115l56-61 84 61h147l-190-137q-19-15-44-15-32 0-54 25z" glyph-name="Ccaron" horiz-adv-x="686" unicode="&#x10c;"/><glyph d="M223-12q-119 0-178 73.5t-38 188.5q22 121 105 190.5t204 69.5q147 0 195-128l-133-46q-13 56-79 56-46 0-84-34.5t-53-108.5 7.5-109 66.5-35q66 0 105 49l123-47q-85-119-241-119zM170 720h115l56-61 84 61h147l-190-137q-20-15-44-15-32 0-54 25z" glyph-name="ccaron" horiz-adv-x="531" unicode="&#x10d;"/><glyph d="M200 0h-223l142 668h194q198 0 283-95t55-261q-15-86-60-148.5t-109-97-134-50.5-148-16zM253 537l-86-404h63q117 0 181.5 60t76.5 162q11 96-25.5 139t-151.5 43h-58zM253 877h115l56-61 84 61h147l-190-137q-19-15-44-15-32 0-54 25z" glyph-name="Dcaron" horiz-adv-x="690" unicode="&#x10e;"/><glyph d="M458 667h155q-78-356-101-474-23-115-24-193h-149l-5 63q-58-75-147-75-98 0-148.5 73.5t-29.5 193.5q20 118 89.5 186.5t167.5 68.5q48 0 85.5-24t53.5-65zM380 261q9 66-19 98.5t-68 32.5q-48 0-81-31.5t-45-95.5q-13-67 8-113.5t76-46.5q47 0 83 41t46 115zM690 496h-83l53 154q13 38 54 38 25 0 39.5-18t14.5-39q0-16-6-25z" glyph-name="dcaron" horiz-adv-x="655" unicode="&#x10f;"/><glyph d="M14 275l30 137h76l54 256h194q198 0 283-95t55-261q-15-86-60-148.5t-109-97-134-50.5-148-16h-223l58 275h-76zM367 275h-115l-30-142h63q117 0 181.5 60t76.5 162q11 96-25.5 139t-151.5 43h-58l-27-125h116z" glyph-name="Dcroat" horiz-adv-x="744" unicode="&#x110;"/><glyph d="M187-13q-97 0-148 73.5t-30 194.5q20 118 89.5 186.5t168.5 68.5q48 0 85.5-24t53.5-65l29 134h-148l17 78h147l14 65h155q-5-25-14-65h67l-17-78h-67q-69-325-76-362-23-115-24-194h-149l-5 64q-59-76-148-76zM163 265q-13-67 8-113.5t77-46.5q47 0 83 41t46 115q9 66-19 98.5t-68 32.5q-48 0-81.5-31.5t-45.5-95.5z" glyph-name="dcroat" horiz-adv-x="589" unicode="&#x111;"/><glyph d="M607 529h-356l-25-116h217l-29-139h-217l-29-135h356l-29-139h-518l142 668h518zM543 747h-299l21 98h299z" glyph-name="Emacron" unicode="&#x112;"/><glyph d="M229-12q-119 0-180 69t-42 191q17 109 96.5 185.5t203.5 76.5q129 0 186.5-83t25.5-218h-365q-9-52 20.5-77.5t78.5-25.5q69 0 105 36l114-44q-88-110-243-110zM490 570h-299l21 98h299zM168 299h227q5 48-22.5 74t-70.5 26-81.5-26.5-52.5-73.5z" glyph-name="emacron" horiz-adv-x="567" unicode="&#x113;"/><glyph d="M495 0h-518l142 668h518l-30-139h-356l-25-116h217l-29-139h-217l-29-135h356zM324 796q0 29 21 50t50 21 49.5-21 20.5-50-20.5-49.5-49.5-20.5-50 20.5-21 49.5z" glyph-name="Edotaccent" unicode="&#x116;"/><glyph d="M229-12q-119 0-180 69t-42 191q17 109 96.5 185.5t203.5 76.5q129 0 186.5-83t25.5-218h-365q-9-52 20.5-77.5t78.5-25.5q69 0 105 36l114-44q-88-110-243-110zM395 299q5 48-22.5 74t-70.5 26-81.5-26.5-52.5-73.5h227zM289 654q0 29 21 50t50 21 49.5-21 20.5-50-20.5-49.5-49.5-20.5-50 20.5-21 49.5z" glyph-name="edotaccent" horiz-adv-x="567" unicode="&#x117;"/><glyph d="M443 0h-466l142 668h518l-30-139h-356l-25-116h217l-29-139h-217l-29-135h356l-29-139h89q-33-4-68.5-24t-40.5-44q-4-16 7.5-23t31.5-7q15 0 51 9l-16-75q-32-10-81-10-73 0-101.5 27t-21.5 62q7 32 34.5 53.5t63.5 31.5z" glyph-name="Eogonek" unicode="&#x118;"/><glyph d="M169-7q-91 17-134.5 83.5t-27.5 171.5q17 109 96.5 185.5t203.5 76.5q129 0 186.5-83t25.5-218h-365q-9-52 20.5-77.5t78.5-25.5q69 0 105 36l114-44q-56-70-143-96-41-14-71.5-34t-34.5-37q-3-16 9-22t33-6q24 0 51 9l-16-76q-38-9-81-9-74 0-102 26.5t-22 62.5q3 22 24 44t50 33zM395 299q5 48-22.5 74t-70.5 26-81.5-26.5-52.5-73.5h227z" glyph-name="eogonek" horiz-adv-x="567" unicode="&#x119;"/><glyph d="M495 0h-518l142 668h518l-30-139h-356l-25-116h217l-29-139h-217l-29-135h356zM338 750l-114 127h115l56-61 84 61h147l-190-137q-20-15-44-15-32 0-54 25z" glyph-name="Ecaron" unicode="&#x11a;"/><glyph d="M229-12q-119 0-180 69t-42 191q17 109 96.5 185.5t203.5 76.5q129 0 186.5-83t25.5-218h-365q-9-52 20.5-77.5t78.5-25.5q69 0 105 36l114-44q-88-110-243-110zM176 720h115l56-61 84 61h147l-190-137q-20-15-44-15-32 0-54 25zM395 299q5 48-22.5 74t-70.5 26-81.5-26.5-52.5-73.5h227z" glyph-name="ecaron" horiz-adv-x="567" unicode="&#x11b;"/><glyph d="M282-12q-122 0-196.5 93.5t-48.5 254.5q27 162 129.5 253t255.5 91q194 0 255-145l-148-57q-12 29-46.5 50.5t-82.5 21.5q-74 0-127-56t-69-158q-16-99 17.5-155t104.5-63q59-6 112.5 23.5t66.5 89.5l4 19h-150l27 128h312l-81-378h-107l-6 74q-83-86-222-86zM451 850h93q4-16 18.5-26.5t34.5-10.5q21 0 37 10t22 27h94q-15-49-56.5-80t-100.5-31-98 31-44 80z" glyph-name="Gbreve" horiz-adv-x="734" unicode="&#x11e;"/><glyph d="M477 18q-26-113-105.5-169t-176.5-56q-77 0-138 33.5t-78 88.5l134 44q7-22 30.5-34.5t53.5-12.5q43 0 78 24t45 70l18 85q-62-74-150-74-84 0-139 66.5t-39 174.5q19 123 92.5 188t160.5 65q49 0 88.5-21.5t58.5-60.5l34 67h134q-75-359-101-478zM168 266q-10-61 13.5-98t66.5-37q107 0 133 132 12 64-12 98t-72 34q-49 0-84.5-32.5t-44.5-96.5zM342 577q-59 0-98 31t-44 80h93q4-16 18.5-26.5t34.5-10.5q21 0 37 10t22 27h94q-15-49-56.5-80t-100.5-31z" glyph-name="gbreve" unicode="&#x11f;"/><glyph d="M282-12q-122 0-196.5 93.5t-48.5 254.5q27 162 129.5 253t255.5 91q194 0 255-145l-148-57q-12 29-46.5 50.5t-82.5 21.5q-74 0-127-56t-69-158q-16-99 17.5-155t104.5-63q59-6 112.5 23.5t66.5 89.5l4 19h-150l27 128h312l-81-378h-107l-6 74q-83-86-222-86zM395 796q0 29 21 50t50 21 49.5-21 20.5-50-20.5-49.5-49.5-20.5-50 20.5-21 49.5z" glyph-name="Gdotaccent" horiz-adv-x="734" unicode="&#x120;"/><glyph d="M477 18q-26-113-105.5-169t-176.5-56q-77 0-138 33.5t-78 88.5l134 44q7-22 30.5-34.5t53.5-12.5q43 0 78 24t45 70l18 85q-62-74-150-74-84 0-139 66.5t-39 174.5q19 123 92.5 188t160.5 65q49 0 88.5-21.5t58.5-60.5l34 67h134q-75-359-101-478zM168 266q-10-61 13.5-98t66.5-37q107 0 133 132 12 64-12 98t-72 34q-49 0-84.5-32.5t-44.5-96.5zM286 648q0 29 21 50t50 21 49.5-21 20.5-50-20.5-49.5-49.5-20.5-50 20.5-21 49.5z" glyph-name="gdotaccent" unicode="&#x121;"/><glyph d="M359 250l27 128h312l-81-378h-107l-6 74q-83-86-222-86-122 0-196.5 93.5t-48.5 254.5q27 162 129.5 253t255.5 91q194 0 255-145l-148-57q-12 29-46.5 50.5t-82.5 21.5q-74 0-127-56t-69-158q-16-99 17.5-155t104.5-63q59-6 112.5 23.5t66.5 89.5l4 19h-150zM181-251l-43 45q104 0 111 61 2 21-10 38t-35 22l101 40q74-32 63-98-8-51-58.5-81.5t-128.5-26.5z" glyph-name="uni0122" horiz-adv-x="734" unicode="&#x122;"/><glyph d="M444 496h134q-75-359-101-478-19-84-72.5-139.5t-118-72-129-10.5-114 38.5-64.5 80.5l134 44q10-34 55.5-44.5t93 13.5 58.5 78l18 85q-62-74-150-74-84 0-139 66.5t-39 174.5q10 67 39.5 119.5t68 81.5 83 42 85 8.5 74-25.5 50.5-55zM381 263q12 64-12 98t-72 34q-49 0-84.5-32.5t-44.5-96.5q-10-61 13.5-98t66.5-37q107 0 133 132zM437 774l43-45q-104 0-111-61-2-21 10-38t35-22l-101-40q-74 32-63 98 8 51 58.5 81.5t128.5 26.5z" glyph-name="uni0123" unicode="&#x123;"/><glyph d="M164 0h-161l105 496h-58l21 98h58l16 74h160l-15-74h276l16 74h161l-16-74h54l-21-98h-54l-105-496h-161l58 274h-275zM546 496h-277l-17-83h276z" glyph-name="Hbar" horiz-adv-x="740" unicode="&#x126;"/><glyph d="M156 0h-156l118 555h-96l17 78h95l14 65h151l-14-65h123l-17-78h-122l-26-123q24 33 68.5 55.5t105.5 22.5q78 0 112.5-56t9.5-173l-60-281h-156l56 263q15 69 3.5 99t-50.5 30q-95 0-122-138z" glyph-name="hbar" horiz-adv-x="601" unicode="&#x127;"/><glyph d="M-13 0l26 124h92l90 420h-92l26 124h345l-27-124h-92l-88-420h91l-27-124h-344zM169 747l21 98h299l-21-98h-299z" glyph-name="Imacron" horiz-adv-x="459" unicode="&#x12a;"/><glyph d="M26 380l25 116h258l-105-496h-156l81 380h-103zM367 570h-299l21 98h299z" glyph-name="imacron" horiz-adv-x="326" unicode="&#x12b;"/><glyph d="M-13 0l26 124h92l90 420h-92l26 124h345l-27-124h-92l-88-420h91l-27-124h-94q-33-4-68.5-24t-40.5-44q-4-16 7.5-23t31.5-7q15 0 51 9l-16-75q-32-10-81-10-73 0-101.5 27t-21.5 62q7 32 34.5 53.5t63.5 31.5h-109z" glyph-name="Iogonek" horiz-adv-x="459" unicode="&#x12e;"/><glyph d="M123-173q-74 0-102 26.5t-22 62.5q5 27 30.5 51t59.5 33h-41l81 380h-103l25 116h258l-105-496h29q-34-15-50.5-23.5t-34.5-21.5-21-24q-3-16 9-22t33-6q24 0 51 9l-16-76q-38-9-81-9zM177 668q0 37 26 63t63 26 63.5-26 26.5-63-26.5-63.5-63.5-26.5-63 26.5-26 63.5z" glyph-name="iogonek" horiz-adv-x="326" unicode="&#x12f;"/><glyph d="M26 380l25 116h258l-105-496h-156l81 380h-103z" glyph-name="dotlessi" horiz-adv-x="326" unicode="&#x131;"/><glyph d="M26 380l25 116h258l-105-496h-156l81 380h-103z" glyph-name="dotlessi" horiz-adv-x="326" unicode="&#xe98d;"/><glyph d="M384 377l193-377h-166l-141 277-90-80-42-197h-161l142 668h160l-50-242 272 242h214zM114-251l-43 45q104 0 111 61 2 21-10 38t-35 22l101 40q74-32 63-98-8-51-58.5-81.5t-128.5-26.5z" glyph-name="uni0136" horiz-adv-x="657" unicode="&#x136;"/><glyph d="M587 496l-244-213 145-283h-163l-95 184-68-60-26-124h-156l142 668h155l-73-341 185 169h198zM84-251l-43 45q104 0 111 61 2 21-10 38t-35 22l101 40q74-32 63-98-8-51-58.5-81.5t-128.5-26.5z" glyph-name="uni0137" horiz-adv-x="563" unicode="&#x137;"/><glyph d="M168 139h320l-30-139h-481l142 668h160zM125-252l-43 45q104 0 111 61 2 21-10 38t-35 22l101 40q74-32 63-98-8-51-58.5-81.5t-128.5-26.5z" glyph-name="uni013B" horiz-adv-x="543" unicode="&#x13b;"/><glyph d="M180 204q-13-39-5-59.5t53-20.5h43l-26-124h-97q-81 0-117.5 32t-20.5 108l112 528h156zM-33-252l-43 45q104 0 111 61 2 21-10 38t-35 22l101 40q74-32 63-98-8-51-58.5-81.5t-128.5-26.5z" glyph-name="uni013C" horiz-adv-x="318" unicode="&#x13c;"/><glyph d="M168 139h320l-30-139h-481l142 668h160zM356 503h-83l53 154q13 38 54 38 25 0 39.5-18t14.5-39q0-16-6-25z" glyph-name="Lcaron" horiz-adv-x="543" unicode="&#x13d;"/><glyph d="M180 204q-13-39-5-59.5t53-20.5h43l-26-124h-97q-81 0-117.5 32t-20.5 108l112 528h156zM352 496h-83l53 154q13 38 54 38 25 0 39.5-18t14.5-39q0-16-6-25z" glyph-name="lcaron" horiz-adv-x="318" unicode="&#x13e;"/><glyph d="M219 140h320l-29-140h-482l48 225-91-48 26 123 92 48 68 320h160l-48-223 176 93-26-124-175-92z" glyph-name="Lslash" unicode="&#x141;"/><glyph d="M219 140h320l-29-140h-482l48 225-91-48 26 123 92 48 68 320h160l-48-223 176 93-26-124-175-92z" glyph-name="Lslash" unicode="&#xe98e;"/><glyph d="M-22 188l26 121 76 40 67 319h155l-47-226 122 65-26-122-121-64-25-116q-5-25-6.5-35.5t1.5-23.5 16-17.5 37-4.5h42l-25-124h-97q-82 0-118 32t-20 108l19 88z" glyph-name="lslash" horiz-adv-x="343" unicode="&#x142;"/><glyph d="M-22 188l26 121 76 40 67 319h155l-47-226 122 65-26-122-121-64-25-116q-5-25-6.5-35.5t1.5-23.5 16-17.5 37-4.5h42l-25-124h-97q-82 0-118 32t-20 108l19 88z" glyph-name="lslash" horiz-adv-x="343" unicode="&#xe98f;"/><glyph d="M133 0h-156l142 668h199l160-485 104 485h155l-142-668h-199l-160 485zM400 731q142 140 143 141 15 12 35 12 29 0 44-21 14-18 12-40.5t-20-37.5l-91-54h-123z" glyph-name="Nacute" horiz-adv-x="715" unicode="&#x143;"/><glyph d="M136 0h-156l105 496h136l5-64q57 78 171 78 78 0 112.5-56t9.5-173l-60-281h-156l56 263q15 69 3.5 99t-50.5 30q-93 0-122-138zM284 574q141 140 143 141 15 12 34 12 27 0 44-21 15-18 12.5-40.5t-20.5-37.5l-90-54h-123z" glyph-name="nacute" horiz-adv-x="581" unicode="&#x144;"/><glyph d="M396 0l-160 485-103-485h-156l142 668h199l160-485 104 485h155l-142-668h-199zM147-251l-43 45q104 0 111 61 2 21-10 38t-35 22l101 40q74-32 63-98-8-51-58.5-81.5t-128.5-26.5z" glyph-name="uni0145" horiz-adv-x="715" unicode="&#x145;"/><glyph d="M397 510q78 0 112.5-56t9.5-173l-60-281h-156l56 263q15 69 3.5 99t-50.5 30q-93 0-122-138l-54-254h-156l105 496h136l5-64q57 78 171 78zM87-251l-43 45q104 0 111 61 2 21-10 38t-35 22l101 40q74-32 63-98-8-51-58.5-81.5t-128.5-26.5z" glyph-name="uni0146" horiz-adv-x="581" unicode="&#x146;"/><glyph d="M-23 0l142 668h199l160-485 104 485h155l-142-668h-199l-160 485-103-485h-156zM273 877h115l56-61 84 61h147l-190-137q-19-15-44-15-32 0-54 25z" glyph-name="Ncaron" horiz-adv-x="715" unicode="&#x147;"/><glyph d="M136 0h-156l105 496h136l5-64q57 78 171 78 78 0 112.5-56t9.5-173l-60-281h-156l56 263q15 69 3.5 99t-50.5 30q-93 0-122-138zM287 593l-114 127h115l56-61 84 61h147l-190-137q-19-15-44-15-32 0-54 25z" glyph-name="ncaron" horiz-adv-x="581" unicode="&#x148;"/><glyph d="M335-12q-156 0-237.5 93t-62.5 240q21 163 128.5 261t262.5 98q151 0 235.5-88.5t67.5-246.5q-17-159-126-258t-268-99zM203 321q-11-84 27.5-143.5t118.5-59.5q84 0 143 64t70 163-34 152-114 53q-77 0-137-60t-74-169zM410 743h-123q141 140 143 141 14 13 35 13 27 0 43-21 15-18 13-42t-21-37zM495 743q140 140 142 141 14 13 35 13 26 0 43-21 15-18 13-42t-21-37l-90-54h-122z" glyph-name="Ohungarumlaut" horiz-adv-x="763" unicode="&#x150;"/><glyph d="M239-13q-117 0-181.5 70t-50.5 185q11 91 57 153.5t106 88.5 132 26q114 0 181-68.5t50-192.5q-9-62-33-110t-54.5-76-69-46-71.5-24-66-6zM163 249q-3-32-2.5-64t22.5-56 62-24q59 0 91.5 42t41.5 102q20 145-89 143-103-2-126-143zM286 572h-123q141 140 143 141 14 13 35 13 27 0 43-21 15-18 13-42t-21-37zM493 572h-122q140 140 142 141 14 13 35 13 26 0 43-21 15-18 13-42t-21-37z" glyph-name="ohungarumlaut" horiz-adv-x="576" unicode="&#x151;"/><glyph d="M329-12q-152 0-232.5 93.5t-61.5 239.5q21 163 128.5 261t262.5 98q69 0 127-22t90-62l15 72h493l-30-139h-356l-25-116h218l-29-138h-218l-29-135h356l-29-140h-493l13 59q-71-71-200-71zM203 321q-11-84 27.5-143t118.5-59q84 0 143 63.5t70 162.5q11 100-33.5 152.5t-114.5 52.5q-77 0-137-60t-74-169z" glyph-name="OE" horiz-adv-x="1109" unicode="&#x152;"/><glyph d="M329-12q-152 0-232.5 93.5t-61.5 239.5q21 163 128.5 261t262.5 98q69 0 127-22t90-62l15 72h493l-30-139h-356l-25-116h218l-29-138h-218l-29-135h356l-29-140h-493l13 59q-71-71-200-71zM203 321q-11-84 27.5-143t118.5-59q84 0 143 63.5t70 162.5q11 100-33.5 152.5t-114.5 52.5q-77 0-137-60t-74-169z" glyph-name="OE" horiz-adv-x="1109" unicode="&#xe990;"/><glyph d="M221-12q-123 0-180 67.5t-35 187.5q17 92 65.5 154t109.5 88 134 26q60 0 103.5-23.5t65.5-60.5q30 38 91 61t120 23q126 0 177-82.5t19-218.5h-368q-9-52 20-77.5t77-25.5q68 0 104 36l111-44q-102-111-246-111-55 0-102.5 18.5t-72.5 49.5q-42-34-95-51t-98-17zM164 259q-8-38-8-72t20.5-57 61.5-23q108 0 139 143 15 71-6.5 107t-74.5 35q-99-2-132-133zM541 300h226q8 47-18 72.5t-70 25.5q-45 0-85.5-26t-52.5-72z" glyph-name="oe" horiz-adv-x="939" unicode="&#x153;"/><glyph d="M221-12q-123 0-180 67.5t-35 187.5q17 92 65.5 154t109.5 88 134 26q60 0 103.5-23.5t65.5-60.5q30 38 91 61t120 23q126 0 177-82.5t19-218.5h-368q-9-52 20-77.5t77-25.5q68 0 104 36l111-44q-102-111-246-111-55 0-102.5 18.5t-72.5 49.5q-42-34-95-51t-98-17zM164 259q-8-38-8-72t20.5-57 61.5-23q108 0 139 143 15 71-6.5 107t-74.5 35q-99-2-132-133zM541 300h226q8 47-18 72.5t-70 25.5q-45 0-85.5-26t-52.5-72z" glyph-name="oe" horiz-adv-x="939" unicode="&#xe991;"/><glyph d="M138 0h-161l142 668h250q137 0 204-49t56-158q-8-80-55.5-128t-153.5-64l137-269h-166l-128 252h-71zM252 535l-32-151h103q63 0 98 15.5t41 59.5q6 43-24 59.5t-92 16.5h-94zM473 731h-123q142 140 143 141 15 12 35 12 29 0 44-21 14-18 12-40.5t-20-37.5z" glyph-name="Racute" horiz-adv-x="644" unicode="&#x154;"/><glyph d="M-20 0l105 496h123l7-87q29 50 64 75t93 26h31l-32-152q-26 3-46 3-62 0-94-32.5t-46-97.5l-49-231h-156zM327 574h-123q141 140 143 141 15 12 34 12 27 0 44-21 15-18 12.5-40.5t-20.5-37.5z" glyph-name="racute" horiz-adv-x="391" unicode="&#x155;"/><glyph d="M-23 0l142 668h250q137 0 204-49t56-158q-8-80-55.5-128t-153.5-64l137-269h-166l-128 252h-71l-54-252h-161zM252 535l-32-151h103q63 0 98 15.5t41 59.5q6 43-24 59.5t-92 16.5h-94zM344 750l-114 127h115l56-61 84 61h147l-190-137q-20-15-44-15-32 0-54 25z" glyph-name="Rcaron" horiz-adv-x="644" unicode="&#x158;"/><glyph d="M-20 0l105 496h123l7-87q29 50 64 75t93 26h31l-32-152q-26 3-46 3-62 0-94-32.5t-46-97.5l-49-231h-156zM107 720h115l56-61 84 61h147l-190-137q-20-15-44-15-32 0-54 25z" glyph-name="rcaron" horiz-adv-x="391" unicode="&#x159;"/><glyph d="M10 157l155 52q11-46 53.5-70.5t94.5-24.5q46 0 78.5 17.5t32.5 47.5q0 28-29 49t-72 32.5-91.5 30.5-89 41.5-64 66.5-15.5 105q11 86 91 131t187 45q83 0 154.5-34.5t110.5-110.5l-155-52q-12 33-47 50.5t-75 17.5q-50 0-77.5-16t-27.5-43q0-34 39.5-56t94.5-36.5 109.5-34.5 90-65 29.5-113q-8-94-89-146.5t-192-52.5q-109 0-187 44.5t-109 124.5zM329 731q142 140 143 141 15 12 35 12 29 0 44-21 14-18 12-40.5t-20-37.5l-91-54h-123z" glyph-name="Sacute" horiz-adv-x="642" unicode="&#x15a;"/><glyph d="M-10 116l130 44q7-32 37-48t67-16q35 0 60 13.5t22 33.5q-3 18-32.5 30.5t-69.5 23.5-79.5 27-67 50-27.5 83q0 65 61 109t152 44q166 0 228-110l-132-45q-18 44-98 44-33 0-50-11.5t-17-25.5q0-21 29-35t70-24.5 82-24.5 70-45 29-77q0-77-61-123t-164-46q-182 0-239 129zM253 574q141 140 143 141 15 12 34 12 28 0 44-21 15-18 12.5-40.5t-20.5-37.5l-90-54h-123z" glyph-name="sacute" horiz-adv-x="515" unicode="&#x15b;"/><glyph d="M224-5q-78 15-133.5 57t-80.5 105l155 52q11-46 53.5-70.5t94.5-24.5q46 0 78.5 17.5t32.5 47.5q0 28-29 49t-72 32.5-91.5 30.5-89 41.5-64 66.5-15.5 105q11 86 91 131t187 45q83 0 154.5-34.5t110.5-110.5l-155-52q-12 33-47 50.5t-75 17.5q-50 0-77.5-16t-27.5-43q0-34 39.5-56t94.5-36.5 109.5-34.5 90-65 29.5-113q-8-94-89-146.5t-192-52.5q-21 0-31 1l-30-36q46 9 78.5-9t28.5-56q-5-44-43-63.5t-90-19.5q-60 0-96 17l26 50q29-13 60-13 49 0 52 30 1 12-10 19.5t-29 7.5q-8 0-24-4-13-4-20.5 7t2.5 24z" glyph-name="Scedilla" horiz-adv-x="642" unicode="&#x15e;"/><glyph d="M166-8q-129 20-176 124l130 44q7-32 37-48t67-16q35 0 60 13.5t22 33.5q-3 18-32.5 30.5t-69.5 23.5-79.5 27-67 50-27.5 83q0 65 61 109t152 44q166 0 228-110l-132-45q-18 44-98 44-33 0-50-11.5t-17-25.5q0-21 29-35t70-24.5 82-24.5 70-45 29-77q0-62-37.5-101.5t-87-53.5-110.5-14l-28-34q46 9 78.5-9t28.5-56q-5-44-43-63.5t-90-19.5q-60 0-96 17l26 50q29-13 60-13 49 0 52 30 1 12-10 19.5t-29 7.5q-8 0-24-4-13-4-20.5 7t2.5 24z" glyph-name="scedilla" horiz-adv-x="515" unicode="&#x15f;"/><glyph d="M10 157l155 52q11-46 53.5-70.5t94.5-24.5q46 0 78.5 17.5t32.5 47.5q0 28-29 49t-72 32.5-91.5 30.5-89 41.5-64 66.5-15.5 105q11 86 91 131t187 45q83 0 154.5-34.5t110.5-110.5l-155-52q-12 33-47 50.5t-75 17.5q-50 0-77.5-16t-27.5-43q0-34 39.5-56t94.5-36.5 109.5-34.5 90-65 29.5-113q-8-94-89-146.5t-192-52.5q-109 0-187 44.5t-109 124.5zM325 750l-114 127h115l56-61 84 61h147l-190-137q-19-15-44-15-32 0-54 25z" glyph-name="Scaron" horiz-adv-x="642" unicode="&#x160;"/><glyph d="M-10 116l130 44q7-32 37-48t67-16q35 0 60 13.5t22 33.5q-3 18-32.5 30.5t-69.5 23.5-79.5 27-67 50-27.5 83q0 65 61 109t152 44q166 0 228-110l-132-45q-18 44-98 44-33 0-50-11.5t-17-25.5q0-21 29-35t70-24.5 82-24.5 70-45 29-77q0-77-61-123t-164-46q-182 0-239 129zM230 593l-114 127h115l56-61 84 61h147l-190-137q-20-15-44-15-32 0-54 25z" glyph-name="scaron" horiz-adv-x="515" unicode="&#x161;"/><glyph d="M87 668h586l-29-139h-214l-111-529h-161l112 529h-213zM122-251l-43 45q104 0 111 61 2 21-10 38t-35 22l101 40q74-32 63-98-8-51-58.5-81.5t-128.5-26.5z" glyph-name="uni0162" horiz-adv-x="617" unicode="&#x162;"/><glyph d="M261 380l-37-175q-5-24-6.5-35t2-24 16-17.5 36.5-4.5h43l-26-124h-96q-82 0-118 32t-20 108l51 240h-78l25 116h78l26 124h155l-26-124h108l-24-116h-109zM11-251l-43 45q104 0 111 61 2 21-10 38t-35 22l101 40q74-32 63-98-8-51-58.5-81.5t-128.5-26.5z" glyph-name="uni0163" horiz-adv-x="391" unicode="&#x163;"/><glyph d="M270 529h-213l30 139h586l-29-139h-214l-111-529h-161zM228 877h115l56-61 84 61h147l-190-137q-20-15-44-15-32 0-54 25z" glyph-name="Tcaron" horiz-adv-x="617" unicode="&#x164;"/><glyph d="M261 380l-37-175q-5-24-6.5-35t2-24 16-17.5 36.5-4.5h43l-26-124h-96q-82 0-118 32t-20 108l51 240h-78l25 116h78l26 124h155l-26-124h108l-24-116h-109zM428 553h-83l53 154q13 38 54 38 25 0 39.5-18t14.5-39q0-16-6-25z" glyph-name="tcaron" horiz-adv-x="391" unicode="&#x165;"/><glyph d="M266-12q-68 0-116.5 16t-75 43-38 66.5-10 82.5 12.5 96l81 376h161l-83-389q-9-47-10-83t24.5-57.5 81.5-21.5q76 0 110.5 39.5t52.5 122.5l83 389h161l-80-376q-20-93-49.5-153t-75-93-99-45.5-131.5-12.5zM275 747l21 98h299l-21-98h-299z" glyph-name="Umacron" horiz-adv-x="676" unicode="&#x16a;"/><glyph d="M159-12q-54 0-87 20.5t-44 56.5-11 73.5 10 81.5l59 276h155l-55-261q-25-129 45-129 41 0 73 31.5t46 96.5l56 262h155l-105-496h-135l-5 64q-47-76-157-76zM180 570l21 98h299l-21-98h-299z" glyph-name="umacron" horiz-adv-x="578" unicode="&#x16b;"/><glyph d="M266-12q-68 0-116.5 16t-75 43-38 66.5-10 82.5 12.5 96l81 376h161l-83-389q-9-47-10-83t24.5-57.5 81.5-21.5q76 0 110.5 39.5t52.5 122.5l83 389h161l-80-376q-20-93-49.5-153t-75-93-99-45.5-131.5-12.5zM413 646q-55 0-93.5 39t-38.5 94 38.5 93.5 93.5 38.5 94-38.5 39-93.5-39-94-94-39zM413 826q-19 0-33-14t-14-33 14-33 33-14 33 14 14 33-14 33-33 14z" glyph-name="Uring" horiz-adv-x="676" unicode="&#x16e;"/><glyph d="M159-12q-54 0-87 20.5t-44 56.5-11 73.5 10 81.5l59 276h155l-55-261q-25-129 45-129 41 0 73 31.5t46 96.5l56 262h155l-105-496h-135l-5 64q-47-76-157-76zM340 535q-55 0-93.5 39t-38.5 94 38.5 93.5 93.5 38.5 94-38.5 39-93.5-39-94-94-39zM340 715q-20 0-33.5-13.5t-13.5-33.5 13.5-33.5 33.5-13.5 33.5 13.5 13.5 33.5-13.5 33.5-33.5 13.5z" glyph-name="uring" horiz-adv-x="578" unicode="&#x16f;"/><glyph d="M266-12q-68 0-116.5 16t-75 43-38 66.5-10 82.5 12.5 96l81 376h161l-83-389q-9-47-10-83t24.5-57.5 81.5-21.5q76 0 110.5 39.5t52.5 122.5l83 389h161l-80-376q-20-93-49.5-153t-75-93-99-45.5-131.5-12.5zM367 744h-123q141 140 143 141 14 13 35 13 26 0 43-21 15-18 13-42t-21-37zM574 744h-122q140 140 142 141 14 13 35 13 27 0 43-21 15-18 13-42t-21-37z" glyph-name="Uhungarumlaut" horiz-adv-x="676" unicode="&#x170;"/><glyph d="M159-12q-54 0-87 20.5t-44 56.5-11 73.5 10 81.5l59 276h155l-55-261q-25-129 45-129 41 0 73 31.5t46 96.5l56 262h155l-105-496h-135l-5 64q-47-76-157-76zM148 572q141 140 143 141 14 13 35 13 26 0 43-21 15-18 13-42t-21-37l-90-54h-123zM478 572h-122q140 140 142 141 14 13 35 13 27 0 43-21 15-18 13-42t-21-37z" glyph-name="uhungarumlaut" horiz-adv-x="578" unicode="&#x171;"/><glyph d="M207-9q-65 8-106.5 35.5t-57 67-17.5 91 13 107.5l81 376h161l-83-389q-9-47-10-83t24.5-57.5 81.5-21.5q76 0 110.5 39.5t52.5 122.5l83 389h161l-80-376q-33-158-99.5-224t-185.5-77q-66-23-73-59-4-16 7.5-23t31.5-7q15 0 51 9l-16-75q-32-10-81-10-73 0-101.5 27t-21.5 62q11 50 74 76z" glyph-name="Uogonek" horiz-adv-x="676" unicode="&#x172;"/><glyph d="M159-12q-54 0-87 20.5t-44 56.5-11 73.5 10 81.5l59 276h155l-55-261q-25-129 45-129 41 0 73 31.5t46 96.5l56 262h155l-105-496q-34-15-50.5-23.5t-34.5-21.5-21-24q-3-16 9-22t33-6q24 0 51 9l-16-76q-38-9-81-9-73 0-100.5 27.5t-22.5 61.5q5 30 33 54t65 33l-5 61q-47-76-157-76z" glyph-name="uogonek" horiz-adv-x="578" unicode="&#x173;"/><glyph d="M242 241l-160 427h171l86-277 219 277h204l-358-427-50-241h-163zM257 796q0 29 21 50t50 21 49.5-21 20.5-50-20.5-49.5-49.5-20.5-50 20.5-21 49.5zM522 726q-29 0-50 20.5t-21 49.5 21 50 50 21q28 0 48.5-21t20.5-50-20-49.5-49-20.5z" glyph-name="Ydieresis" horiz-adv-x="700" unicode="&#x178;"/><glyph d="M-38 0l26 121 423 408h-311l30 139h538l-26-121-421-408h339l-30-139h-568zM462 731h-123q142 140 143 141 15 12 35 12 29 0 44-21 14-18 12-40.5t-20-37.5z" glyph-name="Zacute" horiz-adv-x="632" unicode="&#x179;"/><glyph d="M-40 0l26 121 310 254h-231l26 121h448l-26-121-310-254h259l-25-121h-477zM377 574h-123q141 140 143 141 15 12 34 12 27 0 44-21 15-18 12.5-40.5t-20.5-37.5z" glyph-name="zacute" horiz-adv-x="528" unicode="&#x17a;"/><glyph d="M-38 0l26 121 423 408h-311l30 139h538l-26-121-421-408h339l-30-139h-568zM400 726q-29 0-50 20.5t-21 49.5 21 50 50 21 49.5-21 20.5-50-20.5-49.5-49.5-20.5z" glyph-name="Zdotaccent" horiz-adv-x="632" unicode="&#x17b;"/><glyph d="M-40 0l26 121 310 254h-231l26 121h448l-26-121-310-254h259l-25-121h-477zM252 648q0 29 21 50t50 21 49.5-21 20.5-50-20.5-49.5-49.5-20.5-50 20.5-21 49.5z" glyph-name="zdotaccent" horiz-adv-x="528" unicode="&#x17c;"/><glyph d="M-38 0l26 121 423 408h-311l30 139h538l-26-121-421-408h339l-30-139h-568zM230 877h115l56-61 84 61h147l-190-137q-20-15-44-15-32 0-54 25z" glyph-name="Zcaron" horiz-adv-x="632" unicode="&#x17d;"/><glyph d="M437 0h-477l26 121 310 254h-231l26 121h448l-26-121-310-254h259zM150 720h115l56-61 84 61h147l-190-137q-20-15-44-15-32 0-54 25z" glyph-name="zcaron" horiz-adv-x="528" unicode="&#x17e;"/><glyph d="M-87-164l28 133q40-7 61 5 16 9 23 23t13 42l73 342h-82l24 115h82l18 82q18 86 69 118.5t154 32.5h69l-26-121h-42q-41 0-55-8t-20-36l-15-68h108l-24-115h-108l-84-397q-12-57-43.5-95t-73.5-52q-27-9-72-9-42 0-77 8z" glyph-name="florin" horiz-adv-x="389" unicode="&#x192;"/><glyph d="M-87-164l28 133q40-7 61 5 16 9 23 23t13 42l73 342h-82l24 115h82l18 82q18 86 69 118.5t154 32.5h69l-26-121h-42q-41 0-55-8t-20-36l-15-68h108l-24-115h-108l-84-397q-12-57-43.5-95t-73.5-52q-27-9-72-9-42 0-77 8z" glyph-name="florin" horiz-adv-x="389" unicode="&#xe997;"/><glyph d="M224 492q0-34 39.5-56t94.5-36.5 109.5-34.5 90-65 29.5-113q-8-94-89-146.5t-192-52.5q-109 0-187 44.5t-109 124.5l155 52q13-59 77.5-82.5t123-6.5 58.5 59q0 28-29 49t-72 32.5-91.5 30.5-89 41.5-64 66.5-15.5 105q11 86 91 131t187 45q83 0 154.5-34.5t110.5-110.5l-155-52q-12 33-47 50.5t-75 17.5q-50 0-77.5-16t-27.5-43zM134-251l-43 45q104 0 111 61 2 21-10 38t-35 22l101 40q74-32 63-98-8-51-58.5-81.5t-128.5-26.5z" glyph-name="uni0218" horiz-adv-x="642" unicode="&#x218;"/><glyph d="M174 362q0-21 29-35t70-24.5 82-24.5 70-45 29-77q0-77-61-123t-164-46q-182 0-239 129l130 44q9-42 57-57t90.5-1.5 38.5 41.5q-3 18-32.5 30.5t-69.5 23.5-79.5 27-67 50-27.5 83q0 65 61 109t152 44q166 0 228-110l-132-45q-18 44-98 44-33 0-50-11.5t-17-25.5zM86-251l-43 45q104 0 111 61 2 21-10 38t-35 22l101 40q74-32 63-98-8-51-58.5-81.5t-128.5-26.5z" glyph-name="uni0219" horiz-adv-x="515" unicode="&#x219;"/><glyph d="M87 668h586l-29-139h-214l-111-529h-161l112 529h-213zM122-251l-43 45q104 0 111 61 2 21-10 38t-35 22l101 40q74-32 63-98-8-51-58.5-81.5t-128.5-26.5z" glyph-name="uni021A" horiz-adv-x="617" unicode="&#x21a;"/><glyph d="M261 380l-37-175q-5-24-6.5-35t2-24 16-17.5 36.5-4.5h43l-26-124h-96q-82 0-118 32t-20 108l51 240h-78l25 116h78l26 124h155l-26-124h108l-24-116h-109zM21-251l-43 45q104 0 111 61 2 21-10 38t-35 22l101 40q74-32 63-98-8-51-58.5-81.5t-128.5-26.5z" glyph-name="uni021B" horiz-adv-x="391" unicode="&#x21b;"/><glyph d="M236 574h-147l189 137q20 15 44 15 33 0 55-25l118-127h-116l-59 61z" glyph-name="circumflex" horiz-adv-x="480" unicode="&#x2c6;"/><glyph d="M236 574h-147l189 137q20 15 44 15 33 0 55-25l118-127h-116l-59 61z" glyph-name="circumflex" horiz-adv-x="480" unicode="&#xe998;"/><glyph d="M120 720h115l56-61 84 61h147l-190-137q-20-15-44-15-32 0-54 25z" glyph-name="caron" horiz-adv-x="476" unicode="&#x2c7;"/><glyph d="M120 720h115l56-61 84 61h147l-190-137q-20-15-44-15-32 0-54 25z" glyph-name="caron" horiz-adv-x="476" unicode="&#xe999;"/><glyph d="M383 550h-299l21 98h299z" glyph-name="uni02C9" horiz-adv-x="373" unicode="&#x2c9;"/><glyph d="M136 688h93q4-16 18.5-26.5t34.5-10.5q21 0 37 10t22 27h94q-15-49-56.5-80t-100.5-31-98 31-44 80z" glyph-name="breve" horiz-adv-x="385" unicode="&#x2d8;"/><glyph d="M136 688h93q4-16 18.5-26.5t34.5-10.5q21 0 37 10t22 27h94q-15-49-56.5-80t-100.5-31-98 31-44 80z" glyph-name="breve" horiz-adv-x="385" unicode="&#xe99b;"/><glyph d="M99 648q0 29 21 50t50 21 49.5-21 20.5-50-20.5-49.5-49.5-20.5-50 20.5-21 49.5z" glyph-name="dotaccent" horiz-adv-x="204" unicode="&#x2d9;"/><glyph d="M99 648q0 29 21 50t50 21 49.5-21 20.5-50-20.5-49.5-49.5-20.5-50 20.5-21 49.5z" glyph-name="dotaccent" horiz-adv-x="204" unicode="&#xe99c;"/><glyph d="M222 535q-55 0-93.5 39t-38.5 94 38.5 93.5 93.5 38.5 94-38.5 39-93.5-39-94-94-39zM175 668q0-20 13.5-33.5t33.5-13.5 33.5 13.5 13.5 33.5-13.5 33.5-33.5 13.5-33.5-13.5-13.5-33.5z" glyph-name="ring" horiz-adv-x="301" unicode="&#x2da;"/><glyph d="M73-173q-74 0-102 26.5t-22 62.5q5 27 30.5 51t59.5 33h144q-34-15-50.5-23.5t-34.5-21.5-21-24q-3-16 9-22t33-6q24 0 51 9l-16-76q-38-9-81-9z" glyph-name="ogonek" horiz-adv-x="296" unicode="&#x2db;"/><glyph d="M73-173q-74 0-102 26.5t-22 62.5q5 27 30.5 51t59.5 33h144q-34-15-50.5-23.5t-34.5-21.5-21-24q-3-16 9-22t33-6q24 0 51 9l-16-76q-38-9-81-9z" glyph-name="ogonek" horiz-adv-x="296" unicode="&#xe99e;"/><glyph d="M89 574q15 47 51.5 81t84.5 34q44 0 84-20.5t55-20.5q24 0 45 18.5t32 21.5q27 9 43.5-14.5t-2.5-50.5q-42-58-120-55-36 2-72.5 20.5t-60.5 18.5q-31 0-51-33h-89z" glyph-name="tilde" horiz-adv-x="461" unicode="&#x2dc;"/><glyph d="M89 574q15 47 51.5 81t84.5 34q44 0 84-20.5t55-20.5q24 0 45 18.5t32 21.5q27 9 43.5-14.5t-2.5-50.5q-42-58-120-55-36 2-72.5 20.5t-60.5 18.5q-31 0-51-33h-89z" glyph-name="tilde" horiz-adv-x="461" unicode="&#xe99f;"/><glyph d="M212 572h-123q141 140 143 141 14 13 35 13 27 0 43-21 15-18 13-42t-21-37zM419 572h-122q140 140 142 141 14 13 35 13 26 0 43-21 15-18 13-42t-21-37z" glyph-name="hungarumlaut" horiz-adv-x="502" unicode="&#x2dd;"/><glyph d="M212 572h-123q141 140 143 141 14 13 35 13 27 0 43-21 15-18 13-42t-21-37zM419 572h-122q140 140 142 141 14 13 35 13 26 0 43-21 15-18 13-42t-21-37z" glyph-name="hungarumlaut" horiz-adv-x="502" unicode="&#xe9c5;"/><glyph d="M-43-251l-43 45q104 0 111 61 2 21-10 38t-35 22l101 40q74-32 63-98-8-51-58.5-81.5t-128.5-26.5z" glyph-name="uni0326" horiz-adv-x="280" unicode="&#x326;"/><glyph d="M287 418l-128-303h256zM287 680l317-680h-633z" glyph-name="uni0394" horiz-adv-x="715" unicode="&#x394;"/><glyph d="M287 418l-128-303h256zM287 680l317-680h-633z" glyph-name="uni0394" horiz-adv-x="715" unicode="&#xe9b7;"/><glyph d="M60 0v115h137v24q-63 40-100 105.5t-37 141.5q0 122 86 208t207 86 207-86 86-208q0-76-37-141.5t-100-105.5v-24h137v-115h-268v223q62 9 104 57t42 112q0 71-50 121.5t-121 50.5-121.5-50.5-50.5-121.5q0-63 42-111.5t105-57.5v-223h-268z" glyph-name="uni03A9" horiz-adv-x="757" unicode="&#x3a9;"/><glyph d="M60 0v115h137v24q-63 40-100 105.5t-37 141.5q0 122 86 208t207 86 207-86 86-208q0-76-37-141.5t-100-105.5v-24h137v-115h-268v223q62 9 104 57t42 112q0 71-50 121.5t-121 50.5-121.5-50.5-50.5-121.5q0-63 42-111.5t105-57.5v-223h-268z" glyph-name="uni03A9" horiz-adv-x="757" unicode="&#xe9b4;"/><glyph d="M-55-161l140 656h155l-56-264q-14-67 0-95t52-30q43-3 70 26.5t42 98.5l56 264h156l-105-495h-141l-4 43q-13-22-39-35t-54-13q-59 0-74 45l-42-201h-156z" glyph-name="uni03BC" horiz-adv-x="577" unicode="&#x3bc;"/><glyph d="M-55-161l140 656h155l-56-264q-14-67 0-95t52-30q43-3 70 26.5t42 98.5l56 264h156l-105-495h-141l-4 43q-13-22-39-35t-54-13q-59 0-74 45l-42-201h-156z" glyph-name="uni03BC" horiz-adv-x="577" unicode="&#xe945;"/><glyph d="M141 380h-89l25 116h589l-25-116h-88l-49-228q-6-28 2-37.5t44-9.5h33l-23-104h-78q-141 0-116 117l56 262h-150l-81-380h-131z" glyph-name="pi" horiz-adv-x="672" unicode="&#x3c0;"/><glyph d="M141 380h-89l25 116h589l-25-116h-88l-49-228q-6-28 2-37.5t44-9.5h33l-23-104h-78q-141 0-116 117l56 262h-150l-81-380h-131z" glyph-name="pi" horiz-adv-x="672" unicode="&#xe9a0;"/></font>
</defs>
</svg>
