<svg xmlns="http://www.w3.org/2000/svg"><defs><font horiz-adv-x="539"><font-face ascent="800" bbox="-58 -251 1290 886" cap-height="668" descent="-200" panose-1="0 0 0 0 0 0 0 0 0 0" underline-position="-219" underline-thickness="57" unicode-range="U+000D-25CA" x-height="495"/><missing-glyph d="M50 0v700h427v-700h-427zM79 21h370l-185 308zM71 49l180 301-180 300v-601zM457 47v605l-181-302zM263 371l186 309h-371z" horiz-adv-x="527"/><glyph d="M50 0v700h427v-700h-427zM79 21h370l-185 308zM71 49l180 301-180 300v-601zM457 47v605l-181-302zM263 371l186 309h-371z" glyph-name=".notdef" horiz-adv-x="527"/><glyph glyph-name=".null" horiz-adv-x="0"/><glyph glyph-name="uni000D" horiz-adv-x="0" unicode="&#xd;"/><glyph glyph-name="space" horiz-adv-x="280" unicode="&#x20;"/><glyph d="M96 668h89v-172l-18-301h-53l-18 301v172zM140-12q-26 0-45 19t-19 45q0 27 19 46t45 19q27 0 46-19t19-46q0-26-19-45t-46-19z" glyph-name="exclam" horiz-adv-x="281" unicode="&#x21;"/><glyph d="M195 447l-14 221h80l-14-221h-52zM40 668h80l-14-221h-52z" glyph-name="quotedbl" horiz-adv-x="301" unicode="&#x22;"/><glyph d="M162 172h-124l11 81h124l23 162h-124l11 81h124l24 172h82l-24-172h123l24 172h82l-24-172h123l-11-81h-124l-22-162h123l-11-81h-124l-24-172h-82l24 172h-123l-24-172h-82zM255 253h123l22 162h-123z" glyph-name="numbersign" horiz-adv-x="655" unicode="&#x23;"/><glyph d="M267-11q-85 7-143.5 48t-83.5 109l87 26q34-89 140-103v239l-36 7q-79 15-131.5 60t-52.5 123q0 82 66 128.5t154 52.5v63h50v-63q152-12 206-124l-86-25q-35 58-120 69v-213l12-3q40-10 63.5-17.5t58.5-23.5 54.5-34.5 34-49.5 14.5-70q0-90-68.5-142.5t-168.5-57.5v-75h-50v76zM317 68q66 4 103 34.5t37 77.5q0 48-36 74.5t-104 42.5v-229zM143 503q0-81 109-102l15-3v202q-48-5-86-28.5t-38-68.5z" glyph-name="dollar" horiz-adv-x="594" unicode="&#x24;"/><glyph d="M708-12q-76 0-129 53t-53 129q0 75 53 128.5t129 53.5q75 0 128-53.5t53-128.5q0-76-53-129t-128-53zM220 317q-76 0-129 53t-53 128q0 76 53 129t129 53q75 0 128-53t53-129q0-75-53-128t-128-53zM274 0h-88l468 668h88zM112 498q0-44 32-75.5t76-31.5 75.5 31.5 31.5 75.5q0 45-31.5 76.5t-75.5 31.5q-45 0-76.5-31.5t-31.5-76.5zM600 170q0-44 31.5-76t76.5-32q44 0 75.5 32t31.5 76-31.5 75.5-75.5 31.5q-45 0-76.5-31.5t-31.5-75.5z" glyph-name="percent" horiz-adv-x="927" unicode="&#x25;"/><glyph d="M38 183q0 146 171 204-74 84-74 151 0 64 51 103t131 39q71 0 122.5-35t51.5-109q0-115-140-173l136-144q29 69 34 142h87q-10-117-62-204l149-157h-119l-82 87q-94-99-231-99-102 0-163.5 55.5t-61.5 139.5zM128 187q0-56 40-90.5t95-34.5q105 0 177 81l-181 191q-131-46-131-147zM225 540q0-15 6.5-32t17-32.5 20-26.5 20-22 11.5-12q109 40 109 116 0 38-25 56.5t-65 18.5-67-17-27-49z" glyph-name="ampersand" horiz-adv-x="705" unicode="&#x26;"/><glyph d="M54 447l-14 221h80l-14-221h-52z" glyph-name="quotesingle" horiz-adv-x="160" unicode="&#x27;"/><glyph d="M189-161q-139 196-139 441 0 214 110 388h75q-51-73-81-175t-30-215q0-248 141-439h-76z" glyph-name="parenleft" horiz-adv-x="300" unicode="&#x28;"/><glyph d="M35-161q142 193 142 440 0 112-30 214t-81 175h75q109-172 109-387 0-245-138-442h-77z" glyph-name="parenright" horiz-adv-x="300" unicode="&#x29;"/><glyph d="M107 422l62 86-101 32 18 55 101-33v106h57v-106l101 33 18-55-102-32 63-86-46-34-63 86-62-86z" glyph-name="asterisk" horiz-adv-x="433" unicode="&#x2a;"/><glyph d="M53 288h208v208h80v-208h208v-80h-208v-208h-80v208h-208v80z" glyph-name="plus" horiz-adv-x="602" unicode="&#x2b;"/><glyph d="M92-11q-23 4-38.5 22t-15.5 42q0 26 19 45t45 19q27 0 46-19t19-45q0-12-5-25l-62-161h-55z" glyph-name="comma" horiz-adv-x="205" unicode="&#x2c;"/><glyph d="M38 208v81h292v-81h-292z" glyph-name="hyphen" horiz-adv-x="368" unicode="&#x2d;"/><glyph d="M38 52q0 27 19 46t45 19q27 0 46-19t19-46q0-26-19-45t-46-19q-26 0-45 19t-19 45z" glyph-name="period" horiz-adv-x="205" unicode="&#x2e;"/><glyph d="M15 0l260 668h87l-260-668h-87z" glyph-name="slash" horiz-adv-x="377" unicode="&#x2f;"/><glyph d="M324-12q-129 0-196.5 89.5t-67.5 257.5q0 167 67.5 256t196.5 89 196.5-89 67.5-256q0-168-67.5-257.5t-196.5-89.5zM151 335q0-273 173-273 69 0 111 45l-264 379q-20-59-20-151zM324 606q-65 0-107-40l263-376q17 60 17 145 0 271-173 271z" glyph-name="zero" horiz-adv-x="648" unicode="&#x30;"/><glyph d="M42 571q54 0 91 6.5t69 29 46 61.5h56v-668h-84v504h-178v67z" glyph-name="one" horiz-adv-x="402" unicode="&#x31;"/><glyph d="M515 0h-481v75q192 142 283 239t91 180q0 53-33.5 84.5t-91.5 31.5q-52 0-90.5-27.5t-49.5-84.5l-84 24q18 73 78 115.5t148 42.5q95 0 153.5-46.5t58.5-128.5q0-56-27-112t-79.5-111-108-101-135.5-104h368v-77z" glyph-name="two" horiz-adv-x="549" unicode="&#x32;"/><glyph d="M42 151l83 24q12-55 49-86t99-31q68 0 109.5 34t41.5 95q0 127-206 127v76q36 0 62.5 3t59 13 50 34 17.5 61q0 52-37 80.5t-93 28.5q-60 0-96.5-30.5t-46.5-81.5l-82 24q18 73 77.5 115.5t149.5 42.5q95 0 155.5-41.5t60.5-128.5q0-51-28.5-92t-80.5-63q128-40 128-167 0-96-70-148t-172-52q-96 0-153.5 45t-76.5 118z" glyph-name="three" horiz-adv-x="574" unicode="&#x33;"/><glyph d="M38 165v79l331 424h85v-424h122v-79h-122v-165h-84v165h-332zM129 244h241v309z" glyph-name="four" horiz-adv-x="614" unicode="&#x34;"/><glyph d="M54 151l82 24q26-117 148-117 63 0 106 43.5t43 117.5q0 78-45 118.5t-105 40.5q-48 0-82.5-23t-46.5-51l-82 24 41 340h383v-81h-315l-23-187q51 50 144 50 92 0 155.5-62t63.5-168q0-109-69-170.5t-168-61.5q-96 0-153 45t-77 118z" glyph-name="five" horiz-adv-x="583" unicode="&#x35;"/><glyph d="M303-12q-243 0-243 322 0 74 14 138t43.5 117.5 81.5 84 122 30.5q136 0 188-107l-85-25q-32 62-113 62-76 0-118.5-69.5t-45.5-188.5q54 93 176 93 94 0 154.5-63.5t60.5-163.5q0-96-65.5-163t-169.5-67zM157 215q0-70 40-113t106-43 105.5 43.5 39.5 112.5-39.5 112.5-105.5 43.5-106-43-40-113z" glyph-name="six" horiz-adv-x="598" unicode="&#x36;"/><glyph d="M93 0l290 587h-368v81h461v-81l-278-587h-105z" glyph-name="seven" horiz-adv-x="510" unicode="&#x37;"/><glyph d="M60 188q0 63 33 109t90 69q-57 54-57 133 0 75 53 128t128 53q76 0 129-53t53-128q0-79-57-133 57-23 90-69t33-109q0-93-70-146.5t-178-53.5-177.5 53.5-69.5 146.5zM151 188q0-58 42-92t114-34 114.5 34 42.5 92q0 59-42.5 94t-114.5 35q-71 0-113.5-35t-42.5-94zM200 500q0-46 31.5-77.5t75.5-31.5 75.5 31.5 31.5 77.5q0 44-31.5 75t-75.5 31-75.5-31-31.5-75z" glyph-name="eight" horiz-adv-x="615" unicode="&#x38;"/><glyph d="M299 201q-99 0-169 70.5t-70 169.5 70 168.5 169 69.5q100 0 169.5-69.5t69.5-170.5q0-46-18-91-13-33-74-140.5t-129-207.5h-104q84 116 139 207-26-6-53-6zM299 594q-64 0-108.5-45t-44.5-108q0-64 44.5-109t108.5-45 109.5 45 45.5 109q0 63-45.5 108t-109.5 45z" glyph-name="nine" horiz-adv-x="598" unicode="&#x39;"/><glyph d="M38 52q0 27 19 46t45 19q27 0 46-19t19-46q0-26-19-45t-46-19q-26 0-45 19t-19 45zM102 375q-26 0-45 19t-19 46q0 26 19 45t45 19q27 0 46-19t19-45q0-27-19-46t-46-19z" glyph-name="colon" horiz-adv-x="205" unicode="&#x3a;"/><glyph d="M38 53q0 26 19 45t45 19q27 0 46-19t19-45q0-12-5-25l-62-161h-55l47 122q-23 4-38.5 22t-15.5 42zM102 375q-26 0-45 19t-19 46q0 26 19 45t45 19q27 0 46-19t19-45q0-27-19-46t-46-19z" glyph-name="semicolon" horiz-adv-x="205" unicode="&#x3b;"/><glyph d="M40 283l473 213v-90l-368-158 368-158v-90l-473 213v70z" glyph-name="less" horiz-adv-x="553" unicode="&#x3c;"/><glyph d="M53 307v79h496v-79h-496zM549 121h-496v79h496v-79z" glyph-name="equal" horiz-adv-x="602" unicode="&#x3d;"/><glyph d="M408 248l-368 158v90l473-213v-70l-473-213v90z" glyph-name="greater" horiz-adv-x="553" unicode="&#x3e;"/><glyph d="M40 524q15 72 75 114t146 42 147.5-42 61.5-122q0-107-125-188-46-30-61.5-49t-15.5-55v-34h-86v37q0 54 25.5 87t88.5 73q86 54 86 121 0 47-34.5 74.5t-90.5 27.5q-62 0-94.5-31.5t-40.5-77.5zM162 52q0 27 19 46t46 19 45.5-19 18.5-46q0-41-39-59-13-5-25-5-26 0-45.5 18t-19.5 46z" glyph-name="question" horiz-adv-x="520" unicode="&#x3f;"/><glyph d="M398-12q-138 0-243 98t-105 249q0 143 101.5 244t244.5 101q58 0 116-21.5t107-60 80-99.5 31-133q0-107-46-159t-109-52q-35 0-63.5 16t-38.5 42q-48-58-116-58-57 0-98 43.5t-41 119.5q0 106 55 153.5t140 47.5q57 0 119-20v-226q0-21 12-32.5t31-11.5q33 0 55 23t30 52.5 8 61.5q0 103-79.5 177.5t-192.5 74.5q-117 0-200.5-83t-83.5-200q0-124 85-205t199-81q72 0 136 36v-69q-63-28-134-28zM406 445q-104 0-104-132 0-41 19.5-62.5t47.5-21.5q32 0 57 29t25 80v103q-28 4-45 4z" glyph-name="at" horiz-adv-x="780" unicode="&#x40;"/><glyph d="M10 0l251 669h105l250-669h-100l-51 146h-304l-51-146h-100zM313 574l-123-347h246z" glyph-name="A" horiz-adv-x="626" unicode="&#x41;"/><glyph d="M76 0v668h269q102 0 154.5-48t52.5-118q0-88-70-147 48-25 73.5-69t25.5-94q0-78-58.5-135t-161.5-57h-285zM170 308v-229h201q53 0 83 34.5t30 81.5q0 46-30 79.5t-84 33.5h-200zM355 589h-185v-207h185q48 0 75 30.5t27 71.5q0 42-27 73.5t-75 31.5z" glyph-name="B" horiz-adv-x="619" unicode="&#x42;"/><glyph d="M353-12q-141 0-222 96t-81 251q0 156 85 250.5t226 94.5q85 0 152-39.5t101-111.5l-82-30q-51 102-176 102-92 0-151-70t-59-196q0-124 59-196t154-72q125 0 177 102l82-30q-35-73-105-112t-160-39z" glyph-name="C" horiz-adv-x="656" unicode="&#x43;"/><glyph d="M76 0v668h182q83 0 147-16.5t114.5-54 77-103.5 26.5-159-26.5-159.5-77-104-114.5-54.5-147-17h-182zM170 589v-510h86q47 0 82 4.5t72.5 20 61.5 42.5 39.5 75 15.5 114q0 65-15.5 113t-39.5 74.5-61.5 42-72.5 20-82 4.5h-86z" glyph-name="D" horiz-adv-x="673" unicode="&#x44;"/><glyph d="M76 668h453v-81h-359v-203h265v-81h-265v-222h359v-81h-453v668z" glyph-name="E" horiz-adv-x="567" unicode="&#x45;"/><glyph d="M76 668h434v-81h-340v-203h340v-81h-340v-303h-94v668z" glyph-name="F" horiz-adv-x="548" unicode="&#x46;"/><glyph d="M50 335q0 156 85 250.5t226 94.5q85 0 152-39.5t102-111.5l-83-30q-51 102-176 102-92 0-151-70t-59-196q0-124 58-196t152-72q36 0 68.5 8.5t62.5 27 48 54.5 18 85v22h-195v81h284v-345h-54l-25 84q-61-96-211-96-141 0-221.5 96t-80.5 251z" glyph-name="G" horiz-adv-x="710" unicode="&#x47;"/><glyph d="M76 668h94v-284h350v284h94v-668h-94v303h-350v-303h-94v668z" glyph-name="H" horiz-adv-x="690" unicode="&#x48;"/><glyph d="M66 74h94v520h-94v74h282v-74h-94v-520h94v-74h-282v74z" glyph-name="I" horiz-adv-x="414" unicode="&#x49;"/><glyph d="M15 189l87 25q-2-72 33-110.5t89-38.5q49 0 82.5 33t33.5 115v455h94v-456q0-108-55.5-166t-154.5-58q-95 0-150 51.5t-59 149.5z" glyph-name="J" horiz-adv-x="510" unicode="&#x4a;"/><glyph d="M76 668h94v-336l301 336h117l-255-279 284-389h-115l-232 320-100-110v-210h-94v668z" glyph-name="K" horiz-adv-x="627" unicode="&#x4b;"/><glyph d="M76 0v668h94v-587h359v-81h-453z" glyph-name="L" unicode="&#x4c;"/><glyph d="M76 668h156l178-546 178 546h156v-668h-94v570l-193-570h-93l-194 570v-570h-94v668z" glyph-name="M" horiz-adv-x="820" unicode="&#x4d;"/><glyph d="M76 668h139l304-568v568h94v-668h-138l-305 571v-571h-94v668z" glyph-name="N" horiz-adv-x="689" unicode="&#x4e;"/><glyph d="M50 335q0 153 85.5 249t227.5 96q143 0 228.5-96t85.5-249q0-154-85.5-250.5t-228.5-96.5q-142 0-227.5 97t-85.5 250zM146 335q0-126 61.5-197t155.5-71q95 0 156.5 71t61.5 197q0 125-61.5 195.5t-156.5 70.5q-94 0-155.5-70.5t-61.5-195.5z" glyph-name="O" horiz-adv-x="727" unicode="&#x4f;"/><glyph d="M76 1v667h209q66 0 113-8.5t86-30 59-62.5 20-101q0-115-71-157.5t-207-42.5h-115v-265h-94zM293 589h-123v-242h123q42 0 69 3.5t53.5 15 39 36.5 12.5 64q0 32-9 54.5t-23.5 36-38.5 20.5-47 9.5-56 2.5z" glyph-name="P" horiz-adv-x="601" unicode="&#x50;"/><glyph d="M363-12q-142 0-227.5 97t-85.5 250 85.5 249 227.5 96q143 0 228.5-96t85.5-249q0-110-47-196l123-115-64-68-117 109q-82-77-209-77zM363 601q-94 0-155.5-70.5t-61.5-195.5q0-126 61.5-197t155.5-71q88 0 145 59l-179 168 64 68 166-156q22 57 22 129 0 125-61.5 195.5t-156.5 70.5z" glyph-name="Q" horiz-adv-x="753" unicode="&#x51;"/><glyph d="M170 0h-94v668h212q66 0 113-8t86.5-28 59-59 19.5-97q0-78-39-125.5t-146-62.5l207-288h-115l-203 281h-100v-281zM295 589h-125v-229h125q33 0 56 2t47.5 8.5 38.5 18.5 23.5 33.5 9.5 51.5-9 51.5-23.5 33.5-39 19-47.5 9-56 2z" glyph-name="R" horiz-adv-x="618" unicode="&#x52;"/><glyph d="M40 146l87 26q16-51 65-78t108-27q65 0 111 31t46 88q0 45-38 71t-133 45q-30 6-46.5 10t-45.5 13-46.5 18-39 24.5-33.5 33.5-20.5 43.5-8.5 56.5q0 81 73.5 130t171.5 49q75 0 138.5-31.5t93.5-93.5l-86-25q-19 34-60.5 52.5t-89.5 18.5q-59 0-101.5-27t-42.5-77q0-22 10-39t23-27 40-19.5 45-14 54-11.5q43-9 70.5-17t63.5-24 56.5-36 35.5-52.5 15-74.5q0-89-77.5-141.5t-182.5-52.5q-88 0-159.5 40.5t-96.5 117.5z" glyph-name="S" horiz-adv-x="596" unicode="&#x53;"/><glyph d="M10 587v81h538v-81h-222v-587h-94v587h-222z" glyph-name="T" horiz-adv-x="558" unicode="&#x54;"/><glyph d="M345-12q-143 0-206 71t-63 220v389h94v-396q0-102 41-152.5t134-50.5 134 50.5 41 152.5v396h94v-389q0-149-63-220t-206-71z" glyph-name="U" horiz-adv-x="690" unicode="&#x55;"/><glyph d="M10 668h103l181-558 182 558h103l-230-668h-110z" glyph-name="V" horiz-adv-x="589" unicode="&#x56;"/><glyph d="M178 0l-168 668h103l130-552 122 552h110l122-552 130 552h103l-167-668h-114l-129 552-129-552h-113z" glyph-name="W" horiz-adv-x="840" unicode="&#x57;"/><glyph d="M10 0l245 344-231 324h112l175-245 175 245h113l-231-324 245-344h-113l-189 265-188-265h-113z" glyph-name="X" horiz-adv-x="623" unicode="&#x58;"/><glyph d="M10 668h103l185-323 184 323h103l-240-409v-259h-94v259z" glyph-name="Y" horiz-adv-x="595" unicode="&#x59;"/><glyph d="M44 0v81l394 506h-379v81h489v-81l-392-506h407v-81h-519z" glyph-name="Z" horiz-adv-x="607" unicode="&#x5a;"/><glyph d="M76 668h206v-74h-125v-681h125v-74h-206v829z" glyph-name="bracketleft" horiz-adv-x="315" unicode="&#x5b;"/><glyph d="M275 0l-260 668h87l260-668h-87z" glyph-name="backslash" horiz-adv-x="377" unicode="&#x5c;"/><glyph d="M158 594h-125v74h206v-829h-206v74h125v681z" glyph-name="bracketright" horiz-adv-x="315" unicode="&#x5d;"/><glyph d="M53 311l185 357h76l185-357h-89l-134 258-134-258h-89z" glyph-name="asciicircum" horiz-adv-x="552" unicode="&#x5e;"/><glyph d="M10-79v79h376v-79h-376z" glyph-name="underscore" horiz-adv-x="396" unicode="&#x5f;"/><glyph d="M70 636q-17 18-17 33 0 16 11 27t27 11q20 0 31-15l93-121h-70q-57 46-75 65z" glyph-name="grave" horiz-adv-x="268" unicode="&#x60;"/><glyph d="M209-12q-73 0-122 38.5t-49 104.5q0 43 22.5 73.5t70 50 103 31 139.5 20.5q5 131-112 131-92 0-110-77l-81 24q20 56 71 88t119 32q102 0 149-48t48-153l1-116q1-105 17-187h-77l-20 68q-48-80-169-80zM380 239q-84-9-134-19.5t-82.5-32-32.5-54.5q0-36 25.5-57t70.5-21q66 0 109.5 36t43.5 117v31z" glyph-name="a" horiz-adv-x="526" unicode="&#x61;"/><glyph d="M70 668h84v-250q50 86 161 86 89 0 151-70t62-188-62-188-151-70q-112 0-161 87l-22-75h-62v668zM293 432q-65 0-103-49.5t-38-136.5 38-136.5 103-49.5 103 49.5 38 136.5-38 136.5-103 49.5z" glyph-name="b" horiz-adv-x="566" unicode="&#x62;"/><glyph d="M269-12q-105 0-168 72t-63 186q0 113 65.5 185.5t174.5 72.5q63 0 112-31.5t75-80.5l-77-28q-17 30-47.5 48t-68.5 18q-61 0-102-47t-41-136 41.5-137 101.5-48q79 0 118 65l77-28q-29-50-81.5-80.5t-116.5-30.5z" glyph-name="c" horiz-adv-x="500" unicode="&#x63;"/><glyph d="M251-12q-89 0-151 70t-62 188 62 188 151 70q111 0 161-86v250h84v-481q0-100 17-187h-79l-22 75q-49-87-161-87zM273 432q-65 0-103-49.5t-38-136.5 38-136.5 103-49.5 103 49.5 38 136.5-38 136.5-103 49.5z" glyph-name="d" horiz-adv-x="564" unicode="&#x64;"/><glyph d="M281-12q-114 0-178.5 73t-64.5 186q0 116 68.5 186.5t172.5 70.5q113 0 176-83t55-196h-382q3-85 50-124t103-39q78 0 116 49l81-24q-28-45-79-72t-118-27zM279 432q-61 0-102.5-34.5t-47.5-105.5h292q-1 56-40 98t-102 42z" glyph-name="e" unicode="&#x65;"/><glyph d="M15 429v67h84v74q0 79 26 107.5t107 28.5h54v-71h-52q-32 0-41.5-12.5t-9.5-51.5v-75h103v-67h-103v-429h-84v429h-84z" glyph-name="f" horiz-adv-x="311" unicode="&#x66;"/><glyph d="M248 9q-87 0-148.5 66.5t-61.5 180.5 61.5 181 148.5 67q107 0 158-86l23 78h61v-449q0-45-3-72t-14-59-37-54.5-67-37.5q-45-16-95-16-67 0-121 29t-72 87l84 23q23-65 109-65 32 0 56 8 45 15 60.5 45t15.5 93v66q-51-85-158-85zM269 432q-63 0-101.5-46.5t-38.5-129.5 38.5-130 101.5-47q61 0 100.5 44t39.5 133-39.5 132.5-100.5 43.5z" glyph-name="g" horiz-adv-x="560" unicode="&#x67;"/><glyph d="M70 668h84v-247q49 83 160 83 164 0 164-190v-314h-84v289q0 32-4 55t-14.5 44.5-33 32.5-57.5 11q-62 0-96.5-42t-34.5-121v-269h-84v668z" glyph-name="h" horiz-adv-x="546" unicode="&#x68;"/><glyph d="M45 496h153v-496h-84v429h-69v67zM156 590q-26 0-44 18.5t-18 44.5q0 25 18 43.5t44 18.5 44.5-18 18.5-44-18.5-44.5-44.5-18.5z" glyph-name="i" horiz-adv-x="278" unicode="&#x69;"/><glyph d="M-58-86q18-1 47-1 63 0 82 18t19 81v484h84v-489q0-96-37.5-132t-139.5-36q-15 0-55 2v73zM132 590q-26 0-44.5 18.5t-18.5 44.5 18.5 44 44.5 18 44-18.5 18-43.5q0-26-18-44.5t-44-18.5z" glyph-name="j" horiz-adv-x="254" unicode="&#x6a;"/><glyph d="M70 668h84v-395l200 223h101l-187-205 212-291h-103l-165 229-58-63v-166h-84v668z" glyph-name="k" horiz-adv-x="490" unicode="&#x6b;"/><glyph d="M70 124v543h84v-529q0-40 8.5-52t42.5-12h19v-74h-37q-72 0-94.5 23.5t-22.5 100.5z" glyph-name="l" horiz-adv-x="239" unicode="&#x6c;"/><glyph d="M70 496h62l22-75q49 83 149 83 108 0 143-87 57 87 167 87 160 0 160-190v-314h-84v289q0 68-21.5 105.5t-84.5 37.5q-55 0-87-42.5t-32-120.5v-269h-84v289q0 67-22 105t-84 38q-55 0-87.5-42.5t-32.5-120.5v-269h-84v496z" glyph-name="m" horiz-adv-x="841" unicode="&#x6d;"/><glyph d="M70 496h62l22-75q49 83 160 83 164 0 164-190v-314h-84v289q0 32-4 55t-14.5 44.5-33 32.5-57.5 11q-62 0-96.5-42t-34.5-121v-269h-84v496z" glyph-name="n" horiz-adv-x="546" unicode="&#x6e;"/><glyph d="M38 246q0 125 71.5 191.5t166.5 66.5q96 0 167-66.5t71-191.5-71-191.5-167-66.5q-95 0-166.5 66.5t-71.5 191.5zM128 246q0-89 44.5-136.5t103.5-47.5q60 0 104 47t44 137-44 137-104 47q-59 0-103.5-47.5t-44.5-136.5z" glyph-name="o" horiz-adv-x="552" unicode="&#x6f;"/><glyph d="M70 496h61l23-78q50 86 161 86 89 0 151-70t62-188-62-188-151-70q-112 0-161 87v-236h-84v657zM152 246q0-87 38-136.5t103-49.5 103 49.5 38 136.5-38 136.5-103 49.5-103-49.5-38-136.5z" glyph-name="p" horiz-adv-x="566" unicode="&#x70;"/><glyph d="M250-12q-89 0-150.5 70t-61.5 188 61.5 188 150.5 70q112 0 162-86l23 78h61v-520q0-30 17.5-50t53.5-20q26 0 61 13v-78q-45-14-85-14-131 0-131 146v102q-49-87-162-87zM273 432q-65 0-103.5-49t-38.5-137 38.5-137 103.5-49 103 49.5 38 136.5-38 136.5-103 49.5z" glyph-name="q" horiz-adv-x="576" unicode="&#x71;"/><glyph d="M70 496h61l27-92q58 100 177 100v-87q-99 0-140-50.5t-41-153.5v-213h-84v496z" glyph-name="r" horiz-adv-x="340" unicode="&#x72;"/><glyph d="M31 112l81 30q11-42 46.5-62.5t80.5-20.5q46 0 81.5 21t35.5 53q0 37-32.5 56.5t-78.5 28-92.5 20-79 43-32.5 86.5q0 63 57 100.5t134 37.5q62 0 113.5-26t72.5-75l-79-29q-12 29-43.5 44t-69.5 15q-41 0-70.5-17.5t-29.5-48.5q0-33 32.5-49.5t79-24 92.5-19.5 78.5-46.5 32.5-92.5q0-67-60-107.5t-142-40.5q-69 0-126.5 31.5t-81.5 92.5z" glyph-name="s" horiz-adv-x="471" unicode="&#x73;"/><glyph d="M20 496h84v125h84v-125h96v-67h-96v-291q0-40 8.5-52t42.5-12h45v-74h-63q-72 0-94.5 23.5t-22.5 100.5v305h-84v67z" glyph-name="t" horiz-adv-x="324" unicode="&#x74;"/><glyph d="M227-12q-159 0-159 192v317h84v-292q0-68 21-105.5t83-37.5q60 0 93 41.5t33 120.5v273h84v-497h-63l-21 72q-49-84-155-84z" glyph-name="u" horiz-adv-x="536" unicode="&#x75;"/><glyph d="M177 0l-177 496h91l130-386 129 386h91l-177-496h-87z" glyph-name="v" horiz-adv-x="441" unicode="&#x76;"/><glyph d="M143 0l-143 496h90l95-367 99 367h87l98-367 95 367h90l-142-496h-77l-108 399-108-399h-76z" glyph-name="w" horiz-adv-x="654" unicode="&#x77;"/><glyph d="M0 0l181 255-172 241h99l122-172 123 172h99l-172-241 181-255h-99l-132 185-131-185h-99z" glyph-name="x" horiz-adv-x="461" unicode="&#x78;"/><glyph d="M179-1l-179 496h93l122-382 122 382h92l-176-517q-28-84-60.5-111.5t-112.5-27.5h-43v74h34q54 0 72.5 14.5t35.5 71.5z" glyph-name="y" horiz-adv-x="429" unicode="&#x79;"/><glyph d="M40 0v74l285 348h-276v74h371v-74l-285-348h295v-74h-390z" glyph-name="z" horiz-adv-x="460" unicode="&#x7a;"/><glyph d="M108 125q0 49-13.5 72t-56.5 23v67q43 0 56.5 23t13.5 72v150q0 80 26 108t108 28h43v-71h-42q-32 0-41.5-12.5t-9.5-51.5v-153q0-59-20-87.5t-59-39.5q39-11 59-38.5t20-87.5v-153q0-40 9.5-52t41.5-12h42v-71h-43q-82 0-108 28t-26 108v150z" glyph-name="braceleft" horiz-adv-x="319" unicode="&#x7b;"/><glyph d="M76-161v829h81v-829h-81z" glyph-name="bar" horiz-adv-x="233" unicode="&#x7c;"/><glyph d="M77-161h-43v71h41q33 0 42.5 12t9.5 52v153q0 60 19.5 87.5t58.5 38.5q-38 11-58 39.5t-20 87.5v153q0 39-9.5 51.5t-42.5 12.5h-41v71h43q82 0 108-28t26-108v-150q0-49 13.5-72t56.5-23v-67q-43 0-56.5-23t-13.5-72v-150q0-80-26-108t-108-28z" glyph-name="braceright" horiz-adv-x="319" unicode="&#x7d;"/><glyph d="M115 199l-75 22q11 47 47.5 74.5t89.5 27.5q45 0 111.5-27.5t89.5-27.5q24 0 41 13t22 38l74-22q-11-47-47.5-74.5t-88.5-27.5q-37 0-104 27t-96 27q-55 0-64-50z" glyph-name="asciitilde" horiz-adv-x="555" unicode="&#x7e;"/><glyph glyph-name="uni00A0" horiz-adv-x="280" unicode="&#xa0;"/><glyph d="M185-161h-89v172l18 300h53l18-300v-172zM140 390q-26 0-45 19t-19 45q0 27 19 46t45 19q27 0 46-19t19-46q0-26-19-45t-46-19z" glyph-name="exclamdown" horiz-adv-x="281" unicode="&#xa1;"/><glyph d="M38 247q0 101 53.5 170.5t144.5 83.5v70h50v-67q61-2 107.5-33t71.5-78l-77-28q-32 57-102 65v-368q70 7 104 65l77-28q-26-46-74-76.5t-107-34.5v-75h-50v77q-92 12-145 82t-53 175zM129 248q0-75 30-121t77-60v358q-47-13-77-58t-30-119z" glyph-name="cent" horiz-adv-x="500" unicode="&#xa2;"/><glyph d="M70 369h86q-44 90-44 142 0 85 65.5 127t155.5 42q83 0 138-37t75-102l-83-25q-24 93-134 93-51 0-89.5-24t-38.5-77q0-9 1.5-18.5t2.5-16.5 5.5-18.5 6-16 7.5-18.5 7.5-16.5 9-18 8.5-16.5h204v-51h-181q18-40 18-80 0-91-96-148 31 12 60 12 28 0 80-18t88-18q51 0 109 25l25-73q-68-30-125-30-38 0-99 19t-97 19q-59 0-134-38l-28 67q17 7 36 19.5t41.5 33 37 52 14.5 66.5q0 43-23 92h-109v51z" glyph-name="sterling" horiz-adv-x="586" unicode="&#xa3;"/><glyph d="M119 456l-66 66 36 36 66-66q59 47 135 47 78 0 135-47l66 66 36-36-66-66q47-57 47-135 0-77-47-136l66-66-36-35-66 65q-58-46-135-46-76 0-135 46l-66-65-36 35 66 66q-47 61-47 136 0 76 47 135zM290 463q-59 0-100.5-41.5t-41.5-100.5 41.5-101 100.5-42 100.5 42 41.5 101-41.5 100.5-100.5 41.5z" glyph-name="currency" horiz-adv-x="580" unicode="&#xa4;"/><glyph d="M10 668h103l185-323 184 323h103l-232-394h141v-51h-149v-86h149v-51h-149v-86h-94v86h-150v51h150v86h-150v51h141z" glyph-name="yen" horiz-adv-x="595" unicode="&#xa5;"/><glyph d="M76 358v310h81v-310h-81zM157-161h-81v310h81v-310z" glyph-name="brokenbar" horiz-adv-x="233" unicode="&#xa6;"/><glyph d="M363-36q0 35-34 64.5t-83 52.5-98 49-83 66.5-34 92.5q0 47 34 82t86 53q-75 50-75 126 0 62 54 96t127 34q67 0 114-28t68-78l-81-24q-23 60-105 60-39 0-65-15t-26-43q0-4 2-16 6-25 43.5-50t85.5-48 95-49 79.5-64 32.5-83q0-51-32-90t-83-61q64-49 64-114 0-71-53.5-110.5t-134.5-39.5q-74 0-125 34t-69 95l83 24q21-83 113-83 45 0 72.5 17.5t27.5 49.5zM115 294q0-27 17.5-48.5t39.5-34 70-37.5 81-45q93 39 93 97 0 22-11 41t-33.5 35-44.5 27.5-55.5 28.5-53.5 29q-42-12-72.5-36.5t-30.5-56.5z" glyph-name="section" horiz-adv-x="530" unicode="&#xa7;"/><glyph d="M53 644q0 22 16 37.5t38 15.5 38-15.5 16-37.5-15.5-38-38.5-16-38.5 16-15.5 38zM265 644q0 22 15.5 37.5t37.5 15.5 38-15.5 16-37.5-16-38-38-16-37.5 16-15.5 38z" glyph-name="dieresis" horiz-adv-x="425" unicode="&#xa8;"/><glyph d="M53 334q0 143 101.5 244.5t244.5 101.5 244.5-101.5 101.5-244.5-101.5-244.5-244.5-101.5-244.5 101.5-101.5 244.5zM115 334q0-118 83-201t201-83 201 83 83 201-83 201-201 83-201-83-83-201zM401 150q-83 0-128.5 51t-45.5 141q0 88 47.5 138.5t128.5 50.5q102 0 145-82l-67-25q-26 49-80 49-45 0-71.5-33.5t-26.5-97.5q0-65 26.5-99t71.5-34q58 0 83 45l66-24q-46-80-149-80z" glyph-name="copyright" horiz-adv-x="798" unicode="&#xa9;"/><glyph d="M152 397q-45 0-72 22.5t-27 58.5q0 27 14.5 45.5t42.5 29.5 57.5 16.5 71.5 8.5q0 20-2 32t-14.5 22.5-36.5 10.5q-48 0-57-36l-61 18q12 31 43.5 49t77.5 18q118 0 118-119v-82q0-33 11-88h-58l-12 39q-23-45-96-45zM123 483q0-35 49-35 34 0 50.5 19.5t16.5 51.5v11q-67-8-91.5-17.5t-24.5-29.5z" glyph-name="ordfeminine" horiz-adv-x="371" unicode="&#xaa;"/><glyph d="M262 251l147 210h100l-150-210 150-211h-100zM201 40l-148 211 148 210h99l-149-210 149-211h-99z" glyph-name="guillemotleft" horiz-adv-x="562" unicode="&#xab;"/><glyph d="M53 317v79h496v-306h-81v227h-415z" glyph-name="logicalnot" horiz-adv-x="602" unicode="&#xac;"/><glyph d="M399-12q-143 0-244.5 101t-101.5 244q0 144 101.5 245.5t244.5 101.5 244.5-101.5 101.5-245.5q0-143-101.5-244t-244.5-101zM115 333q0-117 83-200.5t201-83.5 201 83.5 83 200.5q0 118-83 202t-201 84-201-84-83-202zM340 162h-76v368h112q90 0 132-24t42-92q0-79-88-103l108-149h-86l-102 139h-42v-139zM388 469h-48v-110h53q81 0 81 54 0 32-22 44t-64 12z" glyph-name="registered" horiz-adv-x="798" unicode="&#xae;"/><glyph d="M53 601v67h276v-67h-276z" glyph-name="macron" horiz-adv-x="382" unicode="&#xaf;"/><glyph d="M40 544q0 56 40 96t96 40 96-40 40-96-40-96-96-40-96 40-40 96zM103 544q0-30 21.5-51.5t51.5-21.5q31 0 52 21.5t21 51.5q0 31-21 52t-52 21q-30 0-51.5-21t-21.5-52z" glyph-name="degree" horiz-adv-x="352" unicode="&#xb0;"/><glyph d="M53 349h197v147h79v-147h197v-79h-197v-146h-79v146h-197v79zM526 0h-473v79h473v-79z" glyph-name="plusminus" horiz-adv-x="579" unicode="&#xb1;"/><glyph d="M329 403h-276v55q105 83 151 132t46 92q0 26-15.5 40t-41.5 14q-57 0-64-59l-64 18q11 42 45.5 66.5t85.5 24.5q54 0 89-26.5t35-73.5q0-53-46.5-107.5t-139.5-117.5h195v-58z" glyph-name="twosuperior" horiz-adv-x="382" unicode="&#xb2;"/><glyph d="M53 486l62 18q18-56 73-56 32 0 52.5 16.5t20.5 44.5q0 10-2.5 18.5t-5.5 14.5-9.5 11-11.5 8-14 5.5-14 3.5-15 1.5-13.5.5h-13.5-11v54q61 0 82 15 19 15 19 42 0 26-18 39.5t-44 13.5q-55 0-71-53l-61 18q13 40 48.5 62.5t87.5 22.5 89.5-25.5 37.5-75.5q0-26-15-48.5t-38-34.5q30-12 46-36.5t16-54.5q0-55-41-84.5t-102-29.5q-51 0-86 24.5t-48 64.5z" glyph-name="threesuperior" horiz-adv-x="383" unicode="&#xb3;"/><glyph d="M123 571h-70q2 2 23.5 30.5t43 56.5 29.5 36q10 13 28 13 16 0 26-10 12-11 12-28 0-15-13-28-14-16-79-70z" glyph-name="acute" horiz-adv-x="268" unicode="&#xb4;"/><glyph d="M38 479q0 78 55.5 133.5t133.5 55.5h256v-67h-40v-762h-81v762h-94v-762h-81v455q-64 14-106.5 65.5t-42.5 119.5z" glyph-name="paragraph" horiz-adv-x="508" unicode="&#xb6;"/><glyph d="M53 248q0 26 19 45t45 19q27 0 46-19t19-45q0-27-19-46t-46-19q-26 0-45 19t-19 46z" glyph-name="periodcentered" horiz-adv-x="235" unicode="&#xb7;"/><glyph d="M73-161l14 35q32-14 58-14 24 0 37.5 10.5t13.5 23.5q0 25-36 25-11 0-31-5-13-4-20.5 2.5t-7.5 16.5q0 5 3 10l51 82 34-21-30-49q22 4 30 4 33 0 51-17.5t18-43.5q0-31-25.5-55t-71.5-24q-39 0-88 20z" glyph-name="cedilla" horiz-adv-x="291" unicode="&#xb8;"/><glyph d="M53 730q77 0 94 49h56v-376h-67v280h-83v47z" glyph-name="onesuperior" horiz-adv-x="256" unicode="&#xb9;"/><glyph d="M57 545q0 71 40 109t97 38q58 0 98-38t40-109-40-109-98-38q-57 0-97 38t-40 109zM126 545q0-44 19-68.5t49-24.5q31 0 50 24.5t19 68.5-19 68.5-50 24.5q-30 0-49-24.5t-19-68.5z" glyph-name="ordmasculine" horiz-adv-x="381" unicode="&#xba;"/><glyph d="M202 251l-149 210h100l147-210-147-211h-100zM411 251l-149 210h99l148-210-148-211h-99z" glyph-name="guillemotright" horiz-adv-x="562" unicode="&#xbb;"/><glyph d="M455 140l186 236h67v-233h65v-57h-65v-86h-68v86h-185v54zM115 0l468 668h88l-467-668h-89zM53 619q77 0 94 49h57v-376h-68v279h-83v48zM528 143h112v146z" glyph-name="onequarter" horiz-adv-x="826" unicode="&#xbc;"/><glyph d="M203 0h-88l468 668h88zM484 0v54q107 86 152 133.5t45 90.5q0 26-15.5 40t-41.5 14q-25 0-43-14.5t-22-44.5l-64 19q11 42 46 66t86 24q54 0 89-26.5t35-72.5q0-54-47-108.5t-139-116.5h194v-58h-275zM136 571h-83v48q77 0 94 49h56v-376h-67v279z" glyph-name="onehalf" horiz-adv-x="812" unicode="&#xbd;"/><glyph d="M682 86h-185v54l186 236h68v-233h64v-57h-64v-86h-69v86zM245 0h-88l469 668h88zM187 291q-51 0-86 24.5t-48 64.5l62 18q17-56 73-56 32 0 52.5 16.5t20.5 44.5q0 10-2.5 18.5t-5.5 14.5-9.5 11-11.5 8-14 5.5-14 3.5-15 1.5-13.5.5h-13.5-11v53q61 0 82 15 19 15 19 42 0 26-18 39.5t-44 13.5q-55 0-71-53l-61 18q13 40 48.5 63t87.5 23 89.5-26 37.5-76q0-55-53-83 30-11 46-35.5t16-54.5q0-55-41-84.5t-102-29.5zM682 289l-112-146h112v146z" glyph-name="threequarters" horiz-adv-x="868" unicode="&#xbe;"/><glyph d="M258-173q-85 0-146.5 42t-61.5 120q0 110 124 190 47 30 62.5 49t15.5 55v34h86v-36q0-55-26-88t-89-73q-85-53-85-127 0-43 34-69.5t88-26.5q63 0 96.5 32t41.5 78l82-24q-16-72-76-114t-146-42zM228 455q0 26 19 45t46 19q26 0 45-19t19-45q0-27-19-46t-45-19q-27 0-46 19t-19 46z" glyph-name="questiondown" horiz-adv-x="520" unicode="&#xbf;"/><glyph d="M10 0l251 669h105l250-669h-100l-51 146h-304l-51-146h-100zM313 574l-123-347h246zM196 796q-16 14-16 32 0 15 10.5 25.5t25.5 10.5q19 0 31-13l106-107h-76q-1 1-18.5 11.5t-36 22-26.5 18.5z" glyph-name="Agrave" horiz-adv-x="626" unicode="&#xc0;"/><glyph d="M10 0l251 669h105l250-669h-100l-51 146h-304l-51-146h-100zM313 574l-123-347h246zM353 744h-76q1 1 26 27t49 50.5 32 30.5q14 12 29 12t25.5-10.5 10.5-25.5q0-19-16-32-8-7-26-18.5t-35.5-22.5-18.5-11z" glyph-name="Aacute" horiz-adv-x="626" unicode="&#xc1;"/><glyph d="M110 0h-100l251 669h105l250-669h-100l-51 146h-304zM313 574l-123-347h246zM246 747h-94l112 101q20 19 50 19 29 0 49-19l112-101h-94l-68 61z" glyph-name="Acircumflex" horiz-adv-x="626" unicode="&#xc2;"/><glyph d="M110 0h-100l251 669h105l250-669h-100l-51 146h-304zM313 574l-123-347h246zM149 751q18 104 106 104 30 0 67.5-21.5t56.5-21.5q25 0 39 23 11 19 29 19 12 0 21.5-9t9.5-22q0-21-27.5-47.5t-69.5-26.5q-29 0-68 21.5t-57 21.5q-37 0-42-41h-65z" glyph-name="Atilde" horiz-adv-x="626" unicode="&#xc3;"/><glyph d="M10 0l251 669h105l250-669h-100l-51 146h-304l-51-146h-100zM190 227h246l-123 347zM208 740q-22 0-38 16t-16 38 16 37.5 38 15.5 38-15.5 16-37.5-16-38-38-16zM419 740q-22 0-37.5 16t-15.5 38 15.5 37.5 37.5 15.5 38-15.5 16-37.5-15.5-38-38.5-16z" glyph-name="Adieresis" horiz-adv-x="626" unicode="&#xc4;"/><glyph d="M110 0h-100l240 641q-46 33-46 88 0 45 32.5 77t78.5 32q45 0 76-32t31-77q0-57-45-89l239-640h-100l-51 146h-304zM313 574l-123-347h246zM313 780q-22 0-37-15t-15-36 15-36 37-15 37 15 15 36-15 36-37 15z" glyph-name="Aring" horiz-adv-x="626" unicode="&#xc5;"/><glyph d="M10 0l486 668h464v-81h-360v-203h266v-81h-266v-222h360v-81h-454v145h-283l-104-145h-109zM506 546l-227-320h227v320z" glyph-name="AE" horiz-adv-x="998" unicode="&#xc6;"/><glyph d="M59 335q0 156 85 250.5t226 94.5q85 0 152-39.5t101-111.5l-82-30q-51 102-176 102-92 0-151-70t-59-196q0-124 59-196t154-72q125 0 177 102l82-30q-35-72-102.5-110.5t-155.5-40.5l-20-33q22 4 30 4 33 0 51-17.5t18-43.5q0-31-25.5-55t-71.5-24q-39 0-88 20l14 35q32-14 58-14 24 0 37.5 10.5t13.5 23.5q0 25-36 25-11 0-31-5-13-4-20.5 2.5t-7.5 16.5q0 5 3 10l29 47q-124 13-194 107t-70 238z" glyph-name="Ccedilla" horiz-adv-x="671" unicode="&#xc7;"/><glyph d="M76 668h453v-81h-359v-203h265v-81h-265v-222h359v-81h-453v668zM194 828q0 15 10.5 25.5t25.5 10.5q19 0 31-13l106-107h-76q-1 1-18.5 11.5t-36 22-26.5 18.5q-16 14-16 32z" glyph-name="Egrave" horiz-adv-x="567" unicode="&#xc8;"/><glyph d="M76 0v668h453v-81h-359v-203h265v-81h-265v-222h359v-81h-453zM341 744h-76q1 1 26 27t49 50.5 32 30.5q14 12 29 12t25.5-10.5 10.5-25.5q0-19-16-32-8-7-26-18.5t-35.5-22.5-18.5-11z" glyph-name="Eacute" horiz-adv-x="567" unicode="&#xc9;"/><glyph d="M76 0v668h453v-81h-359v-203h265v-81h-265v-222h359v-81h-453zM142 750l112 101q20 19 50 19 29 0 49-19l112-101h-94l-68 61-67-61h-94z" glyph-name="Ecircumflex" horiz-adv-x="567" unicode="&#xca;"/><glyph d="M76 0v668h453v-81h-359v-203h265v-81h-265v-222h359v-81h-453zM183 742q-23 0-38.5 16t-15.5 38 16 37.5 38 15.5 38-15.5 16-37.5-15.5-38-38.5-16zM394 742q-22 0-37.5 16t-15.5 38 15.5 37.5 37.5 15.5 38-15.5 16-37.5-16-38-38-16z" glyph-name="Edieresis" horiz-adv-x="567" unicode="&#xcb;"/><glyph d="M66 74h94v520h-94v74h282v-74h-94v-520h94v-74h-282v74zM94 796q-16 14-16 32 0 15 10.5 25.5t25.5 10.5q19 0 31-13l106-107h-76q-1 1-18.5 11.5t-36 22-26.5 18.5z" glyph-name="Igrave" horiz-adv-x="414" unicode="&#xcc;"/><glyph d="M348 0h-282v74h94v520h-94v74h282v-74h-94v-520h94v-74zM242 744h-76q1 1 26 27t49 50.5 32 30.5q13 12 29 12 15 0 25.5-10.5t10.5-25.5q0-19-16-32-8-7-26-18.5t-35.5-22.5-18.5-11z" glyph-name="Iacute" horiz-adv-x="414" unicode="&#xcd;"/><glyph d="M160 594h-94v74h282v-74h-94v-520h94v-74h-282v74h94v520zM46 747l112 101q20 19 50 19 29 0 49-19l112-101h-94l-68 61-67-61h-94z" glyph-name="Icircumflex" horiz-adv-x="414" unicode="&#xce;"/><glyph d="M348 0h-282v74h94v520h-94v74h282v-74h-94v-520h94v-74zM48 794q0 22 16 37.5t38 15.5 38-15.5 16-37.5-16-38-38-16-38 16-16 38zM260 794q0 22 15.5 37.5t37.5 15.5 38-15.5 16-37.5-15.5-38-38.5-16q-22 0-37.5 16t-15.5 38z" glyph-name="Idieresis" horiz-adv-x="414" unicode="&#xcf;"/><glyph d="M20 383h95v285h182q83 0 147-16.5t114.5-54 77-103.5 26.5-159-26.5-159.5-77-104-114.5-54.5-147-17h-182v303h-95v80zM209 383h140v-80h-140v-224h86q47 0 82 4.5t72.5 20 61.5 42.5 39.5 75 15.5 114q0 65-15.5 113t-39.5 74.5-61.5 42-72.5 20-82 4.5h-86v-206z" glyph-name="Eth" horiz-adv-x="712" unicode="&#xd0;"/><glyph d="M170 0h-94v668h139l304-568v568h94v-668h-138l-305 571v-571zM244 751h-65q18 104 106 104 30 0 67.5-21.5t56.5-21.5q25 0 39 23 11 19 29 19 12 0 21.5-9t9.5-22q0-21-27.5-47.5t-69.5-26.5q-29 0-68 21.5t-57 21.5q-37 0-42-41z" glyph-name="Ntilde" horiz-adv-x="689" unicode="&#xd1;"/><glyph d="M50 335q0 153 85.5 249t227.5 96q143 0 228.5-96t85.5-249q0-154-85.5-250.5t-228.5-96.5q-142 0-227.5 97t-85.5 250zM363 601q-94 0-155.5-70.5t-61.5-195.5q0-126 61.5-197t155.5-71q95 0 156.5 71t61.5 197q0 125-61.5 195.5t-156.5 70.5zM249 796q-16 14-16 32 0 15 10.5 25.5t25.5 10.5q19 0 31-13l106-107h-76q-1 1-18.5 11.5t-36 22-26.5 18.5z" glyph-name="Ograve" horiz-adv-x="727" unicode="&#xd2;"/><glyph d="M50 335q0 153 85.5 249t227.5 96q143 0 228.5-96t85.5-249q0-154-85.5-250.5t-228.5-96.5q-142 0-227.5 97t-85.5 250zM146 335q0-126 61.5-197t155.5-71q95 0 156.5 71t61.5 197q0 125-61.5 195.5t-156.5 70.5q-94 0-155.5-70.5t-61.5-195.5zM399 744h-76q1 1 26 27t49 50.5 32 30.5q14 12 29 12t25.5-10.5 10.5-25.5q0-19-16-32-8-7-26-18.5t-35.5-22.5-18.5-11z" glyph-name="Oacute" horiz-adv-x="727" unicode="&#xd3;"/><glyph d="M50 335q0 153 85.5 249t227.5 96q143 0 228.5-96t85.5-249q0-154-85.5-250.5t-228.5-96.5q-142 0-227.5 97t-85.5 250zM146 335q0-126 61.5-197t155.5-71q95 0 156.5 71t61.5 197q0 125-61.5 195.5t-156.5 70.5q-94 0-155.5-70.5t-61.5-195.5zM296 747h-94l112 101q20 19 50 19 29 0 49-19l112-101h-94l-68 61z" glyph-name="Ocircumflex" horiz-adv-x="727" unicode="&#xd4;"/><glyph d="M363-12q-142 0-227.5 97t-85.5 250 85.5 249 227.5 96q143 0 228.5-96t85.5-249q0-154-85.5-250.5t-228.5-96.5zM146 335q0-126 61.5-197t155.5-71q95 0 156.5 71t61.5 197q0 125-61.5 195.5t-156.5 70.5q-94 0-155.5-70.5t-61.5-195.5zM195 752q18 104 106 104 30 0 67.5-21.5t56.5-21.5q25 0 39 23 11 19 29 19 12 0 21.5-9t9.5-22q0-21-27.5-47.5t-69.5-26.5q-29 0-68 21.5t-57 21.5q-37 0-42-41h-65z" glyph-name="Otilde" horiz-adv-x="727" unicode="&#xd5;"/><glyph d="M363-12q-142 0-227.5 97t-85.5 250 85.5 249 227.5 96q143 0 228.5-96t85.5-249q0-154-85.5-250.5t-228.5-96.5zM363 601q-94 0-155.5-70.5t-61.5-195.5q0-126 61.5-197t155.5-71q95 0 156.5 71t61.5 197q0 125-61.5 195.5t-156.5 70.5zM204 796q0 22 16 37.5t38 15.5 38-15.5 16-37.5-16-38-38-16-38 16-16 38zM416 796q0 22 15.5 37.5t37.5 15.5 38-15.5 16-37.5-15.5-38-38.5-16q-22 0-37.5 16t-15.5 38z" glyph-name="Odieresis" horiz-adv-x="727" unicode="&#xd6;"/><glyph d="M53 404l57 58 154-154 154 154 57-58-153-154 153-153-57-58-154 154-154-154-57 58 154 153z" glyph-name="multiply" horiz-adv-x="528" unicode="&#xd7;"/><glyph d="M50 333q0 153 85.5 250t227.5 97q119 0 200-70l53 63 39-32-56-67q78-95 78-241 0-153-85.5-249t-228.5-96q-122 0-203 72l-57-66-38 33 60 70q-75 94-75 236zM217 127q58-60 146-60 95 0 156.5 71t61.5 195q0 102-43 170zM363 599q-94 0-155.5-70.5t-61.5-195.5q0-99 40-164l320 374q-58 56-143 56z" glyph-name="Oslash" horiz-adv-x="727" unicode="&#xd8;"/><glyph d="M76 668h94v-396q0-102 41-152.5t134-50.5 134 50.5 41 152.5v396h94v-389q0-149-63-220t-206-71-206 71-63 220v389zM231 796q-16 14-16 32 0 15 10.5 25.5t25.5 10.5q19 0 31-13l106-107h-76q-1 1-18.5 11.5t-36 22-26.5 18.5z" glyph-name="Ugrave" horiz-adv-x="690" unicode="&#xd9;"/><glyph d="M345-12q-143 0-206 71t-63 220v389h94v-396q0-102 41-152.5t134-50.5 134 50.5 41 152.5v396h94v-389q0-149-63-220t-206-71zM381 744h-76q1 1 26 27t49 50.5 32 30.5q14 12 29 12t25.5-10.5 10.5-25.5q0-19-16-32-8-7-26-18.5t-35.5-22.5-18.5-11z" glyph-name="Uacute" horiz-adv-x="690" unicode="&#xda;"/><glyph d="M76 279v389h94v-396q0-102 41-152.5t134-50.5 134 50.5 41 152.5v396h94v-389q0-149-63-220t-206-71-206 71-63 220zM278 747h-94l112 101q20 19 50 19 29 0 49-19l112-101h-94l-68 61z" glyph-name="Ucircumflex" horiz-adv-x="690" unicode="&#xdb;"/><glyph d="M345-12q-143 0-206 71t-63 220v389h94v-396q0-102 41-152.5t134-50.5 134 50.5 41 152.5v396h94v-389q0-149-63-220t-206-71zM240 743q-22 0-38 15.5t-16 38.5q0 22 16 37.5t38 15.5 38-15.5 16-37.5q0-23-16-38.5t-38-15.5zM451 743q-22 0-37.5 16t-15.5 38 15.5 37.5 37.5 15.5 38-15.5 16-37.5q0-23-15.5-38.5t-38.5-15.5z" glyph-name="Udieresis" horiz-adv-x="690" unicode="&#xdc;"/><glyph d="M251 259l-241 409h103l185-323 184 323h103l-240-409v-259h-94v259zM258 744q1 1 26 27t49 50.5 32 30.5q13 12 29 12 15 0 25.5-10.5t10.5-25.5q0-19-16-32-8-7-26-18.5t-35.5-22.5-18.5-11h-76z" glyph-name="Yacute" horiz-adv-x="595" unicode="&#xdd;"/><glyph d="M160 0h-84v668h84v-140h127q123 0 187-39.5t64-143.5q0-55-17.5-91.5t-53-56-78-27-102.5-7.5h-127v-163zM296 447h-136v-203h136q48 0 75.5 5t48.5 28 21 67q0 62-37 82.5t-108 20.5z" glyph-name="Thorn" horiz-adv-x="576" unicode="&#xde;"/><glyph d="M76 453q0 33 4 60.5t18.5 60 38.5 54.5 69 37 106 15q91 0 149.5-43.5t58.5-115.5q0-103-100-145 139-36 139-179 0-110-73.5-161t-183.5-48l-23 77q21-3 39-3 70 0 110.5 34t40.5 99q0 135-190 135v76q75 0 115.5 27.5t40.5 77.5q0 44-34.5 72t-89.5 28q-80 0-115.5-36.5t-35.5-121.5v-453h-84v453z" glyph-name="germandbls" horiz-adv-x="597" unicode="&#xdf;"/><glyph d="M38 131q0 43 22.5 73.5t70 50 103 31 139.5 20.5q5 131-112 131-92 0-110-77l-81 24q20 56 71 88t119 32q102 0 149-48t48-153l1-116q1-105 17-187h-77l-20 68q-48-80-169-80-73 0-122 38.5t-49 104.5zM380 239q-84-9-134-19.5t-82.5-32-32.5-54.5q0-36 25.5-57t70.5-21q66 0 109.5 36t43.5 117v31zM139 669q0 16 11 27t27 11q20 0 31-15l93-121h-70q-57 46-75 65-17 18-17 33z" glyph-name="agrave" horiz-adv-x="526" unicode="&#xe0;"/><glyph d="M38 131q0 43 22.5 73.5t70 50 103 31 139.5 20.5q5 131-112 131-92 0-110-77l-81 24q20 56 71 88t119 32q102 0 149-48t48-153l1-116q1-105 17-187h-77l-20 68q-48-80-169-80-73 0-122 38.5t-49 104.5zM131 133q0-36 25.5-57t70.5-21q66 0 109.5 36t43.5 117v31q-84-9-134-19.5t-82.5-32-32.5-54.5zM292 571h-70q2 2 23.5 30.5t43 56.5 29.5 36q10 13 28 13 16 0 26-10 12-11 12-28 0-15-13-28-14-16-79-70z" glyph-name="aacute" horiz-adv-x="526" unicode="&#xe1;"/><glyph d="M209-12q-73 0-122 38.5t-49 104.5q0 43 22.5 73.5t70 50 103 31 139.5 20.5q5 131-112 131-92 0-110-77l-81 24q20 56 71 88t119 32q102 0 149-48t48-153l1-116q1-105 17-187h-77l-20 68q-48-80-169-80zM131 133q0-36 25.5-57t70.5-21q66 0 109.5 36t43.5 117v31q-84-9-134-19.5t-82.5-32-32.5-54.5zM104 575l112 101q20 19 50 19 29 0 49-19l112-101h-94l-68 61-67-61h-94z" glyph-name="acircumflex" horiz-adv-x="526" unicode="&#xe2;"/><glyph d="M209-12q-73 0-122 38.5t-49 104.5q0 43 22.5 73.5t70 50 103 31 139.5 20.5q5 131-112 131-92 0-110-77l-81 24q20 56 71 88t119 32q102 0 149-48t48-153l1-116q1-105 17-187h-77l-20 68q-48-80-169-80zM131 133q0-36 25.5-57t70.5-21q66 0 109.5 36t43.5 117v31q-84-9-134-19.5t-82.5-32-32.5-54.5zM164 577h-65q18 104 106 104 30 0 67.5-21.5t56.5-21.5q25 0 39 23 11 19 29 19 12 0 21.5-9t9.5-22q0-21-27.5-47.5t-69.5-26.5q-29 0-68 21.5t-57 21.5q-37 0-42-41z" glyph-name="atilde" horiz-adv-x="526" unicode="&#xe3;"/><glyph d="M209-12q-73 0-122 38.5t-49 104.5q0 43 22.5 73.5t70 50 103 31 139.5 20.5q5 131-112 131-92 0-110-77l-81 24q20 56 71 88t119 32q102 0 149-48t48-153l1-116q1-105 17-187h-77l-20 68q-48-80-169-80zM131 133q0-36 25.5-57t70.5-21q66 0 109.5 36t43.5 117v31q-84-9-134-19.5t-82.5-32-32.5-54.5zM105 644q0 22 16 37.5t38 15.5 38-15.5 16-37.5-15.5-38-38.5-16-38.5 16-15.5 38zM370 590q-22 0-37.5 16t-15.5 38 15.5 37.5 37.5 15.5 38-15.5 16-37.5-16-38-38-16z" glyph-name="adieresis" horiz-adv-x="526" unicode="&#xe4;"/><glyph d="M38 131q0 43 22.5 73.5t70 50 103 31 139.5 20.5q5 131-112 131-92 0-110-77l-81 24q20 56 71 88t119 32q102 0 149-48t48-153l1-116q1-105 17-187h-77l-20 68q-48-80-169-80-73 0-122 38.5t-49 104.5zM267 559q-46 0-78.5 32t-32.5 77 32.5 77 78.5 32q45 0 76-32t31-77-31-77-76-32zM131 133q0-36 25.5-57t70.5-21q66 0 109.5 36t43.5 117v31q-84-9-134-19.5t-82.5-32-32.5-54.5zM213 668q0-21 15-36t37-15 37 15 15 36-15 36-37 15-37-15-15-36z" glyph-name="aring" horiz-adv-x="526" unicode="&#xe5;"/><glyph d="M209-12q-73 0-122 38.5t-49 104.5q0 84 91 122.5t244 38.5l1 12q0 12-.5 18t-1.5 19.5-4.5 22-8.5 21-13.5 20.5-20 16-28 11.5-36.5 3.5q-92 0-110-77l-81 24q20 57 73 89t117 32q130 0 173-80 69 80 181 80 114 0 176.5-83.5t54.5-195.5h-382q2-58 28.5-97t58.5-52.5 67-13.5q77 0 116 49l81-24q-29-45-79.5-72t-117.5-27q-134 0-200 100-60-100-208-100zM131 133q0-36 26-57.5t70-21.5q45 0 77 15.5t46.5 34 22 47 8 41-.5 29.5v4q-249 0-249-92zM614 432q-61 0-102.5-34.5t-46.5-105.5h292q-2 56-41 98t-102 42z" glyph-name="ae" horiz-adv-x="874" unicode="&#xe6;"/><glyph d="M50 246q0 113 65.5 185.5t174.5 72.5q63 0 112-31.5t75-80.5l-77-28q-17 30-47.5 48t-68.5 18q-61 0-102-47t-41-136 41.5-137 101.5-48q79 0 118 65l77-28q-28-49-79.5-79.5t-114.5-31.5l-21-33q22 4 30 4 33 0 51-17.5t18-43.5q0-31-25.5-55t-71.5-24q-39 0-88 20l14 35q32-14 58-14 24 0 37.5 10.5t13.5 23.5q0 25-36 25-11 0-31-5-13-4-20.5 2.5t-7.5 16.5q0 5 3 10l30 48q-87 14-138 83.5t-51 171.5z" glyph-name="ccedilla" horiz-adv-x="512" unicode="&#xe7;"/><glyph d="M281-12q-114 0-178.5 73t-64.5 186q0 116 68.5 186.5t172.5 70.5q113 0 176-83t55-196h-382q3-85 50-124t103-39q78 0 116 49l81-24q-28-45-79-72t-118-27zM129 292h292q-1 56-40 98t-102 42q-61 0-102.5-34.5t-47.5-105.5zM147 669q0 16 11 27t27 11q20 0 31-15l93-121h-70q-57 46-75 65-17 18-17 33z" glyph-name="egrave" unicode="&#xe8;"/><glyph d="M281-12q-114 0-178.5 73t-64.5 186q0 116 68.5 186.5t172.5 70.5q113 0 176-83t55-196h-382q3-85 50-124t103-39q78 0 116 49l81-24q-28-45-79-72t-118-27zM129 292h292q-1 56-40 98t-102 42q-61 0-102.5-34.5t-47.5-105.5zM309 571h-70q2 2 23.5 30.5t43 56.5 29.5 36q10 13 28 13 16 0 26-10 12-11 12-28 0-15-13-28-14-16-79-70z" glyph-name="eacute" unicode="&#xe9;"/><glyph d="M281-12q-114 0-178.5 73t-64.5 186q0 116 68.5 186.5t172.5 70.5q113 0 176-83t55-196h-382q3-85 50-124t103-39q78 0 116 49l81-24q-28-45-79-72t-118-27zM129 292h292q-1 56-40 98t-102 42q-61 0-102.5-34.5t-47.5-105.5zM203 575h-94l112 101q20 19 50 19 29 0 49-19l112-101h-94l-68 61z" glyph-name="ecircumflex" unicode="&#xea;"/><glyph d="M281-12q-114 0-178.5 73t-64.5 186q0 116 68.5 186.5t172.5 70.5q113 0 176-83t55-196h-382q3-85 50-124t103-39q78 0 116 49l81-24q-28-45-79-72t-118-27zM279 432q-61 0-102.5-34.5t-47.5-105.5h292q-1 56-40 98t-102 42zM165 590q-23 0-38.5 16t-15.5 38 16 37.5 38 15.5 38-15.5 16-37.5-15.5-38-38.5-16zM323 644q0 22 15.5 37.5t37.5 15.5 38-15.5 16-37.5-16-38-38-16-37.5 16-15.5 38z" glyph-name="edieresis" unicode="&#xeb;"/><glyph d="M114 429h-69v67h153v-496h-84v429zM45 636q-17 18-17 33 0 16 11 27t27 11q20 0 31-15l93-121h-70q-57 46-75 65z" glyph-name="igrave" horiz-adv-x="278" unicode="&#xec;"/><glyph d="M45 429v67h153v-496h-84v429h-69zM184 570h-70q2 2 23.5 30.5t43 56.5 29.5 36q10 13 28 13 16 0 26-10 12-10 12-28 0-15-13-28-14-16-79-70z" glyph-name="iacute" horiz-adv-x="278" unicode="&#xed;"/><glyph d="M45 429v67h153v-496h-84v429h-69zM81 575h-94l112 101q20 19 50 19 29 0 49-19l112-101h-94l-68 61z" glyph-name="icircumflex" horiz-adv-x="278" unicode="&#xee;"/><glyph d="M45 496h153v-496h-84v429h-69v67zM-21 638q0 22 16 37.5t38 15.5 38-15.5 16-37.5-15.5-38-38.5-16-38.5 16-15.5 38zM244 584q-22 0-37.5 16t-15.5 38 15.5 37.5 37.5 15.5 38-15.5 16-37.5-16-38-38-16z" glyph-name="idieresis" horiz-adv-x="278" unicode="&#xef;"/><glyph d="M38 218q0 100 61 163.5t155 63.5q122 0 176-93-9 131-74 195l-73-73-36 36 66 66q-49 26-138 26v77q121 0 196-45l46 46 36-36-40-40q51-46 77.5-127t26.5-174q0-64-12-117.5t-38.5-99.5-76-72-117.5-26q-104 0-169.5 67t-65.5 163zM273 371q-66 0-105.5-43.5t-39.5-112.5 39.5-112.5 105.5-43.5 106 43 40 113-40 113-106 43z" glyph-name="eth" horiz-adv-x="567" unicode="&#xf0;"/><glyph d="M154 0h-84v496h62l22-75q49 83 160 83 164 0 164-190v-314h-84v289q0 32-4 55t-14.5 44.5-33 32.5-57.5 11q-62 0-96.5-42t-34.5-121v-269zM107 577q18 104 106 104 30 0 67.5-21.5t56.5-21.5q25 0 39 23 11 19 29 19 12 0 21.5-9t9.5-22q0-21-27.5-47.5t-69.5-26.5q-29 0-68 21.5t-57 21.5q-37 0-42-41h-65z" glyph-name="ntilde" horiz-adv-x="546" unicode="&#xf1;"/><glyph d="M38 246q0 125 71.5 191.5t166.5 66.5q96 0 167-66.5t71-191.5-71-191.5-167-66.5q-95 0-166.5 66.5t-71.5 191.5zM276 430q-59 0-103.5-47.5t-44.5-136.5 44.5-136.5 103.5-47.5q60 0 104 47t44 137-44 137-104 47zM164 636q-17 18-17 33 0 16 11 27t27 11q20 0 31-15l93-121h-70q-57 46-75 65z" glyph-name="ograve" horiz-adv-x="552" unicode="&#xf2;"/><glyph d="M38 246q0 125 71.5 191.5t166.5 66.5q96 0 167-66.5t71-191.5-71-191.5-167-66.5q-95 0-166.5 66.5t-71.5 191.5zM128 246q0-89 44.5-136.5t103.5-47.5q60 0 104 47t44 137-44 137-104 47q-59 0-103.5-47.5t-44.5-136.5zM311 571h-70q2 2 23.5 30.5t43 56.5 29.5 36q10 13 28 13 16 0 26-10 12-11 12-28 0-15-13-28-14-16-79-70z" glyph-name="oacute" horiz-adv-x="552" unicode="&#xf3;"/><glyph d="M38 246q0 125 71.5 191.5t166.5 66.5q96 0 167-66.5t71-191.5-71-191.5-167-66.5q-95 0-166.5 66.5t-71.5 191.5zM276 430q-59 0-103.5-47.5t-44.5-136.5 44.5-136.5 103.5-47.5q60 0 104 47t44 137-44 137-104 47zM115 575l112 101q20 19 50 19 29 0 49-19l112-101h-94l-68 61-67-61h-94z" glyph-name="ocircumflex" horiz-adv-x="552" unicode="&#xf4;"/><glyph d="M276-12q-95 0-166.5 66.5t-71.5 191.5 71.5 191.5 166.5 66.5q96 0 167-66.5t71-191.5-71-191.5-167-66.5zM128 246q0-89 44.5-136.5t103.5-47.5q60 0 104 47t44 137-44 137-104 47q-59 0-103.5-47.5t-44.5-136.5zM172 577h-65q18 104 106 104 30 0 67.5-21.5t56.5-21.5q25 0 39 23 11 19 29 19 12 0 21.5-9t9.5-22q0-21-27.5-47.5t-69.5-26.5q-29 0-68 21.5t-57 21.5q-37 0-42-41z" glyph-name="otilde" horiz-adv-x="552" unicode="&#xf5;"/><glyph d="M38 246q0 125 71.5 191.5t166.5 66.5q96 0 167-66.5t71-191.5-71-191.5-167-66.5q-95 0-166.5 66.5t-71.5 191.5zM128 246q0-89 44.5-136.5t103.5-47.5q60 0 104 47t44 137-44 137-104 47q-59 0-103.5-47.5t-44.5-136.5zM117 644q0 22 16 37.5t38 15.5 38-15.5 16-37.5-15.5-38-38.5-16-38.5 16-15.5 38zM329 644q0 22 15.5 37.5t37.5 15.5 38-15.5 16-37.5-16-38-38-16-37.5 16-15.5 38z" glyph-name="odieresis" horiz-adv-x="552" unicode="&#xf6;"/><glyph d="M53 289h496v-81h-496v81zM301 354q-27 0-46 18.5t-19 45.5 19 46 46 19 45.5-19 18.5-46-18.5-45.5-45.5-18.5zM301 14q-27 0-46 19t-19 46q0 26 19 45t46 19 45.5-19 18.5-45q0-27-18.5-46t-45.5-19z" glyph-name="divide" horiz-adv-x="602" unicode="&#xf7;"/><glyph d="M38 246q0 125 71 191.5t167 66.5q80 0 140-44l41 47 38-33-41-49q60-68 60-179 0-125-71-191.5t-167-66.5q-89 0-151 52l-42-49-38 33 44 53q-51 67-51 169zM178 103q41-41 98-41 60 0 104 47t44 137q0 67-27 113zM127 246q0-58 21-100l216 252q-38 32-88 32-60 0-104.5-47t-44.5-137z" glyph-name="oslash" horiz-adv-x="552" unicode="&#xf8;"/><glyph d="M68 180v317h84v-292q0-68 21-105.5t83-37.5q60 0 93 41.5t33 120.5v273h84v-497h-63l-21 72q-49-84-155-84-159 0-159 192zM144 669q0 16 11 27t27 11q20 0 31-15l93-121h-70q-57 46-75 65-17 18-17 33z" glyph-name="ugrave" horiz-adv-x="536" unicode="&#xf9;"/><glyph d="M227-12q-159 0-159 192v317h84v-292q0-68 21-105.5t83-37.5q60 0 93 41.5t33 120.5v273h84v-497h-63l-21 72q-49-84-155-84zM236 571q2 2 23.5 30.5t43 56.5 29.5 36q10 13 28 13 16 0 26-10 12-11 12-28 0-15-13-28-14-16-79-70h-70z" glyph-name="uacute" horiz-adv-x="536" unicode="&#xfa;"/><glyph d="M68 180v317h84v-292q0-68 21-105.5t83-37.5q60 0 93 41.5t33 120.5v273h84v-497h-63l-21 72q-49-84-155-84-159 0-159 192zM200 575h-94l112 101q20 19 50 19 29 0 49-19l112-101h-94l-68 61z" glyph-name="ucircumflex" horiz-adv-x="536" unicode="&#xfb;"/><glyph d="M68 180v317h84v-292q0-68 21-105.5t83-37.5q60 0 93 41.5t33 120.5v273h84v-497h-63l-21 72q-49-84-155-84-159 0-159 192zM162 590q-22 0-38 16t-16 38 16 37.5 38 15.5 38-15.5 16-37.5-16-38-38-16zM320 644q0 22 15.5 37.5t37.5 15.5 38-15.5 16-37.5-15.5-38-38.5-16q-22 0-37.5 16t-15.5 38z" glyph-name="udieresis" horiz-adv-x="536" unicode="&#xfc;"/><glyph d="M179-1l-179 496h93l122-382 122 382h92l-176-517q-28-84-60.5-111.5t-112.5-27.5h-43v74h34q54 0 72.5 14.5t35.5 71.5zM249 571h-70q2 2 23.5 30.5t43 56.5 29.5 36q10 13 28 13 16 0 26-10 12-11 12-28 0-15-13-28-14-16-79-70z" glyph-name="yacute" horiz-adv-x="429" unicode="&#xfd;"/><glyph d="M70 669h84v-251q50 87 161 87 89 0 151-70t62-189q0-118-62-188t-151-70q-111 0-161 87v-236h-84v830zM293 433q-64 0-102.5-49.5t-38.5-137.5q0-87 38.5-136.5t102.5-49.5q65 0 103 49.5t38 136.5q0 88-38.5 137.5t-102.5 49.5z" glyph-name="thorn" horiz-adv-x="566" unicode="&#xfe;"/><glyph d="M179-1l-179 496h93l122-382 122 382h92l-176-517q-28-84-60.5-111.5t-112.5-27.5h-43v74h34q54 0 72.5 14.5t35.5 71.5zM109 590q-23 0-38.5 16t-15.5 38 16 37.5 38 15.5 38-15.5 16-37.5-15.5-38-38.5-16zM320 590q-22 0-37.5 16t-15.5 38 15.5 37.5 37.5 15.5 38-15.5 16-37.5-16-38-38-16z" glyph-name="ydieresis" horiz-adv-x="429" unicode="&#xff;"/><glyph d="M10 0l251 669h105l250-669h-100l-51 146h-304l-51-146h-100zM190 227h246l-123 347zM451 762h-276v67h276v-67z" glyph-name="Amacron" horiz-adv-x="626" unicode="&#x100;"/><glyph d="M38 131q0 43 22.5 73.5t70 50 103 31 139.5 20.5q5 131-112 131-92 0-110-77l-81 24q20 56 71 88t119 32q102 0 149-48t48-153l1-116q1-105 17-187h-77l-20 68q-48-80-169-80-73 0-122 38.5t-49 104.5zM131 133q0-36 25.5-57t70.5-21q66 0 109.5 36t43.5 117v31q-84-9-134-19.5t-82.5-32-32.5-54.5zM127 668h276v-67h-276v67z" glyph-name="amacron" horiz-adv-x="526" unicode="&#x101;"/><glyph d="M10 0l251 669h105l250-669h-100l-51 146h-304l-51-146h-100zM190 227h246l-123 347zM392 855h69q-11-51-52-85.5t-95-34.5-95 34-52 86h69q9-24 30-38.5t48-14.5q26 0 47 14.5t31 38.5z" glyph-name="Abreve" horiz-adv-x="626" unicode="&#x102;"/><glyph d="M398 0l-20 68q-48-80-169-80-73 0-122 38.5t-49 104.5q0 43 22.5 73.5t70 50 103 31 139.5 20.5q5 131-112 131-92 0-110-77l-81 24q20 56 71 88t119 32q102 0 149-48t48-153l1-116q1-105 17-187h-77zM380 239q-84-9-134-19.5t-82.5-32-32.5-54.5q0-36 25.5-57t70.5-21q66 0 109.5 36t43.5 117v31zM339 689h69q-11-51-52-85.5t-95-34.5-95 34-52 86h69q9-24 30-38.5t48-14.5q26 0 47 14.5t31 38.5z" glyph-name="abreve" horiz-adv-x="526" unicode="&#x103;"/><glyph d="M110 0h-100l251 669h105l250-669q-45-16-66-33t-21-41q0-41 49-41 21 0 38 8v-54q-34-12-63-12-43 0-68.5 24t-25.5 58q0 60 57 91l-51 146h-304zM313 574l-123-347h246z" glyph-name="Aogonek" horiz-adv-x="626" unicode="&#x104;"/><glyph d="M38 131q0 43 22.5 73.5t70 50 103 31 139.5 20.5q5 131-112 131-92 0-110-77l-81 24q20 56 71 88t119 32q102 0 149-48t48-153l1-116q1-105 17-187-87-32-87-75 0-40 49-40 21 0 38 8v-54q-35-12-63-12-43 0-68.5 24t-25.5 58q0 31 22 56.5t58 34.5l-20 68q-48-80-169-80-73 0-122 38.5t-49 104.5zM131 133q0-36 25.5-57t70.5-21q66 0 109.5 36t43.5 117v31q-84-9-134-19.5t-82.5-32-32.5-54.5z" glyph-name="aogonek" horiz-adv-x="526" unicode="&#x105;"/><glyph d="M50 335q0 156 85 250.5t226 94.5q85 0 152-39.5t101-111.5l-82-30q-51 102-176 102-92 0-151-70t-59-196q0-124 59-196t154-72q125 0 177 102l82-30q-35-73-105-112t-160-39q-141 0-222 96t-81 251zM317 744q1 1 26 27t49 50.5 32 30.5q14 12 29 12t25.5-10.5 10.5-25.5q0-19-16-32-8-7-26-18.5t-35.5-22.5-18.5-11h-76z" glyph-name="Cacute" horiz-adv-x="656" unicode="&#x106;"/><glyph d="M38 246q0 113 65.5 185.5t174.5 72.5q63 0 112-31.5t75-80.5l-77-28q-17 30-47.5 48t-68.5 18q-61 0-102-47t-41-136 41.5-137 101.5-48q79 0 118 65l77-28q-29-50-81.5-80.5t-116.5-30.5q-105 0-168 72t-63 186zM234 571q2 2 23.5 30.5t43 56.5 29.5 36q10 13 28 13 16 0 26-10 12-11 12-28 0-15-13-28-14-16-79-70h-70z" glyph-name="cacute" horiz-adv-x="500" unicode="&#x107;"/><glyph d="M50 335q0 156 85 250.5t226 94.5q85 0 152-39.5t101-111.5l-82-30q-51 102-176 102-92 0-151-70t-59-196q0-124 59-196t154-72q125 0 177 102l82-30q-35-73-105-112t-160-39q-141 0-222 96t-81 251zM361 742q-23 0-38.5 16t-15.5 38 15.5 38 38.5 16 38.5-16 15.5-38-15.5-38-38.5-16z" glyph-name="Cdotaccent" horiz-adv-x="656" unicode="&#x10a;"/><glyph d="M38 246q0 113 65.5 185.5t174.5 72.5q63 0 112-31.5t75-80.5l-77-28q-17 30-47.5 48t-68.5 18q-61 0-102-47t-41-136 41.5-137 101.5-48q79 0 118 65l77-28q-29-50-81.5-80.5t-116.5-30.5q-105 0-168 72t-63 186zM277 590q-23 0-38.5 16t-15.5 38 15.5 38 38.5 16 38.5-16 15.5-38-15.5-38-38.5-16z" glyph-name="cdotaccent" horiz-adv-x="500" unicode="&#x10b;"/><glyph d="M353-12q-141 0-222 96t-81 251q0 156 85 250.5t226 94.5q85 0 152-39.5t101-111.5l-82-30q-51 102-176 102-92 0-151-70t-59-196q0-124 59-196t154-72q125 0 177 102l82-30q-35-73-105-112t-160-39zM198 861h94l67-61 68 61h94l-112-101q-20-19-49-19-30 0-50 19z" glyph-name="Ccaron" horiz-adv-x="656" unicode="&#x10c;"/><glyph d="M38 246q0 113 65.5 185.5t174.5 72.5q63 0 112-31.5t75-80.5l-77-28q-17 30-47.5 48t-68.5 18q-61 0-102-47t-41-136 41.5-137 101.5-48q79 0 118 65l77-28q-29-50-81.5-80.5t-116.5-30.5q-105 0-168 72t-63 186zM227 588l-112 101h94l67-61 68 61h94l-112-101q-20-19-49-19-30 0-50 19z" glyph-name="ccaron" horiz-adv-x="500" unicode="&#x10d;"/><glyph d="M258 0h-182v668h182q83 0 147-16.5t114.5-54 77-103.5 26.5-159-26.5-159.5-77-104-114.5-54.5-147-17zM170 79h86q47 0 82 4.5t72.5 20 61.5 42.5 39.5 75 15.5 114q0 65-15.5 113t-39.5 74.5-61.5 42-72.5 20-82 4.5h-86v-510zM277 760l-112 101h94l67-61 68 61h94l-112-101q-20-19-49-19-30 0-50 19z" glyph-name="Dcaron" horiz-adv-x="673" unicode="&#x10e;"/><glyph d="M434 0l-22 75q-49-87-161-87-89 0-151 70t-62 188 62 188 151 70q111 0 161-86v250h84v-481q0-100 17-187h-79zM273 60q65 0 103 49.5t38 136.5-38 136.5-103 49.5-103-49.5-38-136.5 38-136.5 103-49.5zM586 496h-49q21 136 26 154 2 10 11.5 19.5t24.5 9.5q19 0 30.5-14t6.5-35z" glyph-name="dcaron" horiz-adv-x="597" unicode="&#x10f;"/><glyph d="M40 383h95v285h182q83 0 147-16.5t114.5-54 77-103.5 26.5-159-26.5-159.5-77-104-114.5-54.5-147-17h-182v303h-95v80zM229 383h140v-80h-140v-224h86q47 0 82 4.5t72.5 20 61.5 42.5 39.5 75 15.5 114q0 65-15.5 113t-39.5 74.5-61.5 42-72.5 20-82 4.5h-86v-206z" glyph-name="Dcroat" horiz-adv-x="732" unicode="&#x110;"/><glyph d="M38 246q0 118 62 188t151 70q111 0 161-86v130h-163v67h163v53h84v-53h82v-67h-82v-361q0-100 17-187h-79l-22 75q-49-87-161-87-89 0-151 70t-62 188zM132 246q0-87 38-136.5t103-49.5 103 49.5 38 136.5-38 136.5-103 49.5-103-49.5-38-136.5z" glyph-name="dcroat" horiz-adv-x="603" unicode="&#x111;"/><glyph d="M76 0v668h453v-81h-359v-203h265v-81h-265v-222h359v-81h-453zM441 762h-276v67h276v-67z" glyph-name="Emacron" horiz-adv-x="567" unicode="&#x112;"/><glyph d="M281-12q-114 0-178.5 73t-64.5 186q0 116 68.5 186.5t172.5 70.5q113 0 176-83t55-196h-382q3-85 50-124t103-39q78 0 116 49l81-24q-28-45-79-72t-118-27zM129 292h292q-1 56-40 98t-102 42q-61 0-102.5-34.5t-47.5-105.5zM141 668h276v-67h-276v67z" glyph-name="emacron" unicode="&#x113;"/><glyph d="M76 668h453v-81h-359v-203h265v-81h-265v-222h359v-81h-453v668zM249 816q0 22 15.5 38t38.5 16 38.5-16 15.5-38-15.5-38-38.5-16-38.5 16-15.5 38z" glyph-name="Edotaccent" horiz-adv-x="567" unicode="&#x116;"/><glyph d="M281-12q-114 0-178.5 73t-64.5 186q0 116 68.5 186.5t172.5 70.5q113 0 176-83t55-196h-382q3-85 50-124t103-39q78 0 116 49l81-24q-28-45-79-72t-118-27zM279 432q-61 0-102.5-34.5t-47.5-105.5h292q-1 56-40 98t-102 42zM279 590q-23 0-38.5 16t-15.5 38 15.5 38 38.5 16 38.5-16 15.5-38-15.5-38-38.5-16z" glyph-name="edotaccent" unicode="&#x117;"/><glyph d="M409 0h-333v668h453v-81h-359v-203h265v-81h-265v-222h359v-81h-20q-45-16-66-33t-21-41q0-41 49-41 21 0 38 8v-54q-35-12-63-12-43 0-68.5 24t-25.5 58q0 60 57 91z" glyph-name="Eogonek" horiz-adv-x="567" unicode="&#x118;"/><glyph d="M38 247q0 116 68.5 186.5t172.5 70.5q113 0 176-83t55-196h-382q3-85 50-124t103-39q78 0 116 49l81-24q-31-49-87-76-67-39-67-81 0-45 49-45 21 0 38 8v-54q-35-12-63-12-44 0-69 25t-25 63q0 41 30 73-114-1-180 71.5t-66 187.5zM279 432q-61 0-102.5-34.5t-47.5-105.5h292q-1 56-40 98t-102 42z" glyph-name="eogonek" unicode="&#x119;"/><glyph d="M76 668h453v-81h-359v-203h265v-81h-265v-222h359v-81h-453v668zM253 760l-112 101h94l67-61 68 61h94l-112-101q-20-19-49-19-30 0-50 19z" glyph-name="Ecaron" horiz-adv-x="567" unicode="&#x11a;"/><glyph d="M38 247q0 116 68.5 186.5t172.5 70.5q113 0 176-83t55-196h-382q3-85 50-124t103-39q78 0 116 49l81-24q-28-45-79-72t-118-27q-114 0-178.5 73t-64.5 186zM279 432q-61 0-102.5-34.5t-47.5-105.5h292q-1 56-40 98t-102 42zM118 689h94l67-61 68 61h94l-112-101q-20-19-49-19-30 0-50 19z" glyph-name="ecaron" unicode="&#x11b;"/><glyph d="M358 264v81h284v-345h-54l-25 84q-61-96-211-96-141 0-221.5 96t-80.5 251q0 156 85 250.5t226 94.5q85 0 152-39.5t102-111.5l-83-30q-51 102-176 102-92 0-151-70t-59-196q0-124 58-196t152-72q36 0 68.5 8.5t62.5 27 48 54.5 18 85v22h-195zM439 861h69q-11-51-52-85.5t-95-34.5-95 34-52 86h69q9-24 30-38.5t48-14.5q26 0 47 14.5t31 38.5z" glyph-name="Gbreve" horiz-adv-x="710" unicode="&#x11e;"/><glyph d="M81-76l84 23q23-65 109-65 32 0 56 8 45 15 60.5 45t15.5 93v66q-51-85-158-85-87 0-148.5 66.5t-61.5 180.5 61.5 181 148.5 67q107 0 158-86l23 78h61v-449q0-45-3-72t-14-59-37-54.5-67-37.5q-45-16-95-16-67 0-121 29t-72 87zM269 79q61 0 100.5 44t39.5 133-39.5 132.5-100.5 43.5q-63 0-101.5-46.5t-38.5-129.5 38.5-130 101.5-47zM347 689h69q-11-51-52-85.5t-95-34.5-95 34-52 86h69q9-24 30-38.5t48-14.5q26 0 47 14.5t31 38.5z" glyph-name="gbreve" horiz-adv-x="560" unicode="&#x11f;"/><glyph d="M50 335q0 156 85 250.5t226 94.5q85 0 152-39.5t102-111.5l-83-30q-51 102-176 102-92 0-151-70t-59-196q0-124 58-196t152-72q36 0 68.5 8.5t62.5 27 48 54.5 18 85v22h-195v81h284v-345h-54l-25 84q-61-96-211-96-141 0-221.5 96t-80.5 251zM357 762q-23 0-38.5 16t-15.5 38 15.5 38 38.5 16 38.5-16 15.5-38-15.5-38-38.5-16z" glyph-name="Gdotaccent" horiz-adv-x="710" unicode="&#x120;"/><glyph d="M248 9q-87 0-148.5 66.5t-61.5 180.5 61.5 181 148.5 67q107 0 158-86l23 78h61v-449q0-45-3-72t-14-59-37-54.5-67-37.5q-45-16-95-16-67 0-121 29t-72 87l84 23q23-65 109-65 32 0 56 8 45 15 60.5 45t15.5 93v66q-51-85-158-85zM269 432q-63 0-101.5-46.5t-38.5-129.5 38.5-130 101.5-47q61 0 100.5 44t39.5 133-39.5 132.5-100.5 43.5zM220 645q0 23 16 38.5t38 15.5 38-15.5 16-38.5-16-38.5-38-15.5-38 15.5-16 38.5z" glyph-name="gdotaccent" horiz-adv-x="560" unicode="&#x121;"/><glyph d="M358 264v81h284v-345h-54l-25 84q-61-96-211-96-141 0-221.5 96t-80.5 251q0 156 85 250.5t226 94.5q85 0 152-39.5t102-111.5l-83-30q-51 102-176 102-92 0-151-70t-59-196q0-124 58-196t152-72q36 0 68.5 8.5t62.5 27 48 54.5 18 85v22h-195zM301-250l-40 34q94 0 94 69 0 47-50 65l60 26q56-29 56-87 0-47-33.5-77t-86.5-30z" glyph-name="uni0122" horiz-adv-x="710" unicode="&#x122;"/><glyph d="M81-76l84 23q23-65 109-65 32 0 56 8 45 15 60.5 45t15.5 93v66q-51-85-158-85-87 0-148.5 66.5t-61.5 180.5 61.5 181 148.5 67q107 0 158-86l23 78h61v-449q0-45-3-72t-14-59-37-54.5-67-37.5q-45-16-95-16-67 0-121 29t-72 87zM269 79q61 0 100.5 44t39.5 133-39.5 132.5-100.5 43.5q-63 0-101.5-46.5t-38.5-129.5 38.5-130 101.5-47zM311 773l40-34q-94 0-94-69 0-47 50-65l-60-26q-56 29-56 87 0 47 33.5 77t86.5 30z" glyph-name="uni0123" horiz-adv-x="560" unicode="&#x123;"/><glyph d="M624 583h76v-79h-76v-504h-94v303h-350v-303h-94v504h-76v79h76v85h94v-85h350v85h94v-85zM530 504h-350v-120h350v120z" glyph-name="Hbar" horiz-adv-x="710" unicode="&#x126;"/><glyph d="M189 615h160v-67h-160v-127q49 83 160 83 164 0 164-190v-314h-84v289q0 32-4 55t-14.5 44.5-33 32.5-57.5 11q-62 0-96.5-42t-34.5-121v-269h-84v548h-85v67h85v53h84v-53z" glyph-name="hbar" horiz-adv-x="581" unicode="&#x127;"/><glyph d="M66 74h94v520h-94v74h282v-74h-94v-520h94v-74h-282v74zM69 762v67h276v-67h-276z" glyph-name="Imacron" horiz-adv-x="414" unicode="&#x12a;"/><glyph d="M114 0v429h-69v67h153v-496h-84zM14 601v67h276v-67h-276z" glyph-name="imacron" horiz-adv-x="278" unicode="&#x12b;"/><glyph d="M168 0h-102v74h94v520h-94v74h282v-74h-94v-520h94v-74h-80q-45-16-66-33t-21-41q0-41 49-41 21 0 38 8v-54q-34-12-63-12-43 0-68.5 24t-25.5 58q0 60 57 91z" glyph-name="Iogonek" horiz-adv-x="414" unicode="&#x12e;"/><glyph d="M129-173q-43 0-68.5 24t-25.5 58q0 31 22 56.5t58 34.5h-1v429h-69v67h153v-496h-6q-87-32-87-75 0-40 49-40 21 0 38 8v-54q-34-12-63-12zM94 653q0 25 18 43.5t44 18.5 44.5-18 18.5-44-18.5-44.5-44.5-18.5-44 18.5-18 44.5z" glyph-name="iogonek" horiz-adv-x="278" unicode="&#x12f;"/><glyph d="M114 0v429h-69v67h153v-496h-84z" glyph-name="dotlessi" horiz-adv-x="278" unicode="&#x131;"/><glyph d="M76 0v668h94v-336l301 336h117l-255-279 284-389h-115l-232 320-100-110v-210h-94zM249-250l-40 34q94 0 94 69 0 47-50 65l60 26q56-29 56-87 0-47-33.5-77t-86.5-30z" glyph-name="uni0136" horiz-adv-x="627" unicode="&#x136;"/><glyph d="M70 0v668h84v-395l200 223h101l-187-205 212-291h-103l-165 229-58-63v-166h-84zM186-250l-40 34q94 0 94 69 0 47-50 65l60 26q56-29 56-87 0-47-33.5-77t-86.5-30z" glyph-name="uni0137" horiz-adv-x="490" unicode="&#x137;"/><glyph d="M76 0v668h94v-587h359v-81h-453zM239-251l-40 34q94 0 94 69 0 47-50 65l60 26q56-29 56-87 0-47-33.5-77t-86.5-30z" glyph-name="uni013B" unicode="&#x13b;"/><glyph d="M224 0h-37q-72 0-94.5 23.5t-22.5 100.5v543h84v-529q0-40 8.5-52t42.5-12h19v-74zM76-250l-40 34q94 0 94 69 0 47-50 65l60 26q56-29 56-87 0-47-33.5-77t-86.5-30z" glyph-name="uni013C" horiz-adv-x="239" unicode="&#x13c;"/><glyph d="M76 0v668h94v-587h359v-81h-453zM278 496h-49q21 136 26 154 2 10 11.5 19.5t24.5 9.5q19 0 30.5-14t6.5-35z" glyph-name="Lcaron" unicode="&#x13d;"/><glyph d="M224 0h-37q-72 0-94.5 23.5t-22.5 100.5v543h84v-529q0-40 8.5-52t42.5-12h19v-74zM245 496h-49q21 136 26 154 2 10 11 19.5t25 9.5q19 0 30.5-14t6.5-35z" glyph-name="lcaron" horiz-adv-x="257" unicode="&#x13e;"/><glyph d="M20 216v71l90 53v329h94v-272l180 108v-71l-180-108v-245h359v-81h-453v270z" glyph-name="Lslash" horiz-adv-x="573" unicode="&#x141;"/><glyph d="M15 242v70l53 32v324h84v-274l70 42v-71l-70-42v-184q0-41 8.5-53t43.5-12h18v-74h-36q-72 0-95 24t-23 100v149z" glyph-name="lslash" horiz-adv-x="237" unicode="&#x142;"/><glyph d="M76 0v668h139l304-568v568h94v-668h-138l-305 571v-571h-94zM395 745h-76q1 1 26 27t49 50.5 32 30.5q14 12 29 12t25.5-10.5 10.5-25.5q0-19-16-32-8-7-26-18.5t-35.5-22.5-18.5-11z" glyph-name="Nacute" horiz-adv-x="689" unicode="&#x143;"/><glyph d="M70 496h62l22-75q49 83 160 83 164 0 164-190v-314h-84v289q0 32-4 55t-14.5 44.5-33 32.5-57.5 11q-62 0-96.5-42t-34.5-121v-269h-84v496zM315 571h-70q2 2 23.5 30.5t43 56.5 29.5 36q10 13 28 13 16 0 26-10 12-11 12-28 0-15-13-28-14-16-79-70z" glyph-name="nacute" horiz-adv-x="546" unicode="&#x144;"/><glyph d="M76 0v668h139l304-568v568h94v-668h-138l-305 571v-571h-94zM299-250l-40 34q94 0 94 69 0 47-50 65l60 26q56-29 56-87 0-47-33.5-77t-86.5-30z" glyph-name="uni0145" horiz-adv-x="689" unicode="&#x145;"/><glyph d="M70 0v496h62l22-75q49 83 160 83 164 0 164-190v-314h-84v289q0 32-4 55t-14.5 44.5-33 32.5-57.5 11q-62 0-96.5-42t-34.5-121v-269h-84zM227-250l-40 34q94 0 94 69 0 47-50 65l60 26q56-29 56-87 0-47-33.5-77t-86.5-30z" glyph-name="uni0146" horiz-adv-x="546" unicode="&#x146;"/><glyph d="M76 0v668h139l304-568v568h94v-668h-138l-305 571v-571h-94zM295 760l-112 101h94l67-61 68 61h94l-112-101q-20-19-49-19-30 0-50 19z" glyph-name="Ncaron" horiz-adv-x="689" unicode="&#x147;"/><glyph d="M154 0h-84v496h62l22-75q49 83 160 83 164 0 164-190v-314h-84v289q0 32-4 55t-14.5 44.5-33 32.5-57.5 11q-62 0-96.5-42t-34.5-121v-269zM111 689h94l67-61 68 61h94l-112-101q-20-19-49-19-30 0-50 19z" glyph-name="ncaron" horiz-adv-x="546" unicode="&#x148;"/><glyph d="M50 335q0 153 85.5 249t227.5 96q143 0 228.5-96t85.5-249q0-154-85.5-250.5t-228.5-96.5q-142 0-227.5 97t-85.5 250zM146 335q0-126 61.5-197t155.5-71q95 0 156.5 71t61.5 197q0 125-61.5 195.5t-156.5 70.5q-94 0-155.5-70.5t-61.5-195.5zM333 744h-70l16 22 80 101q10 13 28 13 16 0 27-11t11-27q0-17-11-27zM479 744h-70l16 22 80 101q10 13 28 13 15 0 26.5-11.5t11.5-26.5q0-17-11-27z" glyph-name="Ohungarumlaut" horiz-adv-x="727" unicode="&#x150;"/><glyph d="M38 246q0 125 71.5 191.5t166.5 66.5q96 0 167-66.5t71-191.5-71-191.5-167-66.5q-95 0-166.5 66.5t-71.5 191.5zM128 246q0-89 44.5-136.5t103.5-47.5q60 0 104 47t44 137-44 137-104 47q-59 0-103.5-47.5t-44.5-136.5zM230 572h-70l16 22 80 101q10 13 28 13 16 0 27-11t11-27q0-17-11-27zM376 572h-70l16 22 80 101q10 13 28 13 15 0 26.5-11.5t11.5-26.5q0-17-11-27z" glyph-name="ohungarumlaut" horiz-adv-x="552" unicode="&#x151;"/><glyph d="M363-12q-142 0-227.5 97t-85.5 250q0 154 85 249.5t228 95.5q132 0 218-83v72h433v-81h-359v-203h265v-81h-265v-223h359v-81h-433v75q-85-87-218-87zM363 602q-94 0-155.5-70.5t-61.5-196.5q0-125 61.5-195.5t155.5-70.5 156 69.5 62 195.5q0 132-63.5 200t-154.5 68z" glyph-name="OE" horiz-adv-x="1052" unicode="&#x152;"/><glyph d="M38 246q0 126 71 192.5t167 66.5q57 0 109.5-25.5t85.5-75.5q32 48 83 74.5t112 26.5q114 0 177-83.5t55-196.5h-382q3-85 50-124t103-39q77 0 116 49l81-24q-64-99-197-99t-199 100q-33-49-85-74.5t-109-25.5q-96 0-167 66.5t-71 191.5zM276 431q-60 0-104.5-47.5t-44.5-137.5 44.5-137 104.5-47 104 47 44 137-44 137.5-104 47.5zM666 433q-60 0-102-35t-47-106h292q-2 57-40.5 99t-102.5 42z" glyph-name="oe" horiz-adv-x="927" unicode="&#x153;"/><glyph d="M170 0h-94v668h212q66 0 113-8t86.5-28 59-59 19.5-97q0-78-39-125.5t-146-62.5l207-288h-115l-203 281h-100v-281zM295 589h-125v-229h125q33 0 56 2t47.5 8.5 38.5 18.5 23.5 33.5 9.5 51.5-9 51.5-23.5 33.5-39 19-47.5 9-56 2zM263 744q1 1 26 27t49 50.5 32 30.5q14 12 29 12t25.5-10.5 10.5-25.5q0-19-16-32-8-7-26-18.5t-35.5-22.5-18.5-11h-76z" glyph-name="Racute" horiz-adv-x="618" unicode="&#x154;"/><glyph d="M70 496h61l27-92q58 100 177 100v-87q-99 0-140-50.5t-41-153.5v-213h-84v496zM141 571q2 2 23.5 30.5t43 56.5 29.5 36q10 13 28 13 16 0 26-10 12-11 12-28 0-15-13-28-14-16-79-70h-70z" glyph-name="racute" horiz-adv-x="340" unicode="&#x155;"/><glyph d="M76 0v668h212q66 0 113-8t86.5-28 59-59 19.5-97q0-78-39-125.5t-146-62.5l207-288h-115l-203 281h-100v-281h-94zM170 589v-229h125q33 0 56 2t47.5 8.5 38.5 18.5 23.5 33.5 9.5 51.5-9 51.5-23.5 33.5-39 19-47.5 9-56 2h-125zM148 861h94l67-61 68 61h94l-112-101q-20-19-49-19-30 0-50 19z" glyph-name="Rcaron" horiz-adv-x="618" unicode="&#x158;"/><glyph d="M154 0h-84v496h61l27-92q58 100 177 100v-87q-99 0-140-50.5t-41-153.5v-213zM158 588l-112 101h94l67-61 68 61h94l-112-101q-20-19-49-19-30 0-50 19z" glyph-name="rcaron" horiz-adv-x="340" unicode="&#x159;"/><glyph d="M40 146l87 26q16-51 65-78t108-27q65 0 111 31t46 88q0 45-38 71t-133 45q-30 6-46.5 10t-45.5 13-46.5 18-39 24.5-33.5 33.5-20.5 43.5-8.5 56.5q0 81 73.5 130t171.5 49q75 0 138.5-31.5t93.5-93.5l-86-25q-19 34-60.5 52.5t-89.5 18.5q-59 0-101.5-27t-42.5-77q0-22 10-39t23-27 40-19.5 45-14 54-11.5q43-9 70.5-17t63.5-24 56.5-36 35.5-52.5 15-74.5q0-89-77.5-141.5t-182.5-52.5q-88 0-159.5 40.5t-96.5 117.5zM328 744h-76q1 1 26 27t49 50.5 32 30.5q13 12 29 12 15 0 25.5-10.5t10.5-25.5q0-19-16-32-8-7-26-18.5t-35.5-22.5-18.5-11z" glyph-name="Sacute" horiz-adv-x="596" unicode="&#x15a;"/><glyph d="M31 112l81 30q11-42 46.5-62.5t80.5-20.5q46 0 81.5 21t35.5 53q0 37-32.5 56.5t-78.5 28-92.5 20-79 43-32.5 86.5q0 63 57 100.5t134 37.5q62 0 113.5-26t72.5-75l-79-29q-12 29-43.5 44t-69.5 15q-41 0-70.5-17.5t-29.5-48.5q0-33 32.5-49.5t79-24 92.5-19.5 78.5-46.5 32.5-92.5q0-67-60-107.5t-142-40.5q-69 0-126.5 31.5t-81.5 92.5zM268 570h-70q2 2 23.5 30.5t43 56.5 29.5 36q10 13 28 13 16 0 26-10 12-10 12-28 0-15-13-28-14-16-79-70z" glyph-name="sacute" horiz-adv-x="471" unicode="&#x15b;"/><glyph d="M40 146l87 26q16-51 65-78t108-27q65 0 111 31t46 88q0 45-38 71t-133 45q-30 6-46.5 10t-45.5 13-46.5 18-39 24.5-33.5 33.5-20.5 43.5-8.5 56.5q0 81 73.5 130t171.5 49q75 0 138.5-31.5t93.5-93.5l-86-25q-19 34-60.5 52.5t-89.5 18.5q-59 0-101.5-27t-42.5-77q0-22 10-39t23-27 40-19.5 45-14 54-11.5q43-9 70.5-17t63.5-24 56.5-36 35.5-52.5 15-74.5q0-89-77.5-141.5t-182.5-52.5q-88 0-159.5 40.5t-96.5 117.5zM206-161l14 35q32-14 58-14 24 0 37.5 10.5t13.5 23.5q0 25-36 25-11 0-31-5-13-4-20.5 2.5t-7.5 16.5q0 5 3 10l51 82 34-21-30-49q22 4 30 4 33 0 51-17.5t18-43.5q0-31-25.5-55t-71.5-24q-39 0-88 20z" glyph-name="Scedilla" horiz-adv-x="596" unicode="&#x15e;"/><glyph d="M31 112l81 30q11-42 46.5-62.5t80.5-20.5q46 0 81.5 21t35.5 53q0 37-32.5 56.5t-78.5 28-92.5 20-79 43-32.5 86.5q0 63 57 100.5t134 37.5q62 0 113.5-26t72.5-75l-79-29q-12 29-43.5 44t-69.5 15q-41 0-70.5-17.5t-29.5-48.5q0-33 32.5-49.5t79-24 92.5-19.5 78.5-46.5 32.5-92.5q0-67-60-107.5t-142-40.5q-69 0-126.5 31.5t-81.5 92.5zM150-161l14 35q32-14 58-14 24 0 37.5 10.5t13.5 23.5q0 25-36 25-11 0-31-5-13-4-20.5 2.5t-7.5 16.5q0 5 3 10l51 82 34-21-30-49q22 4 30 4 33 0 51-17.5t18-43.5q0-31-25.5-55t-71.5-24q-39 0-88 20z" glyph-name="scedilla" horiz-adv-x="471" unicode="&#x15f;"/><glyph d="M40 146l87 26q16-51 65-78t108-27q65 0 111 31t46 88q0 45-38 71t-133 45q-30 6-46.5 10t-45.5 13-46.5 18-39 24.5-33.5 33.5-20.5 43.5-8.5 56.5q0 81 73.5 130t171.5 49q75 0 138.5-31.5t93.5-93.5l-86-25q-19 34-60.5 52.5t-89.5 18.5q-59 0-101.5-27t-42.5-77q0-22 10-39t23-27 40-19.5 45-14 54-11.5q43-9 70.5-17t63.5-24 56.5-36 35.5-52.5 15-74.5q0-89-77.5-141.5t-182.5-52.5q-88 0-159.5 40.5t-96.5 117.5zM137 861h94l67-61 68 61h94l-112-101q-20-19-49-19-30 0-50 19z" glyph-name="Scaron" horiz-adv-x="596" unicode="&#x160;"/><glyph d="M31 112l81 30q11-42 46.5-62.5t80.5-20.5q46 0 81.5 21t35.5 53q0 37-32.5 56.5t-78.5 28-92.5 20-79 43-32.5 86.5q0 63 57 100.5t134 37.5q62 0 113.5-26t72.5-75l-79-29q-12 29-43.5 44t-69.5 15q-41 0-70.5-17.5t-29.5-48.5q0-33 32.5-49.5t79-24 92.5-19.5 78.5-46.5 32.5-92.5q0-67-60-107.5t-142-40.5q-69 0-126.5 31.5t-81.5 92.5zM74 689h94l67-61 68 61h94l-112-101q-20-19-49-19-30 0-50 19z" glyph-name="scaron" horiz-adv-x="471" unicode="&#x161;"/><glyph d="M232 0v587h-222v81h538v-81h-222v-587h-94zM225-250l-40 34q94 0 94 69 0 47-50 65l60 26q56-29 56-87 0-47-33.5-77t-86.5-30z" glyph-name="uni0162" horiz-adv-x="558" unicode="&#x162;"/><glyph d="M284 0h-63q-72 0-94.5 23.5t-22.5 100.5v305h-84v67h84v125h84v-125h96v-67h-96v-291q0-40 8.5-52t42.5-12h45v-74zM108-250l-40 34q94 0 94 69 0 47-50 65l60 26q56-29 56-87 0-47-33.5-77t-86.5-30z" glyph-name="uni0163" horiz-adv-x="324" unicode="&#x163;"/><glyph d="M10 668h538v-81h-222v-587h-94v587h-222v81zM230 760l-112 101h94l67-61 68 61h94l-112-101q-20-19-49-19-30 0-50 19z" glyph-name="Tcaron" horiz-adv-x="558" unicode="&#x164;"/><glyph d="M284 0h-63q-72 0-94.5 23.5t-22.5 100.5v305h-84v67h84v125h84v-125h96v-67h-96v-291q0-40 8.5-52t42.5-12h45v-74zM284 545h-49q21 136 26 154 2 10 11.5 19.5t24.5 9.5q19 0 30.5-14t6.5-35z" glyph-name="tcaron" horiz-adv-x="324" unicode="&#x165;"/><glyph d="M76 279v389h94v-396q0-102 41-152.5t134-50.5 134 50.5 41 152.5v396h94v-389q0-149-63-220t-206-71-206 71-63 220zM483 762h-276v67h276v-67z" glyph-name="Umacron" horiz-adv-x="690" unicode="&#x16a;"/><glyph d="M68 180v317h84v-292q0-68 21-105.5t83-37.5q60 0 93 41.5t33 120.5v273h84v-497h-63l-21 72q-49-84-155-84-159 0-159 192zM405 601h-276v67h276v-67z" glyph-name="umacron" horiz-adv-x="536" unicode="&#x16b;"/><glyph d="M345-12q-143 0-206 71t-63 220v389h94v-396q0-102 41-152.5t134-50.5 134 50.5 41 152.5v396h94v-389q0-149-63-220t-206-71zM236 777q0 45 32.5 77t78.5 32q45 0 76-32t31-77-31-77-76-32q-46 0-78.5 32t-32.5 77zM293 777q0-21 15-36t37-15 37 15 15 36-15 36-37 15-37-15-15-36z" glyph-name="Uring" horiz-adv-x="690" unicode="&#x16e;"/><glyph d="M68 497h84v-292q0-68 21-105.5t83-37.5q60 0 93 41.5t33 120.5v273h84v-497h-63l-21 72q-49-84-155-84-159 0-159 192v317zM269 559q-46 0-78.5 32t-32.5 77 32.5 77 78.5 32q45 0 76-32t31-77-31-77-76-32zM267 719q-22 0-37-15t-15-36 15-36 37-15 37 15 15 36-15 36-37 15z" glyph-name="uring" horiz-adv-x="536" unicode="&#x16f;"/><glyph d="M76 668h94v-396q0-102 41-152.5t134-50.5 134 50.5 41 152.5v396h94v-389q0-149-63-220t-206-71-206 71-63 220v389zM310 744h-70l16 22 80 101q10 13 28 13 16 0 27-11t11-27q0-17-11-27zM456 744h-70l16 22 80 101q10 13 28 13 15 0 26.5-11.5t11.5-26.5q0-17-11-27z" glyph-name="Uhungarumlaut" horiz-adv-x="690" unicode="&#x170;"/><glyph d="M68 497h84v-292q0-68 21-105.5t83-37.5q60 0 93 41.5t33 120.5v273h84v-497h-63l-21 72q-49-84-155-84-159 0-159 192v317zM224 572h-70l16 22 80 101q10 13 28 13 16 0 27-11t11-27q0-17-11-27zM370 572h-70l16 22 80 101q10 13 28 13 15 0 26.5-11.5t11.5-26.5q0-17-11-27z" glyph-name="uhungarumlaut" horiz-adv-x="536" unicode="&#x171;"/><glyph d="M76 279v389h94v-396q0-102 41-152.5t134-50.5 134 50.5 41 152.5v396h94v-389q0-134-50.5-205t-163.5-83q-63-26-63-65 0-41 49-41 21 0 38 8v-54q-34-12-63-12-43 0-68.5 24t-25.5 58q0 50 40 80-122 9-176.5 80t-54.5 210z" glyph-name="Uogonek" horiz-adv-x="690" unicode="&#x172;"/><glyph d="M68 497h84v-292q0-68 21-105.5t83-37.5q60 0 93 41.5t33 120.5v273h84v-497q-87-32-87-75 0-40 49-40 21 0 38 8v-54q-34-12-63-12-43 0-68.5 24t-25.5 58q0 37 25 62.5t68 32.5l-20 68q-49-84-155-84-159 0-159 192v317z" glyph-name="uogonek" horiz-adv-x="536" unicode="&#x173;"/><glyph d="M251 259l-241 409h103l185-323 184 323h103l-240-409v-259h-94v259zM192 740q-22 0-38 16t-16 38 16 37.5 38 15.5 38-15.5 16-37.5-16-38-38-16zM403 740q-22 0-37.5 16t-15.5 38 15.5 37.5 37.5 15.5 38-15.5 16-37.5-15.5-38-38.5-16z" glyph-name="Ydieresis" horiz-adv-x="595" unicode="&#x178;"/><glyph d="M44 0v81l394 506h-379v81h489v-81l-392-506h407v-81h-519zM314 744h-76q1 1 26 27t49 50.5 32 30.5q13 12 29 12 15 0 25.5-10.5t10.5-25.5q0-19-16-32-8-7-26-18.5t-35.5-22.5-18.5-11z" glyph-name="Zacute" horiz-adv-x="607" unicode="&#x179;"/><glyph d="M430 0h-390v74l285 348h-276v74h371v-74l-285-348h295v-74zM274 570h-70q2 2 23.5 30.5t43 56.5 29.5 36q10 13 28 13 16 0 26-10 12-10 12-28 0-15-13-28-14-16-79-70z" glyph-name="zacute" horiz-adv-x="460" unicode="&#x17a;"/><glyph d="M44 0v81l394 506h-379v81h489v-81l-392-506h407v-81h-519zM250 799q0 23 16 38.5t38 15.5 38-15.5 16-38.5-16-38.5-38-15.5-38 15.5-16 38.5z" glyph-name="Zdotaccent" horiz-adv-x="607" unicode="&#x17b;"/><glyph d="M40 0v74l285 348h-276v74h371v-74l-285-348h295v-74h-390zM176 644q0 22 16 38t38 16 38-16 16-38-16-38-38-16-38 16-16 38z" glyph-name="zdotaccent" horiz-adv-x="460" unicode="&#x17c;"/><glyph d="M44 0v81l394 506h-379v81h489v-81l-392-506h407v-81h-519zM142 861h94l67-61 68 61h94l-112-101q-20-19-49-19-30 0-50 19z" glyph-name="Zcaron" horiz-adv-x="607" unicode="&#x17d;"/><glyph d="M40 0v74l285 348h-276v74h371v-74l-285-348h295v-74h-390zM69 689h94l67-61 68 61h94l-112-101q-20-19-49-19-30 0-50 19z" glyph-name="zcaron" horiz-adv-x="460" unicode="&#x17e;"/><glyph d="M25-90q15-3 26-3 58 0 58 69v453h-84v67h84v74q0 79 26 107.5t107 28.5h54v-71h-52q-32 0-41.5-12.5t-9.5-51.5v-75h103v-67h-103v-456q0-146-113-146-26 0-55 8v75z" glyph-name="florin" horiz-adv-x="321" unicode="&#x192;"/><glyph d="M40 146l87 26q16-51 65-78t108-27q65 0 111 31t46 88q0 45-38 71t-133 45q-30 6-46.5 10t-45.5 13-46.5 18-39 24.5-33.5 33.5-20.5 43.5-8.5 56.5q0 81 73.5 130t171.5 49q75 0 138.5-31.5t93.5-93.5l-86-25q-19 34-60.5 52.5t-89.5 18.5q-59 0-101.5-27t-42.5-77q0-22 10-39t23-27 40-19.5 45-14 54-11.5q43-9 70.5-17t63.5-24 56.5-36 35.5-52.5 15-74.5q0-89-77.5-141.5t-182.5-52.5q-88 0-159.5 40.5t-96.5 117.5zM252-250l-40 34q94 0 94 69 0 47-50 65l60 26q56-29 56-87 0-47-33.5-77t-86.5-30z" glyph-name="uni0218" horiz-adv-x="596" unicode="&#x218;"/><glyph d="M31 112l81 30q11-42 46.5-62.5t80.5-20.5q46 0 81.5 21t35.5 53q0 37-32.5 56.5t-78.5 28-92.5 20-79 43-32.5 86.5q0 63 57 100.5t134 37.5q62 0 113.5-26t72.5-75l-79-29q-12 29-43.5 44t-69.5 15q-41 0-70.5-17.5t-29.5-48.5q0-33 32.5-49.5t79-24 92.5-19.5 78.5-46.5 32.5-92.5q0-67-60-107.5t-142-40.5q-69 0-126.5 31.5t-81.5 92.5zM190-250l-40 34q94 0 94 69 0 47-50 65l60 26q56-29 56-87 0-47-33.5-77t-86.5-30z" glyph-name="uni0219" horiz-adv-x="471" unicode="&#x219;"/><glyph d="M232 0v587h-222v81h538v-81h-222v-587h-94zM226-250l-40 34q94 0 94 69 0 47-50 65l60 26q56-29 56-87 0-47-33.5-77t-86.5-30z" glyph-name="uni021A" horiz-adv-x="558" unicode="&#x21a;"/><glyph d="M284 0h-63q-72 0-94.5 23.5t-22.5 100.5v305h-84v67h84v125h84v-125h96v-67h-96v-291q0-40 8.5-52t42.5-12h45v-74zM116-250l-40 34q94 0 94 69 0 47-50 65l60 26q56-29 56-87 0-47-33.5-77t-86.5-30z" glyph-name="uni021B" horiz-adv-x="324" unicode="&#x21b;"/><glyph d="M53 575l112 101q20 19 50 19 29 0 49-19l112-101h-94l-68 61-67-61h-94z" glyph-name="circumflex" horiz-adv-x="429" unicode="&#x2c6;"/><glyph d="M165 588l-112 101h94l67-61 68 61h94l-112-101q-20-19-49-19-30 0-50 19z" glyph-name="caron" horiz-adv-x="429" unicode="&#x2c7;"/><glyph d="M53 601v67h276v-67h-276z" glyph-name="uni02C9" horiz-adv-x="382" unicode="&#x2c9;"/><glyph d="M278 689h69q-11-51-52-85.5t-95-34.5-95 34-52 86h69q9-24 30-38.5t48-14.5q26 0 47 14.5t31 38.5z" glyph-name="breve" horiz-adv-x="399" unicode="&#x2d8;"/><glyph d="M53 644q0 22 15.5 38t38.5 16 38.5-16 15.5-38-15.5-38-38.5-16-38.5 16-15.5 38z" glyph-name="dotaccent" horiz-adv-x="214" unicode="&#x2d9;"/><glyph d="M126 559q-46 0-78.5 32t-32.5 77 32.5 77 78.5 32q45 0 76-32t31-77-31-77-76-32zM72 668q0-21 15-36t37-15 37 15 15 36-15 36-37 15-37-15-15-36z" glyph-name="ring" horiz-adv-x="253" unicode="&#x2da;"/><glyph d="M53-91q0 31 22 56.5t58 34.5h77q-87-32-87-75 0-40 49-40 21 0 38 8v-54q-34-12-63-12-43 0-68.5 24t-25.5 58z" glyph-name="ogonek" horiz-adv-x="263" unicode="&#x2db;"/><glyph d="M118 577h-65q18 104 106 104 30 0 67.5-21.5t56.5-21.5q25 0 39 23 11 19 29 19 12 0 21.5-9t9.5-22q0-21-27.5-47.5t-69.5-26.5q-29 0-68 21.5t-57 21.5q-37 0-42-41z" glyph-name="tilde" horiz-adv-x="435" unicode="&#x2dc;"/><glyph d="M123 572h-70l16 22 80 101q10 13 28 13 16 0 27-11t11-27q0-17-11-27zM199 572l16 22 80 101q10 13 28 13 15 0 26.5-11.5t11.5-26.5q0-17-11-27l-81-71h-70z" glyph-name="hungarumlaut" horiz-adv-x="414" unicode="&#x2dd;"/><glyph d="M94-250l-40 34q94 0 94 69 0 47-50 65l60 26q56-29 56-87 0-47-33.5-77t-86.5-30z" glyph-name="uni0326" horiz-adv-x="280" unicode="&#x326;"/><glyph d="M53 0l326 680 327-680h-653zM178 78h402l-201 420z" glyph-name="uni0394" horiz-adv-x="759" unicode="&#x394;"/><glyph d="M201 130q-69 38-110 106t-41 149q0 122 86 208.5t207 86.5q122 0 208-86.5t86-208.5q0-81-41-149t-110-106v-49h151v-81h-236v173q71 19 117 78t46 134q0 91-65 156t-156 65-155.5-65-64.5-156q0-75 46-134t117-78v-173h-236v81h151v49z" glyph-name="uni03A9" horiz-adv-x="687" unicode="&#x3a9;"/><glyph d="M70 497h84v-306q0-61 22-95t82-34 93 41.5 33 120.5v273h84v-497h-63l-21 72q-25-43-52-63.5t-78-20.5q-60 0-100 53v-203h-84v659z" glyph-name="uni03BC" horiz-adv-x="538" unicode="&#x3bc;"/><glyph d="M20 414v82h531v-82h-84v-275q0-41 8.5-53t42.5-12h33v-74h-51q-72 0-94.5 23.5t-22.5 100.5v290h-198v-414h-81v414h-84z" glyph-name="pi" horiz-adv-x="591" unicode="&#x3c0;"/><glyph d="M41 208v79h398v-79h-398z" glyph-name="endash" horiz-adv-x="480" unicode="&#x2013;"/><glyph d="M41 208v79h718v-79h-718z" glyph-name="emdash" horiz-adv-x="800" unicode="&#x2014;"/><glyph d="M53 482q0 12 5 25l62 161h55l-47-122q23-4 38.5-22t15.5-42q0-27-19-45.5t-45-18.5q-27 0-46 19t-19 45z" glyph-name="quoteleft" horiz-adv-x="235" unicode="&#x2018;"/><glyph d="M107 552q-23 4-38.5 21.5t-15.5 41.5q0 27 19 46t45 19q27 0 46-19t19-45q0-12-5-25l-62-162h-55z" glyph-name="quoteright" horiz-adv-x="235" unicode="&#x2019;"/><glyph d="M107-11q-23 4-38.5 21.5t-15.5 41.5q0 27 19 46t45 19q27 0 46-19t19-45q0-12-5-25l-62-162h-55z" glyph-name="quotesinglbase" horiz-adv-x="235" unicode="&#x201a;"/><glyph d="M216 482q0 12 5 25l62 161h55l-46-122q23-4 38-22t15-42q0-27-19-45.5t-45-18.5q-27 0-46 19t-19 45zM53 482q0 12 5 25l62 161h55l-47-122q23-4 38.5-22t15.5-42q0-27-19-45.5t-45-18.5q-27 0-46 19t-19 45z" glyph-name="quotedblleft" horiz-adv-x="398" unicode="&#x201c;"/><glyph d="M270 552q-23 4-38.5 21.5t-15.5 41.5q0 27 19 46t46 19 45.5-19 18.5-45q0-12-5-25l-61-162h-56zM107 552q-23 4-38.5 21.5t-15.5 41.5q0 27 19 46t45 19q27 0 46-19t19-45q0-12-5-25l-62-162h-55z" glyph-name="quotedblright" horiz-adv-x="398" unicode="&#x201d;"/><glyph d="M270-11q-23 4-38.5 21.5t-15.5 41.5q0 27 19 46t46 19 45.5-19 18.5-45q0-12-5-25l-61-162h-56zM107-11q-23 4-38.5 21.5t-15.5 41.5q0 27 19 46t45 19q27 0 46-19t19-45q0-12-5-25l-62-162h-55z" glyph-name="quotedblbase" horiz-adv-x="398" unicode="&#x201e;"/><glyph d="M40 496h190v172h81v-172h190v-80h-190v-416h-81v416h-190v80z" glyph-name="dagger" horiz-adv-x="541" unicode="&#x2020;"/><glyph d="M40 251h190v165h-190v80h190v172h81v-172h190v-80h-190v-165h190v-79h-190v-172h-81v172h-190v79z" glyph-name="daggerdbl" horiz-adv-x="541" unicode="&#x2021;"/><glyph d="M53 254q0 69 48.5 117.5t117.5 48.5 117.5-48.5 48.5-117.5q0-68-48.5-117t-117.5-49-117.5 49-48.5 117z" glyph-name="bullet" horiz-adv-x="438" unicode="&#x2022;"/><glyph d="M284 52q0 27 18.5 46t45.5 19 46-19 19-46q0-26-19-45t-46-19-45.5 19-18.5 45zM514 52q0 27 19 46t46 19q26 0 45-19t19-46q0-26-19-45t-45-19q-27 0-46 19t-19 45zM117-12q-26 0-45 19t-19 45q0 27 19 46t45 19q27 0 46-19t19-46q0-26-19-45t-46-19z" glyph-name="ellipsis" horiz-adv-x="696" unicode="&#x2026;"/><glyph d="M220 316q-76 0-129 53.5t-53 128.5 53 128.5 129 53.5q75 0 128-53.5t53-128.5-53-128.5-128-53.5zM526 169q0 76 53 129t129 53q75 0 128-53t53-129q0-75-53-128t-128-53q-76 0-129 53t-53 128zM927 169q0 76 53 129t129 53q75 0 128-53t53-129q0-75-53-128t-128-53q-76 0-129 53t-53 128zM274 0h-88l468 668h88zM1109 277q-45 0-76.5-31.5t-31.5-76.5q0-44 31.5-75.5t76.5-31.5q44 0 75.5 31.5t31.5 75.5q0 45-31.5 76.5t-75.5 31.5zM708 277q-45 0-76.5-31.5t-31.5-76.5q0-44 31.5-75.5t76.5-31.5q44 0 75.5 31.5t31.5 75.5q0 45-31.5 76.5t-75.5 31.5zM220 605q-44 0-76-31.5t-32-75.5 32-75.5 76-31.5 75.5 31.5 31.5 75.5-31.5 75.5-75.5 31.5z" glyph-name="perthousand" horiz-adv-x="1328" unicode="&#x2030;"/><glyph d="M201 40l-148 210 148 211h99l-149-211 149-210h-99z" glyph-name="guilsinglleft" horiz-adv-x="353" unicode="&#x2039;"/><glyph d="M53 40l149 210-149 211h100l147-211-147-210h-100z" glyph-name="guilsinglright" horiz-adv-x="353" unicode="&#x203a;"/><glyph d="M15 0l468 668h88l-468-668h-88z" glyph-name="fraction" horiz-adv-x="586" unicode="&#x2044;"/><glyph d="M100 377h-85l28 51h63q22 117 96.5 184.5t184.5 67.5q78 0 140.5-40t95.5-112l-78-28q-47 101-163 101-67 0-117-45t-68-128h249l-28-51h-229q-1-13-1-43 0-29 1-43h182l-28-51h-146q19-82 69-127.5t119-45.5q116 0 164 100l77-28q-33-73-97.5-112t-148.5-39q-110 0-181.5 68t-92.5 184h-91l28 51h57q-1 14-1 43t1 43z" glyph-name="Euro" horiz-adv-x="664" unicode="&#x20ac;"/><glyph d="M53 138v89l66 51v229q0 173 145 173 62 0 96-39t34-103q0-84-45.5-149t-144.5-138v-100q0-90 67-90 45 0 89 39l37-58q-60-54-136-54t-109 39.5-33 128.5v32zM204 518v-174q108 76 108 191 0 75-53 75-30 0-42.5-20t-12.5-72z" glyph-name="uni2113" horiz-adv-x="450" unicode="&#x2113;"/><glyph d="M393 668h108l93-284 93 284h108v-376h-67v279l-98-279h-72l-98 279v-279h-67v376zM53 608v60h303v-60h-118v-316h-67v316h-118z" glyph-name="trademark" horiz-adv-x="848" unicode="&#x2122;"/><glyph d="M311-12q-47 0-92 17.5t-82.5 50-60.5 84.5-23 116q0 94 74 171t184 77q106 0 181.5-75t76.5-181h-410v-170q64-58 152-58 103 0 170 77l33-10q-78-99-203-99zM311 472q-88 0-152-59v-134h304v134q-64 59-152 59z" glyph-name="estimated" horiz-adv-x="622" unicode="&#x212e;"/><glyph d="M53 246q0 126 71 192t167 66q36 0 73-13t59-41q-15 46-41.5 77t-65 46.5-79.5 20.5-95 4v82q127 0 196-28 192-76 192-375 0-5-.5-15t-.5-16q-2-68-23-119.5t-55.5-81-74.5-43.5-85-14q-96 0-167 66t-71 192zM291 430q-60 0-104.5-47t-44.5-137 44.5-137.5 104.5-47.5 104 47.5 44 137.5-44 137-104 47z" glyph-name="partialdiff" horiz-adv-x="582" unicode="&#x2202;"/><glyph d="M53 668h479v-829h-82v748h-316v-748h-81v829z" glyph-name="product" horiz-adv-x="585" unicode="&#x220f;"/><glyph d="M53 668h481v-81h-380l245-333-245-334h380v-81h-481v81l246 334-246 333v81z" glyph-name="summation" horiz-adv-x="587" unicode="&#x2211;"/><glyph d="M53 209v79h496v-79h-496z" glyph-name="minus" horiz-adv-x="602" unicode="&#x2212;"/><glyph d="M15 0l468 669h100l-468-669h-100z" glyph-name="uni2215" horiz-adv-x="598" unicode="&#x2215;"/><glyph d="M53 255q0 12 5 25 18 40 60 40 11 0 24-5 40-18 40-59 0-12-5-25-18-40-59-40-29 0-47 19.5t-18 44.5z" glyph-name="uni2219" horiz-adv-x="235" unicode="&#x2219;"/><glyph d="M279-161l-120 306h-106v80h162l103-262 123 706h88l-151-830h-99z" glyph-name="radical" horiz-adv-x="582" unicode="&#x221a;"/><glyph d="M53 256q0 66 46 108t120 42q87 0 168-89 80 89 167 89 74 0 120-42t46-108q0-67-44.5-109.5t-115.5-42.5q-88 0-173 94-86-94-174-94-71 0-115.5 42.5t-44.5 109.5zM134 256q0-32 23.5-54t59.5-22q32 0 60 17t62 59q-31 37-58 55.5t-61 18.5q-37 0-61.5-20.5t-24.5-53.5zM435 256q34-42 61.5-59t59.5-17q36 0 59.5 22t23.5 54q0 33-24.5 53.5t-61.5 20.5q-33 0-60-18.5t-58-55.5z" glyph-name="infinity" horiz-adv-x="773" unicode="&#x221e;"/><glyph d="M53-111q0 20 14.5 35t35.5 15 35-15 14-36q0-10-2-15h4t8.5 5 11.5 13.5 9 29 4 48.5v495q0 217 133 217 85 0 85-62 0-21-14.5-35.5t-35.5-14.5-35.5 15-14.5 35q0 9 3 16h-4t-8.5-5-11.5-13.5-9-29-4-49.5v-494q0-217-133-217-85 0-85 62z" glyph-name="integral" horiz-adv-x="458" unicode="&#x222b;"/><glyph d="M53 309q12 47 48.5 74.5t90.5 27.5q45 0 111.5-27.5t88.5-27.5q23 0 40 13.5t22 37.5l74-22q-11-47-47.5-74.5t-88.5-27.5q-38 0-104.5 27t-95.5 27q-55 0-64-50zM53 123q11 47 47.5 74.5t89.5 27.5q45 0 111.5-27.5t89.5-27.5q24 0 41 13t22 38l74-22q-11-47-47.5-74.5t-88.5-27.5q-38 0-104.5 27t-95.5 27q-55 0-64-50z" glyph-name="approxequal" horiz-adv-x="581" unicode="&#x2248;"/><glyph d="M292 307h-239v80h295l77 109h99l-76-109h101v-80h-157l-75-107h232v-79h-287l-85-121h-100l85 121h-109v79h165z" glyph-name="notequal" horiz-adv-x="602" unicode="&#x2260;"/><glyph d="M53 337l473 168v-91l-368-112 368-112v-90l-473 167v70zM526 0h-473v80h473v-80z" glyph-name="lessequal" horiz-adv-x="579" unicode="&#x2264;"/><glyph d="M421 302l-368 112v91l473-168v-70l-473-167v90zM53 0v80h473v-80h-473z" glyph-name="greaterequal" horiz-adv-x="579" unicode="&#x2265;"/><glyph d="M281-73l-228 388 228 388 227-388zM281 76l140 239-140 239-141-239z" glyph-name="lozenge" horiz-adv-x="561" unicode="&#x25ca;"/><glyph glyph-name="NULL" horiz-adv-x="0"/><glyph d="M-4 796q-16 14-16 32 0 15 10.5 25.5t25.5 10.5q19 0 31-13l106-107h-76q-1 1-18.5 11.5t-36 22-26.5 18.5z" glyph-name="grave.case" horiz-adv-x="203"/><glyph d="M120 744h-76q1 1 26 27t49 50.5 32 30.5q13 12 29 12 15 0 25.5-10.5t10.5-25.5q0-19-16-32-8-7-26-18.5t-35.5-22.5-18.5-11z" glyph-name="acute.case" horiz-adv-x="153"/><glyph d="M1 747l112 101q20 19 50 19 29 0 49-19l112-101h-94l-68 61-67-61h-94z" glyph-name="circumflex.case" horiz-adv-x="325"/><glyph d="M3 794q0 22 16 37.5t38 15.5 38-15.5 16-37.5-15.5-38-38.5-16-38.5 16-15.5 38zM215 794q0 22 15.5 37.5t37.5 15.5 38-15.5 16-37.5-16-38-38-16-37.5 16-15.5 38z" glyph-name="dieresis.case" horiz-adv-x="325"/><glyph d="M113 760l-112 101h94l67-61 68 61h94l-112-101q-20-19-49-19-30 0-50 19z" glyph-name="caron.case" horiz-adv-x="325"/><glyph d="M165 620q-46 0-78.5 32t-32.5 77 32.5 77 78.5 32q45 0 76-32t31-77-31-77-76-32zM111 729q0-21 15-36t37-15 37 15 15 36-15 36-37 15-37-15-15-36z" glyph-name="ring.case" horiz-adv-x="325"/><glyph d="M25 762v67h276v-67h-276z" glyph-name="macron.case" horiz-adv-x="325"/><glyph d="M241 861h69q-11-51-52-85.5t-95-34.5-95 34-52 86h69q9-24 30-38.5t48-14.5q26 0 47 14.5t31 38.5z" glyph-name="breve.case" horiz-adv-x="325"/><glyph d="M109 816q0 22 15.5 38t38.5 16 38.5-16 15.5-38-15.5-38-38.5-16-38.5 16-15.5 38z" glyph-name="dotaccent.case" horiz-adv-x="325"/><glyph d="M63 749h-65q18 104 106 104 30 0 67.5-21.5t56.5-21.5q25 0 39 23 11 19 29 19 12 0 21.5-9t9.5-22q0-21-27.5-47.5t-69.5-26.5q-30 0-69 21.5t-56 21.5q-37 0-42-41z" glyph-name="tilde.case" horiz-adv-x="325"/><glyph d="M79 744h-70l16 22 80 101q10 13 28 13 16 0 27-11t11-27q0-17-11-27zM155 744l16 22 80 101q10 13 28 13 15 0 26.5-11.5t11.5-26.5q0-17-11-27l-81-71h-70z" glyph-name="hungarumlaut.case" horiz-adv-x="325"/><glyph d="M320-12q-129 0-196.5 89.5t-67.5 257.5q0 167 67.5 256t196.5 89 196.5-89 67.5-256q0-168-67.5-257.5t-196.5-89.5zM147 335q0-273 173-273 69 0 111 45l-264 379q-20-59-20-151zM320 606q-65 0-107-40l263-376q17 60 17 145 0 271-173 271z" glyph-name="zero.tf" horiz-adv-x="639"/><glyph d="M109 77h178v427h-178v67q82 0 133.5 20t71.5 77h56v-591h160v-77h-421v77z" glyph-name="one.tf" horiz-adv-x="639"/><glyph d="M560 0h-481v75q192 142 283 239t91 180q0 53-33.5 84.5t-91.5 31.5q-52 0-90.5-27.5t-49.5-84.5l-84 24q18 73 78 115.5t148 42.5q95 0 153.5-46.5t58.5-128.5q0-56-27-112t-79.5-111-108-101-135.5-104h368v-77z" glyph-name="two.tf" horiz-adv-x="639"/><glyph d="M84 151l83 24q12-55 49-86t99-31q68 0 109.5 34t41.5 95q0 127-206 127v76q36 0 62.5 3t59 13 50 34 17.5 61q0 52-37 80.5t-93 28.5q-60 0-96.5-30.5t-46.5-81.5l-82 24q18 73 77.5 115.5t149.5 42.5q95 0 155.5-41.5t60.5-128.5q0-51-28.5-92t-80.5-63q128-40 128-167 0-96-70-148t-172-52q-96 0-153.5 45t-76.5 118z" glyph-name="three.tf" horiz-adv-x="639"/><glyph d="M51 165v79l331 424h85v-424h122v-79h-122v-165h-84v165h-332zM142 244h241v309z" glyph-name="four.tf" horiz-adv-x="639"/><glyph d="M86 151l82 24q26-117 148-117 63 0 106 43.5t43 117.5q0 78-45 118.5t-105 40.5q-48 0-82.5-23t-46.5-51l-82 24 41 340h383v-81h-315l-23-187q51 50 144 50 92 0 155.5-62t63.5-168q0-109-69-170.5t-168-61.5q-96 0-153 45t-77 118z" glyph-name="five.tf" horiz-adv-x="639"/><glyph d="M324-12q-243 0-243 322 0 74 14 138t43.5 117.5 81.5 84 122 30.5q136 0 188-107l-85-25q-32 62-113 62-76 0-118.5-69.5t-45.5-188.5q54 93 176 93 94 0 154.5-63.5t60.5-163.5q0-96-65.5-163t-169.5-67zM178 215q0-70 40-113t106-43 105.5 43.5 39.5 112.5-39.5 112.5-105.5 43.5-106-43-40-113z" glyph-name="six.tf" horiz-adv-x="639"/><glyph d="M167 0l290 587h-368v81h461v-81l-278-587h-105z" glyph-name="seven.tf" horiz-adv-x="639"/><glyph d="M72 188q0 63 33 109t90 69q-57 54-57 133 0 75 53 128t128 53q76 0 129-53t53-128q0-79-57-133 57-23 90-69t33-109q0-93-70-146.5t-178-53.5-177.5 53.5-69.5 146.5zM163 188q0-58 42-92t114-34 114.5 34 42.5 92q0 59-42.5 94t-114.5 35q-71 0-113.5-35t-42.5-94zM212 500q0-46 31.5-77.5t75.5-31.5 75.5 31.5 31.5 77.5q0 44-31.5 75t-75.5 31-75.5-31-31.5-75z" glyph-name="eight.tf" horiz-adv-x="639"/><glyph d="M320 201q-98 0-168.5 70.5t-70.5 169.5 69.5 168.5 169.5 69.5 169.5-69.5 69.5-170.5q0-46-18-91-13-33-74-140.5t-129-207.5h-104q84 116 139 207-25-6-53-6zM320 594q-64 0-108.5-45t-44.5-108q0-64 44.5-109t108.5-45 109.5 45 45.5 109q0 63-45.5 108t-109.5 45z" glyph-name="nine.tf" horiz-adv-x="639"/><glyph d="M53-91q0 60 57 91h100q-45-16-66-33t-21-41q0-41 49-41 21 0 38 8v-54q-34-12-63-12-43 0-68.5 24t-25.5 58z" glyph-name="ogonek.case" horiz-adv-x="263"/><glyph d="M102 495h-49q21 136 26 154 2 10 11.5 19.5t24.5 9.5q19 0 30.5-14t6.5-35z" glyph-name="caron.salt" horiz-adv-x="206"/></font>
</defs>
</svg>
